<svg xmlns="http://www.w3.org/2000/svg" xmlns:xlink="http://www.w3.org/1999/xlink" viewBox="0 0 439.05 429.62"><defs><style>.cls-1{fill:url(#linear-gradient);}</style><linearGradient id="linear-gradient" y1="214.81" x2="439.05" y2="214.81" gradientUnits="userSpaceOnUse"><stop offset="0" stop-color="#fffcd7"/><stop offset="0.04" stop-color="#fff8b4"/><stop offset="0.1" stop-color="#fff28a"/><stop offset="0.16" stop-color="#ffee65"/><stop offset="0.23" stop-color="#ffea45"/><stop offset="0.3" stop-color="#ffe72c"/><stop offset="0.38" stop-color="#ffe418"/><stop offset="0.47" stop-color="#ffe20a"/><stop offset="0.58" stop-color="#ffe102"/><stop offset="0.78" stop-color="#ffe100"/></linearGradient></defs><g id="Layer_2" data-name="Layer 2"><g id="Layer_1-2" data-name="Layer 1"><path id="copied" class="cls-1" d="M439.05,214.81c0,16.34-13.51,30.95-17,46.24-3.59,15.79,2.16,34.79-4.72,49-7,14.48-25.49,21.8-35.42,34.23s-13,32.16-25.53,42.14S324.14,395,309.66,402c-14.24,6.87-25.49,23.29-41.28,26.88-15.29,3.47-32.51-6.36-48.85-6.36s-33.57,9.83-48.86,6.36c-15.79-3.59-27-20-41.28-26.88-14.48-7-34.31-5.62-46.74-15.55S67.1,356.81,57.12,344.31,28.68,324.56,21.7,310.08c-6.88-14.24-1.13-33.24-4.72-49-3.47-15.29-17-29.9-17-46.24s13.51-30.95,17-46.24c3.59-15.78-2.16-34.79,4.72-49,7-14.48,25.49-21.8,35.42-34.23s13-32.16,25.53-42.14,32.26-8.56,46.74-15.54c14.24-6.88,25.49-23.3,41.28-26.89C186-2.73,203.18,7.1,219.53,7.1S253.09-2.73,268.38.74c15.79,3.59,27,20,41.28,26.89,14.48,7,34.31,5.61,46.74,15.54S372,72.81,381.93,85.31s28.44,19.75,35.42,34.23c6.88,14.24,1.13,33.25,4.72,49C425.54,183.86,439.05,198.47,439.05,214.81Z"/><path d="M123.73,242.15c.23,5.25,3.14,9.2,8.83,7.51,4.49-1.33,7.94-5.63,7.73-10.27-.09-2.22-1.48-3.75-3.77-3.07a5.92,5.92,0,0,0-3.84,6.86A5.83,5.83,0,0,1,129,238c-.18-4,3.37-8.46,7.26-9.61,4.59-1.37,7.3,2.64,7.48,6.78.53,12.11-8.67,28-21.35,31.79-9.08,2.69-15.63-3.65-16-12.43-.39-9,3.43-18.5,8.21-27.18-6.21-.82-11.85-5.07-12.17-12.14a15.11,15.11,0,0,1,10.76-15.15c6-1.78,11.76.7,13.91,5.79a11.26,11.26,0,0,0-6.88-.1c-4.79,1.42-9.11,6.79-8.88,11.83a7.77,7.77,0,0,0,4.76,7.18c7.27-11.77,21.26-29.21,34-33,4.19-1.24,7.7.27,7.89,4.71.61,13.93-20.19,28.18-31.8,30.91A42.56,42.56,0,0,0,123.73,242.15ZM127,224.22l1.1-.33c7.38-2.19,18.83-13.15,18.47-21.33-.09-2.12-.89-4.23-3.49-3.46C136.08,201.17,129.33,217.69,127,224.22Z"/><path d="M147.3,249.17c-.43-9.79,9.78-26,19.86-29,5.29-1.57,7.19,2.57,7.39,7.22a27.44,27.44,0,0,1-2,10.4l.5-.15c2.9-.86,5.15-4.9,6.34-7.61l1.43.4c-1.75,3.89-4.67,8.64-9,9.31-2.94,6.8-8.54,15-15.63,17.11C150.54,258.54,147.53,254.42,147.3,249.17Zm20.26-26.76c-6.09,1.8-11,11.14-10.79,16.79.13,2.83,1.43,5,4.63,4.05,2.59-.77,4.91-3.2,6.32-5.76A6.56,6.56,0,0,1,165.8,233c-.14-3,2.1-7.37,5.07-8.87C170.59,222.43,169.15,221.93,167.56,222.41Z"/><path d="M202.81,210c2.89-.86,5.27.17,5.4,3.2.24,5.55-7.52,10.72-7.34,14.85.08,1.82,1.24,2.81,3.14,2.25,3.89-1.16,7.1-6.3,8.85-10.2l1.43.4c-3.7,7.74-10.85,22.23-19.53,24.81-3.3,1-6-.58-6.14-4-.34-7.67,10.9-14.17,10.65-19.92-.08-1.62-.92-2.39-2.62-1.89-4.09,1.22-8.82,13.05-10.07,16.89l-10,31.28-9.28,2.75,18.86-54,7-2.08L189.61,225C192.11,219.52,197,211.72,202.81,210Z"/><path d="M228.33,204c-1.44,4.11-5.82,14.71-5.67,18.25a1.54,1.54,0,0,0,2.09,1.52c2.6-.77,5.91-5.84,7.48-9.37l1.43.39C231.17,220.2,222,237.24,216.12,239c-2.6.77-5.07-.33-5.23-4a23.79,23.79,0,0,1,1.75-8.49l6.91-19.94Zm-2.22-15.91c3.1-.91,5.81.94,5.94,4.07a7.83,7.83,0,0,1-5.44,7.34c-3.09.92-5.7-.87-5.83-4A7.84,7.84,0,0,1,226.11,188.06Z"/><path d="M231.5,225.52c-.45-10.29,9.94-27,20.52-30.11,2.59-.77,4.55.08,4.68,2.91.3,6.86-9.66,14.93-15.52,17.28.12,2.72,2.2,4.05,4.89,3.25,6.79-2,10.6-7.23,13-12.45l1.43.4c-3.71,7.74-11.25,22.35-20.83,25.2C234.39,233.56,231.73,230.57,231.5,225.52Zm18.34-24.35c0-1.11-.3-2.27-1.69-1.85-4,1.18-7.31,10.86-7.06,14.36C245.05,211.69,250,205.61,249.84,201.17Z"/><path d="M286.43,200.74a6.71,6.71,0,0,0-.29,2.65,1.58,1.58,0,0,0,2.09,1.52c3-.89,6.39-6.59,7.58-9.4l1.43.39c-2.5,5.24-11.05,22.3-17.34,24.16-2.89.86-4.18-.8-4.3-3.42a23.12,23.12,0,0,1,1.1-7.28l-.21-.05c-2,5.1-6.77,13.77-12.16,15.37-4.09,1.22-6.24-1.72-6.41-5.56-.5-11.3,10.4-27.83,19.48-30.52,2.4-.71,4.24-.14,4.65,2.3l8.9-25.24,8.69-2.58Zm-8.22-9.83c-5,1.48-9.37,12.19-9.18,16.53.06,1.41,1,3.19,2.65,2.69,5-1.48,9.16-12.43,9-16.77C280.58,192,279.81,190.44,278.21,190.91Z"/><path d="M311.86,204.24a8.91,8.91,0,0,1-6.1,8.36c-3.49,1-6.52-1-6.67-4.57a8.89,8.89,0,0,1,6.1-8.35C308.69,198.64,311.71,200.71,311.86,204.24Zm-2.7-8.7c4.89-15.26,21.81-37.25,21.2-51.28-.16-3.54-2-6.36-5.9-5.21-3.69,1.1-6.73,5.48-9,12.37-4.71,14.59-3.45,29.45-7.66,44Z"/><polygon points="211.43 36.47 217.37 48.49 230.63 50.42 221.03 59.78 223.3 72.99 211.43 66.75 199.57 72.99 201.83 59.78 192.23 50.42 205.5 48.49 211.43 36.47"/><g id="email"><path d="M256.91,73.27c2.28.63,3.59.32,3.95-1a4.82,4.82,0,0,0-.66-3.08,41.76,41.76,0,0,0-3.58-5.72q-1.8-2.54-2.76-4c-.63-1-1.22-2-1.76-3a9.43,9.43,0,0,1-1-2.68A5.27,5.27,0,0,1,254.63,48a11,11,0,0,1,6.41.18c1,.27,2.5.77,4.49,1.48s3.36,1.17,4.09,1.37a13.68,13.68,0,0,0,3.7.63,1.31,1.31,0,0,1,1.1.44,1,1,0,0,1,.23,1,1.46,1.46,0,0,1-.67.81q-1.86.86-2.86,4.5a22.13,22.13,0,0,0-.7,4,.93.93,0,0,1-.8.89,1.07,1.07,0,0,1-1.2-.53,1.83,1.83,0,0,1-.26-.95,12.87,12.87,0,0,0-1.57-6.29,8.77,8.77,0,0,0-2.52-2.67,12,12,0,0,0-3.43-1.5,10.06,10.06,0,0,0-2.24-.39,3.69,3.69,0,0,0-1.82.36,2,2,0,0,0-1.07,1.33,2.06,2.06,0,0,0,.11,1.58,4.2,4.2,0,0,0,1.27,1.32c.62.44,1.29.9,2,1.38A18.93,18.93,0,0,1,261.49,59a20.64,20.64,0,0,1,2.72,3.24q5.54,8.17,4.47,12a5.19,5.19,0,0,1-.71,1.61A3.87,3.87,0,0,1,266.64,77a5.45,5.45,0,0,1-2.13.59,15.5,15.5,0,0,1-3.14-.14,34.27,34.27,0,0,1-4.36-.93c-.92-.26-2.3-.72-4.16-1.39S249.73,74,249,73.84a13.62,13.62,0,0,0-3.7-.63,1.29,1.29,0,0,1-1.1-.44,1,1,0,0,1-.22-1,1.4,1.4,0,0,1,.66-.81c1.24-.57,2.23-2.21,3-4.9a23.21,23.21,0,0,0,.76-4.17.92.92,0,0,1,.8-.89,1.07,1.07,0,0,1,1.2.52,1.83,1.83,0,0,1,.26.95,16.2,16.2,0,0,0,1.52,6.5,10.47,10.47,0,0,0,2,2.85A6.34,6.34,0,0,0,256.91,73.27Z"/><path d="M297.79,53.37l.46.26a5.41,5.41,0,0,1,2.11,1.83,1.88,1.88,0,0,1-.08,1.95,47.82,47.82,0,0,1-3,4.53,30.88,30.88,0,0,1-3.39,4c-.46.46-.59.85-.37,1.19s.62.36,1.19.09a13.11,13.11,0,0,1,6.43-1.18,16.62,16.62,0,0,1,7.19,2.32,9.11,9.11,0,0,1,2.23,1.72A7.14,7.14,0,0,1,312,72.29a5.34,5.34,0,0,1,.36,2.67,7.84,7.84,0,0,1-1,3,30.3,30.3,0,0,1-3.09,3.9A36.22,36.22,0,0,0,304.43,87a19.4,19.4,0,0,0-1.2,2.64,9.46,9.46,0,0,0-.51,2.06,4.51,4.51,0,0,0,.14,1.75,7,7,0,0,0,.63,1.55,13.44,13.44,0,0,0,1.07,1.6,1.3,1.3,0,0,1,.25,1.11.94.94,0,0,1-.67.7,1.09,1.09,0,0,1-1-.23,50.91,50.91,0,0,0-6.26-4.24,45.17,45.17,0,0,0-6.14-2.79,1.09,1.09,0,0,1-.71-.75.93.93,0,0,1,.25-.93,1.27,1.27,0,0,1,1.08-.35,11.49,11.49,0,0,0,1.91,0,5.42,5.42,0,0,0,1.65-.42,4.82,4.82,0,0,0,1.63-1.16,10.56,10.56,0,0,0,1.52-2.12v0a41.82,41.82,0,0,1,3.05-4.67c1.07-1.42,2-2.58,2.78-3.5a15.7,15.7,0,0,0,1.58-2.08,3.09,3.09,0,0,0,.36-2.6,4.24,4.24,0,0,0-2.09-2.18,8.19,8.19,0,0,0-2.7-.91,10,10,0,0,0-3.23,0,13.8,13.8,0,0,0-3.37,1,12,12,0,0,0-3.21,2.15A13.3,13.3,0,0,0,288.61,76l-.51.89a21,21,0,0,0-2,4.44,6,6,0,0,0-.23,2.91,7,7,0,0,0,1.27,2.48,1.28,1.28,0,0,1,.26,1.11,1,1,0,0,1-.68.69,1,1,0,0,1-1-.22,45.87,45.87,0,0,0-5.55-3.84,51.38,51.38,0,0,0-6.87-3.2,1.09,1.09,0,0,1-.71-.75.93.93,0,0,1,.25-.93,1.27,1.27,0,0,1,1.08-.36,13.74,13.74,0,0,0,2,.1A7.31,7.31,0,0,0,277.6,79a4.88,4.88,0,0,0,1.65-.88,11,11,0,0,0,1.59-1.69,22,22,0,0,0,1.74-2.68l7.25-12.78a22.05,22.05,0,0,0,1.41-2.88,11.26,11.26,0,0,0,.63-2.22,4.52,4.52,0,0,0-.09-1.87,6.75,6.75,0,0,0-.6-1.61,13.24,13.24,0,0,0-1.11-1.67,1.27,1.27,0,0,1-.25-1.11.92.92,0,0,1,.67-.69,1.09,1.09,0,0,1,1,.22A50.8,50.8,0,0,0,297.79,53.37Z"/><path d="M333.3,113.84q-4.31,2.67-8,2.19c-2.47-.33-5-1.71-7.51-4.16a32.54,32.54,0,0,1-2.33-2.5,19.72,19.72,0,0,1-1.81-2.63,11.67,11.67,0,0,1-1.21-2.77,10.59,10.59,0,0,1-.38-2.93,10.1,10.1,0,0,1,.54-3.13,14.73,14.73,0,0,1,1.66-3.33A23.41,23.41,0,0,1,317.13,91a19.09,19.09,0,0,1,4.63-3.64,11.34,11.34,0,0,1,4.31-1.42,9.69,9.69,0,0,1,4.07.55,15.53,15.53,0,0,1,3.83,2,30.25,30.25,0,0,1,3.66,3.07c.65.63,1.58,1.64,2.79,3s2.07,2.33,2.55,2.8a13.37,13.37,0,0,0,2.95,2.32,1.28,1.28,0,0,1,.75.92,1,1,0,0,1-.26,1,1.36,1.36,0,0,1-1,.38q-2-.12-4.66,2.59a17.63,17.63,0,0,0-1.3,1.62,16.33,16.33,0,0,1-1.22,1.53,3.49,3.49,0,0,1-1.83,1.11,2.31,2.31,0,0,1-1.93-.84L327,100.72c-.62-.59-2-1.89-4.2-3.91a26.07,26.07,0,0,0-3.44,4.32,7.54,7.54,0,0,0-1.22,3.54,5.71,5.71,0,0,0,.63,2.93,11.3,11.3,0,0,0,2.2,2.77,8.33,8.33,0,0,0,5,2.43,10.23,10.23,0,0,0,5.66-1.11,1.74,1.74,0,0,1,1.59-.08,1.23,1.23,0,0,1,.76,1.07A1.26,1.26,0,0,1,333.3,113.84Zm.15-11.39a3.08,3.08,0,0,0,2.11,1,2.19,2.19,0,0,0,1.81-1,4.92,4.92,0,0,0,.82-2.68,6.68,6.68,0,0,0-.56-3.23,9.89,9.89,0,0,0-2.13-2.78,9.41,9.41,0,0,0-2.14-1.62,5.19,5.19,0,0,0-2.24-.57,5.53,5.53,0,0,0-2.66.67,15.38,15.38,0,0,0-3.16,2.19Q327.13,96.34,333.45,102.45Z"/><path d="M353.66,143.84q-4.82,1.57-8.3.24T339,138.26a31.15,31.15,0,0,1-1.68-3,21.24,21.24,0,0,1-1.15-3,12.17,12.17,0,0,1-.51-3,10.39,10.39,0,0,1,.32-2.94,9.87,9.87,0,0,1,1.26-2.92,14.59,14.59,0,0,1,2.4-2.85,24.1,24.1,0,0,1,3.64-2.79,19.24,19.24,0,0,1,5.36-2.45,11.32,11.32,0,0,1,4.52-.36,9.68,9.68,0,0,1,3.83,1.49,15.37,15.37,0,0,1,3.26,2.79,32,32,0,0,1,2.84,3.86c.48.75,1.14,2,2,3.6s1.46,2.76,1.82,3.33a13.35,13.35,0,0,0,2.32,2.95,1.28,1.28,0,0,1,.51,1.07,1,1,0,0,1-.47.86,1.45,1.45,0,0,1-1,.14q-2-.6-5.14,1.42a15.6,15.6,0,0,0-1.65,1.27,15.46,15.46,0,0,1-1.54,1.19,3.39,3.39,0,0,1-2,.65,2.28,2.28,0,0,1-1.68-1.27l-5.55-8.76q-.69-1.08-3.16-4.79a26.11,26.11,0,0,0-4.36,3.39,7.49,7.49,0,0,0-2,3.15,5.79,5.79,0,0,0-.08,3,11.52,11.52,0,0,0,1.49,3.21,8.33,8.33,0,0,0,4.26,3.53,10.17,10.17,0,0,0,5.77.26,1.69,1.69,0,0,1,1.56.29,1.24,1.24,0,0,1,.49,1.22A1.28,1.28,0,0,1,353.66,143.84Zm2.83-11a3,3,0,0,0,1.8,1.47,2.19,2.19,0,0,0,2-.53,4.89,4.89,0,0,0,1.44-2.41,6.65,6.65,0,0,0,.21-3.27,9.72,9.72,0,0,0-1.41-3.21,9.59,9.59,0,0,0-1.7-2.07,5.28,5.28,0,0,0-2-1.09,5.53,5.53,0,0,0-2.74,0,15.52,15.52,0,0,0-3.59,1.39Q351.77,125.38,356.49,132.8Z"/><path d="M385.59,150.35l.16.5a5.24,5.24,0,0,1,.31,2.77,1.87,1.87,0,0,1-1.39,1.38,48.62,48.62,0,0,1-5.24,1.32,31.8,31.8,0,0,1-5.21.65c-.66,0-1,.22-1.08.61s.2.69.8.88a13,13,0,0,1,5.52,3.5,16.6,16.6,0,0,1,3.71,6.59,9.32,9.32,0,0,1,.47,2.78,7.43,7.43,0,0,1-.44,2.57,5.41,5.41,0,0,1-1.56,2.21,7.75,7.75,0,0,1-2.79,1.5,30.2,30.2,0,0,1-4.91.76,36.12,36.12,0,0,0-6.28,1.13,20.7,20.7,0,0,0-2.67,1.12,9.8,9.8,0,0,0-1.78,1.17,4.3,4.3,0,0,0-1.08,1.38,7,7,0,0,0-.59,1.56,15.57,15.57,0,0,0-.31,1.91,1.25,1.25,0,0,1-.57,1,.93.93,0,0,1-1,.06,1.12,1.12,0,0,1-.59-.85,51.08,51.08,0,0,0-1.7-7.37,47.66,47.66,0,0,0-2.62-6.22,1.08,1.08,0,0,1,0-1,.91.91,0,0,1,.81-.51,1.26,1.26,0,0,1,1,.47A11.06,11.06,0,0,0,358,173.5a5.69,5.69,0,0,0,1.49.81,4.7,4.7,0,0,0,2,.26A10.28,10.28,0,0,0,364,174h0a44.15,44.15,0,0,1,5.41-1.36c1.75-.31,3.22-.54,4.42-.68a14.85,14.85,0,0,0,2.58-.46,3,3,0,0,0,2-1.66,4.19,4.19,0,0,0-.06-3,8.18,8.18,0,0,0-1.35-2.5,10.5,10.5,0,0,0-2.39-2.18,13.58,13.58,0,0,0-3.15-1.55,11.71,11.71,0,0,0-3.81-.6,13.33,13.33,0,0,0-4.2.65l-1,.31a21.25,21.25,0,0,0-4.49,1.89,5.87,5.87,0,0,0-2.14,2,6.71,6.71,0,0,0-.75,2.68,1.29,1.29,0,0,1-.57,1,1,1,0,0,1-1,.05,1.11,1.11,0,0,1-.59-.85,45.69,45.69,0,0,0-1.45-6.58,51.93,51.93,0,0,0-2.88-7,1.1,1.1,0,0,1,0-1,1,1,0,0,1,.82-.52,1.29,1.29,0,0,1,1,.48,12.59,12.59,0,0,0,1.41,1.42,7,7,0,0,0,1.45.93,4.85,4.85,0,0,0,1.81.47,11,11,0,0,0,2.31-.16,23.77,23.77,0,0,0,3.1-.78l14-4.46a20.92,20.92,0,0,0,3-1.16,11.07,11.07,0,0,0,2-1.2,4.88,4.88,0,0,0,1.21-1.43,6.76,6.76,0,0,0,.64-1.6,12.44,12.44,0,0,0,.32-2,1.29,1.29,0,0,1,.57-1,1,1,0,0,1,1,0,1.07,1.07,0,0,1,.59.85A52.63,52.63,0,0,0,385.59,150.35Z"/><path d="M361.51,215.33v0a2.88,2.88,0,0,1,.26-1.67,1.29,1.29,0,0,1,1.07-.49,3.92,3.92,0,0,1,1.17.17,4.93,4.93,0,0,0,.91.18.51.51,0,0,0,.43-.22.58.58,0,0,0,0-.52,1.25,1.25,0,0,0-.48-.56,7.58,7.58,0,0,1-1.36-1.27,14.15,14.15,0,0,1-1.4-2,12.05,12.05,0,0,1-1.22-3,17.93,17.93,0,0,1-.58-3.88,19.63,19.63,0,0,1,.09-3.32,8.72,8.72,0,0,1,.61-2.5,7.56,7.56,0,0,1,1-1.77,4.45,4.45,0,0,1,1.44-1.18,8,8,0,0,1,1.74-.66,11.9,11.9,0,0,1,2-.27c2.51-.11,4.39.64,5.61,2.27s1.92,4.38,2.1,8.27-.22,6.89-1.22,8.65a.9.9,0,0,0-.05,1.09c.22.32.6.3,1.13,0a11,11,0,0,1,5.39-1.69c.22,0,.56,0,1,0h1a4.39,4.39,0,0,0,3-.91,3.8,3.8,0,0,0,.69-2.82,8.13,8.13,0,0,0-.7-3.14,7.3,7.3,0,0,0-2-2.39,23.27,23.27,0,0,0-5.69-3.46c-.83-.34-1.26-.83-1.31-1.47a.88.88,0,0,1,.57-1,1.12,1.12,0,0,1,.67-.1,22.65,22.65,0,0,0,3.87.25q3.38-.16,4.77-1.93a1.58,1.58,0,0,1,1-.52,1.16,1.16,0,0,1,1,.48,1.38,1.38,0,0,1,.21,1.26,14.83,14.83,0,0,0-.23,4.13c0,.69.18,2,.44,3.85s.41,3.27.46,4.18a35.56,35.56,0,0,1,0,3.89,13.65,13.65,0,0,1-.57,3.09,6.21,6.21,0,0,1-1.27,2.35,6.14,6.14,0,0,1-2.19,1.46,9.76,9.76,0,0,1-3.26.65,45.76,45.76,0,0,1-4.95-.33,51.21,51.21,0,0,0-5.59-.36,16.37,16.37,0,0,0-2.78.4,9.92,9.92,0,0,0-2,.66,4.39,4.39,0,0,0-1.37,1.06,7.91,7.91,0,0,0-1,1.33,15.21,15.21,0,0,0-.78,1.74,1.29,1.29,0,0,1-.8.81,1,1,0,0,1-.95-.2,1.09,1.09,0,0,1-.35-1A51.46,51.46,0,0,0,361.51,215.33Zm5.17-5.15a3,3,0,0,0,2.12.83,3.09,3.09,0,0,0,1.81-.64,3.76,3.76,0,0,0,1.09-1.69,10.16,10.16,0,0,0,.5-2.5,26.81,26.81,0,0,0,0-3.28,7.07,7.07,0,0,0-.42-2.35,1.12,1.12,0,0,0-1.16-.77,7.86,7.86,0,0,0-1.31.21,10.2,10.2,0,0,1-1.63.22c-.52,0-1.14,0-1.86,0s-1.22,0-1.5,0a.94.94,0,0,0-.85.41,2.68,2.68,0,0,0-.16,1.32,13.63,13.63,0,0,0,.5,3,16.5,16.5,0,0,0,1.12,3A7.09,7.09,0,0,0,366.68,210.18Z"/><path d="M386.55,242.16l-.11.51c-.42,1.88-1.22,2.68-2.4,2.41a6.9,6.9,0,0,1-2.46-1.11,1.75,1.75,0,0,0-1-.33.47.47,0,0,0-.43.51,1.44,1.44,0,0,0,.47,1,13,13,0,0,1,3,5.8,16.72,16.72,0,0,1-.12,7.56,9.66,9.66,0,0,1-1,2.64,7.33,7.33,0,0,1-1.67,2,5.36,5.36,0,0,1-2.46,1.12,8,8,0,0,1-3.17-.11,31.13,31.13,0,0,1-4.62-1.83,35.81,35.81,0,0,0-6-2.19,19.12,19.12,0,0,0-2.87-.38,9.79,9.79,0,0,0-2.12.11,4.35,4.35,0,0,0-1.63.64,7.92,7.92,0,0,0-1.31,1.05A16.13,16.13,0,0,0,355.4,263a1.3,1.3,0,0,1-1,.57.94.94,0,0,1-.86-.44,1.1,1.1,0,0,1-.08-1,51.23,51.23,0,0,0,2.25-7.22,46.66,46.66,0,0,0,.87-6.69,1.11,1.11,0,0,1,.52-.9.92.92,0,0,1,1,0,1.26,1.26,0,0,1,.65.93,10.44,10.44,0,0,0,.52,1.84,5.42,5.42,0,0,0,.87,1.45,4.66,4.66,0,0,0,1.59,1.23,10.45,10.45,0,0,0,2.47.84h0a43.67,43.67,0,0,1,5.35,1.56c1.67.61,3.06,1.16,4.16,1.64a14.84,14.84,0,0,0,2.46.91,3.08,3.08,0,0,0,2.6-.41,4.26,4.26,0,0,0,1.46-2.64,8.1,8.1,0,0,0-.08-3.62,12.37,12.37,0,0,0-1.61-3.81,11.84,11.84,0,0,0-3.27-3.33,13.22,13.22,0,0,0-4.78-2.1l-1-.23a21.82,21.82,0,0,0-4.83-.63,6.08,6.08,0,0,0-2.85.63,7.1,7.1,0,0,0-2,1.94,1.25,1.25,0,0,1-1,.56.92.92,0,0,1-.86-.44,1.06,1.06,0,0,1-.08-1,46.41,46.41,0,0,0,2.06-6.42,52,52,0,0,0,1.07-7.51,1.06,1.06,0,0,1,.51-.89.92.92,0,0,1,1,0,1.24,1.24,0,0,1,.66.93,13.21,13.21,0,0,0,.49,1.94,6.51,6.51,0,0,0,.78,1.53,4.78,4.78,0,0,0,1.33,1.32,10.5,10.5,0,0,0,2.07,1,21.77,21.77,0,0,0,3.07.9l6.15,1.38a21,21,0,0,0,3.16.5,10.16,10.16,0,0,0,2.31,0,4.75,4.75,0,0,0,1.76-.62,7.36,7.36,0,0,0,1.37-1.05,14.34,14.34,0,0,0,1.27-1.55,1.28,1.28,0,0,1,1-.56,1,1,0,0,1,.86.44,1.12,1.12,0,0,1,.08,1A50.87,50.87,0,0,0,386.55,242.16Z"/><path d="M349.65,270.79a1.47,1.47,0,0,1,.91-2.17,8,8,0,0,1,1-.28,8.12,8.12,0,0,0,1.26-.41,7.82,7.82,0,0,0,1.09-.57,4.16,4.16,0,0,1,.9-.46,1.53,1.53,0,0,1,2.16.91,5.26,5.26,0,0,1,.19.51c.07.21.15.48.25.81s.18.61.25.84a5.64,5.64,0,0,0,.58,1.21c.28.46.44.75.5.88a1.51,1.51,0,0,1-.92,2.17,9.16,9.16,0,0,1-1,.29,10.73,10.73,0,0,0-1.23.36,8,8,0,0,0-1.11.55,7.22,7.22,0,0,1-.92.47,1.51,1.51,0,0,1-2.16-.92,5.78,5.78,0,0,1-.32-1,11.45,11.45,0,0,0-.33-1.13,7.56,7.56,0,0,0-.61-1.2A8.85,8.85,0,0,1,349.65,270.79Z"/><path d="M336,324.36l-8-7.16q-4.95-4.44-.59-10.64c1.8-2.56,3.46-4.1,5-4.59s3.38-.1,5.58,1.19l11.9,7a5.7,5.7,0,0,0,2.91,1.05,2.32,2.32,0,0,0,1.78-1.11,2.19,2.19,0,0,0,.23-2.39,13,13,0,0,0-3.26-3.36l-8.95-7.28q-2.84-2.31-3-4.93t2.34-6.18c1.46-2.07,3.05-3.28,4.75-3.62s3.75.17,6.15,1.53l8.59,4.87a19.48,19.48,0,0,0,2.91,1.38,9.91,9.91,0,0,0,2.25.59,4.92,4.92,0,0,0,2-.17,9.22,9.22,0,0,0,1.76-.69,20.44,20.44,0,0,0,1.89-1.21,1,1,0,0,1,1-.13,1.08,1.08,0,0,1,.41,1.84,76.82,76.82,0,0,0-5.76,7.19,34.43,34.43,0,0,0-2,3.33c-.82,1.49-1.49,2.6-2,3.35a1.11,1.11,0,0,1-1,.54,1.1,1.1,0,0,1-.91-.57,1.49,1.49,0,0,1-.15-1.25,5.71,5.71,0,0,0-.25-4.26,11.79,11.79,0,0,0-3.84-3.75l-9.1-6.26a4.26,4.26,0,0,0-2.64-1,3,3,0,0,0-2,1.46q-1.83,2.59,1.1,4.94l10,8q3.39,2.7,4,5.41t-1.92,6.25q-2.52,3.57-4.93,4.14c-1.62.38-3.56-.1-5.84-1.43l-12.28-7.21a4.46,4.46,0,0,0-2.8-.85,3,3,0,0,0-1.9,1.39,2.74,2.74,0,0,0-.55,2.36,4.91,4.91,0,0,0,2,2.39l8.1,5.83a21.48,21.48,0,0,0,4.18,2.46,5.11,5.11,0,0,0,2.84.47,4.82,4.82,0,0,0,2.32-1.29,1.19,1.19,0,0,1,1.14-.31,1.21,1.21,0,0,1,.89.75,1.19,1.19,0,0,1-.19,1.22,27.77,27.77,0,0,1-2.25,2.69,31.51,31.51,0,0,0-2.23,2.68,26.08,26.08,0,0,0-1.53,2.66,32.72,32.72,0,0,1-1.79,3.12,1.35,1.35,0,0,1-.77.61,1,1,0,0,1-.78-.06,1.27,1.27,0,0,1-.52-.61,1.45,1.45,0,0,1,0-.95,10.43,10.43,0,0,0,.35-2.25,5.5,5.5,0,0,0-.36-2,7.74,7.74,0,0,0-1.4-2.34A28.56,28.56,0,0,0,336,324.36Z"/><path d="M313.89,320.66a1.47,1.47,0,0,1,1.73-1.59,8.53,8.53,0,0,1,1,.16,8.61,8.61,0,0,0,1.32.15,8.26,8.26,0,0,0,1.22-.07,4.18,4.18,0,0,1,1,0c1.11.12,1.64.7,1.59,1.73,0,.14,0,.32,0,.54s-.06.5-.11.84-.09.63-.12.86a5.62,5.62,0,0,0,0,1.35c.06.53.09.87.09,1a1.52,1.52,0,0,1-1.74,1.59,8.84,8.84,0,0,1-1-.16,11.74,11.74,0,0,0-1.28-.18,7.87,7.87,0,0,0-1.23,0,7.15,7.15,0,0,1-1,0,1.51,1.51,0,0,1-1.59-1.73,6.52,6.52,0,0,1,.13-1.05A11.31,11.31,0,0,0,314,323a7.12,7.12,0,0,0,0-1.34C313.92,321.1,313.89,320.78,313.89,320.66Z"/><path d="M317.57,352.72l-.41.28a3.85,3.85,0,0,1-2.05.82,1.52,1.52,0,0,1-1.36-.7,8.74,8.74,0,0,1-1.39-3,1.76,1.76,0,0,0-.53-.95.46.46,0,0,0-.65.08,1.43,1.43,0,0,0-.33,1,23,23,0,0,1-.25,3.16,14.77,14.77,0,0,1-.75,2.92,9.67,9.67,0,0,1-1.55,2.78,11.35,11.35,0,0,1-2.53,2.33,2.41,2.41,0,0,1-2.14.5,4,4,0,0,1-1.89-1.66,5.18,5.18,0,0,1-1-2.35,1.47,1.47,0,0,1,.53-1.41,9.93,9.93,0,0,1,1.36-.69,11.76,11.76,0,0,0,1.78-1,8.59,8.59,0,0,0,2.28-12.58l-1.17-1.7a17.72,17.72,0,0,0-2-2.5,9.61,9.61,0,0,0-1.76-1.47,4.53,4.53,0,0,0-1.82-.63,8.39,8.39,0,0,0-1.84-.07,21.5,21.5,0,0,0-2.2.32,1.29,1.29,0,0,1-1.11-.26,1,1,0,0,1-.33-.91,1.1,1.1,0,0,1,.65-.81,55.68,55.68,0,0,0,7.1-4.12,52.23,52.23,0,0,0,5.89-4.78,1.1,1.1,0,0,1,1-.3.92.92,0,0,1,.72.63,1.27,1.27,0,0,1-.16,1.13,13.6,13.6,0,0,0-1,1.75,6.9,6.9,0,0,0-.47,1.66,4.73,4.73,0,0,0,.08,1.87,10.65,10.65,0,0,0,.82,2.16,21.73,21.73,0,0,0,1.63,2.75l4.23,6.16a18,18,0,0,0,1.76,2.06,9.29,9.29,0,0,0,1.57,1.26,4.73,4.73,0,0,0,1.6.58,7,7,0,0,0,1.62.1,15,15,0,0,0,1.87-.25,1.3,1.3,0,0,1,1.11.26.94.94,0,0,1,.33.91,1.1,1.1,0,0,1-.65.81A52.79,52.79,0,0,0,317.57,352.72Z"/><path d="M269.57,355.33a1,1,0,0,0,.54.59,1,1,0,0,0,.79,0,5.28,5.28,0,0,0,1.2-.95,25.69,25.69,0,0,1,2.2-1.82,11.54,11.54,0,0,1,2.8-1.55,10.69,10.69,0,0,1,2.74-.66,7.6,7.6,0,0,1,2.53.15,4.68,4.68,0,0,1,2.19,1.19,6.06,6.06,0,0,1,1.52,2.35,11.21,11.21,0,0,1,.37,2.9A11.65,11.65,0,0,0,287,361q1.89,5,6.83,5.32a1.24,1.24,0,0,1,1,.52,1,1,0,0,1,.11,1,1.07,1.07,0,0,1-.81.63,52,52,0,0,0-6.91,2l-.67.25a4.35,4.35,0,0,1-3.09.28,3.4,3.4,0,0,1-1.69-2.43L280.53,364a9.75,9.75,0,0,1-.4-2.82c0-.91.05-1.69.12-2.33a3.29,3.29,0,0,0-.11-1.53,2.08,2.08,0,0,0-1.47-1.35,4.29,4.29,0,0,0-2.61.29,10.26,10.26,0,0,0-2,1.2,10.15,10.15,0,0,1-2,1.19,3.76,3.76,0,0,1-3.34-.08,4.29,4.29,0,0,1-1.93-2.22,4.43,4.43,0,0,1-.27-2.18,4.21,4.21,0,0,1,.89-1.95,10.67,10.67,0,0,1,1.73-1.69,19.49,19.49,0,0,1,2.46-1.6,22.62,22.62,0,0,0,3-2,4.41,4.41,0,0,0,1.26-1.42,1.61,1.61,0,0,0-1.16-2.15,7.65,7.65,0,0,0-2.95.38c-1.41.36-3.44,1-6.1,2s-4.49,2-5.38,3a3,3,0,0,0-.65,3.28,6.79,6.79,0,0,0,1.42,2.13,21.36,21.36,0,0,0,2.14,2,19.43,19.43,0,0,1,2.29,2.27,11.19,11.19,0,0,1,1.83,2.8l2.14,4.78q2.15,4.84,2.87,6.75a2.67,2.67,0,0,1,0,2.42,5.06,5.06,0,0,1-2.48,1.68,52.24,52.24,0,0,0-6.87,3.24,1.09,1.09,0,0,1-1,.07.94.94,0,0,1-.56-.79,1.3,1.3,0,0,1,.42-1.06,13.58,13.58,0,0,0,1.35-1.47,6.69,6.69,0,0,0,.85-1.5,4.57,4.57,0,0,0,.37-1.83,10.44,10.44,0,0,0-.28-2.3,21.68,21.68,0,0,0-.94-3.06l-1.81-4.79a9,9,0,0,0-1.51-2.57,14.33,14.33,0,0,0-1.94-2A14.44,14.44,0,0,1,256,357a8,8,0,0,1-1.43-2.37c-1-2.73-.5-5.39,1.59-8s5.9-4.9,11.42-7a40,40,0,0,1,6.3-1.89,13.21,13.21,0,0,1,4.46-.27,6,6,0,0,1,2.8,1.08,5.1,5.1,0,0,1,1.58,2.26q1.84,4.9-9.12,10.55C270.5,353,269.18,354.28,269.57,355.33Z"/><path d="M224.91,357.55h0a3,3,0,0,1,1.69.16,1.27,1.27,0,0,1,.55,1,4,4,0,0,1-.1,1.18,3.43,3.43,0,0,0-.12.91.51.51,0,0,0,.24.42.56.56,0,0,0,.52,0,1.18,1.18,0,0,0,.54-.51,7.51,7.51,0,0,1,1.18-1.43,14.83,14.83,0,0,1,1.87-1.51,12,12,0,0,1,2.91-1.39,17.16,17.16,0,0,1,3.84-.81,20.1,20.1,0,0,1,3.31-.11,9,9,0,0,1,2.54.47,7.56,7.56,0,0,1,1.82.92,4.45,4.45,0,0,1,1.26,1.37,7.38,7.38,0,0,1,.76,1.7,9.58,9.58,0,0,1,.39,2c.27,2.51-.38,4.42-1.93,5.73s-4.26,2.18-8.13,2.59-6.9.18-8.71-.72a.94.94,0,0,0-1.1,0c-.3.25-.26.62.1,1.13a11.14,11.14,0,0,1,2,5.28c0,.22,0,.57.08,1s.05.78.07,1a4.42,4.42,0,0,0,1.07,2.95,3.79,3.79,0,0,0,2.86.52,8,8,0,0,0,3.09-.88,7.11,7.11,0,0,0,2.27-2.11,22.65,22.65,0,0,0,3.12-5.88c.29-.84.76-1.31,1.4-1.39a.89.89,0,0,1,1,.51,1.08,1.08,0,0,1,.13.66,21.91,21.91,0,0,0,0,3.89c.23,2.24,1,3.79,2.2,4.64a1.56,1.56,0,0,1,.58,1,1.14,1.14,0,0,1-.43,1,1.33,1.33,0,0,1-1.24.29,14.73,14.73,0,0,0-4.14,0c-.68.07-1.95.29-3.81.67s-3.25.6-4.15.69a34,34,0,0,1-3.88.22,13.6,13.6,0,0,1-3.12-.38,6.11,6.11,0,0,1-2.42-1.14,6,6,0,0,1-1.59-2.09,9.77,9.77,0,0,1-.83-3.22,41.17,41.17,0,0,1,0-5,52.57,52.57,0,0,0,0-5.6,16.71,16.71,0,0,0-.56-2.76,9.52,9.52,0,0,0-.78-1.91,4.42,4.42,0,0,0-1.13-1.31,7.44,7.44,0,0,0-1.39-.88,15.43,15.43,0,0,0-1.78-.68,1.27,1.27,0,0,1-.85-.75,1,1,0,0,1,.14-1,1.09,1.09,0,0,1,.95-.4A51.88,51.88,0,0,0,224.91,357.55Zm5.45,4.86a3,3,0,0,0-.7,2.16,3.1,3.1,0,0,0,.74,1.77,3.7,3.7,0,0,0,1.76,1,10.48,10.48,0,0,0,2.51.35,24.91,24.91,0,0,0,3.28-.17,7.23,7.23,0,0,0,2.33-.55,1.11,1.11,0,0,0,.69-1.2,8.67,8.67,0,0,0-.28-1.3,10.64,10.64,0,0,1-.32-1.61c-.05-.52-.09-1.14-.13-1.86s-.06-1.22-.09-1.5a.94.94,0,0,0-.46-.81,2.67,2.67,0,0,0-1.33-.1,14,14,0,0,0-3,.68,17,17,0,0,0-2.9,1.3A7.08,7.08,0,0,0,230.36,362.41Z"/><path d="M199.63,384.14l-.52-.09c-1.89-.31-2.74-1.05-2.55-2.24a7,7,0,0,1,1-2.52,1.79,1.79,0,0,0,.26-1.06.45.45,0,0,0-.53-.39,1.41,1.41,0,0,0-.95.53,13.06,13.06,0,0,1-5.61,3.33,16.55,16.55,0,0,1-7.56.33,9.64,9.64,0,0,1-2.69-.85,7.34,7.34,0,0,1-2.09-1.55,5.29,5.29,0,0,1-1.26-2.39,7.6,7.6,0,0,1-.08-3.17,30.22,30.22,0,0,1,1.54-4.72,36.36,36.36,0,0,0,1.84-6.11,18.46,18.46,0,0,0,.2-2.89,9.5,9.5,0,0,0-.23-2.11,4.29,4.29,0,0,0-.74-1.59,7.17,7.17,0,0,0-1.13-1.24,13.42,13.42,0,0,0-1.55-1.13,1.31,1.31,0,0,1-.63-1,.94.94,0,0,1,.39-.88,1.09,1.09,0,0,1,1-.14,50.82,50.82,0,0,0,7.34,1.81,46,46,0,0,0,6.73.48,1.06,1.06,0,0,1,.92.46.92.92,0,0,1,.09,1,1.29,1.29,0,0,1-.89.71,11.09,11.09,0,0,0-1.81.62,5.65,5.65,0,0,0-1.4,1,5,5,0,0,0-1.13,1.66,10.89,10.89,0,0,0-.68,2.51v0a40.94,40.94,0,0,1-1.24,5.44c-.51,1.7-1,3.12-1.39,4.25a15.25,15.25,0,0,0-.76,2.5,3.1,3.1,0,0,0,.56,2.57,4.32,4.32,0,0,0,2.72,1.31,8.17,8.17,0,0,0,3.62-.3,12.28,12.28,0,0,0,3.7-1.83,12,12,0,0,0,3.14-3.47,13.33,13.33,0,0,0,1.81-4.89l.16-1a21.49,21.49,0,0,0,.35-4.85,6,6,0,0,0-.8-2.81,6.72,6.72,0,0,0-2.06-1.89,1.28,1.28,0,0,1-.62-1,.94.94,0,0,1,.39-.88,1.1,1.1,0,0,1,1-.14A47.2,47.2,0,0,0,204,357.2a52.06,52.06,0,0,0,7.56.62,1.06,1.06,0,0,1,.92.46.92.92,0,0,1,.09,1,1.28,1.28,0,0,1-.89.7,13.17,13.17,0,0,0-1.91.61,6.56,6.56,0,0,0-1.48.87,4.67,4.67,0,0,0-1.24,1.41,10,10,0,0,0-.9,2.12,22.15,22.15,0,0,0-.71,3.12l-1,6.22a21.58,21.58,0,0,0-.32,3.18,11,11,0,0,0,.18,2.31,4.62,4.62,0,0,0,.73,1.72,7,7,0,0,0,1.12,1.3A14.4,14.4,0,0,0,207.8,384a1.28,1.28,0,0,1,.62.95,1,1,0,0,1-.39.89,1.1,1.1,0,0,1-1,.14A51.34,51.34,0,0,0,199.63,384.14Z"/><path d="M138.33,326.8q6,1,14.08,5.47c1.62.89,3.09,1.77,4.42,2.62s2.61,1.76,3.85,2.73a29.64,29.64,0,0,1,3.25,2.89,23.32,23.32,0,0,1,2.5,3.11,15.79,15.79,0,0,1,1.75,3.38,15.94,15.94,0,0,1,.7,7.78,23.86,23.86,0,0,1-1.18,4.5,35,35,0,0,1-2.3,5,32.48,32.48,0,0,1-3.86,5.64,20.68,20.68,0,0,1-4.17,3.72,13.87,13.87,0,0,1-4.53,1.94A17.26,17.26,0,0,1,148,376a22.87,22.87,0,0,1-5.2-.91,42.28,42.28,0,0,1-5.48-2q-2.68-1.2-5.85-2.94c-2.08-1.15-3.94-2.26-5.56-3.32a49.82,49.82,0,0,1-4.64-3.45,25.49,25.49,0,0,1-3.63-3.67,17.59,17.59,0,0,1-2.36-3.95,12.29,12.29,0,0,1-1-4.37,16.17,16.17,0,0,1,.57-4.83,23.8,23.8,0,0,1,2.24-5.39,33.83,33.83,0,0,1,2.81-4.35,19.84,19.84,0,0,1,2.83-3,11.16,11.16,0,0,1,2.89-1.8,10.32,10.32,0,0,1,2.92-.78,10.58,10.58,0,0,1,3,.16,16.67,16.67,0,0,1,3,.88,26.13,26.13,0,0,1,3.15,1.51,18.34,18.34,0,0,1,4.39,3.06c.82.87,1,1.69.61,2.43a10.78,10.78,0,0,1-1.57,2.08c-.44.47-.55.86-.34,1.17s.6.35,1.17.11a13.72,13.72,0,0,1,12.7.48,8.92,8.92,0,0,1,2.19,1.67,6.83,6.83,0,0,1,1.39,2.12,5.3,5.3,0,0,1,.35,2.64,8,8,0,0,1-1,3,11.64,11.64,0,0,1-2.2,2.52,8.27,8.27,0,0,0-3.2,5.59,12.21,12.21,0,0,1-.89,2.85,4.66,4.66,0,0,1-3.09,2.3,9.67,9.67,0,0,1-4.68-.08,21.22,21.22,0,0,1-5.29-2.11q-1.86-1-4.73-2.94t-4.11-2.59l-.59-.32a33.54,33.54,0,0,0-4.61-2.09,1.05,1.05,0,0,1-.71-.74.93.93,0,0,1,.24-.94,1.27,1.27,0,0,1,1.07-.36,3.43,3.43,0,0,0,2.74-1.16,26.11,26.11,0,0,0,3.34-5.08l3.34-6.05a6.93,6.93,0,0,0,1.13-3.85,3.4,3.4,0,0,0-2-2.54,3.33,3.33,0,0,0-1.5-.45,3.61,3.61,0,0,0-1.72.45,7.85,7.85,0,0,0-2.05,1.57,23.62,23.62,0,0,0-2.42,3.05,54.57,54.57,0,0,0-2.9,4.76,24.34,24.34,0,0,0-2,4.42,15.27,15.27,0,0,0-.75,3.84,9.33,9.33,0,0,0,.48,3.42,12,12,0,0,0,1.56,3.06,16.66,16.66,0,0,0,2.68,2.86,33.13,33.13,0,0,0,3.63,2.74c1.31.86,2.85,1.77,4.61,2.75s3.4,1.79,4.85,2.42a29.1,29.1,0,0,0,4.37,1.52,14.47,14.47,0,0,0,4,.52,12.58,12.58,0,0,0,3.65-.65,11.13,11.13,0,0,0,3.45-1.91,20.31,20.31,0,0,0,3.24-3.34,36.4,36.4,0,0,0,3.17-4.89,36.78,36.78,0,0,0,2.47-5.34,20.67,20.67,0,0,0,1.13-4.57,11.36,11.36,0,0,0-.21-4,12.71,12.71,0,0,0-1.38-3.45,14.54,14.54,0,0,0-2.57-3.12,30.93,30.93,0,0,0-3.62-2.88c-1.31-.89-2.86-1.83-4.63-2.81a63.45,63.45,0,0,0-12.68-5.19c-1.74-.52-2.55-1.2-2.42-2S136.8,326.55,138.33,326.8Zm13.37,23a3.19,3.19,0,0,0,.37-2.57,3.9,3.9,0,0,0-2-2.07,6.9,6.9,0,0,0-2.45-.76,9.53,9.53,0,0,0-2.94.13,11.88,11.88,0,0,0-3.08,1,11.66,11.66,0,0,0-2.94,2.11,13.32,13.32,0,0,0-2.43,3.19l-.26.48a16.26,16.26,0,0,0-1.41,3.16,3.71,3.71,0,0,0,1.08,4,13.54,13.54,0,0,0,2.4,1.6q4.62,2.55,6.54-.92c.15-.29.43-.94.83-2a22.14,22.14,0,0,1,1.11-2.47,6,6,0,0,1,1.6-1.8l2.1-1.61A5.15,5.15,0,0,0,151.7,349.82Z"/><path d="M111.61,319.78a11.05,11.05,0,0,1,1.61,2.3,7.87,7.87,0,0,1,.78,2.42,4.7,4.7,0,0,1-.31,2.47,6.11,6.11,0,0,1-1.64,2.27,6.87,6.87,0,0,1-2,1.07,6.46,6.46,0,0,0-2,1,9.06,9.06,0,0,0-1.53,2,8.93,8.93,0,0,1-1.35,1.84,4.83,4.83,0,0,1-3.78,1.21,10.21,10.21,0,0,1-4.51-1.62A21,21,0,0,1,92.48,331c-1-1.16-2.34-2.74-3.88-4.74s-2.67-3.4-3.37-4.17l-.44-.5a52.15,52.15,0,0,0-5.53-5.22,1.12,1.12,0,0,1-.43-.94.94.94,0,0,1,.53-.81,1.3,1.3,0,0,1,1.14,0,14.76,14.76,0,0,0,1.86.73,7.35,7.35,0,0,0,1.71.24,4.67,4.67,0,0,0,1.84-.32,10.32,10.32,0,0,0,2-1.09,22.5,22.5,0,0,0,2.51-2l3.81-3.42a9.38,9.38,0,0,0,1.85-2.34,15.22,15.22,0,0,0,1.15-2.54,14.8,14.8,0,0,1,1.1-2.48,8,8,0,0,1,1.68-2.19q3.27-2.94,8-1.41t10.65,8.11a40.36,40.36,0,0,1,4,5.18,13.26,13.26,0,0,1,1.87,4.06,6,6,0,0,1,0,3,5,5,0,0,1-1.53,2.29q-3.9,3.51-13.15-4.67-3.84-3.39-5.1-2.27a1,1,0,0,0-.36.71,1.07,1.07,0,0,0,.29.74,5.68,5.68,0,0,0,1.43.9,30.86,30.86,0,0,1,2.7,1.62A14.11,14.11,0,0,1,111.61,319.78Zm-4.74.73a11.23,11.23,0,0,0-2.18-1.71,11.53,11.53,0,0,1-2-1.54,4.86,4.86,0,0,1-1.07-1.78,3.39,3.39,0,0,1-.13-1.71,4.4,4.4,0,0,1,.51-1.4,4.52,4.52,0,0,1,.89-1.1,4.27,4.27,0,0,1,1.93-1,4,4,0,0,1,2.14.12,10.28,10.28,0,0,1,2.21,1,19.58,19.58,0,0,1,2.38,1.71,22.07,22.07,0,0,0,2.93,2.07,4.51,4.51,0,0,0,1.78.66,1.56,1.56,0,0,0,1.06-.4,1.52,1.52,0,0,0,.52-1.46,7.7,7.7,0,0,0-1.42-2.62q-1.27-1.76-4.13-4.93c-1.92-2.14-3.5-3.46-4.72-3.94a3,3,0,0,0-3.29.59,5.46,5.46,0,0,0-1.18,1.61,17.41,17.41,0,0,0-.93,2.15c-.27.75-.56,1.52-.86,2.31a14.94,14.94,0,0,1-1.17,2.38,9.32,9.32,0,0,1-1.68,2.06l-4,3.59a19.3,19.3,0,0,0-2.32,2.42,7.29,7.29,0,0,0-1.17,2,3.35,3.35,0,0,0-.09,1.93,6.64,6.64,0,0,0,.85,1.92,18,18,0,0,0,1.73,2.19q3.66,4.08,6.77,1.28c.17-.15.52-.5,1-1.05s1-1,1.35-1.32a5.31,5.31,0,0,1,2.46-1,5.34,5.34,0,0,0,2.31-.83,2.08,2.08,0,0,0,.73-1.87A4.28,4.28,0,0,0,106.87,320.51Z"/><path d="M63,282.89a1.62,1.62,0,0,1-1.71-.32,5.56,5.56,0,0,1-1.58-2.33l-.09-.23a5.56,5.56,0,0,1-.56-2.77,1.66,1.66,0,0,1,1-1.44,3.7,3.7,0,0,1,.75-.21,5.13,5.13,0,0,1,.71-.07l.85,0h.82a1.65,1.65,0,0,0,1-.33.45.45,0,0,0,.06-.65,1.4,1.4,0,0,0-1-.53,12.81,12.81,0,0,1-5.78-3,16.91,16.91,0,0,1-4.27-6.26,9.51,9.51,0,0,1-.71-2.73,7.79,7.79,0,0,1,.2-2.6,5.3,5.3,0,0,1,1.35-2.33,7.83,7.83,0,0,1,2.65-1.74,31.54,31.54,0,0,1,4.84-1.19,36.74,36.74,0,0,0,6.16-1.67,18.26,18.26,0,0,0,2.57-1.36A10,10,0,0,0,72,249.85a4.38,4.38,0,0,0,1-1.47,6.89,6.89,0,0,0,.46-1.61,14.05,14.05,0,0,0,.14-1.92,1.26,1.26,0,0,1,.48-1,.92.92,0,0,1,.95-.14,1.1,1.1,0,0,1,.67.79A49.36,49.36,0,0,0,78,251.66a46.42,46.42,0,0,0,3.15,6,1.12,1.12,0,0,1,.1,1,1,1,0,0,1-.77.58,1.26,1.26,0,0,1-1.07-.38,11.85,11.85,0,0,0-1.48-1.21,5.88,5.88,0,0,0-1.56-.68,4.94,4.94,0,0,0-2-.08,11.12,11.12,0,0,0-2.49.74h0a43.69,43.69,0,0,1-5.28,1.83c-1.72.47-3.18.82-4.36,1.07a14.8,14.8,0,0,0-2.52.68A3.06,3.06,0,0,0,57.79,263a4.33,4.33,0,0,0,.33,3,8.07,8.07,0,0,0,1.57,2.37,10.12,10.12,0,0,0,2.57,2,14,14,0,0,0,3.28,1.27,11.7,11.7,0,0,0,3.84.27,13.57,13.57,0,0,0,4.13-1l.95-.4a21.71,21.71,0,0,0,4.3-2.27,6,6,0,0,0,2-2.17,6.83,6.83,0,0,0,.51-2.74,1.27,1.27,0,0,1,.49-1,.94.94,0,0,1,1-.14,1.09,1.09,0,0,1,.66.8,37.59,37.59,0,0,0,5.18,12.4,1.12,1.12,0,0,1,.1,1,1,1,0,0,1-.77.58,1.24,1.24,0,0,1-1.07-.39A6.75,6.75,0,0,0,84.46,275a5.78,5.78,0,0,0-2.91-.13,21.59,21.59,0,0,0-4.65,1.46l-1,.4A13.29,13.29,0,0,0,72.33,279a11.66,11.66,0,0,0-2.51,2.92,13.62,13.62,0,0,0-1.4,3.22,9.84,9.84,0,0,0-.41,3.21,7.92,7.92,0,0,0,.58,2.79,4.25,4.25,0,0,0,1.9,2.34,3.06,3.06,0,0,0,2.61,0,15.2,15.2,0,0,0,2.26-1.32q1.5-1,3.82-2.34a43.24,43.24,0,0,1,5-2.47h0A11.2,11.2,0,0,0,86.5,286a5,5,0,0,0,1.35-1.49,5.77,5.77,0,0,0,.61-1.58,12.9,12.9,0,0,0,.19-1.9,1.25,1.25,0,0,1,.47-1,1,1,0,0,1,1-.14,1.09,1.09,0,0,1,.66.8,46.39,46.39,0,0,0,2,6.43,51.07,51.07,0,0,0,3.47,6.74,1.1,1.1,0,0,1,.1,1,.92.92,0,0,1-.77.58,1.26,1.26,0,0,1-1.07-.38,14.86,14.86,0,0,0-1.5-1.28,6.65,6.65,0,0,0-1.5-.8,4.54,4.54,0,0,0-1.79-.32,10,10,0,0,0-2.21.32,19.91,19.91,0,0,0-2.93,1,38.11,38.11,0,0,0-5.25,3.1,31.07,31.07,0,0,1-4.12,2.52,7.72,7.72,0,0,1-3.11.65,5.26,5.26,0,0,1-2.6-.67,7.61,7.61,0,0,1-2-1.69,9.4,9.4,0,0,1-1.44-2.42A16.72,16.72,0,0,1,64.62,288a12.73,12.73,0,0,1,1.93-6.21,1.37,1.37,0,0,0,.29-1,.46.46,0,0,0-.51-.43,1.78,1.78,0,0,0-1,.5l-.71.74a9,9,0,0,1-.88.84A3,3,0,0,1,63,282.89Z"/><path d="M74.07,216v0a2.82,2.82,0,0,1-.22,1.68,1.25,1.25,0,0,1-1.06.51,3.49,3.49,0,0,1-1.17-.14,4.31,4.31,0,0,0-.91-.16.51.51,0,0,0-.42.23.55.55,0,0,0,0,.52,1.15,1.15,0,0,0,.49.55,7.8,7.8,0,0,1,1.39,1.24,15.34,15.34,0,0,1,1.44,1.93,11.61,11.61,0,0,1,1.28,2.95,17,17,0,0,1,.68,3.87,20.17,20.17,0,0,1,0,3.31A9.55,9.55,0,0,1,75,235a7.52,7.52,0,0,1-1,1.8A4.33,4.33,0,0,1,72.58,238a7.39,7.39,0,0,1-1.73.7,10.57,10.57,0,0,1-2,.32q-3.77.26-5.66-2.14c-1.26-1.6-2-4.33-2.29-8.22s.06-6.9,1-8.68a.92.92,0,0,0,0-1.09c-.23-.31-.61-.29-1.13.05a11,11,0,0,1-5.35,1.83l-1,0-1,0a4.41,4.41,0,0,0-3,1,3.86,3.86,0,0,0-.62,2.84,7.94,7.94,0,0,0,.77,3.12,7.19,7.19,0,0,0,2,2.34,22.68,22.68,0,0,0,5.76,3.33,1.78,1.78,0,0,1,1.34,1.45.89.89,0,0,1-.54,1,1.12,1.12,0,0,1-.67.11,21.52,21.52,0,0,0-3.88-.15q-3.37.23-4.72,2a1.52,1.52,0,0,1-1,.54,1.1,1.1,0,0,1-1-.46,1.32,1.32,0,0,1-.25-1.25,14.94,14.94,0,0,0,.14-4.14c0-.68-.23-2-.53-3.83s-.49-3.27-.55-4.17a33.08,33.08,0,0,1-.08-3.89,13.31,13.31,0,0,1,.49-3.1,6.24,6.24,0,0,1,1.23-2.38,5.93,5.93,0,0,1,2.14-1.51,9.93,9.93,0,0,1,3.25-.72,41.56,41.56,0,0,1,5,.22,54,54,0,0,0,5.59.23A17.86,17.86,0,0,0,67.1,213a9.69,9.69,0,0,0,1.94-.72,4.35,4.35,0,0,0,1.35-1.08,7.25,7.25,0,0,0,.92-1.36,13.75,13.75,0,0,0,.74-1.75,1.28,1.28,0,0,1,.79-.83,1,1,0,0,1,1,.18,1.12,1.12,0,0,1,.37,1A51.34,51.34,0,0,0,74.07,216Zm-5,5.27a3,3,0,0,0-2.14-.78,3,3,0,0,0-1.79.68A3.66,3.66,0,0,0,64,222.88a9.78,9.78,0,0,0-.44,2.5,24.63,24.63,0,0,0,0,3.28,7.11,7.11,0,0,0,.46,2.35,1.12,1.12,0,0,0,1.18.74,8.73,8.73,0,0,0,1.31-.24,10.42,10.42,0,0,1,1.62-.26c.52,0,1.14-.06,1.86-.06s1.22,0,1.5-.05a.94.94,0,0,0,.84-.42,2.8,2.8,0,0,0,.14-1.33,13.83,13.83,0,0,0-.58-3,16.32,16.32,0,0,0-1.19-2.93A7,7,0,0,0,69,221.26Z"/><path d="M44.4,190.56c-.52,3.82-1.83,5.58-3.92,5.3a2.56,2.56,0,0,1-2.14-1.76,9.12,9.12,0,0,1-.23-4.39c.53-3.9,1.84-5.7,3.94-5.42S44.92,186.66,44.4,190.56Zm30.74,11.73a1.07,1.07,0,0,1-.43.93.92.92,0,0,1-1,.12,1.28,1.28,0,0,1-.73-.87,15,15,0,0,0-.65-1.89,6.92,6.92,0,0,0-.92-1.46,4.67,4.67,0,0,0-1.44-1.2,11,11,0,0,0-2.15-.85,21.78,21.78,0,0,0-3.14-.62l-6.24-.85a23,23,0,0,0-3.19-.23,11.28,11.28,0,0,0-2.3.24,4.79,4.79,0,0,0-1.7.78A7.22,7.22,0,0,0,50,197.55a13.15,13.15,0,0,0-1.13,1.65,1.3,1.3,0,0,1-.94.65.92.92,0,0,1-.89-.37,1.07,1.07,0,0,1-.17-1,51.34,51.34,0,0,0,1.61-7.41,51,51,0,0,0,.41-7.57,1.11,1.11,0,0,1,.44-.94.94.94,0,0,1,1-.11,1.27,1.27,0,0,1,.72.87,13.37,13.37,0,0,0,.66,1.89,6.77,6.77,0,0,0,.92,1.46,4.75,4.75,0,0,0,1.43,1.2,10.83,10.83,0,0,0,2.16.84,20.25,20.25,0,0,0,3.13.63l6.24.84a20.39,20.39,0,0,0,3.19.23,11.2,11.2,0,0,0,2.3-.23,4.76,4.76,0,0,0,1.71-.78A7.22,7.22,0,0,0,74,188.22a15.72,15.72,0,0,0,1.13-1.65,1.27,1.27,0,0,1,.94-.65.92.92,0,0,1,.89.37,1.1,1.1,0,0,1,.17,1,51.34,51.34,0,0,0-1.62,7.4A52.61,52.61,0,0,0,75.14,202.29Z"/><path d="M78.52,181a1.1,1.1,0,0,1-.57.86.92.92,0,0,1-1,0,1.27,1.27,0,0,1-.59-1,14.29,14.29,0,0,0-.36-2,6.49,6.49,0,0,0-.69-1.58,4.51,4.51,0,0,0-1.24-1.41,10.48,10.48,0,0,0-2-1.16,22.37,22.37,0,0,0-3-1.09L55,169.47a21,21,0,0,0-3.12-.71,10,10,0,0,0-2.31-.11,4.83,4.83,0,0,0-1.8.5,6.85,6.85,0,0,0-1.43,1A14.7,14.7,0,0,0,45,171.57a1.32,1.32,0,0,1-1,.5,1,1,0,0,1-.83-.5,1.07,1.07,0,0,1,0-1,53.35,53.35,0,0,0,2.72-7.08A51.93,51.93,0,0,0,47.39,156a1.06,1.06,0,0,1,.57-.86.92.92,0,0,1,1,0,1.25,1.25,0,0,1,.59,1,14.47,14.47,0,0,0,.36,2,7.1,7.1,0,0,0,.69,1.58,4.73,4.73,0,0,0,1.24,1.4,10.81,10.81,0,0,0,2,1.16,21.06,21.06,0,0,0,3,1.09l14.1,4.16a22.3,22.3,0,0,0,3.12.71,11.27,11.27,0,0,0,2.31.11,4.66,4.66,0,0,0,1.8-.51,6.85,6.85,0,0,0,1.43-1,13.38,13.38,0,0,0,1.37-1.45,1.26,1.26,0,0,1,1-.5.92.92,0,0,1,.83.49,1.12,1.12,0,0,1,0,1,49.78,49.78,0,0,0-2.72,7.08A51.59,51.59,0,0,0,78.52,181Z"/><path d="M86,157.09a1.48,1.48,0,0,1-.92,2.17,8.22,8.22,0,0,1-1,.27,8.27,8.27,0,0,0-1.27.41,7.79,7.79,0,0,0-1.08.57,4.67,4.67,0,0,1-.91.46,1.53,1.53,0,0,1-2.16-.91,5.26,5.26,0,0,1-.19-.51l-.25-.82c-.09-.32-.17-.6-.25-.83a5.69,5.69,0,0,0-.58-1.22,8.5,8.5,0,0,1-.49-.88,1.5,1.5,0,0,1,.92-2.16,8.49,8.49,0,0,1,1-.29,11.37,11.37,0,0,0,1.23-.36,8,8,0,0,0,1.11-.55,7.22,7.22,0,0,1,.92-.47,1.52,1.52,0,0,1,2.16.92,7.26,7.26,0,0,1,.32,1A10.68,10.68,0,0,0,84.9,155a7.89,7.89,0,0,0,.6,1.21C85.78,156.7,85.94,157,86,157.09Z"/><path d="M94.61,135.13a8.3,8.3,0,0,0,1.33-5.38,10.15,10.15,0,0,0-2.28-5.3,1.72,1.72,0,0,1-.41-1.54,1.19,1.19,0,0,1,.88-1,1.24,1.24,0,0,1,1.29.43c2.34,2.43,3.62,4.88,3.82,7.37S98.62,135,96.75,138a29,29,0,0,1-2,2.8,19.78,19.78,0,0,1-2.17,2.33,11.8,11.8,0,0,1-2.46,1.76,10,10,0,0,1-2.79,1,10.15,10.15,0,0,1-3.17.14,15.09,15.09,0,0,1-3.61-.92A22.88,22.88,0,0,1,76.5,143,21.72,21.72,0,0,1,73,140.35a14.23,14.23,0,0,1-2.27-2.74,9.24,9.24,0,0,1-1.17-2.85,10.46,10.46,0,0,1-.27-2.91,12.32,12.32,0,0,1,.55-3,20.35,20.35,0,0,1,1.16-3c.47-1,1-2,1.68-3,.48-.76,1.27-1.89,2.38-3.37s1.85-2.51,2.2-3.08A13.35,13.35,0,0,0,78.9,113a1.32,1.32,0,0,1,.74-.93,1,1,0,0,1,1,.06,1.4,1.4,0,0,1,.58.87q.31,2,3.52,4a24.16,24.16,0,0,0,3.6,1.8.93.93,0,0,1,.64,1,1.07,1.07,0,0,1-.85,1,1.81,1.81,0,0,1-1,0,15.21,15.21,0,0,0-6.48-.27,7.14,7.14,0,0,0-3.05,1.27,9.49,9.49,0,0,0-2.26,2.62,9.87,9.87,0,0,0-1.08,2.25,5.5,5.5,0,0,0-.2,2.15,4.72,4.72,0,0,0,.86,2.22,12.89,12.89,0,0,0,2.17,2.35,28.71,28.71,0,0,0,3.67,2.63,26.94,26.94,0,0,0,5,2.56,7.75,7.75,0,0,0,3.77.49,5.7,5.7,0,0,0,2.77-1.23A11.17,11.17,0,0,0,94.61,135.13Z"/><path d="M97.19,112.16a22.2,22.2,0,0,1-3-3.71,13.21,13.21,0,0,1-1.66-3.87,9.47,9.47,0,0,1-.12-4.1,13.34,13.34,0,0,1,1.78-4.36A24.63,24.63,0,0,1,98,91.43a24.32,24.32,0,0,1,4.8-3.76A13.21,13.21,0,0,1,107.22,86a9.79,9.79,0,0,1,4.1.21,12.7,12.7,0,0,1,3.83,1.73,23.41,23.41,0,0,1,3.64,3.1,23.13,23.13,0,0,1,3,3.68,12.88,12.88,0,0,1,1.64,3.86,10.07,10.07,0,0,1,.12,4.09,13.13,13.13,0,0,1-1.77,4.37,27.65,27.65,0,0,1-8.64,8.45,13.18,13.18,0,0,1-4.4,1.67,9.79,9.79,0,0,1-4.1-.21,12.84,12.84,0,0,1-3.81-1.73A22.19,22.19,0,0,1,97.19,112.16Zm18.34-17.94a1.43,1.43,0,0,0-1.14-.46,3.63,3.63,0,0,0-1.31.36c-.44.21-.88.42-1.34.62a3.08,3.08,0,0,1-1.4.25,2,2,0,0,1-1.33-.65,7.57,7.57,0,0,1-.85-1.14,7,7,0,0,0-.79-1.07A3.6,3.6,0,0,0,104.1,91a10.1,10.1,0,0,0-6.6,6.46,3.58,3.58,0,0,0,1,3.29,8,8,0,0,0,1,.82,8.17,8.17,0,0,1,1.12.89,1.9,1.9,0,0,1,.6,1.36,3.25,3.25,0,0,1-.36,1.47c-.24.48-.49,1-.74,1.41a3.69,3.69,0,0,0-.46,1.38,1.36,1.36,0,0,0,.41,1.17,1.35,1.35,0,0,0,1.14.42,3.71,3.71,0,0,0,1.39-.43c.47-.25.95-.48,1.43-.71a3.22,3.22,0,0,1,1.47-.33,1.89,1.89,0,0,1,1.34.62,7.5,7.5,0,0,1,.86,1.14,8.11,8.11,0,0,0,.79,1.06,3.61,3.61,0,0,0,3.27,1.11,10.09,10.09,0,0,0,6.61-6.46,3.58,3.58,0,0,0-1-3.3,6.43,6.43,0,0,0-1-.8,7.66,7.66,0,0,1-1.12-.88,1.91,1.91,0,0,1-.61-1.33,3,3,0,0,1,.29-1.4c.2-.45.42-.89.64-1.32a3.64,3.64,0,0,0,.39-1.31A1.42,1.42,0,0,0,115.53,94.22Z"/><path d="M141,63a1.66,1.66,0,0,1,.23-1.73,5.65,5.65,0,0,1,2.25-1.7l.23-.11a5.55,5.55,0,0,1,2.74-.7,1.65,1.65,0,0,1,1.48.91,3,3,0,0,1,.25.73,3.53,3.53,0,0,1,.1.71c0,.2,0,.48,0,.84s0,.64,0,.83a1.67,1.67,0,0,0,.39,1,.46.46,0,0,0,.66,0,1.42,1.42,0,0,0,.47-1,12.76,12.76,0,0,1,2.69-5.93,16.72,16.72,0,0,1,6-4.59,9.27,9.27,0,0,1,2.7-.85,7.56,7.56,0,0,1,2.6.06,5.23,5.23,0,0,1,2.39,1.23,7.67,7.67,0,0,1,1.88,2.56,29,29,0,0,1,1.44,4.77,36.37,36.37,0,0,0,2,6.06A20.48,20.48,0,0,0,173,68.65a10.22,10.22,0,0,0,1.4,1.6,4.52,4.52,0,0,0,1.52.88,7.31,7.31,0,0,0,1.63.37,16.44,16.44,0,0,0,1.93,0,1.25,1.25,0,0,1,1.05.42.93.93,0,0,1,.19,1,1.08,1.08,0,0,1-.76.7,49.67,49.67,0,0,0-7,2.72,45.42,45.42,0,0,0-5.8,3.45,1.09,1.09,0,0,1-1,.16.93.93,0,0,1-.62-.74,1.24,1.24,0,0,1,.33-1.09,12.86,12.86,0,0,0,1.12-1.54,5.85,5.85,0,0,0,.6-1.59,5.05,5.05,0,0,0,0-2,10.69,10.69,0,0,0-.88-2.46v0a43.17,43.17,0,0,1-2.1-5.17c-.56-1.69-1-3.13-1.29-4.29a16.42,16.42,0,0,0-.81-2.49,3.07,3.07,0,0,0-1.92-1.77,4.27,4.27,0,0,0-3,.49A8.11,8.11,0,0,0,155.24,59a10.49,10.49,0,0,0-1.83,2.67A13.62,13.62,0,0,0,152.32,65a11.71,11.71,0,0,0-.08,3.85,13.82,13.82,0,0,0,1.23,4.07l.45.93a21.54,21.54,0,0,0,2.5,4.18,6,6,0,0,0,2.26,1.85,7,7,0,0,0,2.76.37,1.28,1.28,0,0,1,1.06.42,1,1,0,0,1,.19,1,1.1,1.1,0,0,1-.76.7,37.45,37.45,0,0,0-12.12,5.82,1.06,1.06,0,0,1-1,.15.93.93,0,0,1-.62-.74,1.23,1.23,0,0,1,.33-1.08,7.26,7.26,0,0,0,1.44-2.4,6,6,0,0,0,0-2.92,20.84,20.84,0,0,0-1.71-4.56l-.44-.93a13.53,13.53,0,0,0-2.41-3.5,11.52,11.52,0,0,0-3-2.35A13.67,13.67,0,0,0,139,68.54a10.29,10.29,0,0,0-3.23-.25A8,8,0,0,0,133,69a4.32,4.32,0,0,0-2.25,2,3.11,3.11,0,0,0,.18,2.61,15.54,15.54,0,0,0,1.44,2.18c.72,1,1.56,2.2,2.54,3.7a43.19,43.19,0,0,1,2.72,4.87v0a10.65,10.65,0,0,0,1.37,2.22,4.88,4.88,0,0,0,1.55,1.27,5.78,5.78,0,0,0,1.62.53,11,11,0,0,0,1.91.08,1.28,1.28,0,0,1,1.05.43,1,1,0,0,1,.19,1,1.12,1.12,0,0,1-.76.7A45.87,45.87,0,0,0,138.29,93a51.16,51.16,0,0,0-6.55,3.82,1.06,1.06,0,0,1-1,.15.91.91,0,0,1-.62-.73,1.26,1.26,0,0,1,.32-1.09,16.54,16.54,0,0,0,1.21-1.57,7.09,7.09,0,0,0,.72-1.54,4.74,4.74,0,0,0,.22-1.8,10.49,10.49,0,0,0-.43-2.19A20.57,20.57,0,0,0,131,85.13a38,38,0,0,0-3.37-5.08,29.1,29.1,0,0,1-2.73-4,7.79,7.79,0,0,1-.82-3.07,5.38,5.38,0,0,1,.54-2.63,7.59,7.59,0,0,1,1.58-2.08,9.07,9.07,0,0,1,2.35-1.56,16.75,16.75,0,0,1,7.35-1.84,12.77,12.77,0,0,1,6.3,1.61,1.41,1.41,0,0,0,1.06.24.46.46,0,0,0,.4-.53,1.79,1.79,0,0,0-.55-.93l-.78-.68a9.53,9.53,0,0,1-.88-.83A3.89,3.89,0,0,1,141,63Z"/></g><path d="M129.88,144.35a9,9,0,0,0-1-.22,4.29,4.29,0,0,1,.08-.77,2.38,2.38,0,0,1,.32-.78,4,4,0,0,1,1.29.17,4.61,4.61,0,0,1,1.38.67,6.88,6.88,0,0,1,2.52,3.14,11.79,11.79,0,0,1,.72,4.3,6.83,6.83,0,0,1,3.77-1.77,5,5,0,0,1,3.48.85,5.7,5.7,0,0,1,1.94,2.31,7.45,7.45,0,0,1,.67,3.07,10.24,10.24,0,0,1-.62,3.53,15.75,15.75,0,0,1-4.92,6.88,9.87,9.87,0,0,1-3.55,1.83,8.77,8.77,0,0,1-4,.1,11.51,11.51,0,0,1-4.32-2,17.32,17.32,0,0,1-4.2-4.21,22.87,22.87,0,0,1-2.73-5.08,9.26,9.26,0,0,1,.48-1,9.77,9.77,0,0,1,.63-1,32.2,32.2,0,0,0,2.64,5,14.22,14.22,0,0,0,3.79,3.94,11,11,0,0,0,4.17,1.9,7.5,7.5,0,0,0,3.67-.18,3.21,3.21,0,0,0-.31-1.72,5,5,0,0,0-1.66-1.68l-.88-.57c-.42-.28-.89-.57-1.4-.9s-1-.66-1.54-1-.94-.61-1.26-.84l-1-.7-1.08-.76-1-.7c-.3-.22-.52-.39-.65-.51a9.45,9.45,0,0,1,.22-1.28,9,9,0,0,1,.36-1.32,16.72,16.72,0,0,0,1.81,1.65c.64.51,1.21,1,1.72,1.3.31.22.73.5,1.26.85l1.61,1.07c.54.37,1.06.72,1.55,1l1.09.74a8.49,8.49,0,0,1,2.27,2.17,3.67,3.67,0,0,1,.62,2.38,10.6,10.6,0,0,0,1.77-1.42A13.79,13.79,0,0,0,141.2,161a10.33,10.33,0,0,0,1.94-4.7,4.73,4.73,0,0,0-.95-3.76c-.5.74-1.1,1.6-1.81,2.57s-1.35,1.84-1.93,2.61q.56.39,1.08.81l.89.71a6.84,6.84,0,0,1-.46,1,6.47,6.47,0,0,1-.55.8c-.63-.49-1.36-1-2.18-1.65s-1.63-1.2-2.45-1.78-1.57-1.06-2.61-1.72-2-1.28-2.87-1.9a6.85,6.85,0,0,1-2.61-3.08,5.44,5.44,0,0,1-.24-3.32,6.22,6.22,0,0,0,2.8-.49,4.53,4.53,0,0,0,2.28-1.78l-.18-.16-.2-.13A4,4,0,0,0,129.88,144.35Zm1.85,8.75,1.59,1.05a19.06,19.06,0,0,0,.25-4.3,7.44,7.44,0,0,0-.83-3.07,6.16,6.16,0,0,1-1.77,2,6.38,6.38,0,0,1-2.67,1.08A4.32,4.32,0,0,0,129,151a6.79,6.79,0,0,0,1.21,1.06C130.68,152.41,131.18,152.75,131.73,153.1Zm4.52,3,.78.55c.55-.74,1.17-1.59,1.86-2.54s1.32-1.84,1.88-2.64a3.78,3.78,0,0,0-3.06.11,9,9,0,0,0-3.47,3.15c.26.15.5.31.72.46l.57.41Z"/><path d="M154.63,146.58a15.81,15.81,0,0,1-.61,2.62,23.83,23.83,0,0,1-2.73,1.29c-.89.34-1.8.66-2.72.95a16,16,0,0,0-.83-1.38,9.33,9.33,0,0,0-.91-1.08c-.48-.49-1.07-1-1.77-1.61s-1.32-1.15-1.85-1.69a4.61,4.61,0,0,1-1.44-3.51,10,10,0,0,1,1.56-4.51c.85.06,1.85.18,3,.35a22,22,0,0,1,3,.66,4.35,4.35,0,0,1,.65.66c-.12,1.43-.29,2.85-.52,4.27s-.51,2.82-.84,4.21c.24.21.46.42.66.61s.39.36.56.5l1.38-.84c.47-.3,1-.61,1.48-.91,0-.48.07-1,.1-1.59s.07-1.15.1-1.72a5,5,0,0,1,1,0,3.27,3.27,0,0,1,.91.13A16.57,16.57,0,0,1,154.63,146.58Zm-9.18-1.77c.57.54,1.17,1.11,1.78,1.71.06-.45.14-1,.23-1.5s.18-1.1.26-1.64.16-1.08.24-1.58.14-.94.2-1.27a19.42,19.42,0,0,0-2-.35c-.79-.1-1.51-.18-2.18-.23a5.21,5.21,0,0,0-.43,2.11,2.36,2.36,0,0,0,.74,1.59C144.47,143.88,144.87,144.26,145.45,144.81Z"/><path d="M148.79,134.55a3.39,3.39,0,0,1-.42-.62c-.17-.73-.33-1.58-.47-2.53s-.26-1.84-.33-2.65a2.94,2.94,0,0,1,.7-.31,3.82,3.82,0,0,1,.78-.18c.28.55.57,1.08.88,1.6a18.79,18.79,0,0,0,1.08,1.6l2.8-2.22c.25.29.48.58.71.88a5.09,5.09,0,0,1,.55.92c-.39.31-.83.64-1.32,1s-1,.69-1.5,1c.53.7,1.14,1.48,1.81,2.35s1.54,2,2.6,3.3c.44.57.85,1.07,1.21,1.49s.69.81,1,1.14l.61-.24.64-.21a11,11,0,0,1,.2-1.17q.13-.63.24-1a4.61,4.61,0,0,1,1,.06,3,3,0,0,1,.88.22,11.78,11.78,0,0,1-.37,1.88q-.25.94-.63,2a18,18,0,0,1-2.14.39c-.79.09-1.51.14-2.13.15a7.23,7.23,0,0,0-.63-1.45,14.13,14.13,0,0,0-1-1.47l-4.9-6.19a7.31,7.31,0,0,1-.64.39l-.68.39A2.38,2.38,0,0,1,148.79,134.55Z"/><path d="M171.55,131a5.37,5.37,0,0,1,2.1,1.24,2.42,2.42,0,0,0,.88-1.49,3.18,3.18,0,0,0-.41-1.86c-.33-.66-.69-1.37-1.08-2.12L172,124.64c-.76.41-1.54.81-2.35,1.22s-1.44.73-1.88,1a6.4,6.4,0,0,1-.41-1c-.14-.43-.26-.8-.35-1.12a16.2,16.2,0,0,1,1.82-.82c.77-.31,1.54-.63,2.29-1-.32-.62-.62-1.24-.93-1.87s-.5-1.06-.61-1.32a10.48,10.48,0,0,1,.78-1,12.8,12.8,0,0,1,1-1,15.87,15.87,0,0,0,.72,2.06c.29.7.62,1.43,1,2.19.24-.15.49-.28.75-.41a8,8,0,0,0,.72-.4,24.57,24.57,0,0,1-1.32-3.46,18.42,18.42,0,0,1-.6-3.19,9.52,9.52,0,0,1-1.59,1.79,11.09,11.09,0,0,1-2.34,1.56,13.47,13.47,0,0,1-7.43,1.37,8.9,8.9,0,0,1,0-1.36,4.67,4.67,0,0,1,.26-1.32,26.32,26.32,0,0,0,3.64,0,8.41,8.41,0,0,0,3.18-.88,8.22,8.22,0,0,0,2.63-2.06,7.24,7.24,0,0,0,1.46-2.64,4.3,4.3,0,0,1,1-.07,4.52,4.52,0,0,1,.9.13,15.42,15.42,0,0,0,.38,4.2,24.75,24.75,0,0,0,1.65,4.92c.33-.19.65-.36,1-.52s.59-.3.81-.43a11.73,11.73,0,0,1,.41,1.12,10,10,0,0,1,.29,1.08l-.68.34c-.26.13-.54.26-.84.38q1.22,2.49,2.08,4.41c.58,1.29,1.19,2.65,1.81,4.08a5.25,5.25,0,0,1-.88.48,6.91,6.91,0,0,1-.9.31q-1-2.28-1.91-4.21c-.6-1.28-1.28-2.68-2-4.18-.24.1-.49.21-.74.34l-.76.35c.28.55.58,1.15.92,1.8s.69,1.34,1.05,2.07a5.33,5.33,0,0,1,.53,4.05,5.78,5.78,0,0,1-2.59,3.13,9,9,0,0,0-1.55-1,7.56,7.56,0,0,0-1.66-.6l-.18,1.15c-.07.38-.13.69-.19.92a5.34,5.34,0,0,1-1-.08,5.15,5.15,0,0,1-.92-.2,22.2,22.2,0,0,1,.39-2.33,17.45,17.45,0,0,1,.49-1.87A5.64,5.64,0,0,1,171.55,131Z"/><path d="M180.44,115.3a6.43,6.43,0,0,1,.81-1.25l1.7,1.89c.56.63,1.16,1.25,1.81,1.86a14.06,14.06,0,0,1,.31-2.81,17.42,17.42,0,0,1,.68-2.33,18.28,18.28,0,0,1,2.74,0,26.81,26.81,0,0,1,3.28.44c0,.43,0,.8,0,1.1s.05.57.08.82.09.5.15.74.15.53.25.85.3,1,.49,1.54l.59,1.82c.2.61.41,1.23.61,1.83s.4,1.14.56,1.59q.66,0,1.32.06a11.85,11.85,0,0,1,1.19.14,6.25,6.25,0,0,1-.41,1.22c-.17.39-.35.77-.53,1.14q-1.12-.28-2.1-.57c-.66-.2-1.25-.4-1.78-.62a7,7,0,0,0-.06-1.58,12.78,12.78,0,0,0-.44-1.75l-.5-1.65c-.19-.6-.38-1.2-.58-1.8s-.38-1.18-.57-1.74-.34-1-.49-1.47h-3a15.41,15.41,0,0,0,0,9.16c.09.29.18.57.28.84s.19.56.3.84c.46,0,.91,0,1.35,0a9,9,0,0,1,1.23.16,7.26,7.26,0,0,1-.4,1.22c-.16.38-.32.76-.48,1.12-.77-.18-1.49-.37-2.15-.56A15.5,15.5,0,0,1,185,127a6.4,6.4,0,0,0-.07-1.58,12.62,12.62,0,0,0-.43-1.75c-.25-.82-.54-1.72-.85-2.67s-.63-1.88-.94-2.74c-.52-.24-1-.51-1.55-.8a12.45,12.45,0,0,1-1.18-.72A6.35,6.35,0,0,1,180.44,115.3Z"/><path d="M205.68,107.8a5,5,0,0,1-.61.77c-.31-.07-.73-.18-1.26-.34a12,12,0,0,1-1.3-.47c-.06-.14-.12-.26-.16-.37a1.7,1.7,0,0,1-.08-.49,2.9,2.9,0,0,1,.58-1.82,5.66,5.66,0,0,1,1.68-1.52,10.21,10.21,0,0,1,2.56-1.07,13.48,13.48,0,0,1,3.2-.48c.8,0,1.7,0,2.72,0s2,.14,3,.22l2.89.22a20.77,20.77,0,0,0,2.24.07,6.52,6.52,0,0,0,2.15-.42,6.31,6.31,0,0,0,1.76-1.1,2.31,2.31,0,0,1,.65.32,3.78,3.78,0,0,1,.54.41,4.52,4.52,0,0,1-2.05,2.06,7.85,7.85,0,0,1-3.6.91c-.26,0-.56,0-.89,0l-1.06,0a12.24,12.24,0,0,0-.3,2.09,21.36,21.36,0,0,0,0,2.28q0,1,.12,2.22c.06.8.11,1.58.13,2.33l.06,1.44c0,.52,0,1,0,1.54V118c0,.46,0,.85-.05,1.17a3.82,3.82,0,0,1-.95.43,5.48,5.48,0,0,1-1,.21q.06-1,0-2.55t-.09-3.09c0-.56-.06-1.29-.12-2.2s-.11-1.73-.14-2.45a18.5,18.5,0,0,1,.07-2.76,9.74,9.74,0,0,1,.47-2.21l-3.74-.3a26.86,26.86,0,0,0-3.21-.1,10.81,10.81,0,0,0-3.45.63,5.51,5.51,0,0,0-2.33,1.53c.33.07.67.15,1,.25s.72.18,1.06.25C206.06,107.17,205.88,107.49,205.68,107.8ZM220,122.58a12.62,12.62,0,0,1-4.23.88,11.14,11.14,0,0,1-3.89-.49,8.26,8.26,0,0,1-2.94-1.65,7.42,7.42,0,0,1-1.89-2.64,9.6,9.6,0,0,1-.74-3.43,14.4,14.4,0,0,1,.46-3.94,13.53,13.53,0,0,1,1.57-3.82,6.12,6.12,0,0,1,.89-.27,7.52,7.52,0,0,1,1.1-.2,16.57,16.57,0,0,0-1.36,3.84,15,15,0,0,0-.37,3.71,8.51,8.51,0,0,0,.71,3.27,5.44,5.44,0,0,0,1.77,2.22,4.1,4.1,0,0,0,1.48-1.36,4.61,4.61,0,0,0,.42-2.52c0-.84-.1-1.71-.2-2.61s-.17-1.75-.2-2.54c0-1-.06-1.88-.08-2.56s0-1.29,0-1.86c.24-.14.62-.34,1.15-.59a10.41,10.41,0,0,1,1.27-.52,18.13,18.13,0,0,0-.22,2.44c0,.83,0,1.55,0,2.17s.09,1.66.17,2.69.15,2,.18,2.88a7.89,7.89,0,0,1-.43,3.29,4,4,0,0,1-1.77,2,7.74,7.74,0,0,0,1.45.3,14.13,14.13,0,0,0,1.62.09,11.09,11.09,0,0,0,4.16-.87,13.47,13.47,0,0,0,3.51-2.17,6,6,0,0,1-.2,2A9.15,9.15,0,0,1,220,122.58Z"/><path d="M228,122.93a20.5,20.5,0,0,1-2.48-1.59,15.16,15.16,0,0,0,.58-1.5,9,9,0,0,0,.29-1.38c.09-.67.15-1.47.19-2.38a22.44,22.44,0,0,1,.2-2.5,5.35,5.35,0,0,1,1.49-3.42,8.38,8.38,0,0,1,4.11-1.52c.87.38,1.78.83,2.72,1.35a20.5,20.5,0,0,1,2.48,1.59,15.16,15.16,0,0,0-.58,1.5,9,9,0,0,0-.29,1.38c-.09.67-.15,1.47-.18,2.38s-.1,1.75-.2,2.5a5.36,5.36,0,0,1-1.5,3.42,8.33,8.33,0,0,1-4.11,1.52C229.88,123.9,229,123.45,228,122.93Zm.84-8.35c-.08.66-.16,1.37-.23,2.14s-.15,1.52-.22,2.27-.12,1.34-.16,1.78c.52.21,1.1.46,1.75.75l1.79.81a2.9,2.9,0,0,0,1.72-1,3.48,3.48,0,0,0,.6-1.61c0-.38.11-.9.19-1.58s.16-1.39.23-2.13.14-1.48.2-2.19.12-1.28.16-1.72c-.52-.21-1.1-.46-1.75-.75l-1.79-.81a2.9,2.9,0,0,0-1.72,1,3.48,3.48,0,0,0-.6,1.61C229,113.45,228.94,113.92,228.87,114.58Z"/><path d="M249.89,127.8a6.15,6.15,0,0,1-1.36.61c-.13-.85-.26-1.69-.38-2.51s-.3-1.68-.5-2.55a13.48,13.48,0,0,1-1.8,2.18,16.16,16.16,0,0,1-1.85,1.58,16.08,16.08,0,0,1-2.17-1.5,28.33,28.33,0,0,1-2.43-2.14c.23-.37.42-.68.57-.94l.38-.73a6.81,6.81,0,0,0,.28-.7c.08-.24.16-.52.26-.85s.27-1,.43-1.56.33-1.21.5-1.84.33-1.25.49-1.87.29-1.17.41-1.63c-.37-.25-.73-.51-1.07-.78a11.55,11.55,0,0,1-.93-.77,7,7,0,0,1,1-.8c.35-.23.71-.45,1.06-.66.52.57,1,1.11,1.45,1.64a18.25,18.25,0,0,1,1.15,1.48,6.51,6.51,0,0,0-.81,1.36,14.32,14.32,0,0,0-.6,1.7l-.48,1.67c-.18.62-.35,1.23-.51,1.84s-.33,1.2-.48,1.77-.28,1.06-.38,1.49c.38.24.78.49,1.18.76l1.18.8a16.25,16.25,0,0,0,2.93-3.25,14.78,14.78,0,0,0,2-4.43c.09-.29.17-.58.24-.86s.13-.57.2-.86c-.39-.26-.75-.52-1.1-.79a8.54,8.54,0,0,1-.94-.8,6.8,6.8,0,0,1,1-.8l1-.68c.55.57,1,1.12,1.5,1.65a16.52,16.52,0,0,1,1.16,1.49,6,6,0,0,0-.81,1.36,13.71,13.71,0,0,0-.6,1.7q-.36,1.23-.75,2.7c-.26,1-.49,1.91-.71,2.81.3.48.59,1,.86,1.51a12.29,12.29,0,0,1,.59,1.25A6.06,6.06,0,0,1,249.89,127.8Z"/><path d="M261.35,121.17c0-.67,0-1.37.1-2.1a6.84,6.84,0,0,0-2.23.34,2.07,2.07,0,0,0-1.28,1.17c-.11.26-.29.69-.54,1.31l-.78,2c-.28.72-.56,1.44-.82,2.15l-.66,1.74c.33.28.7.57,1.08.88s.81.63,1.26,1l1.26-.3,1.38-.35a5.55,5.55,0,0,1,.35.73,1.92,1.92,0,0,1,.16.71,15.43,15.43,0,0,1-2.28.74,18,18,0,0,1-2.44.34c-.61-.61-1.2-1.24-1.78-1.89s-1.18-1.34-1.79-2.09a13.12,13.12,0,0,0,1-1.28A9,9,0,0,0,254,125c.27-.62.54-1.37.83-2.24s.57-1.65.87-2.35a4.31,4.31,0,0,1,2.93-2.55,12,12,0,0,1,5-.15,21.47,21.47,0,0,0-.08,2.86c0,.89.08,1.67.14,2.33a3.36,3.36,0,0,1-1.18.26l-1,0A13.2,13.2,0,0,1,261.35,121.17Z"/><path d="M262.87,133.69a14.51,14.51,0,0,1-.86-1.89,4.78,4.78,0,0,0,.65-.54,6.46,6.46,0,0,0,.63-.74,13.59,13.59,0,0,0,.76-1.13c.29-.46.63-1,1-1.72l5.53-9.28c-.2-.65-.36-1.26-.49-1.82s-.22-1-.27-1.42a4.51,4.51,0,0,1,1.29-.58,6.26,6.26,0,0,1,1.64-.3q-.12,1.26-.24,2.43c-.08.78-.14,1.46-.2,2.06a8,8,0,0,1,2.59-1.09,8.29,8.29,0,0,1,3.34-.13,3.8,3.8,0,0,1,0,.9,4.14,4.14,0,0,1-.17.89,10.6,10.6,0,0,0-4.46.61,7.46,7.46,0,0,0-3.69,3.41l-1.38,2.32a14.26,14.26,0,0,1,2.24-1.86,10.41,10.41,0,0,1,2.2-1.15c.24.23.53.54.87.92s.7.79,1.07,1.22.72.91,1.07,1.39.66,1,.94,1.4c-.32.3-.58.55-.79.77s-.4.42-.56.61a6.85,6.85,0,0,0-.45.61c-.13.2-.29.46-.46.75-.41.68-.8,1.36-1.16,2s-.69,1.3-1,1.88-.54,1.09-.76,1.52-.4.74-.52,1a8.45,8.45,0,0,1-4,3.76,9.74,9.74,0,0,1-5.35.43,3.68,3.68,0,0,1,0-.74,2,2,0,0,1,.19-.67,11.11,11.11,0,0,0,3.91-.62,5.78,5.78,0,0,0,2.92-2.64l1-1.72c.46-.78,1-1.62,1.49-2.53l1.56-2.7,1.23-2.19c-.35-.35-.71-.71-1.06-1.08l-1-1.1a15.6,15.6,0,0,0-3.65,2.36,14.5,14.5,0,0,0-3.12,3.73l-.44.77c-.14.25-.27.51-.4.76.36.37.73.77,1.09,1.19a12.2,12.2,0,0,1,.91,1.15c-.4.16-.82.31-1.27.45a11.12,11.12,0,0,1-1.29.33C263.63,135.07,263.25,134.42,262.87,133.69Z"/><path d="M182,303.35a6.83,6.83,0,0,0,0-1,3.76,3.76,0,0,1,.77-.11,2.48,2.48,0,0,1,.84.1,4.42,4.42,0,0,1,.15,1.3,4.52,4.52,0,0,1-.31,1.5,6.75,6.75,0,0,1-2.42,3.22,11.83,11.83,0,0,1-4,1.77,6.77,6.77,0,0,1,2.65,3.21,5,5,0,0,1,.05,3.58,5.75,5.75,0,0,1-1.76,2.46,7.52,7.52,0,0,1-2.81,1.41,10.31,10.31,0,0,1-3.57.27,15.75,15.75,0,0,1-7.88-3.05,10,10,0,0,1-2.66-3,8.8,8.8,0,0,1-1.09-3.84,11.38,11.38,0,0,1,.84-4.67,17.14,17.14,0,0,1,3-5.11A22.46,22.46,0,0,1,168,297.5a8.43,8.43,0,0,1,1.1.21,8.52,8.52,0,0,1,1.15.35,32.49,32.49,0,0,0-4.19,3.81,14.18,14.18,0,0,0-2.88,4.65,10.92,10.92,0,0,0-.8,4.5,7.67,7.67,0,0,0,1.08,3.52,3.24,3.24,0,0,0,1.59-.73,4.91,4.91,0,0,0,1.21-2c.07-.18.19-.51.35-1s.33-1,.51-1.58.38-1.16.58-1.74l.5-1.43.43-1.14.47-1.23c.15-.4.3-.78.44-1.12s.25-.59.33-.76a12.32,12.32,0,0,1,1.29-.1,8.32,8.32,0,0,1,1.37,0,18.56,18.56,0,0,0-1.15,2.16c-.34.75-.61,1.42-.83,2-.14.35-.31.83-.51,1.42s-.42,1.21-.64,1.83-.43,1.21-.61,1.75-.34,1-.44,1.25a8.44,8.44,0,0,1-1.55,2.74,3.71,3.71,0,0,1-2.14,1.19,11,11,0,0,0,1.81,1.36,13.44,13.44,0,0,0,2.16,1,10.22,10.22,0,0,0,5,.72,4.73,4.73,0,0,0,3.41-1.86c-.85-.3-1.83-.67-2.95-1.11s-2.11-.85-3-1.23c-.16.43-.33.85-.51,1.25s-.35.75-.48,1a6.86,6.86,0,0,1-1-.21,6,6,0,0,1-.92-.33c.32-.74.67-1.57,1.06-2.52s.76-1.88,1.11-2.82.64-1.78,1-2.95.75-2.25,1.13-3.26a6.89,6.89,0,0,1,2.33-3.29,5.51,5.51,0,0,1,3.16-1.05,6.39,6.39,0,0,0,1.17,2.59,4.53,4.53,0,0,0,2.28,1.76,1.13,1.13,0,0,0,.12-.21l.08-.23A4,4,0,0,0,182,303.35Zm-9.79,9.08-.34.9,2.93,1.17,3,1.17a3.79,3.79,0,0,0-.86-2.94,9.05,9.05,0,0,0-3.92-2.58c-.08.28-.18.55-.27.81l-.25.66Zm1.77-5.12-.61,1.81a19.55,19.55,0,0,0,4.22-.83,7.38,7.38,0,0,0,2.77-1.57,5.94,5.94,0,0,1-2.38-1.22,6.44,6.44,0,0,1-1.7-2.31,4,4,0,0,0-1,1,6.45,6.45,0,0,0-.73,1.44C174.36,306.13,174.15,306.7,173.94,307.31Z"/><path d="M190.81,324.79a16.81,16.81,0,0,1-2.49,1,20.39,20.39,0,0,1-2.62-1.49c-.8-.53-1.58-1.09-2.35-1.68a14.09,14.09,0,0,0,.65-1.46,7.78,7.78,0,0,0,.36-1.37q.18-1,.3-2.37c.08-.91.18-1.74.32-2.49a4.58,4.58,0,0,1,2-3.19,9.8,9.8,0,0,1,4.59-1.32c.43.73.91,1.61,1.43,2.65a21,21,0,0,1,1.19,2.83,4.16,4.16,0,0,1-.06.46,2.47,2.47,0,0,1-.11.45c-1.23.73-2.5,1.41-3.79,2s-2.6,1.2-3.92,1.73c0,.32-.08.62-.12.89s-.07.53-.09.75l1.48.64,1.6.69,1.36-.83,1.46-.91a5,5,0,0,1,.6.8,2.89,2.89,0,0,1,.41.82A18.54,18.54,0,0,1,190.81,324.79ZM187,316.26c-.11.78-.24,1.6-.38,2.45.41-.21.86-.44,1.37-.68l1.49-.73,1.42-.72L192,316a20.11,20.11,0,0,0-.89-1.88c-.37-.69-.72-1.33-1.07-1.9a5.09,5.09,0,0,0-2,.86,2.41,2.41,0,0,0-.87,1.51C187.18,314.93,187.09,315.48,187,316.26Z"/><path d="M196.94,312.66a3.36,3.36,0,0,1,.12-.74c.37-.65.82-1.38,1.37-2.18s1-1.52,1.55-2.17a3.72,3.72,0,0,1,.73.25,3.5,3.5,0,0,1,.69.4c-.17.59-.31,1.18-.44,1.77s-.22,1.23-.29,1.9l3.56.28c0,.38,0,.75-.07,1.12a5,5,0,0,1-.22,1c-.5,0-1-.09-1.64-.17s-1.19-.17-1.79-.27l-.27,3c-.09,1.09-.2,2.49-.33,4.18-.06.72-.09,1.36-.12,1.92s0,1.06,0,1.5l.61.24.61.27c.28-.24.6-.48.94-.72s.65-.44.88-.58a6,6,0,0,1,.68.71,3,3,0,0,1,.5.76,12.84,12.84,0,0,1-1.55,1.13c-.55.35-1.16.69-1.81,1a14.73,14.73,0,0,1-1.83-1.16c-.65-.47-1.2-.92-1.67-1.33a6.84,6.84,0,0,0,.52-1.5,13.26,13.26,0,0,0,.24-1.78l.6-7.87a7.43,7.43,0,0,1-.74-.15l-.77-.17A2.8,2.8,0,0,1,196.94,312.66Z"/><path d="M219.58,322.83a5.44,5.44,0,0,1,1.57,1.87,2.5,2.5,0,0,0,1.33-1.12,3.27,3.27,0,0,0,.23-1.89c-.1-.73-.2-1.52-.31-2.36s-.22-1.63-.32-2.36l-2.63.36c-.9.11-1.6.2-2.09.29a6.61,6.61,0,0,1,0-1.13c0-.46,0-.85,0-1.17a18.86,18.86,0,0,1,2-.18c.84,0,1.66-.08,2.48-.14-.09-.69-.17-1.38-.25-2.07s-.12-1.17-.13-1.45a11.46,11.46,0,0,1,1.06-.68,13.74,13.74,0,0,1,1.25-.64,15.81,15.81,0,0,0,0,2.18c0,.76.11,1.56.19,2.4.28-.06.56-.1.85-.14l.81-.13a23.63,23.63,0,0,1-.09-3.71,19.1,19.1,0,0,1,.49-3.2,8.72,8.72,0,0,1-2.09,1.15,10.73,10.73,0,0,1-2.72.69,13.31,13.31,0,0,1-3.89-.07,14.21,14.21,0,0,1-3.58-1.11,9.34,9.34,0,0,1,.46-1.29,5.45,5.45,0,0,1,.69-1.15A29.1,29.1,0,0,0,218.3,307a8.3,8.3,0,0,0,3.3.23,8,8,0,0,0,3.16-1.06,7.15,7.15,0,0,0,2.26-2,3.71,3.71,0,0,1,.93.26,3.82,3.82,0,0,1,.81.43,15.15,15.15,0,0,0-1,4.07,24.79,24.79,0,0,0-.09,5.2c.37-.07.73-.13,1.08-.17s.65-.09.9-.14a11.4,11.4,0,0,1,0,1.19c0,.43,0,.81-.09,1.11l-.76.1-.91.08c.21,1.83.37,3.45.49,4.85s.23,2.89.34,4.45a5.13,5.13,0,0,1-1,.15,5,5,0,0,1-1,0c-.13-1.66-.26-3.19-.4-4.6s-.31-3-.52-4.62a7.41,7.41,0,0,0-.8.07c-.28,0-.56.06-.84.07.07.62.16,1.28.27,2s.2,1.49.3,2.3a5.3,5.3,0,0,1-.86,4,5.8,5.8,0,0,1-3.49,2.09,8.42,8.42,0,0,0-1.13-1.45,7.41,7.41,0,0,0-1.37-1.11c-.17.34-.36.68-.55,1s-.35.6-.49.8a6,6,0,0,1-.91-.4,6.77,6.77,0,0,1-.8-.5,19.73,19.73,0,0,1,1.15-2.06c.44-.71.8-1.25,1.08-1.61A5.58,5.58,0,0,1,219.58,322.83Z"/><path d="M232,310.38a5.69,5.69,0,0,1,.83-1.24l1.66,1.92c.55.63,1.14,1.26,1.78,1.89a14,14,0,0,1,.36-2.81,17.2,17.2,0,0,1,.72-2.31,18.13,18.13,0,0,1,2.74.08,26.15,26.15,0,0,1,3.27.49c0,.44,0,.81,0,1.1s0,.58.07.83a6,6,0,0,0,.13.74c.06.24.14.53.24.85s.28,1,.46,1.56l.56,1.82c.19.62.38,1.23.58,1.84s.37,1.15.52,1.6q.68,0,1.32.09c.44,0,.84.09,1.19.15a6.76,6.76,0,0,1-.43,1.22c-.18.39-.36.76-.55,1.13-.74-.2-1.44-.41-2.09-.61a17.65,17.65,0,0,1-1.77-.65,6.42,6.42,0,0,0,0-1.58,14.19,14.19,0,0,0-.4-1.76l-.48-1.66-.54-1.81c-.19-.6-.37-1.18-.54-1.75s-.33-1.05-.47-1.47l-1.51,0h-1.5a15.37,15.37,0,0,0-.76,4.29,15.12,15.12,0,0,0,.63,4.86c.08.29.17.57.26.85s.19.55.29.84c.46,0,.91,0,1.35.08a8.75,8.75,0,0,1,1.22.17,7.48,7.48,0,0,1-.41,1.21c-.18.39-.34.76-.51,1.12-.76-.2-1.48-.4-2.14-.6a18,18,0,0,1-1.78-.64,6.41,6.41,0,0,0,0-1.58,12.42,12.42,0,0,0-.41-1.76c-.23-.83-.5-1.72-.8-2.69s-.6-1.88-.89-2.75c-.51-.25-1-.52-1.54-.82s-.9-.55-1.16-.74A5.47,5.47,0,0,1,232,310.38Z"/><path d="M254.43,301.29a4.46,4.46,0,0,1-.16,1c-.3.09-.72.19-1.27.31a10.69,10.69,0,0,1-1.36.22l-.32-.24a1.38,1.38,0,0,1-.3-.39,2.92,2.92,0,0,1-.38-1.88,5.7,5.7,0,0,1,.74-2.14A10,10,0,0,1,253.1,296a14,14,0,0,1,2.56-2c.69-.41,1.49-.84,2.41-1.27s1.83-.87,2.76-1.28l2.64-1.21a20.77,20.77,0,0,0,2-1,6.18,6.18,0,0,0,1.67-1.41,6,6,0,0,0,1-1.82,2.92,2.92,0,0,1,.73,0,4.09,4.09,0,0,1,.68.1,4.56,4.56,0,0,1-.81,2.79,7.76,7.76,0,0,1-2.71,2.54,6.88,6.88,0,0,1-.78.42l-.95.49a13.65,13.65,0,0,0,.75,2,20.33,20.33,0,0,0,1.09,2c.35.58.74,1.21,1.18,1.88s.85,1.33,1.25,2l.74,1.23c.27.45.52.89.76,1.33l.69,1.27c.22.4.4.75.53,1a3.44,3.44,0,0,1-.62.83,5,5,0,0,1-.81.7c-.28-.58-.68-1.33-1.21-2.25s-1-1.8-1.57-2.66q-.43-.72-1.17-1.86c-.5-.77-.93-1.46-1.3-2.08a19.12,19.12,0,0,1-1.29-2.45,9.87,9.87,0,0,1-.65-2.16l-3.41,1.55a28.7,28.7,0,0,0-2.87,1.46,10.83,10.83,0,0,0-2.7,2.23,5.37,5.37,0,0,0-1.3,2.46c.31-.1.65-.19,1-.28s.71-.19,1-.3A10.1,10.1,0,0,1,254.43,301.29Zm19.68,6a12.58,12.58,0,0,1-3.28,2.81,11,11,0,0,1-3.64,1.46,8.12,8.12,0,0,1-3.37,0,7.49,7.49,0,0,1-2.93-1.4,9.56,9.56,0,0,1-2.31-2.64,14,14,0,0,1-1.5-3.66,13.35,13.35,0,0,1-.48-4.11,5.51,5.51,0,0,1,.65-.67,6.21,6.21,0,0,1,.87-.7,16,16,0,0,0,.66,4,14.55,14.55,0,0,0,1.47,3.42,8.64,8.64,0,0,0,2.2,2.53,5.63,5.63,0,0,0,2.63,1.08,4.09,4.09,0,0,0,.64-1.91,4.68,4.68,0,0,0-.86-2.41c-.43-.72-.91-1.45-1.43-2.18s-1-1.45-1.41-2.13c-.52-.87-1-1.6-1.3-2.19s-.65-1.13-.92-1.62a12.34,12.34,0,0,1,.71-1.08,10.33,10.33,0,0,1,.87-1.06,17.87,17.87,0,0,0,1,2.24q.57,1.1,1.05,1.89c.4.65.88,1.41,1.46,2.28s1.1,1.67,1.55,2.42a8,8,0,0,1,1.21,3.09,3.86,3.86,0,0,1-.6,2.57,7.61,7.61,0,0,0,1.42-.43,15,15,0,0,0,1.46-.71,11.09,11.09,0,0,0,3.21-2.78,13.14,13.14,0,0,0,2-3.59,5.14,5.14,0,0,1,.5.94,6.62,6.62,0,0,1,.31.92A9.19,9.19,0,0,1,274.11,307.3Z"/><path d="M283.17,300.19a19.89,19.89,0,0,1-2.84.79,14.16,14.16,0,0,0-.73-1.43,7.89,7.89,0,0,0-.84-1.14c-.44-.52-1-1.09-1.65-1.73s-1.23-1.24-1.73-1.81a5.36,5.36,0,0,1-1.55-3.39,8.34,8.34,0,0,1,1.61-4.08c.86-.4,1.81-.77,2.82-1.13a22.45,22.45,0,0,1,2.84-.79,12.34,12.34,0,0,0,.73,1.43,7.78,7.78,0,0,0,.83,1.14c.44.52,1,1.1,1.65,1.73A23.64,23.64,0,0,1,286,291.6,5.38,5.38,0,0,1,287.6,295a8.38,8.38,0,0,1-1.61,4.07C285.12,299.46,284.18,299.84,283.17,300.19ZM277.5,294q.66.75,1.44,1.59l1.55,1.68,1.22,1.31c.5-.25,1.07-.51,1.72-.8l1.81-.8a3,3,0,0,0,.44-1.91,3.49,3.49,0,0,0-.81-1.52l-1.05-1.2c-.44-.51-.92-1-1.43-1.59l-1.49-1.61-1.18-1.26-1.72.8-1.81.79a3,3,0,0,0-.44,1.92,3.54,3.54,0,0,0,.81,1.52Z"/><path d="M301.11,282.21a6.08,6.08,0,0,1,0,1.49l-2.44-.73c-.8-.25-1.64-.46-2.51-.65a13.76,13.76,0,0,1,1.19,2.57,16.07,16.07,0,0,1,.64,2.34,17.52,17.52,0,0,1-2.29,1.32,31.29,31.29,0,0,1-3,1.28c-.24-.37-.44-.68-.61-.92a8.07,8.07,0,0,0-.5-.66,5.35,5.35,0,0,0-.51-.55c-.18-.18-.4-.38-.65-.6L289.2,286l-1.45-1.24-1.47-1.25-1.3-1.07c-.39.23-.77.44-1.16.64s-.76.37-1.09.5a6.06,6.06,0,0,1-.29-1.26c-.05-.42-.1-.83-.14-1.24.74-.23,1.44-.43,2.1-.61s1.27-.31,1.83-.4a7.06,7.06,0,0,0,.88,1.32,15.41,15.41,0,0,0,1.28,1.27l1.3,1.15,1.44,1.25,1.39,1.19,1.19,1q.57-.37,1.2-.75l1.22-.72a15.92,15.92,0,0,0-1.68-4,14.74,14.74,0,0,0-3.12-3.76l-.67-.58-.7-.55c-.39.24-.79.46-1.18.66a12,12,0,0,1-1.12.51,7.31,7.31,0,0,1-.3-1.25c-.07-.41-.12-.82-.17-1.21.75-.25,1.45-.46,2.12-.64a18.88,18.88,0,0,1,1.85-.42,6.2,6.2,0,0,0,.88,1.32,12.83,12.83,0,0,0,1.28,1.27c.64.57,1.35,1.18,2.12,1.84s1.51,1.27,2.23,1.85c.56-.07,1.14-.11,1.73-.13a10.35,10.35,0,0,1,1.38,0A5.34,5.34,0,0,1,301.11,282.21Z"/><path d="M298.38,267.53c-.65-.13-1.33-.29-2.05-.49a7,7,0,0,0-.07,2.25,2.08,2.08,0,0,0,.92,1.48l1.18.77,1.82,1.14c.65.41,1.3.81,2,1.2l1.59,1c.33-.27.69-.58,1.06-.9s.77-.68,1.17-1.06l-.06-1.29c0-.44,0-.91-.09-1.42a4.85,4.85,0,0,1,.78-.22,2.33,2.33,0,0,1,.73,0,14.25,14.25,0,0,1,.31,2.39,18,18,0,0,1-.12,2.46c-.71.48-1.44,1-2.18,1.4s-1.54.91-2.39,1.37a13.79,13.79,0,0,0-1.08-1.18,7.43,7.43,0,0,0-1.1-.88,22.58,22.58,0,0,0-2.05-1.23,24.84,24.84,0,0,1-2.15-1.3,4.3,4.3,0,0,1-2-3.35,12.37,12.37,0,0,1,.77-4.93,23.27,23.27,0,0,0,2.8.61c.89.13,1.66.23,2.32.29a3.29,3.29,0,0,1,0,1.2c-.06.36-.12.68-.16,1A11.87,11.87,0,0,1,298.38,267.53Z"/><path d="M311.88,265.7a14.24,14.24,0,0,1-1.83,1,4.8,4.8,0,0,0-.58-.61,7.16,7.16,0,0,0-.78-.59c-.31-.2-.7-.43-1.18-.68s-1.07-.57-1.78-.93l-9.62-4.93c-.63.24-1.23.44-1.79.6s-1,.29-1.4.37a4.85,4.85,0,0,1-.66-1.25,6.39,6.39,0,0,1-.4-1.62l2.44.08,2.07.07a8.49,8.49,0,0,1-1.59-5.84,4.59,4.59,0,0,1,.89-.07,4.52,4.52,0,0,1,.9.11,10.63,10.63,0,0,0,.9,4.42,7.39,7.39,0,0,0,3.63,3.46l2.41,1.23a13.26,13.26,0,0,1-2-2.12,10.66,10.66,0,0,1-1.29-2.12c.22-.25.5-.56.86-.93s.74-.74,1.16-1.14.85-.78,1.32-1.16.91-.72,1.33-1c.32.3.59.54.82.74s.44.36.64.51a7.49,7.49,0,0,0,.63.41c.22.13.48.26.79.42.71.36,1.41.71,2.1,1s1.34.6,1.94.85l1.56.67c.44.19.77.34,1,.45a8.45,8.45,0,0,1,4,3.78,9.8,9.8,0,0,1,.77,5.31,3.64,3.64,0,0,1-.74,0,2.34,2.34,0,0,1-.68-.15,11.35,11.35,0,0,0-.87-3.87,5.81,5.81,0,0,0-2.83-2.74l-1.77-.91-2.63-1.33-2.8-1.38-2.25-1.09c-.33.38-.67.75-1,1.13s-.7.75-1,1.1a15.45,15.45,0,0,0,2.59,3.49,14.45,14.45,0,0,0,3.92,2.87l.8.39c.26.13.52.24.78.35.35-.38.73-.77,1.12-1.16a11.29,11.29,0,0,1,1.09-1c.18.39.36.8.53,1.24a9.82,9.82,0,0,1,.41,1.27A21.11,21.11,0,0,1,311.88,265.7Z"/></g></g></svg>