<svg xmlns="http://www.w3.org/2000/svg" viewBox="0 0 468.36 456.72"><defs><style>.cls-1{fill:#ffe100;}</style></defs><g id="Layer_2" data-name="Layer 2"><g id="Layer_1-2" data-name="Layer 1"><polygon id="copied" class="cls-1" points="468.36 228.36 428.85 272.81 445.21 330 390.28 352.82 380.2 411.45 320.81 408.27 286.29 456.72 234.18 427.99 182.07 456.72 147.56 408.27 88.16 411.45 78.09 352.82 23.15 330 39.51 272.81 0 228.36 39.51 183.91 23.15 126.72 78.09 103.9 88.16 45.27 147.56 48.44 182.07 0 234.18 28.73 286.29 0 320.81 48.45 380.2 45.27 390.28 103.9 445.21 126.72 428.85 183.91 468.36 228.36"/><path d="M137.13,248.55c0,5.25,2.73,9.32,8.49,7.88,4.54-1.13,8.18-5.27,8.18-9.92,0-2.22-1.31-3.81-3.64-3.23A5.92,5.92,0,0,0,146,250a5.84,5.84,0,0,1-3.43-5.31c0-4,3.73-8.31,7.67-9.29,4.65-1.16,7.18,3,7.18,7.1,0,12.13-9.9,27.63-22.73,30.83-9.2,2.29-15.46-4.33-15.46-13.12,0-9,4.24-18.34,9.39-26.79C122.48,232.3,117,227.8,117,220.72a15.09,15.09,0,0,1,11.41-14.66c6.06-1.51,11.72,1.22,13.64,6.4a11.21,11.21,0,0,0-6.87-.41c-4.85,1.21-9.39,6.38-9.39,11.43a7.76,7.76,0,0,0,4.44,7.38c7.78-11.43,22.53-28.25,35.46-31.47,4.24-1.06,7.68.61,7.68,5.06,0,13.94-21.42,27.26-33.14,29.47A42.48,42.48,0,0,0,137.13,248.55Zm4-17.78,1.11-.28c7.48-1.86,19.4-12.31,19.4-20.49,0-2.13-.71-4.27-3.34-3.62C151.27,208.15,143.8,224.35,141.17,230.77Z"/><path d="M160.37,256.59c0-9.8,10.91-25.55,21.11-28.09,5.35-1.34,7.07,2.88,7.07,7.53a27.65,27.65,0,0,1-2.42,10.3l.5-.12c2.93-.73,5.36-4.67,6.67-7.32l1.41.45c-1.92,3.81-5.05,8.43-9.39,8.91-3.23,6.67-9.19,14.62-16.37,16.41C163.2,266.09,160.37,261.85,160.37,256.59Zm21.41-25.85c-6.16,1.54-11.51,10.66-11.51,16.31,0,2.83,1.21,5.06,4.44,4.25,2.63-.65,5-3,6.57-5.48a6.56,6.56,0,0,1-1.72-4.62c0-3,2.43-7.27,5.46-8.63C184.81,230.9,183.4,230.34,181.78,230.74Z"/><path d="M217.55,219.91c2.93-.73,5.25.41,5.25,3.44,0,5.55-8,10.37-8,14.51,0,1.82,1.11,2.86,3,2.38,3.94-1,7.37-6,9.29-9.79l1.42.45c-4,7.58-11.82,21.74-20.61,23.93-3.33.83-6-.84-6-4.27,0-7.68,11.52-13.68,11.52-19.44,0-1.62-.81-2.43-2.53-2-4.14,1-9.4,12.65-10.81,16.44l-11.31,30.8-9.4,2.35,21.22-53.08,7.07-1.76-4,10.4C206.43,228.94,211.69,221.37,217.55,219.91Z"/><path d="M243.31,215c-1.62,4-6.47,14.44-6.47,18a1.55,1.55,0,0,0,2,1.62c2.63-.66,6.16-5.58,7.88-9l1.42.46c-2.73,5.32-12.63,21.94-18.59,23.42-2.63.66-5-.56-5-4.19a23.85,23.85,0,0,1,2.12-8.41l7.78-19.62Zm-1.52-16a4.39,4.39,0,0,1,5.76,4.33,7.84,7.84,0,0,1-5.76,7.09c-3.13.78-5.66-1.12-5.66-4.25A7.84,7.84,0,0,1,241.79,199Z"/><path d="M245.53,236.67c0-10.3,11.11-26.51,21.82-29.18,2.63-.65,4.55.28,4.55,3.11,0,6.87-10.31,14.49-16.27,16.58,0,2.73,2,4.15,4.75,3.47,6.87-1.71,10.91-6.76,13.54-11.86l1.41.45c-4,7.58-12.22,21.84-21.92,24.26C248.06,244.83,245.53,241.73,245.53,236.67Zm19.4-23.52c0-1.11-.21-2.28-1.62-1.92-4,1-7.78,10.52-7.68,14C259.67,223.45,264.93,217.59,264.93,213.15Z"/><path d="M301.49,214.33a6.73,6.73,0,0,0-.4,2.63,1.59,1.59,0,0,0,2,1.62c3-.76,6.67-6.31,8-9.06l1.42.45c-2.73,5.13-12,21.79-18.39,23.38-2.93.73-4.14-1-4.14-3.62a22.83,22.83,0,0,1,1.41-7.22l-.2,0c-2.22,5-7.37,13.46-12.83,14.82-4.14,1-6.16-2-6.16-5.84,0-11.32,11.62-27.35,20.81-29.64,2.42-.6,4.24,0,4.54,2.5l10-24.82,8.78-2.19Zm-7.77-10.18c-5.06,1.26-9.9,11.76-9.9,16.11,0,1.41.8,3.23,2.52,2.8,5.05-1.26,9.7-12,9.7-16.36C296,205.29,295.33,203.75,293.72,204.15Z"/><path d="M326.75,219a8.92,8.92,0,0,1-6.47,8.08c-3.53.88-6.46-1.32-6.46-4.86a8.92,8.92,0,0,1,6.46-8.08C323.82,213.21,326.75,215.41,326.75,219Zm-2.32-8.82c5.55-15,23.43-36.25,23.43-50.29,0-3.54-1.72-6.45-5.65-5.46-3.74.93-7,5.17-9.5,12-5.35,14.37-4.75,29.27-9.6,43.61Z"/><polygon points="226.09 50.02 232.02 62.04 245.29 63.97 235.69 73.33 237.96 86.54 226.09 80.3 214.22 86.54 216.49 73.33 206.89 63.97 220.16 62.04 226.09 50.02"/><g id="email"><path d="M271.57,86.82q3.42.95,3.94-.95a4.79,4.79,0,0,0-.65-3.08,42.79,42.79,0,0,0-3.58-5.72c-1.2-1.7-2.12-3-2.76-4a33.59,33.59,0,0,1-1.77-3,9.43,9.43,0,0,1-1-2.68,5.1,5.1,0,0,1,.11-2.17,5,5,0,0,1,3.42-3.65,11.11,11.11,0,0,1,6.41.17c1,.28,2.49.77,4.49,1.49s3.36,1.16,4.09,1.37a13.62,13.62,0,0,0,3.7.63,1.29,1.29,0,0,1,1.1.44,1,1,0,0,1,.22,1,1.37,1.37,0,0,1-.67.8q-1.85.87-2.85,4.51a22.91,22.91,0,0,0-.71,4,.92.92,0,0,1-.79.9,1.07,1.07,0,0,1-1.2-.53,1.75,1.75,0,0,1-.27-.95A12.66,12.66,0,0,0,281.24,69a8.65,8.65,0,0,0-2.52-2.67,11.89,11.89,0,0,0-3.43-1.5,10,10,0,0,0-2.23-.39,3.67,3.67,0,0,0-1.82.36,2,2,0,0,0-1.08,1.33,2.11,2.11,0,0,0,.11,1.58A4.25,4.25,0,0,0,271.55,69c.61.44,1.29.9,2,1.38a18.75,18.75,0,0,1,2.58,2.13,20.67,20.67,0,0,1,2.71,3.25q5.55,8.17,4.48,12a5,5,0,0,1-.72,1.61,3.74,3.74,0,0,1-1.32,1.14,5.68,5.68,0,0,1-2.13.59A15.5,15.5,0,0,1,276,91a34.27,34.27,0,0,1-4.36-.93c-.92-.26-2.3-.72-4.16-1.4s-3.12-1.1-3.81-1.29a13.68,13.68,0,0,0-3.7-.63,1.31,1.31,0,0,1-1.1-.44,1,1,0,0,1-.23-1,1.42,1.42,0,0,1,.67-.81c1.24-.57,2.22-2.21,3-4.9a23.21,23.21,0,0,0,.76-4.17.93.93,0,0,1,.79-.9,1.09,1.09,0,0,1,1.21.53,1.83,1.83,0,0,1,.26,1,16.11,16.11,0,0,0,1.51,6.49,10.83,10.83,0,0,0,2,2.86A6.38,6.38,0,0,0,271.57,86.82Z"/><path d="M312.45,66.92l.45.26A5.38,5.38,0,0,1,315,69a1.86,1.86,0,0,1-.09,1.95A47.58,47.58,0,0,1,312,75.49a30.88,30.88,0,0,1-3.39,4c-.47.45-.59.85-.37,1.19s.62.36,1.19.09a13.09,13.09,0,0,1,6.43-1.18A16.49,16.49,0,0,1,323,81.93a9.11,9.11,0,0,1,2.23,1.72,7.33,7.33,0,0,1,1.43,2.19,5.23,5.23,0,0,1,.35,2.67,7.65,7.65,0,0,1-1,3,30.3,30.3,0,0,1-3.09,3.9,36.22,36.22,0,0,0-3.84,5.09,18.25,18.25,0,0,0-1.2,2.64,9.54,9.54,0,0,0-.52,2.06,4.33,4.33,0,0,0,.15,1.75,7,7,0,0,0,.63,1.55,15.54,15.54,0,0,0,1.06,1.6,1.28,1.28,0,0,1,.26,1.11,1,1,0,0,1-.68.7,1.08,1.08,0,0,1-1-.23,50.91,50.91,0,0,0-6.26-4.24,45.74,45.74,0,0,0-6.14-2.79,1.09,1.09,0,0,1-.71-.75.93.93,0,0,1,.25-.93,1.27,1.27,0,0,1,1.08-.36,11.61,11.61,0,0,0,1.91,0,5.29,5.29,0,0,0,1.64-.42,4.76,4.76,0,0,0,1.64-1.16A11,11,0,0,0,312.72,99v0a43.24,43.24,0,0,1,3-4.67c1.07-1.42,2-2.58,2.79-3.5a15.7,15.7,0,0,0,1.58-2.08,3.16,3.16,0,0,0,.36-2.6,4.27,4.27,0,0,0-2.1-2.18,8.13,8.13,0,0,0-2.69-.91,10.37,10.37,0,0,0-3.24,0,14.21,14.21,0,0,0-3.36,1,12.07,12.07,0,0,0-3.21,2.14,13.81,13.81,0,0,0-2.64,3.34l-.5.89a21,21,0,0,0-2,4.44,6,6,0,0,0-.23,2.91,6.88,6.88,0,0,0,1.27,2.48,1.27,1.27,0,0,1,.25,1.11.92.92,0,0,1-.67.69,1.09,1.09,0,0,1-1-.22A45.09,45.09,0,0,0,294.82,98a51,51,0,0,0-6.88-3.2,1.09,1.09,0,0,1-.7-.75,1,1,0,0,1,.25-.94,1.3,1.3,0,0,1,1.08-.35,13.74,13.74,0,0,0,2,.1,7.4,7.4,0,0,0,1.69-.31,4.73,4.73,0,0,0,1.65-.89,10.45,10.45,0,0,0,1.58-1.68,21.94,21.94,0,0,0,1.75-2.68l7.25-12.78a20.67,20.67,0,0,0,1.4-2.88,10.7,10.7,0,0,0,.64-2.22,4.89,4.89,0,0,0-.09-1.87,6.35,6.35,0,0,0-.61-1.61,14.19,14.19,0,0,0-1.1-1.67,1.24,1.24,0,0,1-.25-1.11.92.92,0,0,1,.67-.69,1.1,1.1,0,0,1,1,.22A51.93,51.93,0,0,0,312.45,66.92Z"/><path d="M348,127.39q-4.31,2.67-8,2.19c-2.47-.33-5-1.71-7.51-4.17a29.1,29.1,0,0,1-2.33-2.5,19.67,19.67,0,0,1-1.82-2.62,12.23,12.23,0,0,1-1.2-2.77,10.28,10.28,0,0,1-.38-2.93,10.5,10.5,0,0,1,.53-3.14,15.61,15.61,0,0,1,1.66-3.33,24,24,0,0,1,2.89-3.57,19.09,19.09,0,0,1,4.63-3.64,11.34,11.34,0,0,1,4.31-1.42,9.55,9.55,0,0,1,4.07.55,15.61,15.61,0,0,1,3.82,1.94,31.4,31.4,0,0,1,3.67,3.08c.64.63,1.57,1.64,2.79,3s2.07,2.33,2.55,2.8a13.37,13.37,0,0,0,2.95,2.32,1.28,1.28,0,0,1,.75.92,1,1,0,0,1-.26,1,1.38,1.38,0,0,1-1,.38q-2-.12-4.66,2.59a16,16,0,0,0-1.31,1.62,18.39,18.39,0,0,1-1.21,1.53,3.49,3.49,0,0,1-1.83,1.11,2.33,2.33,0,0,1-1.94-.84l-7.45-7.21c-.62-.59-2-1.9-4.2-3.91a25.55,25.55,0,0,0-3.44,4.32,7.54,7.54,0,0,0-1.22,3.54,5.71,5.71,0,0,0,.63,2.93,11.3,11.3,0,0,0,2.2,2.77,8.34,8.34,0,0,0,5,2.43,10.28,10.28,0,0,0,5.67-1.11,1.71,1.71,0,0,1,1.59-.08,1.19,1.19,0,0,1,.75,1.06A1.24,1.24,0,0,1,348,127.39Zm.15-11.39a3,3,0,0,0,2.1,1,2.2,2.2,0,0,0,1.81-1,4.84,4.84,0,0,0,.83-2.68,6.8,6.8,0,0,0-.56-3.23,9.89,9.89,0,0,0-2.13-2.78,9.41,9.41,0,0,0-2.14-1.62,5.23,5.23,0,0,0-2.24-.57,5.6,5.6,0,0,0-2.66.66A15.88,15.88,0,0,0,340,108Q341.78,109.89,348.11,116Z"/><path d="M368.31,157.39c-3.21,1.05-6,1.13-8.3.23s-4.43-2.83-6.31-5.81a31.15,31.15,0,0,1-1.68-3,20.07,20.07,0,0,1-1.15-3,12.29,12.29,0,0,1-.52-3,10.79,10.79,0,0,1,.33-2.94,9.76,9.76,0,0,1,1.26-2.92,14.57,14.57,0,0,1,2.39-2.85,23.6,23.6,0,0,1,3.65-2.8,19.19,19.19,0,0,1,5.36-2.44,11.34,11.34,0,0,1,4.52-.37,9.6,9.6,0,0,1,3.82,1.5,15.37,15.37,0,0,1,3.26,2.79,29.32,29.32,0,0,1,2.84,3.86c.48.75,1.15,1.95,2,3.6s1.46,2.76,1.82,3.32a12.93,12.93,0,0,0,2.32,3,1.31,1.31,0,0,1,.51,1.07,1,1,0,0,1-.48.86,1.42,1.42,0,0,1-1,.14q-1.95-.6-5.14,1.42a16.62,16.62,0,0,0-1.65,1.26,14.53,14.53,0,0,1-1.54,1.2,3.39,3.39,0,0,1-2,.65,2.32,2.32,0,0,1-1.69-1.27l-5.54-8.76q-.69-1.08-3.16-4.79a25.6,25.6,0,0,0-4.36,3.39,7.39,7.39,0,0,0-2,3.15,5.68,5.68,0,0,0-.08,3,11.57,11.57,0,0,0,1.48,3.2,8.36,8.36,0,0,0,4.27,3.54,10.14,10.14,0,0,0,5.76.25,1.74,1.74,0,0,1,1.57.3,1.2,1.2,0,0,1,.48,1.21A1.25,1.25,0,0,1,368.31,157.39Zm2.83-11a3,3,0,0,0,1.81,1.47,2.19,2.19,0,0,0,2-.53,4.81,4.81,0,0,0,1.43-2.41,6.78,6.78,0,0,0,.22-3.27,10.16,10.16,0,0,0-1.41-3.21,9.35,9.35,0,0,0-1.7-2.07,5.28,5.28,0,0,0-2-1.09,5.57,5.57,0,0,0-2.75,0,15.52,15.52,0,0,0-3.59,1.39Q366.44,138.92,371.14,146.35Z"/><path d="M400.25,163.9l.16.49a5.39,5.39,0,0,1,.31,2.78,1.89,1.89,0,0,1-1.39,1.38,51.77,51.77,0,0,1-5.24,1.32,30.73,30.73,0,0,1-5.22.64c-.65,0-1,.23-1.08.62s.21.69.81.88a13,13,0,0,1,5.52,3.5,16.56,16.56,0,0,1,3.71,6.58,9.41,9.41,0,0,1,.46,2.79,7.42,7.42,0,0,1-.43,2.57,5.41,5.41,0,0,1-1.56,2.21,7.9,7.9,0,0,1-2.79,1.5,30.39,30.39,0,0,1-4.92.76,36.17,36.17,0,0,0-6.27,1.13,19.57,19.57,0,0,0-2.67,1.12,9.46,9.46,0,0,0-1.78,1.17,4.3,4.3,0,0,0-1.08,1.38,7,7,0,0,0-.59,1.56,13.86,13.86,0,0,0-.31,1.91,1.27,1.27,0,0,1-.57,1,.9.9,0,0,1-1,.05,1.07,1.07,0,0,1-.59-.84,49.74,49.74,0,0,0-1.71-7.37,45,45,0,0,0-2.62-6.22,1.1,1.1,0,0,1,0-1,.93.93,0,0,1,.82-.51,1.23,1.23,0,0,1,1,.47,12.66,12.66,0,0,0,1.37,1.33,5.6,5.6,0,0,0,1.5.81,4.68,4.68,0,0,0,2,.26,10.28,10.28,0,0,0,2.55-.53h0a41.58,41.58,0,0,1,5.41-1.36c1.75-.32,3.22-.54,4.42-.68a14.88,14.88,0,0,0,2.57-.46,3.09,3.09,0,0,0,2-1.66,4.25,4.25,0,0,0-.06-3,8.18,8.18,0,0,0-1.35-2.5,10.33,10.33,0,0,0-2.4-2.18,13.58,13.58,0,0,0-3.15-1.55,11.92,11.92,0,0,0-3.8-.61,13.34,13.34,0,0,0-4.2.66l-1,.31a21.25,21.25,0,0,0-4.49,1.89,5.94,5.94,0,0,0-2.14,2,7,7,0,0,0-.76,2.69,1.25,1.25,0,0,1-.57,1,.93.93,0,0,1-1,.06,1.11,1.11,0,0,1-.59-.85,46,46,0,0,0-1.46-6.59,51.71,51.71,0,0,0-2.87-7,1.1,1.1,0,0,1,0-1,.92.92,0,0,1,.82-.51,1.26,1.26,0,0,1,1,.48,14.59,14.59,0,0,0,1.4,1.42,7.24,7.24,0,0,0,1.45.93,4.9,4.9,0,0,0,1.82.47,10.87,10.87,0,0,0,2.3-.16,23,23,0,0,0,3.1-.78l14-4.46a21.91,21.91,0,0,0,3-1.16,11,11,0,0,0,2-1.2,4.6,4.6,0,0,0,1.21-1.43,7,7,0,0,0,.65-1.6,13.72,13.72,0,0,0,.32-2,1.29,1.29,0,0,1,.57-1,1,1,0,0,1,1-.05,1.09,1.09,0,0,1,.59.85A52.63,52.63,0,0,0,400.25,163.9Z"/><path d="M376.17,228.88v0a2.87,2.87,0,0,1,.26-1.67,1.28,1.28,0,0,1,1.07-.49,3.92,3.92,0,0,1,1.17.17,4.74,4.74,0,0,0,.9.18.51.51,0,0,0,.46-.74,1.18,1.18,0,0,0-.47-.57,7.54,7.54,0,0,1-1.37-1.26,15.08,15.08,0,0,1-1.39-2,12.05,12.05,0,0,1-1.22-3,17.92,17.92,0,0,1-.59-3.89,21.88,21.88,0,0,1,.09-3.31,9.43,9.43,0,0,1,.61-2.5,7.92,7.92,0,0,1,1-1.77,4.56,4.56,0,0,1,1.44-1.18,8.06,8.06,0,0,1,1.75-.66,11.64,11.64,0,0,1,2-.27c2.52-.11,4.39.64,5.62,2.27s1.92,4.38,2.1,8.26-.22,6.9-1.22,8.66a.92.92,0,0,0-.06,1.09q.34.47,1.14,0a11.13,11.13,0,0,1,5.38-1.7h1l1,0a4.38,4.38,0,0,0,3-.9,3.8,3.8,0,0,0,.69-2.82,8.12,8.12,0,0,0-.71-3.14,7.08,7.08,0,0,0-2-2.39,23,23,0,0,0-5.68-3.46c-.83-.34-1.27-.83-1.31-1.47a.88.88,0,0,1,.56-1,1.15,1.15,0,0,1,.67-.1,21.71,21.71,0,0,0,3.88.24q3.38-.15,4.77-1.92a1.58,1.58,0,0,1,1-.52,1.14,1.14,0,0,1,1,.48,1.35,1.35,0,0,1,.22,1.26,14.45,14.45,0,0,0-.23,4.13c0,.69.18,2,.44,3.85s.41,3.27.45,4.18a33.23,33.23,0,0,1,0,3.89,13.12,13.12,0,0,1-.56,3.09,6.09,6.09,0,0,1-1.28,2.35,6,6,0,0,1-2.18,1.46,9.81,9.81,0,0,1-3.26.65,45.76,45.76,0,0,1-4.95-.33,54.76,54.76,0,0,0-5.59-.37,17.49,17.49,0,0,0-2.79.41,10,10,0,0,0-1.95.66,4.39,4.39,0,0,0-1.37,1.06,6.63,6.63,0,0,0-1,1.33,13.65,13.65,0,0,0-.78,1.74,1.26,1.26,0,0,1-.81.8.92.92,0,0,1-.94-.19,1.11,1.11,0,0,1-.35-1A52.72,52.72,0,0,0,376.17,228.88Zm5.16-5.15a3.08,3.08,0,0,0,2.12.83,3,3,0,0,0,1.81-.64,3.69,3.69,0,0,0,1.1-1.69,10.64,10.64,0,0,0,.5-2.5,27,27,0,0,0,0-3.28,6.85,6.85,0,0,0-.41-2.35,1.12,1.12,0,0,0-1.16-.77,7.86,7.86,0,0,0-1.31.21,10.35,10.35,0,0,1-1.63.22c-.52,0-1.14,0-1.86,0s-1.22,0-1.5,0a.94.94,0,0,0-.85.41,2.65,2.65,0,0,0-.17,1.32,13.67,13.67,0,0,0,.51,3,16.5,16.5,0,0,0,1.12,3A7.21,7.21,0,0,0,381.33,223.73Z"/><path d="M401.21,255.71l-.12.51c-.42,1.87-1.21,2.68-2.39,2.41a6.9,6.9,0,0,1-2.46-1.11,1.76,1.76,0,0,0-1-.33.46.46,0,0,0-.43.51,1.46,1.46,0,0,0,.47,1,13,13,0,0,1,3,5.8,16.59,16.59,0,0,1-.13,7.56,9.34,9.34,0,0,1-1,2.64,7.33,7.33,0,0,1-1.67,2,5.3,5.3,0,0,1-2.46,1.11,7.63,7.63,0,0,1-3.17-.11,29.56,29.56,0,0,1-4.63-1.82,35.42,35.42,0,0,0-6-2.19,19.4,19.4,0,0,0-2.88-.38,9.23,9.23,0,0,0-2.12.11,4.48,4.48,0,0,0-1.63.64,8.26,8.26,0,0,0-1.3,1,17.81,17.81,0,0,0-1.23,1.49,1.26,1.26,0,0,1-1,.57.94.94,0,0,1-.86-.44,1.07,1.07,0,0,1-.08-1,52.46,52.46,0,0,0,2.24-7.22,45.1,45.1,0,0,0,.88-6.69,1.1,1.1,0,0,1,.51-.9.94.94,0,0,1,1,0,1.29,1.29,0,0,1,.65.93,11.46,11.46,0,0,0,.51,1.84,5.63,5.63,0,0,0,.88,1.45,4.69,4.69,0,0,0,1.59,1.23,10.76,10.76,0,0,0,2.47.84h0a43.67,43.67,0,0,1,5.35,1.56c1.67.61,3.06,1.16,4.16,1.64a14.82,14.82,0,0,0,2.45.91,3.11,3.11,0,0,0,2.6-.41,4.22,4.22,0,0,0,1.47-2.64,8.1,8.1,0,0,0-.08-3.62,12.37,12.37,0,0,0-1.61-3.81,12,12,0,0,0-3.28-3.34,13.3,13.3,0,0,0-4.78-2.09l-1-.23a21.82,21.82,0,0,0-4.83-.63,6,6,0,0,0-2.85.63,6.85,6.85,0,0,0-2,1.94,1.25,1.25,0,0,1-1,.56.93.93,0,0,1-.86-.44,1.09,1.09,0,0,1-.09-1,45.31,45.31,0,0,0,2.07-6.42,50.85,50.85,0,0,0,1.06-7.51,1.09,1.09,0,0,1,.52-.89.92.92,0,0,1,1,0,1.23,1.23,0,0,1,.65.93,14.62,14.62,0,0,0,.49,1.94,7.45,7.45,0,0,0,.79,1.53,4.78,4.78,0,0,0,1.33,1.32,10,10,0,0,0,2.07,1,21.38,21.38,0,0,0,3.07.9l6.15,1.38a21,21,0,0,0,3.15.5,10.74,10.74,0,0,0,2.31,0,4.73,4.73,0,0,0,1.77-.62,7.27,7.27,0,0,0,1.36-1,13.19,13.19,0,0,0,1.28-1.55,1.28,1.28,0,0,1,1-.56.93.93,0,0,1,.86.44,1.06,1.06,0,0,1,.08,1A52.07,52.07,0,0,0,401.21,255.71Z"/><path d="M364.3,284.33a1.47,1.47,0,0,1,.92-2.16,7.66,7.66,0,0,1,1-.28,8.27,8.27,0,0,0,1.27-.41,7.79,7.79,0,0,0,1.08-.57,4.14,4.14,0,0,1,.9-.46,1.54,1.54,0,0,1,2.17.91q.08.19.18.51c.07.21.16.48.26.81s.17.61.25.84a5.64,5.64,0,0,0,.58,1.21,7.63,7.63,0,0,1,.49.88,1.51,1.51,0,0,1-.91,2.17,8.31,8.31,0,0,1-1,.28c-.5.13-.91.25-1.24.37a8.53,8.53,0,0,0-1.1.55,7.22,7.22,0,0,1-.92.47,1.53,1.53,0,0,1-2.17-.92,7.15,7.15,0,0,1-.31-1,11.45,11.45,0,0,0-.33-1.13,8.51,8.51,0,0,0-.61-1.2C364.51,284.73,364.35,284.44,364.3,284.33Z"/><path d="M350.66,337.91l-8-7.16q-5-4.44-.6-10.64c1.81-2.56,3.47-4.1,5-4.59s3.37-.11,5.58,1.19l11.9,7a5.7,5.7,0,0,0,2.91,1,2.32,2.32,0,0,0,1.78-1.11,2.2,2.2,0,0,0,.22-2.4,13,13,0,0,0-3.26-3.36l-8.94-7.27c-1.9-1.54-2.9-3.19-3-4.93s.67-3.8,2.34-6.18q2.19-3.11,4.75-3.62t6.15,1.53l8.59,4.87a19.41,19.41,0,0,0,2.9,1.38,10.69,10.69,0,0,0,2.26.59,4.92,4.92,0,0,0,2-.17,8.61,8.61,0,0,0,1.76-.7,16.92,16.92,0,0,0,1.89-1.21,1.06,1.06,0,0,1,1-.12,1.07,1.07,0,0,1,.4,1.84,80.22,80.22,0,0,0-5.76,7.19c-.51.73-1.18,1.84-2,3.33a35.4,35.4,0,0,1-2,3.35,1.1,1.1,0,0,1-1,.54,1.14,1.14,0,0,1-.91-.57,1.56,1.56,0,0,1-.15-1.25,5.67,5.67,0,0,0-.24-4.26,11.89,11.89,0,0,0-3.84-3.75l-9.1-6.26a4.29,4.29,0,0,0-2.65-1,3,3,0,0,0-2,1.46q-1.83,2.6,1.09,4.94l10,8q3.39,2.7,4,5.41t-1.93,6.25c-1.67,2.38-3.32,3.76-4.93,4.14s-3.56-.1-5.84-1.43l-12.28-7.21A4.42,4.42,0,0,0,346,322a3,3,0,0,0-1.9,1.39,2.71,2.71,0,0,0-.55,2.36,4.84,4.84,0,0,0,2,2.38l8.09,5.83a22.22,22.22,0,0,0,4.18,2.47,5.15,5.15,0,0,0,2.85.47,4.86,4.86,0,0,0,2.32-1.29,1.19,1.19,0,0,1,1.14-.31,1.24,1.24,0,0,1,.89.74,1.23,1.23,0,0,1-.19,1.23,31.08,31.08,0,0,1-2.25,2.69,28.35,28.35,0,0,0-2.23,2.68,26.08,26.08,0,0,0-1.53,2.66c-.65,1.25-1.25,2.29-1.79,3.12a1.43,1.43,0,0,1-.77.61,1,1,0,0,1-.78-.06,1.22,1.22,0,0,1-.52-.61,1.39,1.39,0,0,1-.05-.95,11.85,11.85,0,0,0,.35-2.25,5.71,5.71,0,0,0-.36-2,7.59,7.59,0,0,0-1.41-2.34A28.31,28.31,0,0,0,350.66,337.91Z"/><path d="M328.55,334.21a1.47,1.47,0,0,1,1.73-1.59,9.79,9.79,0,0,1,1,.15,7.83,7.83,0,0,0,1.33.16,8.33,8.33,0,0,0,1.22-.07,5,5,0,0,1,1-.05,1.55,1.55,0,0,1,1.59,1.74c0,.13,0,.32,0,.54s-.07.5-.12.84-.08.63-.11.86a5.62,5.62,0,0,0,0,1.35,8,8,0,0,1,.08,1,1.5,1.5,0,0,1-1.73,1.59,8.9,8.9,0,0,1-1-.16,9.58,9.58,0,0,0-1.27-.18,8,8,0,0,0-1.24,0,7,7,0,0,1-1,0,1.52,1.52,0,0,1-1.6-1.73,6.87,6.87,0,0,1,.14-1.05,11.31,11.31,0,0,0,.17-1.17,8.23,8.23,0,0,0-.06-1.34A8.11,8.11,0,0,1,328.55,334.21Z"/><path d="M332.23,366.27l-.41.28a3.93,3.93,0,0,1-2.05.82,1.51,1.51,0,0,1-1.36-.7,8.74,8.74,0,0,1-1.39-3,1.72,1.72,0,0,0-.53-.95.47.47,0,0,0-.66.08,1.41,1.41,0,0,0-.32,1,26.67,26.67,0,0,1-.25,3.16,15.49,15.49,0,0,1-.75,2.92,10,10,0,0,1-1.56,2.78,11.3,11.3,0,0,1-2.52,2.33,2.42,2.42,0,0,1-2.14.5,4,4,0,0,1-1.89-1.66,5.21,5.21,0,0,1-1-2.35,1.46,1.46,0,0,1,.54-1.41,9.35,9.35,0,0,1,1.36-.69,10.82,10.82,0,0,0,1.77-1,8.77,8.77,0,0,0,3.94-5.69,8.88,8.88,0,0,0-1.66-6.89l-1.16-1.69a18.47,18.47,0,0,0-2-2.5,10,10,0,0,0-1.76-1.47,4.53,4.53,0,0,0-1.82-.63,9.19,9.19,0,0,0-1.85-.08,21.91,21.91,0,0,0-2.19.33,1.32,1.32,0,0,1-1.11-.26,1,1,0,0,1-.33-.91,1.09,1.09,0,0,1,.64-.81,53.29,53.29,0,0,0,7.1-4.13,51.05,51.05,0,0,0,5.9-4.77,1.07,1.07,0,0,1,1-.3.92.92,0,0,1,.73.63,1.27,1.27,0,0,1-.16,1.13,13.6,13.6,0,0,0-1,1.75,6.9,6.9,0,0,0-.47,1.66,4.73,4.73,0,0,0,.07,1.87,11.28,11.28,0,0,0,.82,2.16,22.66,22.66,0,0,0,1.64,2.75l4.22,6.16a17.08,17.08,0,0,0,1.77,2.06,8.81,8.81,0,0,0,1.57,1.25,4.47,4.47,0,0,0,1.6.59,7,7,0,0,0,1.62.1,15.22,15.22,0,0,0,1.87-.25,1.28,1.28,0,0,1,1.1.26.94.94,0,0,1,.33.91,1.09,1.09,0,0,1-.64.81A52.79,52.79,0,0,0,332.23,366.27Z"/><path d="M284.23,368.88a1,1,0,0,0,1.33.6,5.28,5.28,0,0,0,1.2-1,23.94,23.94,0,0,1,2.2-1.82,11.35,11.35,0,0,1,2.8-1.55,10.23,10.23,0,0,1,2.73-.66,7.66,7.66,0,0,1,2.54.15,4.8,4.8,0,0,1,2.19,1.18,6.16,6.16,0,0,1,1.51,2.36,11.08,11.08,0,0,1,.38,2.9,11.69,11.69,0,0,0,.58,3.45q1.89,5,6.84,5.32a1.26,1.26,0,0,1,1,.52,1,1,0,0,1,.11,1,1.07,1.07,0,0,1-.81.63,50.12,50.12,0,0,0-6.91,2l-.67.25a4.43,4.43,0,0,1-3.1.28,3.4,3.4,0,0,1-1.68-2.43l-1.28-4.45a9.84,9.84,0,0,1-.4-2.82,21.51,21.51,0,0,1,.12-2.33,3.43,3.43,0,0,0-.11-1.53,2.08,2.08,0,0,0-1.47-1.35,4.29,4.29,0,0,0-2.61.29,10,10,0,0,0-2,1.2,9.87,9.87,0,0,1-2,1.19,3.76,3.76,0,0,1-3.34-.08,4.29,4.29,0,0,1-1.93-2.22,4.21,4.21,0,0,1-.27-2.18,4.11,4.11,0,0,1,.89-1.95,10.28,10.28,0,0,1,1.73-1.69,19.12,19.12,0,0,1,2.46-1.61,20.79,20.79,0,0,0,3-2,4.55,4.55,0,0,0,1.26-1.41,1.61,1.61,0,0,0-1.16-2.15,7.71,7.71,0,0,0-3,.38,62.62,62.62,0,0,0-6.09,2.05q-4.05,1.53-5.38,3a3,3,0,0,0-.65,3.28,6.62,6.62,0,0,0,1.42,2.13,21.15,21.15,0,0,0,2.13,2,20.41,20.41,0,0,1,2.3,2.28,11.19,11.19,0,0,1,1.83,2.8l2.14,4.78q2.15,4.84,2.86,6.75a2.71,2.71,0,0,1,0,2.42,5.11,5.11,0,0,1-2.48,1.68,52.93,52.93,0,0,0-6.88,3.24,1.09,1.09,0,0,1-1,.07A1,1,0,0,1,276,393a1.24,1.24,0,0,1,.42-1.06,13.58,13.58,0,0,0,1.35-1.47,7.1,7.1,0,0,0,.85-1.5,4.76,4.76,0,0,0,.37-1.84,10.43,10.43,0,0,0-.28-2.29,22.22,22.22,0,0,0-.94-3.06L276,377a9,9,0,0,0-1.51-2.57,14.33,14.33,0,0,0-1.94-2,15.1,15.1,0,0,1-1.92-1.92,8.47,8.47,0,0,1-1.43-2.37q-1.55-4.11,1.6-8t11.41-7a41.37,41.37,0,0,1,6.31-1.9,13.38,13.38,0,0,1,4.45-.26,6,6,0,0,1,2.81,1.08,5.1,5.1,0,0,1,1.58,2.26q1.85,4.91-9.13,10.55Q283.64,367.3,284.23,368.88Z"/><path d="M239.57,371.1h0a2.9,2.9,0,0,1,1.69.16,1.29,1.29,0,0,1,.55,1,4,4,0,0,1-.1,1.18,4.19,4.19,0,0,0-.13.91.51.51,0,0,0,.25.42.59.59,0,0,0,.52,0,1.17,1.17,0,0,0,.53-.51,7.9,7.9,0,0,1,1.18-1.43,14.15,14.15,0,0,1,1.88-1.51,12,12,0,0,1,2.91-1.39,17.16,17.16,0,0,1,3.84-.81,20.07,20.07,0,0,1,3.31-.11,9.23,9.23,0,0,1,2.53.46,7.47,7.47,0,0,1,1.83.93,4.34,4.34,0,0,1,1.26,1.37,7.38,7.38,0,0,1,.76,1.7,11.08,11.08,0,0,1,.39,2c.26,2.5-.38,4.42-1.93,5.73s-4.26,2.18-8.13,2.59-6.9.18-8.71-.72a.94.94,0,0,0-1.1,0c-.3.24-.27.62.1,1.13a11.14,11.14,0,0,1,2,5.28c0,.22.05.57.07,1s.05.78.07,1a4.37,4.37,0,0,0,1.08,3,3.77,3.77,0,0,0,2.85.52,8.1,8.1,0,0,0,3.1-.88,7.22,7.22,0,0,0,2.27-2.11,23,23,0,0,0,3.12-5.88c.29-.84.76-1.31,1.39-1.39a.88.88,0,0,1,1,.51,1.15,1.15,0,0,1,.13.66,21.79,21.79,0,0,0,0,3.88c.23,2.25,1,3.79,2.19,4.65a1.51,1.51,0,0,1,.58,1,1.11,1.11,0,0,1-.42,1,1.34,1.34,0,0,1-1.24.29,14.74,14.74,0,0,0-4.14,0c-.68.07-2,.29-3.82.66s-3.24.61-4.14.7a34.08,34.08,0,0,1-3.89.22,13.51,13.51,0,0,1-3.11-.38,5.57,5.57,0,0,1-4-3.23,9.77,9.77,0,0,1-.83-3.22,39.07,39.07,0,0,1,0-5,52.57,52.57,0,0,0,0-5.6,17.81,17.81,0,0,0-.56-2.76,10.57,10.57,0,0,0-.78-1.92,4.53,4.53,0,0,0-1.13-1.3,7.44,7.44,0,0,0-1.39-.88,14.38,14.38,0,0,0-1.78-.68,1.27,1.27,0,0,1-.85-.75.92.92,0,0,1,.14-1,1.08,1.08,0,0,1,.95-.4A51.88,51.88,0,0,0,239.57,371.1ZM245,376a3,3,0,0,0,0,3.93,3.74,3.74,0,0,0,1.75,1,10.64,10.64,0,0,0,2.52.35,27,27,0,0,0,3.28-.17,7.09,7.09,0,0,0,2.32-.55,1.11,1.11,0,0,0,.7-1.2,8.42,8.42,0,0,0-.28-1.3,9.53,9.53,0,0,1-.32-1.61c-.05-.52-.1-1.14-.13-1.86s-.07-1.22-.09-1.5a1,1,0,0,0-.46-.82,2.82,2.82,0,0,0-1.33-.09,14.06,14.06,0,0,0-3,.68,16.17,16.17,0,0,0-2.89,1.3A6.83,6.83,0,0,0,245,376Z"/><path d="M214.28,397.69l-.51-.09c-1.9-.31-2.75-1.05-2.55-2.24a7.23,7.23,0,0,1,1-2.53,1.7,1.7,0,0,0,.27-1.05.46.46,0,0,0-.53-.39,1.39,1.39,0,0,0-.95.52,13,13,0,0,1-5.62,3.34,16.5,16.5,0,0,1-7.55.33,9.64,9.64,0,0,1-2.69-.85,7.53,7.53,0,0,1-2.1-1.55,5.29,5.29,0,0,1-1.26-2.39,7.77,7.77,0,0,1-.08-3.17,31,31,0,0,1,1.55-4.73,35.87,35.87,0,0,0,1.83-6.1,19.91,19.91,0,0,0,.21-2.89,9.5,9.5,0,0,0-.23-2.11,4.45,4.45,0,0,0-.74-1.59,6.82,6.82,0,0,0-1.13-1.24,16,16,0,0,0-1.56-1.14,1.26,1.26,0,0,1-.62-.95.93.93,0,0,1,.39-.88,1.07,1.07,0,0,1,1-.14,51.14,51.14,0,0,0,7.34,1.81,46.09,46.09,0,0,0,6.73.48,1.09,1.09,0,0,1,.93.46.92.92,0,0,1,.09,1,1.31,1.31,0,0,1-.89.71,11.09,11.09,0,0,0-1.81.62,5.65,5.65,0,0,0-1.4,1,4.64,4.64,0,0,0-1.13,1.66,10.38,10.38,0,0,0-.69,2.51v0a43,43,0,0,1-1.24,5.44c-.51,1.7-1,3.12-1.39,4.25a15.25,15.25,0,0,0-.76,2.5,3.1,3.1,0,0,0,.56,2.57,4.29,4.29,0,0,0,2.72,1.31,8.13,8.13,0,0,0,3.61-.3,12.28,12.28,0,0,0,3.7-1.83,11.81,11.81,0,0,0,3.14-3.47,13,13,0,0,0,1.81-4.89l.17-1a20.85,20.85,0,0,0,.34-4.85,6.07,6.07,0,0,0-.79-2.82,7,7,0,0,0-2.06-1.88,1.28,1.28,0,0,1-.62-1,.94.94,0,0,1,.39-.88,1.1,1.1,0,0,1,1-.14,47.2,47.2,0,0,0,6.54,1.68,51.8,51.8,0,0,0,7.55.62,1.07,1.07,0,0,1,.93.46.92.92,0,0,1,.09,1,1.27,1.27,0,0,1-.9.7,13.4,13.4,0,0,0-1.9.61A6.84,6.84,0,0,0,223,375a4.72,4.72,0,0,0-1.23,1.4,10.32,10.32,0,0,0-.9,2.13,20.83,20.83,0,0,0-.71,3.12l-1,6.22a21.42,21.42,0,0,0-.31,3.18,10.46,10.46,0,0,0,.17,2.31,4.79,4.79,0,0,0,.73,1.72,7,7,0,0,0,1.13,1.3,14.4,14.4,0,0,0,1.62,1.18,1.28,1.28,0,0,1,.62,1,1,1,0,0,1-.39.89,1.1,1.1,0,0,1-1,.14A51.13,51.13,0,0,0,214.28,397.69Z"/><path d="M153,340.35q6,1,14.08,5.47c1.62.89,3.1,1.77,4.42,2.62s2.62,1.76,3.86,2.73a30.6,30.6,0,0,1,3.25,2.89,24.14,24.14,0,0,1,2.5,3.11,15.29,15.29,0,0,1,1.74,3.38,15.78,15.78,0,0,1,.71,7.78,23.93,23.93,0,0,1-1.19,4.5,34.92,34.92,0,0,1-2.29,5,32.33,32.33,0,0,1-3.87,5.64,20.38,20.38,0,0,1-4.16,3.72,14.14,14.14,0,0,1-4.54,1.94,17.56,17.56,0,0,1-4.82.46,22.79,22.79,0,0,1-5.19-.91,42.28,42.28,0,0,1-5.48-2q-2.69-1.2-5.85-2.94t-5.57-3.32A49.68,49.68,0,0,1,136,377a25.49,25.49,0,0,1-3.63-3.67,18,18,0,0,1-2.37-4,12.51,12.51,0,0,1-1-4.37,15.84,15.84,0,0,1,.58-4.83,24.46,24.46,0,0,1,2.23-5.4,33.31,33.31,0,0,1,2.82-4.34,19.38,19.38,0,0,1,2.83-3,11.12,11.12,0,0,1,2.88-1.8,10.41,10.41,0,0,1,2.92-.78,10.63,10.63,0,0,1,3,.16,16.67,16.67,0,0,1,3,.88,26.13,26.13,0,0,1,3.15,1.51,18.34,18.34,0,0,1,4.39,3.06c.82.87,1,1.69.61,2.43a10.48,10.48,0,0,1-1.58,2.08q-.65.7-.33,1.17c.21.32.6.35,1.17.1a13.72,13.72,0,0,1,12.7.49,9.14,9.14,0,0,1,2.19,1.66,7.18,7.18,0,0,1,1.39,2.13,5.39,5.39,0,0,1,.35,2.63,8,8,0,0,1-1,3,11.41,11.41,0,0,1-2.2,2.53,11.3,11.3,0,0,0-2.16,2.46,11.89,11.89,0,0,0-1,3.13,11.3,11.3,0,0,1-.89,2.85,4.61,4.61,0,0,1-3.09,2.3,9.79,9.79,0,0,1-4.68-.08,21.16,21.16,0,0,1-5.28-2.11q-1.86-1-4.74-2.94c-1.92-1.27-3.29-2.14-4.11-2.59l-.59-.32a33.39,33.39,0,0,0-4.6-2.09,1.11,1.11,0,0,1-.72-.74,1,1,0,0,1,.24-.94,1.3,1.3,0,0,1,1.08-.36,3.43,3.43,0,0,0,2.74-1.16,26.11,26.11,0,0,0,3.34-5.08l3.34-6.05a7,7,0,0,0,1.13-3.86,4,4,0,0,0-3.54-3,3.68,3.68,0,0,0-1.73.45,7.66,7.66,0,0,0-2,1.57,24.46,24.46,0,0,0-2.43,3.05c-.9,1.31-1.87,2.89-2.89,4.75a24.71,24.71,0,0,0-2,4.43,14.84,14.84,0,0,0-.75,3.84,9.33,9.33,0,0,0,.48,3.42,12,12,0,0,0,1.56,3.06,16.27,16.27,0,0,0,2.68,2.86,33.13,33.13,0,0,0,3.63,2.74c1.31.86,2.85,1.77,4.61,2.75s3.39,1.79,4.85,2.42a29,29,0,0,0,4.36,1.52,14.53,14.53,0,0,0,4,.52,12.64,12.64,0,0,0,3.65-.65,11.13,11.13,0,0,0,3.45-1.91,20.69,20.69,0,0,0,3.23-3.34,36.39,36.39,0,0,0,3.18-4.89,37.27,37.27,0,0,0,2.47-5.34,21.39,21.39,0,0,0,1.13-4.57,11.36,11.36,0,0,0-.21-4,13.39,13.39,0,0,0-1.38-3.45,14.31,14.31,0,0,0-2.58-3.12,30.81,30.81,0,0,0-3.61-2.88q-2-1.34-4.64-2.81a62.53,62.53,0,0,0-12.67-5.19q-2.61-.78-2.43-2T153,340.35Zm13.37,23a3.19,3.19,0,0,0,.38-2.57,3.94,3.94,0,0,0-2-2.07,7,7,0,0,0-2.45-.76,9.61,9.61,0,0,0-2.95.13,11.82,11.82,0,0,0-3.07,1,11.66,11.66,0,0,0-2.94,2.11,13.32,13.32,0,0,0-2.43,3.19l-.27.48a16.13,16.13,0,0,0-1.4,3.16,3.91,3.91,0,0,0-.06,2.29,3.73,3.73,0,0,0,1.14,1.74,13.54,13.54,0,0,0,2.4,1.6q4.62,2.55,6.53-.93a17.32,17.32,0,0,0,.83-2,23.09,23.09,0,0,1,1.12-2.48,6,6,0,0,1,1.6-1.79l2.1-1.61A5.35,5.35,0,0,0,166.35,363.37Z"/><path d="M126.27,333.33a10.8,10.8,0,0,1,1.61,2.3,7.87,7.87,0,0,1,.78,2.42,4.8,4.8,0,0,1-.31,2.47,6.14,6.14,0,0,1-1.65,2.27,6.66,6.66,0,0,1-2,1.07,6.67,6.67,0,0,0-2,1,9.07,9.07,0,0,0-1.52,2,8.53,8.53,0,0,1-1.36,1.84,4.81,4.81,0,0,1-3.77,1.21,10.07,10.07,0,0,1-4.51-1.63,20.66,20.66,0,0,1-4.38-3.77q-1.56-1.74-3.89-4.74t-3.36-4.17l-.45-.5a51.08,51.08,0,0,0-5.52-5.23,1.06,1.06,0,0,1-.43-.93.94.94,0,0,1,.53-.81,1.3,1.3,0,0,1,1.14,0,12.27,12.27,0,0,0,1.86.72,6.83,6.83,0,0,0,1.71.25,4.67,4.67,0,0,0,1.84-.32,10.91,10.91,0,0,0,2-1.09,22.48,22.48,0,0,0,2.5-2l3.81-3.43a8.94,8.94,0,0,0,1.85-2.33,14.55,14.55,0,0,0,1.16-2.54,15.55,15.55,0,0,1,1.09-2.48,8.07,8.07,0,0,1,1.69-2.19q3.26-2.94,8-1.41t10.64,8.1a40.35,40.35,0,0,1,4.06,5.19,13.26,13.26,0,0,1,1.87,4.06,5.83,5.83,0,0,1,0,3,5.07,5.07,0,0,1-1.52,2.29q-3.91,3.51-13.15-4.67c-2.57-2.27-4.27-3-5.1-2.27a1,1,0,0,0-.36.71,1.06,1.06,0,0,0,.28.74,6.12,6.12,0,0,0,1.43.9,29.46,29.46,0,0,1,2.71,1.62A14.11,14.11,0,0,1,126.27,333.33Zm-4.74.72a12,12,0,0,0-2.18-1.7,11.15,11.15,0,0,1-2-1.54,4.81,4.81,0,0,1-1.07-1.78,3.53,3.53,0,0,1-.14-1.71,4.83,4.83,0,0,1,.52-1.41,4.43,4.43,0,0,1,.89-1.09,4.34,4.34,0,0,1,1.93-1.05,4,4,0,0,1,2.14.13,10.21,10.21,0,0,1,2.2,1,19.61,19.61,0,0,1,2.39,1.71,23.06,23.06,0,0,0,2.93,2.07,4.51,4.51,0,0,0,1.78.66,1.61,1.61,0,0,0,1.58-1.86,7.78,7.78,0,0,0-1.43-2.62,63.63,63.63,0,0,0-4.12-4.93c-1.93-2.14-3.5-3.46-4.73-3.94a2.93,2.93,0,0,0-3.28.59,5.46,5.46,0,0,0-1.18,1.61,17.41,17.41,0,0,0-.93,2.15c-.28.75-.56,1.52-.86,2.31a14.6,14.6,0,0,1-1.18,2.38,9,9,0,0,1-1.67,2.06l-4,3.59a19.3,19.3,0,0,0-2.32,2.42,7.15,7.15,0,0,0-1.17,2,3.26,3.26,0,0,0-.09,1.93,6.5,6.5,0,0,0,.85,1.92,18.6,18.6,0,0,0,1.73,2.19q3.66,4.07,6.77,1.28c.16-.15.51-.5,1-1.05s1-1,1.34-1.32a5.31,5.31,0,0,1,2.47-1,5.19,5.19,0,0,0,2.31-.84,2.05,2.05,0,0,0,.73-1.86A4.34,4.34,0,0,0,121.53,334.05Z"/><path d="M77.65,296.44a1.64,1.64,0,0,1-1.71-.32,5.47,5.47,0,0,1-1.58-2.33l-.1-.23a5.55,5.55,0,0,1-.55-2.78,1.66,1.66,0,0,1,1-1.43,3.7,3.7,0,0,1,.75-.21,3.94,3.94,0,0,1,.71-.07h1.66a1.66,1.66,0,0,0,1-.33.46.46,0,0,0,.05-.66,1.38,1.38,0,0,0-.94-.52,12.91,12.91,0,0,1-5.78-3,16.8,16.8,0,0,1-4.27-6.26,9.19,9.19,0,0,1-.71-2.73,7.54,7.54,0,0,1,.2-2.6,5.3,5.3,0,0,1,1.35-2.33,7.73,7.73,0,0,1,2.65-1.74,31.21,31.21,0,0,1,4.84-1.19,36.74,36.74,0,0,0,6.16-1.67A18.59,18.59,0,0,0,85,264.71a10.14,10.14,0,0,0,1.68-1.31,4.38,4.38,0,0,0,1-1.47,7.41,7.41,0,0,0,.46-1.61,15.86,15.86,0,0,0,.14-1.92,1.26,1.26,0,0,1,.48-1,.9.9,0,0,1,1-.14,1.05,1.05,0,0,1,.66.79,51.9,51.9,0,0,0,2.34,7.19,46.42,46.42,0,0,0,3.15,6,1.07,1.07,0,0,1,.1,1,.93.93,0,0,1-.76.58,1.31,1.31,0,0,1-1.08-.38,10.55,10.55,0,0,0-1.48-1.21,5.51,5.51,0,0,0-1.55-.68,4.94,4.94,0,0,0-2-.08,11.18,11.18,0,0,0-2.5.74h0A43,43,0,0,1,81.2,273c-1.73.47-3.18.82-4.36,1.07a15.48,15.48,0,0,0-2.53.67,3.09,3.09,0,0,0-1.86,1.83,4.22,4.22,0,0,0,.33,3A8.07,8.07,0,0,0,74.35,282a10.12,10.12,0,0,0,2.57,2,14.05,14.05,0,0,0,3.27,1.27,12,12,0,0,0,3.85.27,13.25,13.25,0,0,0,4.12-1l1-.39a21,21,0,0,0,4.31-2.28,6.11,6.11,0,0,0,2-2.16,7,7,0,0,0,.51-2.74,1.27,1.27,0,0,1,.48-1,1,1,0,0,1,1-.14,1.11,1.11,0,0,1,.66.8,46.54,46.54,0,0,0,2,6.43,47.09,47.09,0,0,0,3.15,6,1.09,1.09,0,0,1,.1,1,.94.94,0,0,1-.77.58,1.28,1.28,0,0,1-1.07-.39,6.82,6.82,0,0,0-2.31-1.56,6,6,0,0,0-2.92-.12,21,21,0,0,0-4.64,1.46l-1,.4A13.1,13.1,0,0,0,87,292.53a11.87,11.87,0,0,0-2.51,2.92,13.58,13.58,0,0,0-1.39,3.22,10.14,10.14,0,0,0-.42,3.21,8.28,8.28,0,0,0,.58,2.78A4.25,4.25,0,0,0,85.15,307a3.06,3.06,0,0,0,2.61,0A15.73,15.73,0,0,0,90,305.65q1.5-1,3.82-2.35a43.24,43.24,0,0,1,5-2.46h0a10.84,10.84,0,0,0,2.28-1.25,4.7,4.7,0,0,0,1.35-1.49,5.19,5.19,0,0,0,.61-1.58,10.75,10.75,0,0,0,.19-1.9,1.27,1.27,0,0,1,.48-1,.93.93,0,0,1,1-.14,1.13,1.13,0,0,1,.66.8,46.54,46.54,0,0,0,2,6.43,51.21,51.21,0,0,0,3.48,6.74,1.1,1.1,0,0,1,.1,1,.94.94,0,0,1-.77.58,1.26,1.26,0,0,1-1.07-.38,13.8,13.8,0,0,0-1.51-1.28,6.36,6.36,0,0,0-1.49-.8,4.56,4.56,0,0,0-1.8-.32,10.41,10.41,0,0,0-2.2.31,21.36,21.36,0,0,0-2.93,1,38.11,38.11,0,0,0-5.25,3.1,29.56,29.56,0,0,1-4.12,2.51,7.58,7.58,0,0,1-3.11.66,5.26,5.26,0,0,1-2.6-.67,7.46,7.46,0,0,1-2-1.69A9.4,9.4,0,0,1,80.72,309a16.88,16.88,0,0,1-1.45-7.44,12.71,12.71,0,0,1,1.94-6.21,1.44,1.44,0,0,0,.29-1.05.45.45,0,0,0-.51-.42,1.78,1.78,0,0,0-1,.5l-.71.74a9,9,0,0,1-.88.84A3.27,3.27,0,0,1,77.65,296.44Z"/><path d="M88.73,229.54v0a2.91,2.91,0,0,1-.22,1.68,1.29,1.29,0,0,1-1.06.51,3.86,3.86,0,0,1-1.18-.14,4.16,4.16,0,0,0-.9-.16.53.53,0,0,0-.43.23.55.55,0,0,0,0,.52,1.14,1.14,0,0,0,.49.55A7.8,7.8,0,0,1,86.81,234a14.45,14.45,0,0,1,1.43,1.93,11.26,11.26,0,0,1,1.29,3,17.53,17.53,0,0,1,.68,3.87,20.1,20.1,0,0,1,0,3.31,8.89,8.89,0,0,1-.55,2.51,7.18,7.18,0,0,1-1,1.8,4.54,4.54,0,0,1-1.41,1.21,7.39,7.39,0,0,1-1.73.7,11.43,11.43,0,0,1-2,.32q-3.77.25-5.66-2.14c-1.26-1.6-2-4.34-2.29-8.22s.06-6.9,1-8.68a.92.92,0,0,0,0-1.09c-.23-.31-.61-.29-1.13,0a11,11,0,0,1-5.35,1.82c-.22,0-.57,0-1,0l-1,0a4.38,4.38,0,0,0-3,1,3.75,3.75,0,0,0-.62,2.83,8,8,0,0,0,.77,3.13,7.15,7.15,0,0,0,2,2.34A22.9,22.9,0,0,0,73.08,247c.83.32,1.28.8,1.34,1.44a.89.89,0,0,1-.54,1,1.21,1.21,0,0,1-.67.11,21.55,21.55,0,0,0-3.88-.15q-3.37.22-4.72,2a1.54,1.54,0,0,1-1,.54,1.14,1.14,0,0,1-1-.46,1.35,1.35,0,0,1-.24-1.25,14.64,14.64,0,0,0,.13-4.14c0-.68-.22-2-.53-3.83s-.48-3.27-.55-4.17a35.19,35.19,0,0,1-.07-3.89,13.31,13.31,0,0,1,.49-3.1A6.15,6.15,0,0,1,63,228.77a6,6,0,0,1,2.15-1.51,9.81,9.81,0,0,1,3.24-.72,40.74,40.74,0,0,1,5,.21A54.87,54.87,0,0,0,79,227a16.84,16.84,0,0,0,2.78-.47,9.35,9.35,0,0,0,1.94-.71A4.49,4.49,0,0,0,85,224.73a7.84,7.84,0,0,0,.93-1.36,15.37,15.37,0,0,0,.74-1.75,1.28,1.28,0,0,1,.79-.83.94.94,0,0,1,.94.18,1.1,1.1,0,0,1,.38,1A51.48,51.48,0,0,0,88.73,229.54Zm-5,5.27a3,3,0,0,0-3.94-.1,3.74,3.74,0,0,0-1.06,1.72,10.25,10.25,0,0,0-.43,2.5,26.25,26.25,0,0,0,0,3.28,7.13,7.13,0,0,0,.47,2.35,1.13,1.13,0,0,0,1.17.74,8.6,8.6,0,0,0,1.32-.24,9.21,9.21,0,0,1,1.62-.26c.52,0,1.14-.06,1.86-.07s1.22,0,1.5,0a.93.93,0,0,0,.83-.42,2.56,2.56,0,0,0,.14-1.33,13.2,13.2,0,0,0-.57-3A17.53,17.53,0,0,0,85.45,237,7.25,7.25,0,0,0,83.69,234.81Z"/><path d="M59.05,204.11c-.51,3.82-1.82,5.58-3.91,5.3A2.58,2.58,0,0,1,53,207.65a9.26,9.26,0,0,1-.22-4.39c.53-3.9,1.84-5.7,3.93-5.42S59.58,200.21,59.05,204.11ZM89.8,215.83a1.08,1.08,0,0,1-.43.94.9.9,0,0,1-1,.11,1.24,1.24,0,0,1-.73-.87,14.35,14.35,0,0,0-.66-1.89,7,7,0,0,0-.91-1.46,4.91,4.91,0,0,0-1.44-1.2,11.35,11.35,0,0,0-2.15-.84,21.78,21.78,0,0,0-3.14-.62l-6.24-.85a23,23,0,0,0-3.19-.23,10.55,10.55,0,0,0-2.3.24,4.64,4.64,0,0,0-1.7.78,6.88,6.88,0,0,0-1.27,1.16,14.23,14.23,0,0,0-1.14,1.65,1.3,1.3,0,0,1-.93.65.94.94,0,0,1-.9-.37,1.1,1.1,0,0,1-.17-1,51.45,51.45,0,0,0,1.62-7.41,51,51,0,0,0,.41-7.57,1.1,1.1,0,0,1,.43-.94,1,1,0,0,1,1-.11,1.25,1.25,0,0,1,.73.87,13.37,13.37,0,0,0,.66,1.89,7.11,7.11,0,0,0,.91,1.46,4.79,4.79,0,0,0,1.44,1.2,10.72,10.72,0,0,0,2.15.84,21.67,21.67,0,0,0,3.14.63l6.24.84a20.39,20.39,0,0,0,3.19.23,10.55,10.55,0,0,0,2.3-.24,4.62,4.62,0,0,0,1.7-.77,6.58,6.58,0,0,0,1.27-1.17,13.19,13.19,0,0,0,1.14-1.64,1.27,1.27,0,0,1,.93-.65,1,1,0,0,1,.9.36,1.11,1.11,0,0,1,.17,1,47.11,47.11,0,0,0-2,15Z"/><path d="M93.18,194.52a1.1,1.1,0,0,1-.57.86.92.92,0,0,1-1,0,1.27,1.27,0,0,1-.59-1,12.53,12.53,0,0,0-.37-2,6.85,6.85,0,0,0-.68-1.58,4.64,4.64,0,0,0-1.24-1.41,10.81,10.81,0,0,0-2-1.16,22.37,22.37,0,0,0-3-1.09L69.67,183a22.47,22.47,0,0,0-3.12-.72,11.27,11.27,0,0,0-2.31-.11,4.84,4.84,0,0,0-1.8.51,6.85,6.85,0,0,0-1.43,1,13.61,13.61,0,0,0-1.37,1.46,1.32,1.32,0,0,1-1,.5.94.94,0,0,1-.83-.5,1.1,1.1,0,0,1,0-1A50.71,50.71,0,0,0,60.49,177a51.88,51.88,0,0,0,1.56-7.42,1.1,1.1,0,0,1,.57-.87,1,1,0,0,1,1,0,1.28,1.28,0,0,1,.59,1,14.47,14.47,0,0,0,.36,2,7,7,0,0,0,.68,1.58,4.87,4.87,0,0,0,1.24,1.4,10.92,10.92,0,0,0,2,1.16,22.37,22.37,0,0,0,3,1.09l14.1,4.16a23.82,23.82,0,0,0,3.12.71,11.21,11.21,0,0,0,2.31.11,4.66,4.66,0,0,0,1.8-.51,7.13,7.13,0,0,0,1.43-1A14.44,14.44,0,0,0,95.59,179a1.26,1.26,0,0,1,1-.5.93.93,0,0,1,.83.49,1.09,1.09,0,0,1,0,1,52.73,52.73,0,0,0-2.72,7.07A51.79,51.79,0,0,0,93.18,194.52Z"/><path d="M100.64,170.64a1.46,1.46,0,0,1-.91,2.16,8.56,8.56,0,0,1-1,.28,8.12,8.12,0,0,0-1.26.41,7.82,7.82,0,0,0-1.09.57,4.68,4.68,0,0,1-.9.46,1.54,1.54,0,0,1-2.17-.91c0-.13-.11-.3-.18-.52s-.15-.48-.25-.81-.18-.6-.25-.83a5.69,5.69,0,0,0-.58-1.22,7.63,7.63,0,0,1-.49-.88,1.5,1.5,0,0,1,.91-2.16,9.94,9.94,0,0,1,1-.29,11,11,0,0,0,1.24-.36,8,8,0,0,0,1.11-.55,7.33,7.33,0,0,1,.91-.47,1.53,1.53,0,0,1,2.17.92,6.34,6.34,0,0,1,.31,1c.13.49.23.86.33,1.13a8.56,8.56,0,0,0,.61,1.21A6.84,6.84,0,0,1,100.64,170.64Z"/><path d="M109.27,148.68a8.36,8.36,0,0,0,1.33-5.38,10.32,10.32,0,0,0-2.28-5.3,1.73,1.73,0,0,1-.42-1.54,1.21,1.21,0,0,1,.88-1,1.24,1.24,0,0,1,1.29.43c2.35,2.43,3.62,4.88,3.83,7.37s-.63,5.22-2.49,8.22a30.84,30.84,0,0,1-2,2.8,19.87,19.87,0,0,1-2.18,2.33,11.75,11.75,0,0,1-2.45,1.76,10.38,10.38,0,0,1-6,1.13,15.14,15.14,0,0,1-3.6-.92,23.28,23.28,0,0,1-4.11-2.07,21.51,21.51,0,0,1-3.5-2.66,13.63,13.63,0,0,1-2.28-2.73,9.7,9.7,0,0,1-1.17-2.86,10.38,10.38,0,0,1-.26-2.91,12.29,12.29,0,0,1,.54-3,21.57,21.57,0,0,1,1.17-3,30.36,30.36,0,0,1,1.68-3c.47-.77,1.27-1.89,2.38-3.37s1.84-2.52,2.2-3.09a13.32,13.32,0,0,0,1.65-3.37,1.29,1.29,0,0,1,.73-.93,1,1,0,0,1,1,.06,1.39,1.39,0,0,1,.58.87q.3,2,3.51,4a23.35,23.35,0,0,0,3.61,1.79.93.93,0,0,1,.63,1,1.06,1.06,0,0,1-.84,1,1.81,1.81,0,0,1-1,0,15.25,15.25,0,0,0-6.49-.27,7.12,7.12,0,0,0-3,1.27A9.68,9.68,0,0,0,90,138a9.4,9.4,0,0,0-1.07,2.25,5.3,5.3,0,0,0-.2,2.15,4.74,4.74,0,0,0,.85,2.22A13,13,0,0,0,91.75,147a28.71,28.71,0,0,0,3.67,2.63,26.35,26.35,0,0,0,5,2.56,7.72,7.72,0,0,0,3.77.49,5.67,5.67,0,0,0,2.76-1.23A11.19,11.19,0,0,0,109.27,148.68Z"/><path d="M111.85,125.71a22.81,22.81,0,0,1-3-3.71,12.87,12.87,0,0,1-1.65-3.88,9.42,9.42,0,0,1-.12-4.09,13.34,13.34,0,0,1,1.78-4.36,23.88,23.88,0,0,1,3.83-4.69,24.32,24.32,0,0,1,4.8-3.76,13.26,13.26,0,0,1,4.4-1.67,9.8,9.8,0,0,1,4.1.21,12.41,12.41,0,0,1,3.82,1.73,22.94,22.94,0,0,1,3.64,3.09,22.64,22.64,0,0,1,3,3.69,12.43,12.43,0,0,1,1.64,3.85,9.79,9.79,0,0,1,.12,4.1,12.6,12.6,0,0,1-1.77,4.36,27.65,27.65,0,0,1-8.63,8.46,13.18,13.18,0,0,1-4.4,1.67,9.78,9.78,0,0,1-4.1-.21,13,13,0,0,1-3.82-1.73A22.57,22.57,0,0,1,111.85,125.71Zm18.34-17.94a1.46,1.46,0,0,0-1.14-.46,3.39,3.39,0,0,0-1.31.36c-.44.21-.88.42-1.34.62a3.08,3.08,0,0,1-1.4.25,1.94,1.94,0,0,1-1.33-.65,7.5,7.5,0,0,1-.86-1.14,7.09,7.09,0,0,0-.78-1.07,3.6,3.6,0,0,0-3.27-1.11,7.92,7.92,0,0,0-4.09,2.43,7.83,7.83,0,0,0-2.51,4,3.56,3.56,0,0,0,1,3.29,7.92,7.92,0,0,0,1,.82,8.41,8.41,0,0,1,1.12.88,1.94,1.94,0,0,1,.6,1.37,3.37,3.37,0,0,1-.35,1.47c-.24.47-.49,1-.75,1.41a3.87,3.87,0,0,0-.46,1.38,1.44,1.44,0,0,0,1.56,1.59,3.61,3.61,0,0,0,1.38-.43c.48-.25,1-.48,1.44-.71a3.22,3.22,0,0,1,1.47-.33,1.89,1.89,0,0,1,1.34.62,8.23,8.23,0,0,1,.86,1.14,8.11,8.11,0,0,0,.79,1.06,3.57,3.57,0,0,0,3.27,1.1,7.83,7.83,0,0,0,4.08-2.42,7.93,7.93,0,0,0,2.53-4,3.59,3.59,0,0,0-1-3.29,6.43,6.43,0,0,0-1-.8,7.14,7.14,0,0,1-1.13-.89,2,2,0,0,1-.61-1.32,3.2,3.2,0,0,1,.29-1.4c.21-.45.43-.89.65-1.33a3.53,3.53,0,0,0,.39-1.3A1.42,1.42,0,0,0,130.19,107.77Z"/><path d="M155.61,76.55a1.65,1.65,0,0,1,.23-1.72,5.5,5.5,0,0,1,2.25-1.7l.22-.11a5.57,5.57,0,0,1,2.74-.7,1.67,1.67,0,0,1,1.49.91,4.15,4.15,0,0,1,.25.73,4.29,4.29,0,0,1,.1.71c0,.19,0,.48,0,.84s0,.64,0,.82a1.74,1.74,0,0,0,.38,1,.46.46,0,0,0,.66,0,1.4,1.4,0,0,0,.48-1,12.76,12.76,0,0,1,2.69-5.93,16.61,16.61,0,0,1,6-4.59,9.3,9.3,0,0,1,2.69-.85,7.61,7.61,0,0,1,2.61.06,5.23,5.23,0,0,1,2.39,1.23,7.77,7.77,0,0,1,1.88,2.55,32,32,0,0,1,1.44,4.77,37.56,37.56,0,0,0,2,6.07,20.43,20.43,0,0,0,1.49,2.49,9.73,9.73,0,0,0,1.4,1.6,4.58,4.58,0,0,0,1.51.88,8,8,0,0,0,1.64.37,16.39,16.39,0,0,0,1.93,0,1.25,1.25,0,0,1,1.05.42,1,1,0,0,1,.19.95,1.1,1.1,0,0,1-.76.7,51.58,51.58,0,0,0-7.06,2.71,47.61,47.61,0,0,0-5.79,3.46,1.06,1.06,0,0,1-1,.15.91.91,0,0,1-.62-.73,1.27,1.27,0,0,1,.32-1.09,12,12,0,0,0,1.13-1.54,5.6,5.6,0,0,0,.59-1.6,4.66,4.66,0,0,0,0-2,10.61,10.61,0,0,0-.87-2.46v0a43.17,43.17,0,0,1-2.1-5.17q-.84-2.55-1.29-4.29a15.13,15.13,0,0,0-.82-2.49,3,3,0,0,0-1.92-1.77,4.29,4.29,0,0,0-3,.49,8.07,8.07,0,0,0-2.28,1.69,10,10,0,0,0-1.83,2.67,13.64,13.64,0,0,0-1.1,3.34,12,12,0,0,0-.07,3.85,13.53,13.53,0,0,0,1.23,4.07l.45.92a20.91,20.91,0,0,0,2.49,4.19,6,6,0,0,0,2.27,1.84,6.82,6.82,0,0,0,2.76.38,1.23,1.23,0,0,1,1.05.42.93.93,0,0,1,.19.95,1.08,1.08,0,0,1-.76.7,46.89,46.89,0,0,0-6.32,2.36,47.61,47.61,0,0,0-5.79,3.46,1.12,1.12,0,0,1-1,.15.91.91,0,0,1-.62-.74,1.27,1.27,0,0,1,.32-1.09,6.81,6.81,0,0,0,1.44-2.39,6,6,0,0,0,0-2.92,20.72,20.72,0,0,0-1.7-4.56l-.44-.93a13.53,13.53,0,0,0-2.41-3.5,11.68,11.68,0,0,0-3-2.35,13.83,13.83,0,0,0-3.29-1.23,10.31,10.31,0,0,0-3.23-.25,8.13,8.13,0,0,0-2.75.73,4.26,4.26,0,0,0-2.24,2,3,3,0,0,0,.18,2.61,14.4,14.4,0,0,0,1.43,2.18q1.08,1.45,2.55,3.7A43.19,43.19,0,0,1,152.33,98v0a10.65,10.65,0,0,0,1.37,2.22,4.91,4.91,0,0,0,1.55,1.27,5.78,5.78,0,0,0,1.62.53,12,12,0,0,0,1.9.08,1.29,1.29,0,0,1,1.06.43.92.92,0,0,1,.18,1,1.08,1.08,0,0,1-.75.7,45.87,45.87,0,0,0-6.32,2.36,50.49,50.49,0,0,0-6.55,3.82,1.11,1.11,0,0,1-1,.15,1,1,0,0,1-.62-.74,1.28,1.28,0,0,1,.33-1.08,14.73,14.73,0,0,0,1.2-1.57,6.27,6.27,0,0,0,.72-1.54,4.59,4.59,0,0,0,.23-1.81,10.19,10.19,0,0,0-.44-2.19,20.8,20.8,0,0,0-1.12-2.87,39,39,0,0,0-3.37-5.08,29.1,29.1,0,0,1-2.73-4,7.83,7.83,0,0,1-.82-3.07,5.22,5.22,0,0,1,.54-2.64,7.5,7.5,0,0,1,1.58-2.07,9.3,9.3,0,0,1,2.34-1.57,16.94,16.94,0,0,1,7.36-1.83,12.77,12.77,0,0,1,6.3,1.61,1.4,1.4,0,0,0,1.06.24.47.47,0,0,0,.4-.53,1.77,1.77,0,0,0-.56-.94l-.78-.67a9.05,9.05,0,0,1-.87-.84A3.07,3.07,0,0,1,155.61,76.55Z"/></g><path d="M147.92,150.92a9.16,9.16,0,0,0-.95-.27,4.22,4.22,0,0,1,.11-.76,2.66,2.66,0,0,1,.35-.77,4.19,4.19,0,0,1,1.29.23,4.37,4.37,0,0,1,1.34.74,6.75,6.75,0,0,1,2.38,3.25,11.7,11.7,0,0,1,.52,4.33,6.8,6.8,0,0,1,3.85-1.6,5,5,0,0,1,3.43,1,5.72,5.72,0,0,1,1.84,2.41,7.56,7.56,0,0,1,.53,3.1,10.57,10.57,0,0,1-.78,3.49,16,16,0,0,1-5.23,6.65,10,10,0,0,1-3.64,1.66,8.57,8.57,0,0,1-4-.08,11.57,11.57,0,0,1-4.22-2.17,17.15,17.15,0,0,1-4-4.39,22.76,22.76,0,0,1-2.5-5.21,11,11,0,0,1,.53-1,10.75,10.75,0,0,1,.67-1,32.93,32.93,0,0,0,2.41,5.12,14.09,14.09,0,0,0,3.61,4.11,10.72,10.72,0,0,0,4.08,2.09,7.59,7.59,0,0,0,3.67,0,3.26,3.26,0,0,0-.23-1.74,5,5,0,0,0-1.58-1.75l-.85-.62-1.37-1-1.49-1.06c-.5-.35-.9-.65-1.22-.9l-1-.74-1-.81-.94-.74-.63-.54a12.15,12.15,0,0,1,.28-1.27,7.36,7.36,0,0,1,.42-1.3,17.66,17.66,0,0,0,1.73,1.73c.62.54,1.17,1,1.66,1.38l1.22.9,1.56,1.15c.53.4,1,.76,1.5,1.1l1.06.78a8.37,8.37,0,0,1,2.16,2.28,3.7,3.7,0,0,1,.52,2.4,10.7,10.7,0,0,0,1.82-1.33,13,13,0,0,0,1.63-1.76,10.36,10.36,0,0,0,2.15-4.61,4.68,4.68,0,0,0-.77-3.8c-.54.72-1.18,1.55-1.93,2.49s-1.43,1.77-2,2.51c.36.28.71.57,1,.86l.86.76a6.55,6.55,0,0,1-.51.92,6.08,6.08,0,0,1-.58.78c-.61-.52-1.31-1.11-2.1-1.75s-1.57-1.28-2.37-1.89-1.52-1.14-2.52-1.84-1.93-1.37-2.79-2a6.87,6.87,0,0,1-2.46-3.19,5.43,5.43,0,0,1-.08-3.33,6.5,6.5,0,0,0,2.81-.36,4.6,4.6,0,0,0,2.36-1.67,1,1,0,0,0-.18-.17l-.19-.15A3.88,3.88,0,0,0,147.92,150.92Zm1.45,8.82,1.54,1.12a19.65,19.65,0,0,0,.45-4.28,7.63,7.63,0,0,0-.69-3.11,6.08,6.08,0,0,1-1.86,1.92,6.35,6.35,0,0,1-2.71,1,4.11,4.11,0,0,0,.65,1.19,6.92,6.92,0,0,0,1.16,1.12C148.36,159,148.84,159.36,149.37,159.74Zm4.37,3.2.77.58,2-2.46c.74-.92,1.4-1.77,2-2.54a3.77,3.77,0,0,0-3.06,0,9,9,0,0,0-3.62,3l.7.5.56.43Z"/><path d="M172.4,154.4a15.44,15.44,0,0,1-.72,2.58,20.92,20.92,0,0,1-2.78,1.17c-.91.3-1.83.58-2.77.83a14,14,0,0,0-.76-1.41,8.85,8.85,0,0,0-.86-1.12c-.46-.51-1-1.07-1.7-1.69s-1.26-1.21-1.77-1.77a4.6,4.6,0,0,1-1.28-3.56,9.92,9.92,0,0,1,1.75-4.44c.85.1,1.84.26,3,.49a20.07,20.07,0,0,1,3,.78,2.57,2.57,0,0,1,.33.33,4.16,4.16,0,0,1,.29.36c-.18,1.42-.41,2.84-.71,4.25s-.63,2.79-1,4.16c.23.22.44.43.64.64l.53.53,1.41-.79,1.52-.84c.06-.48.12-1,.17-1.59l.18-1.71a5.63,5.63,0,0,1,1,0,3.16,3.16,0,0,1,.9.18A16.84,16.84,0,0,1,172.4,154.4Zm-9.09-2.18c.55.57,1.12,1.16,1.71,1.79.08-.45.18-.94.29-1.49s.23-1.09.34-1.63.21-1.06.3-1.57.19-.92.26-1.26c-.57-.15-1.24-.3-2-.44s-1.5-.24-2.16-.31a5.17,5.17,0,0,0-.53,2.08,2.38,2.38,0,0,0,.67,1.62C162.38,151.25,162.76,151.65,163.31,152.22Z"/><path d="M166.93,142.25a3.66,3.66,0,0,1-.39-.64c-.14-.74-.26-1.59-.37-2.55s-.17-1.85-.22-2.66a3.74,3.74,0,0,1,.72-.28,4,4,0,0,1,.79-.14c.26.56.53,1.1.81,1.63s.63,1.08,1,1.65l2.89-2.1c.24.3.46.6.67.9a5.83,5.83,0,0,1,.52.94c-.41.3-.86.61-1.37.94s-1,.64-1.53.94c.5.73,1.07,1.54,1.7,2.43s1.46,2,2.46,3.41c.42.59.8,1.1,1.15,1.54s.65.84.93,1.18l.62-.21A6.44,6.44,0,0,1,178,149c.06-.36.15-.75.25-1.16s.21-.75.29-1a6.07,6.07,0,0,1,1,.1,3,3,0,0,1,.87.26,12.58,12.58,0,0,1-.45,1.86q-.3.94-.72,1.95a15.7,15.7,0,0,1-2.15.3c-.8.06-1.51.08-2.14.07a6.3,6.3,0,0,0-.57-1.48,13.84,13.84,0,0,0-1-1.52L168.73,142a7.3,7.3,0,0,1-.66.37l-.7.36A2.37,2.37,0,0,1,166.93,142.25Z"/><path d="M189.54,139.81a5.29,5.29,0,0,1,2.05,1.32,2.49,2.49,0,0,0,.94-1.46,3.27,3.27,0,0,0-.34-1.87c-.31-.68-.64-1.4-1-2.17s-.7-1.49-1-2.16l-2.41,1.12-1.91.9a7.61,7.61,0,0,1-.37-1.07c-.12-.43-.22-.81-.3-1.13a18.13,18.13,0,0,1,1.85-.75c.78-.28,1.56-.57,2.32-.88-.29-.63-.57-1.27-.85-1.9s-.46-1.08-.56-1.34a9.85,9.85,0,0,1,.82-1,11.09,11.09,0,0,1,1-1,16.31,16.31,0,0,0,.63,2.08c.27.72.57,1.46.9,2.23.25-.13.5-.26.77-.38s.51-.24.74-.37a22.39,22.39,0,0,1-1.19-3.51,18.33,18.33,0,0,1-.48-3.21,8.87,8.87,0,0,1-1.66,1.72,10.54,10.54,0,0,1-2.4,1.47,13,13,0,0,1-3.74,1.09,13.7,13.7,0,0,1-3.73,0,7.25,7.25,0,0,1,0-1.36,5.15,5.15,0,0,1,.31-1.31,26.18,26.18,0,0,0,3.64.18,8.28,8.28,0,0,0,3.22-.75,8.1,8.1,0,0,0,2.7-2,7,7,0,0,0,1.56-2.58,3.19,3.19,0,0,1,1,0,4.4,4.4,0,0,1,.9.16,14.8,14.8,0,0,0,.21,4.21,24.62,24.62,0,0,0,1.46,5l1-.49a9.07,9.07,0,0,0,.82-.4,10.72,10.72,0,0,1,.37,1.13c.11.43.2.79.25,1.1l-.7.31c-.26.12-.54.24-.84.35.74,1.69,1.37,3.18,1.9,4.49s1.08,2.69,1.65,4.14a5.4,5.4,0,0,1-.9.45,7.08,7.08,0,0,1-.91.28c-.61-1.55-1.2-3-1.75-4.28s-1.17-2.73-1.86-4.26a7.92,7.92,0,0,0-.75.31l-.78.32c.25.56.54,1.17.85,1.83s.64,1.37,1,2.11a5.33,5.33,0,0,1,.37,4.07,5.83,5.83,0,0,1-2.71,3,9.71,9.71,0,0,0-1.51-1,7.27,7.27,0,0,0-1.64-.65c-.07.38-.14.76-.22,1.14s-.16.68-.23.91a5.43,5.43,0,0,1-1-.11,6.87,6.87,0,0,1-.92-.25,20.42,20.42,0,0,1,.49-2.31,18.7,18.7,0,0,1,.56-1.85A5.66,5.66,0,0,1,189.54,139.81Z"/><path d="M198.83,124.55a5.65,5.65,0,0,1,.85-1.23l1.63,2q.8,1,1.74,1.92a13.79,13.79,0,0,1,.41-2.8,16.24,16.24,0,0,1,.77-2.3,17.88,17.88,0,0,1,2.73.13,27.66,27.66,0,0,1,3.26.55q0,.66,0,1.11c0,.29,0,.57.05.82s.07.5.12.74.13.53.22.86.26,1,.43,1.56.35,1.21.53,1.83.36,1.25.55,1.86.35,1.15.49,1.61c.44,0,.88.06,1.32.11s.83.11,1.18.18a6.17,6.17,0,0,1-.45,1.2c-.19.39-.38.76-.57,1.12-.74-.21-1.43-.43-2.09-.65s-1.23-.44-1.75-.68a6.43,6.43,0,0,0,0-1.58,13.29,13.29,0,0,0-.37-1.76l-.45-1.67c-.16-.61-.33-1.21-.5-1.82s-.35-1.19-.51-1.76-.31-1.06-.44-1.48l-1.51,0-1.5,0a15.56,15.56,0,0,0-.84,4.28,15.34,15.34,0,0,0,.54,4.87l.24.85c.09.28.18.56.28.84.46,0,.91.06,1.35.11a8.48,8.48,0,0,1,1.21.2,6.84,6.84,0,0,1-.43,1.2l-.53,1.11c-.76-.21-1.47-.43-2.13-.64a16.29,16.29,0,0,1-1.76-.68,6.42,6.42,0,0,0,0-1.58,14.91,14.91,0,0,0-.36-1.76c-.23-.83-.48-1.73-.76-2.7s-.57-1.9-.84-2.78c-.51-.25-1-.54-1.52-.84a13.11,13.11,0,0,1-1.15-.77A5.46,5.46,0,0,1,198.83,124.55Z"/><path d="M223.92,118a4.5,4.5,0,0,1-.65.75c-.3-.08-.71-.2-1.24-.38a10.58,10.58,0,0,1-1.28-.51c-.06-.14-.11-.26-.15-.37a1.57,1.57,0,0,1-.06-.5,2.9,2.9,0,0,1,.64-1.8,5.48,5.48,0,0,1,1.73-1.46,10.44,10.44,0,0,1,2.59-1,14.27,14.27,0,0,1,3.21-.37c.8,0,1.71,0,2.72.14s2,.2,3,.32l2.88.32a20.94,20.94,0,0,0,2.24.14,6.35,6.35,0,0,0,2.16-.35,5.93,5.93,0,0,0,1.79-1.05,2.75,2.75,0,0,1,.65.35,4.26,4.26,0,0,1,.53.43,4.61,4.61,0,0,1-2.13,2,7.84,7.84,0,0,1-3.63.79c-.25,0-.55,0-.88,0l-1.07-.07a13.18,13.18,0,0,0-.36,2.07c-.07.7-.1,1.46-.1,2.28s0,1.42.05,2.22.06,1.58.06,2.34v1.45c0,.51,0,1,0,1.52s0,1,0,1.44-.05.85-.09,1.17a3.26,3.26,0,0,1-1,.4,5.5,5.5,0,0,1-1.05.18c.06-.64.1-1.49.11-2.55s0-2.09,0-3.09c0-.56,0-1.29-.05-2.2s-.06-1.73-.06-2.45a20.13,20.13,0,0,1,.16-2.76,10,10,0,0,1,.54-2.19l-3.72-.42a28.27,28.27,0,0,0-3.21-.22,10.93,10.93,0,0,0-3.46.53,5.27,5.27,0,0,0-2.38,1.45c.32.07.66.17,1,.28s.71.2,1.05.28C224.32,117.38,224.12,117.69,223.92,118Zm13.81,15.25a12.49,12.49,0,0,1-4.25.74,11.2,11.2,0,0,1-3.88-.62,8.27,8.27,0,0,1-2.89-1.74,7.42,7.42,0,0,1-1.79-2.71,9.49,9.49,0,0,1-.63-3.45,14.25,14.25,0,0,1,.59-3.92,13.6,13.6,0,0,1,1.69-3.77,6.91,6.91,0,0,1,.9-.24,7.42,7.42,0,0,1,1.11-.16,16.69,16.69,0,0,0-1.49,3.79,14.77,14.77,0,0,0-.49,3.69,8.38,8.38,0,0,0,.6,3.3,5.43,5.43,0,0,0,1.7,2.27,4.08,4.08,0,0,0,1.53-1.31,4.76,4.76,0,0,0,.5-2.5q0-1.26-.12-2.61c-.07-.9-.11-1.75-.11-2.56,0-1,0-1.87,0-2.54s0-1.31,0-1.87a11.68,11.68,0,0,1,1.17-.55,8.22,8.22,0,0,1,1.29-.47,17.94,17.94,0,0,0-.31,2.43c0,.82-.07,1.54-.07,2.16s0,1.66.09,2.7.08,2,.08,2.88a7.91,7.91,0,0,1-.54,3.27,3.9,3.9,0,0,1-1.84,1.9,7.89,7.89,0,0,0,1.45.35,13.92,13.92,0,0,0,1.62.15,11.19,11.19,0,0,0,4.18-.74,13.37,13.37,0,0,0,3.58-2.05,5,5,0,0,1-.06,1.06,6.16,6.16,0,0,1-.2.95A9.21,9.21,0,0,1,237.73,133.24Z"/><path d="M245.62,133.84a21.8,21.8,0,0,1-2.43-1.67,13.74,13.74,0,0,0,.63-1.48,8.89,8.89,0,0,0,.33-1.37c.11-.67.2-1.46.26-2.38s.16-1.74.28-2.49a5.38,5.38,0,0,1,1.6-3.37,8.42,8.42,0,0,1,4.16-1.39c.86.41,1.75.89,2.68,1.44a19.58,19.58,0,0,1,2.42,1.67,14.23,14.23,0,0,0-.62,1.47,9.29,9.29,0,0,0-.34,1.38c-.11.67-.2,1.46-.26,2.37a23.8,23.8,0,0,1-.28,2.5,5.33,5.33,0,0,1-1.6,3.37,8.32,8.32,0,0,1-4.15,1.38A28.27,28.27,0,0,1,245.62,133.84Zm1.1-8.32q-.15,1-.3,2.13c-.09.76-.19,1.51-.28,2.26s-.17,1.33-.22,1.77c.51.23,1.08.5,1.72.81l1.77.87a3,3,0,0,0,1.75-.89,3.57,3.57,0,0,0,.64-1.6c.07-.37.15-.9.25-1.57s.2-1.38.29-2.13.19-1.47.28-2.17.15-1.28.21-1.72c-.51-.22-1.09-.49-1.73-.8l-1.77-.87a2.91,2.91,0,0,0-1.74.89,3.53,3.53,0,0,0-.65,1.6C246.89,124.39,246.82,124.87,246.72,125.52Z"/><path d="M267.14,139.33a6.52,6.52,0,0,1-1.38.57c-.1-.86-.21-1.7-.31-2.53s-.25-1.68-.43-2.56a13.79,13.79,0,0,1-1.86,2.13,17.23,17.23,0,0,1-1.89,1.52,17.68,17.68,0,0,1-2.13-1.56,27.82,27.82,0,0,1-2.36-2.21c.24-.36.44-.67.59-.92s.29-.5.41-.73a7.17,7.17,0,0,0,.3-.69c.08-.23.18-.51.28-.84s.3-.95.48-1.54.36-1.21.55-1.83.37-1.24.55-1.86l.45-1.61-1.05-.81c-.34-.28-.64-.54-.89-.79a5.76,5.76,0,0,1,1-.77c.36-.22.73-.43,1.08-.63.51.58,1,1.14,1.4,1.67s.8,1,1.11,1.52a6.51,6.51,0,0,0-.85,1.33,13.67,13.67,0,0,0-.65,1.69l-.53,1.65c-.19.62-.38,1.22-.57,1.82l-.52,1.76c-.17.56-.32,1.06-.43,1.48.38.25.77.52,1.16.8l1.15.83a16.34,16.34,0,0,0,3-3.16,15,15,0,0,0,2.19-4.38c.09-.28.17-.57.25-.84s.15-.57.23-.86c-.38-.27-.74-.54-1.08-.82a10.91,10.91,0,0,1-.92-.83,8,8,0,0,1,1-.77l1-.65c.53.59,1,1.15,1.45,1.69a17.23,17.23,0,0,1,1.12,1.53,6.25,6.25,0,0,0-.85,1.33,14.12,14.12,0,0,0-.65,1.68c-.26.82-.54,1.72-.83,2.68s-.55,1.9-.79,2.79c.28.49.55,1,.81,1.54a13,13,0,0,1,.56,1.26A6.09,6.09,0,0,1,267.14,139.33Z"/><path d="M278.61,133c0-.66.08-1.36.16-2.09a7.08,7.08,0,0,0-2.24.27,2.09,2.09,0,0,0-1.31,1.15c-.12.25-.31.68-.57,1.28l-.84,2c-.3.71-.6,1.41-.88,2.12s-.52,1.28-.71,1.72l1.06.92c.38.32.79.64,1.23,1l1.27-.26,1.39-.31a4.54,4.54,0,0,1,.33.73,2.2,2.2,0,0,1,.15.72,14.68,14.68,0,0,1-2.31.67,15.75,15.75,0,0,1-2.45.28c-.59-.63-1.16-1.28-1.73-1.94S270,139.8,269.43,139c.43-.49.76-.91,1-1.26a8.7,8.7,0,0,0,.69-1.23c.29-.61.58-1.35.89-2.22s.62-1.63.94-2.32a4.3,4.3,0,0,1,3-2.47,12.06,12.06,0,0,1,5,0,21.88,21.88,0,0,0-.16,2.85c0,.9,0,1.68.08,2.34a3.38,3.38,0,0,1-1.19.23h-1A12,12,0,0,1,278.61,133Z"/><path d="M279.65,145.44a15,15,0,0,1-.82-1.92,5.7,5.7,0,0,0,.67-.52,7,7,0,0,0,.65-.72c.23-.29.49-.67.79-1.12s.66-1,1.09-1.69l5.76-9.13c-.18-.66-.33-1.27-.44-1.84s-.19-1-.24-1.42a4.8,4.8,0,0,1,1.3-.55,6.24,6.24,0,0,1,1.65-.25c-.1.83-.2,1.64-.3,2.42s-.18,1.46-.25,2.05a8.14,8.14,0,0,1,2.62-1,8.32,8.32,0,0,1,3.34,0,3.88,3.88,0,0,1,0,.89,4,4,0,0,1-.19.89,10.47,10.47,0,0,0-4.47.5,7.4,7.4,0,0,0-3.78,3.31l-1.44,2.28a14.14,14.14,0,0,1,2.29-1.8,10.8,10.8,0,0,1,2.23-1.09c.23.24.51.55.85.94s.68.8,1,1.25.7.92,1,1.42.64,1,.9,1.42c-.33.29-.6.54-.81.74a7.67,7.67,0,0,0-.57.6,5.39,5.39,0,0,0-.47.6c-.14.2-.3.45-.48.74-.43.67-.83,1.34-1.21,2s-.73,1.27-1,1.85-.57,1.08-.8,1.5-.41.73-.54.93a8.44,8.44,0,0,1-4.12,3.67,9.94,9.94,0,0,1-5.36.29,3.68,3.68,0,0,1,0-.74,2.29,2.29,0,0,1,.21-.67,11.08,11.08,0,0,0,3.93-.52,5.82,5.82,0,0,0,3-2.56l1.06-1.69c.49-.77,1-1.6,1.56-2.5l1.63-2.66c.53-.88,1-1.6,1.28-2.15-.34-.35-.68-.73-1-1.11l-1-1.12a15.78,15.78,0,0,0-3.71,2.26,14.79,14.79,0,0,0-3.21,3.65c-.16.25-.31.51-.46.76s-.29.5-.42.74c.35.39.7.8,1.06,1.22a12.74,12.74,0,0,1,.88,1.17c-.41.15-.83.29-1.28.42a11.48,11.48,0,0,1-1.3.3A22.3,22.3,0,0,1,279.65,145.44Z"/><path d="M190.45,314.35a9.13,9.13,0,0,0,.07-1,3.82,3.82,0,0,1,.77,0,2.27,2.27,0,0,1,.82.19,4.26,4.26,0,0,1,0,1.3,4.93,4.93,0,0,1-.45,1.47,6.78,6.78,0,0,1-2.71,3,11.7,11.7,0,0,1-4.13,1.39,6.77,6.77,0,0,1,2.34,3.45,4.93,4.93,0,0,1-.28,3.56,5.75,5.75,0,0,1-2,2.29,7.56,7.56,0,0,1-2.92,1.14,10.31,10.31,0,0,1-3.58-.06,14.61,14.61,0,0,1-3.91-1.3,15.07,15.07,0,0,1-3.66-2.47,9.9,9.9,0,0,1-2.37-3.22,8.51,8.51,0,0,1-.72-3.93,11.34,11.34,0,0,1,1.26-4.57,17,17,0,0,1,3.49-4.81,22.78,22.78,0,0,1,4.6-3.5c.34.08.7.18,1.08.31a9,9,0,0,1,1.11.46,34.33,34.33,0,0,0-4.53,3.4,14.1,14.1,0,0,0-3.29,4.37,10.74,10.74,0,0,0-1.22,4.41,7.55,7.55,0,0,0,.75,3.6,3.25,3.25,0,0,0,1.65-.58,5,5,0,0,0,1.39-1.9c.09-.18.24-.5.44-1l.66-1.53c.24-.56.48-1.12.73-1.68s.47-1,.64-1.37l.53-1.1.58-1.18.54-1.08c.17-.32.31-.56.4-.72a12.07,12.07,0,0,1,1.3,0,10.83,10.83,0,0,1,1.36.14,20.14,20.14,0,0,0-1.35,2.05c-.4.72-.74,1.35-1,1.91-.17.34-.38.8-.64,1.38s-.53,1.16-.81,1.75-.53,1.17-.77,1.7-.42.93-.55,1.19a8.54,8.54,0,0,1-1.79,2.59,3.84,3.84,0,0,1-2.25,1,10.12,10.12,0,0,0,1.67,1.51,13.24,13.24,0,0,0,2.06,1.24,10.36,10.36,0,0,0,4.95,1.18,4.72,4.72,0,0,0,3.56-1.54c-.81-.37-1.76-.83-2.83-1.38s-2-1-2.87-1.5q-.3.63-.63,1.2l-.57,1a6,6,0,0,1-1-.31,6.27,6.27,0,0,1-.89-.41c.39-.7.82-1.5,1.29-2.41s.93-1.8,1.37-2.7.81-1.72,1.29-2.85,1-2.17,1.43-3.14a6.84,6.84,0,0,1,2.63-3.06,5.43,5.43,0,0,1,3.24-.75,6.45,6.45,0,0,0,.92,2.68,4.56,4.56,0,0,0,2.12,2,1.37,1.37,0,0,0,.13-.2l.1-.22A3.92,3.92,0,0,0,190.45,314.35Zm-10.59,8.14-.42.86,2.8,1.43,2.9,1.45a3.79,3.79,0,0,0-.58-3,9.1,9.1,0,0,0-3.66-2.93c-.12.28-.23.54-.35.78l-.31.63Zm2.24-4.94-.78,1.74a19.35,19.35,0,0,0,4.28-.43,7.4,7.4,0,0,0,2.9-1.31,6,6,0,0,1-2.25-1.43,6.32,6.32,0,0,1-1.49-2.46,4,4,0,0,0-1,.88,6.58,6.58,0,0,0-.86,1.37C182.62,316.41,182.36,317,182.1,317.55Z"/><path d="M197.15,336.46a15.21,15.21,0,0,1-2.57.77,21.63,21.63,0,0,1-2.48-1.72c-.74-.61-1.47-1.24-2.18-1.9a12.27,12.27,0,0,0,.79-1.39,8.88,8.88,0,0,0,.48-1.33,23.44,23.44,0,0,0,.52-2.34,24.17,24.17,0,0,1,.55-2.44,4.61,4.61,0,0,1,2.32-3,10,10,0,0,1,4.69-.89c.37.77.76,1.7,1.18,2.78a20.57,20.57,0,0,1,.93,2.93,2.84,2.84,0,0,1-.1.45,3.72,3.72,0,0,1-.16.44c-1.29.61-2.61,1.17-4,1.67s-2.7,1-4.06,1.37c-.07.31-.13.61-.2.88s-.12.52-.16.73l1.42.78,1.52.83,1.43-.7,1.54-.77a4.94,4.94,0,0,1,.53.85,3.24,3.24,0,0,1,.33.86A17.75,17.75,0,0,1,197.15,336.46Zm-3-8.85c-.18.77-.38,1.57-.59,2.41.42-.18.89-.36,1.41-.56s1-.39,1.56-.59l1.48-.58,1.21-.45a18.89,18.89,0,0,0-.72-1.95c-.3-.73-.6-1.39-.88-2a5.25,5.25,0,0,0-2.05.67,2.41,2.41,0,0,0-1,1.43C194.45,326.31,194.31,326.85,194.12,327.61Z"/><path d="M204.26,324.92a3.32,3.32,0,0,1,.19-.73q.65-.93,1.56-2c.62-.75,1.2-1.42,1.75-2a3.16,3.16,0,0,1,.71.32,3.8,3.8,0,0,1,.65.46c-.22.57-.42,1.15-.6,1.72a17.59,17.59,0,0,0-.47,1.87l3.52.6q-.07.57-.18,1.11a4.75,4.75,0,0,1-.31,1c-.49-.08-1-.19-1.62-.32s-1.17-.28-1.75-.44c-.17.87-.35,1.84-.54,2.92s-.44,2.46-.73,4.14c-.12.71-.21,1.34-.29,1.9s-.14,1.05-.19,1.49l.59.3c.2.1.4.21.58.32.3-.21.64-.42,1-.63s.67-.38.92-.5a5.06,5.06,0,0,1,.61.78,2.78,2.78,0,0,1,.43.8,12.17,12.17,0,0,1-1.65,1c-.58.3-1.22.58-1.89.85a15.15,15.15,0,0,1-1.72-1.33c-.6-.53-1.12-1-1.55-1.48a6.23,6.23,0,0,0,.66-1.44,14,14,0,0,0,.41-1.76l1.32-7.77-.72-.22-.75-.25A2.45,2.45,0,0,1,204.26,324.92Z"/><path d="M225.61,337.14a5.36,5.36,0,0,1,1.38,2,2.48,2.48,0,0,0,1.43-1,3.21,3.21,0,0,0,.41-1.86c0-.74-.05-1.53-.08-2.38s-.07-1.65-.09-2.39c-.86,0-1.74.09-2.65.11l-2.12.09a8.47,8.47,0,0,1,.08-1.12c.05-.46.11-.84.16-1.16a16.6,16.6,0,0,1,2,0c.84,0,1.66.08,2.48.09,0-.7,0-1.39,0-2.08s0-1.17,0-1.46c.23-.14.61-.33,1.12-.57a12.49,12.49,0,0,1,1.31-.52,14.9,14.9,0,0,0-.22,2.17c0,.76,0,1.56,0,2.4.28,0,.57,0,.86-.05s.56,0,.82-.06a23.19,23.19,0,0,1,.27-3.7,17.39,17.39,0,0,1,.79-3.14,9.25,9.25,0,0,1-2.19.95,10.65,10.65,0,0,1-2.78.42,13.08,13.08,0,0,1-3.87-.44,13.52,13.52,0,0,1-3.45-1.44,8.19,8.19,0,0,1,.58-1.23,4.73,4.73,0,0,1,.79-1.09,27.55,27.55,0,0,0,3.29,1.57,8.43,8.43,0,0,0,6.51-.21,7.16,7.16,0,0,0,2.43-1.78,3.63,3.63,0,0,1,.91.35,4.46,4.46,0,0,1,.77.5,15,15,0,0,0-1.43,4,24.39,24.39,0,0,0-.58,5.16l1.09-.06c.35,0,.66,0,.91-.06a8.81,8.81,0,0,1-.1,1.19,9.87,9.87,0,0,1-.19,1.1l-.76,0h-.92c0,1.84,0,3.47,0,4.88s0,2.9-.08,4.46a5.54,5.54,0,0,1-1,.06,6.67,6.67,0,0,1-.95-.09c0-1.66.05-3.21.05-4.63s0-3-.08-4.65h-.81c-.28,0-.56,0-.84,0,0,.62,0,1.3.08,2s0,1.5.08,2.32a5.3,5.3,0,0,1-1.24,3.89,5.77,5.77,0,0,1-3.67,1.75,7.85,7.85,0,0,0-1-1.55,7.32,7.32,0,0,0-1.25-1.24c-.21.33-.43.65-.65,1s-.41.56-.56.75a6.76,6.76,0,0,1-.87-.49,5.54,5.54,0,0,1-.75-.57,19,19,0,0,1,1.34-1.95c.51-.67.92-1.16,1.23-1.49A5.59,5.59,0,0,1,225.61,337.14Z"/><path d="M239,325.94a6.34,6.34,0,0,1,.95-1.16l1.47,2.08c.49.68,1,1.36,1.6,2a13.24,13.24,0,0,1,.62-2.76,16.13,16.13,0,0,1,.93-2.24,18.75,18.75,0,0,1,2.72.34,26,26,0,0,1,3.21.8c0,.43-.07.8-.08,1.1a7.59,7.59,0,0,0,0,.82,4.56,4.56,0,0,0,.06.75c0,.25.09.54.15.88s.19,1,.32,1.58.25,1.23.39,1.87.26,1.27.4,1.89.26,1.17.37,1.64c.44.06.88.13,1.31.21s.82.17,1.17.27a7.78,7.78,0,0,1-.54,1.17l-.66,1.07c-.72-.27-1.39-.54-2-.81a18,18,0,0,1-1.69-.8,6.51,6.51,0,0,0,.11-1.58,15.15,15.15,0,0,0-.23-1.79l-.33-1.69c-.11-.62-.24-1.24-.36-1.86s-.25-1.21-.37-1.79-.24-1.08-.34-1.51l-1.49-.16-1.5-.15a15,15,0,0,0-1.15,4.2,14.81,14.81,0,0,0,.17,4.9c.05.29.11.58.18.86s.13.58.21.87c.45,0,.9.12,1.33.2a11.74,11.74,0,0,1,1.2.29,6.91,6.91,0,0,1-.52,1.17l-.61,1.06c-.74-.26-1.43-.53-2.08-.79s-1.21-.54-1.71-.81a6,6,0,0,0,.12-1.58,13.34,13.34,0,0,0-.24-1.78c-.16-.85-.34-1.77-.55-2.75s-.42-1.93-.63-2.83c-.48-.3-1-.62-1.45-1s-.85-.63-1.09-.85A6.44,6.44,0,0,1,239,325.94Z"/><path d="M262,319.05a4.79,4.79,0,0,1-.25,1c-.31.06-.74.12-1.29.19a11,11,0,0,1-1.37.09l-.3-.27a1.69,1.69,0,0,1-.27-.42,2.91,2.91,0,0,1-.2-1.9,5.61,5.61,0,0,1,.94-2.07,10.16,10.16,0,0,1,1.91-2,13.54,13.54,0,0,1,2.74-1.71,26.56,26.56,0,0,1,2.51-1.05l2.87-1,2.74-1a20.45,20.45,0,0,0,2.07-.83,6.45,6.45,0,0,0,1.8-1.25,6,6,0,0,0,1.17-1.71,2.25,2.25,0,0,1,.73,0,4,4,0,0,1,.66.16,4.59,4.59,0,0,1-1.05,2.71,8,8,0,0,1-2.94,2.28c-.23.11-.5.22-.81.34l-1,.4a12.87,12.87,0,0,0,.56,2c.24.66.54,1.36.89,2.1s.63,1.27,1,2,.72,1.41,1.05,2.09l.63,1.3c.22.47.44.93.64,1.39s.39.9.57,1.32.32.79.42,1.09a3.22,3.22,0,0,1-.69.77,5.45,5.45,0,0,1-.87.62c-.22-.6-.56-1.39-1-2.35s-.88-1.89-1.31-2.79c-.25-.51-.58-1.16-1-2s-.79-1.54-1.1-2.18a20.51,20.51,0,0,1-1.05-2.56,10,10,0,0,1-.45-2.22l-3.54,1.23a26.46,26.46,0,0,0-3,1.19,11,11,0,0,0-2.9,2,5.53,5.53,0,0,0-1.53,2.33l1.05-.18,1.07-.2C262.08,318.33,262,318.69,262,319.05Zm19,7.81a12.66,12.66,0,0,1-3.53,2.5,11.12,11.12,0,0,1-3.76,1.11,8,8,0,0,1-3.35-.33,7.43,7.43,0,0,1-2.79-1.67,9.5,9.5,0,0,1-2-2.84,14,14,0,0,1-1.16-3.79,13.69,13.69,0,0,1-.1-4.13,7.67,7.67,0,0,1,1.65-1.22,15.74,15.74,0,0,0,.29,4.05,14.37,14.37,0,0,0,1.14,3.55,8.7,8.7,0,0,0,2,2.72,5.59,5.59,0,0,0,2.51,1.31,4.1,4.1,0,0,0,.82-1.84,4.79,4.79,0,0,0-.63-2.48c-.37-.75-.78-1.52-1.23-2.3s-.85-1.53-1.2-2.25l-1.1-2.3c-.28-.62-.54-1.19-.76-1.7a9.69,9.69,0,0,1,.81-1,10.09,10.09,0,0,1,1-1,17.65,17.65,0,0,0,.77,2.33q.47,1.14.87,2c.33.68.75,1.48,1.24,2.4s.94,1.77,1.32,2.56a8,8,0,0,1,.92,3.18,3.94,3.94,0,0,1-.84,2.51,8.15,8.15,0,0,0,1.45-.3q.75-.24,1.53-.57a11.08,11.08,0,0,0,3.45-2.47,13.29,13.29,0,0,0,2.35-3.39,5.79,5.79,0,0,1,.41,1,7.54,7.54,0,0,1,.22.94A9.16,9.16,0,0,1,281,326.86Z"/><path d="M290.59,320.7a20.53,20.53,0,0,1-2.9.52,14.92,14.92,0,0,0-.59-1.49,9,9,0,0,0-.73-1.21c-.39-.56-.88-1.18-1.48-1.88s-1.11-1.35-1.55-2a5.4,5.4,0,0,1-1.23-3.52,8.39,8.39,0,0,1,2-3.91c.9-.31,1.88-.6,2.92-.86a20.42,20.42,0,0,1,2.9-.51,16,16,0,0,0,.59,1.49,8.1,8.1,0,0,0,.73,1.21,22.47,22.47,0,0,0,1.48,1.87c.6.7,1.11,1.35,1.55,2a5.42,5.42,0,0,1,1.23,3.53,8.36,8.36,0,0,1-2,3.9A28.94,28.94,0,0,1,290.59,320.7ZM285.53,314c.39.53.82,1.11,1.29,1.72l1.38,1.81,1.09,1.42c.52-.2,1.12-.41,1.79-.64l1.87-.62a3,3,0,0,0,.62-1.86,3.47,3.47,0,0,0-.66-1.59L292,313c-.4-.56-.83-1.13-1.28-1.72s-.9-1.18-1.34-1.74l-1.05-1.37c-.52.19-1.12.41-1.79.63l-1.88.63a3,3,0,0,0-.61,1.86,3.47,3.47,0,0,0,.66,1.59Z"/><path d="M310.05,304.56a6,6,0,0,1-.18,1.48l-2.35-1c-.78-.31-1.59-.6-2.45-.87a13.76,13.76,0,0,1,1,2.66,16.65,16.65,0,0,1,.41,2.39,14.81,14.81,0,0,1-2.4,1.1,30.57,30.57,0,0,1-3.08,1c-.2-.39-.37-.71-.52-1s-.29-.5-.43-.71-.3-.41-.46-.6l-.6-.65c-.31-.34-.68-.73-1.12-1.17l-1.32-1.37c-.45-.47-.91-.93-1.36-1.38L294,303.32c-.4.19-.81.36-1.22.53s-.78.29-1.12.4a6.34,6.34,0,0,1-.17-1.28q0-.64,0-1.26c.76-.16,1.47-.29,2.15-.41s1.29-.18,1.86-.22a6.88,6.88,0,0,0,.75,1.39,14,14,0,0,0,1.16,1.39l1.19,1.26c.44.47.87.93,1.31,1.38l1.28,1.32c.41.42.77.79,1.08,1.09.41-.21.83-.42,1.27-.62l1.28-.61a15.9,15.9,0,0,0-1.29-4.18,15.13,15.13,0,0,0-2.76-4l-.61-.63-.64-.62c-.42.2-.83.39-1.24.55a11.62,11.62,0,0,1-1.17.4,7.06,7.06,0,0,1-.18-1.27c0-.42,0-.83-.06-1.22.77-.18,1.5-.32,2.18-.44a18.62,18.62,0,0,1,1.88-.24,6.42,6.42,0,0,0,.75,1.39,13.75,13.75,0,0,0,1.15,1.39l1.94,2c.71.72,1.39,1.41,2.05,2,.57,0,1.15,0,1.74,0a11.59,11.59,0,0,1,1.38.13A6.4,6.4,0,0,1,310.05,304.56Z"/><path d="M308.63,289.78c-.64-.19-1.3-.41-2-.67a7,7,0,0,0-.29,2.23,2.12,2.12,0,0,0,.78,1.56c.21.17.58.47,1.1.87l1.7,1.31c.61.47,1.23.93,1.84,1.38l1.49,1.12,1.15-.8c.4-.29.82-.6,1.26-.94l.06-1.3c0-.43,0-.91,0-1.42a5.36,5.36,0,0,1,.79-.14,2.07,2.07,0,0,1,.73,0,14.15,14.15,0,0,1,.08,2.4,16.94,16.94,0,0,1-.34,2.44c-.76.41-1.53.81-2.31,1.19s-1.62.76-2.5,1.14a15.45,15.45,0,0,0-1-1.28,8.78,8.78,0,0,0-1-1,21.89,21.89,0,0,0-1.92-1.42c-.76-.51-1.43-1-2-1.49a4.32,4.32,0,0,1-1.64-3.52,12.23,12.23,0,0,1,1.24-4.84,20.75,20.75,0,0,0,2.72.87c.87.22,1.63.39,2.29.51a3.55,3.55,0,0,1-.08,1.2c-.1.35-.18.67-.25.94A11.63,11.63,0,0,1,308.63,289.78Z"/><path d="M322.16,289.35a14.54,14.54,0,0,1-1.92.8,4.2,4.2,0,0,0-.52-.66,6,6,0,0,0-.72-.66c-.29-.23-.66-.5-1.11-.79s-1-.67-1.69-1.1l-9.1-5.8c-.66.17-1.27.31-1.84.43s-1,.18-1.43.23a5.11,5.11,0,0,1-.54-1.31,6.21,6.21,0,0,1-.24-1.65l2.41.31c.78.11,1.47.19,2.06.26a7.83,7.83,0,0,1-1-2.62,8.15,8.15,0,0,1,0-3.34,4.63,4.63,0,0,1,.9,0,4,4,0,0,1,.89.2,10.54,10.54,0,0,0,.47,4.48,7.44,7.44,0,0,0,3.29,3.79l2.28,1.45a14.13,14.13,0,0,1-1.79-2.3,10.08,10.08,0,0,1-1.08-2.24c.24-.23.55-.51.94-.84s.81-.67,1.26-1,.93-.69,1.42-1,1-.63,1.43-.89c.29.33.53.6.74.81s.41.41.59.58a5.3,5.3,0,0,0,.6.46c.2.15.45.31.73.49.68.43,1.35.84,2,1.22s1.27.73,1.85,1l1.49.81c.42.23.74.41.94.54a8.45,8.45,0,0,1,3.64,4.14,10,10,0,0,1,.27,5.36,3.69,3.69,0,0,1-.74-.05,1.82,1.82,0,0,1-.67-.21,10.87,10.87,0,0,0-.5-3.93,5.82,5.82,0,0,0-2.55-3l-1.68-1.07c-.77-.49-1.6-1-2.49-1.57s-1.78-1.11-2.66-1.64l-2.14-1.3c-.36.34-.73.69-1.12,1s-.76.68-1.13,1a16.18,16.18,0,0,0,2.25,3.73,14.6,14.6,0,0,0,3.64,3.22l.75.47.75.42c.38-.35.79-.7,1.22-1.05a10.92,10.92,0,0,1,1.17-.87c.15.4.29.82.42,1.27a11.52,11.52,0,0,1,.29,1.31C323.56,288.63,322.9,289,322.16,289.35Z"/></g></g></svg>