<svg xmlns="http://www.w3.org/2000/svg" viewBox="0 0 351.12 338.42"><g id="Layer_2" className="spinner" data-name="Layer 2"><g id="Layer_1-2" data-name="Layer 1"><g id="icon" class="svgIcon"><path d="M189.61,209l37.77-9.4q-1.87,7.38-24.35,12.55a4.54,4.54,0,0,0-3.5,3.8,48.91,48.91,0,0,0-.2,6,41.45,41.45,0,0,0,1.56,9.78,40.69,40.69,0,0,1,1.56,8.62H135.87c0-2.08.07-5.06.2-9q.19-6.42.19-9.15,0-20.23-11.58-28.9-12.75-9.54-17.91-21.32-4.86-11.1-4.86-29,0-18.78,19.17-33.39Q138.9,96,158.26,96h3.8q32.12,0,37.18,13.62,1.26,5.35,3.21,11.78a21.39,21.39,0,0,1,2,2.78,29.13,29.13,0,0,1,.09,3.35q0,6.53,3.31,9.35,1.56,1.37,8,3.69a29.09,29.09,0,0,1,7,3.48l-45.86,11.42-30.35,10.85,1.93,5.53,29.78-10.64,9.63,40.64L146.86,184l-2.2,5.43ZM184,159.74l7.92-2-6.12,9.54Zm5,21.19-1.35-5.7,12.54-19.52,6-1.49Zm3.23,13.63-1.35-5.7,23.57-36.7,6-1.48Zm30.56-36.72,1.35,5.7-23.53,36.64-6,1.48ZM208.9,198.12,226,171.47l1.35,5.7-12.5,19.47Zm20.35-13,1.78,7.52-7.86,1.95Zm15.61-34-2.23-1.62L265.81,115l6.05,4.33ZM279.74,192l-5,5.53-30-28.75,1.84-2ZM248,157.89l30.18-7,1,8.8-30.79,1.38Z"/></g><g id="email" class="svgEmail"><path d="M219,25.67c2.28.63,3.59.32,3.94-1a4.8,4.8,0,0,0-.65-3.08,42.79,42.79,0,0,0-3.58-5.72c-1.21-1.69-2.12-3-2.76-4a33.59,33.59,0,0,1-1.77-3,9.32,9.32,0,0,1-1-2.68A5.1,5.1,0,0,1,213.25,4,5,5,0,0,1,216.66.4a11.06,11.06,0,0,1,6.42.17c1,.27,2.49.77,4.49,1.48s3.36,1.17,4.09,1.37a13.62,13.62,0,0,0,3.7.63,1.29,1.29,0,0,1,1.09.44,1,1,0,0,1,.23,1,1.42,1.42,0,0,1-.67.81q-1.84.86-2.85,4.5a22.11,22.11,0,0,0-.71,4,.92.92,0,0,1-.79.89,1.07,1.07,0,0,1-1.21-.53,1.81,1.81,0,0,1-.26-.95,12.66,12.66,0,0,0-1.57-6.29,9,9,0,0,0-2.52-2.67,11.89,11.89,0,0,0-3.43-1.5,10,10,0,0,0-2.23-.39,3.67,3.67,0,0,0-1.82.36A2,2,0,0,0,217.54,5a2.06,2.06,0,0,0,.11,1.58,4.14,4.14,0,0,0,1.28,1.32c.61.44,1.28.9,2,1.38a18.34,18.34,0,0,1,2.57,2.14,20.11,20.11,0,0,1,2.72,3.24q5.53,8.17,4.48,12a5.44,5.44,0,0,1-.72,1.61,3.69,3.69,0,0,1-1.33,1.14,5.45,5.45,0,0,1-2.12.59,14.8,14.8,0,0,1-3.14-.14,33.91,33.91,0,0,1-4.36-.93c-.92-.26-2.3-.72-4.16-1.39s-3.12-1.11-3.81-1.3a13.68,13.68,0,0,0-3.71-.63,1.27,1.27,0,0,1-1.09-.44,1,1,0,0,1-.23-1,1.37,1.37,0,0,1,.67-.8c1.23-.58,2.22-2.21,3-4.91a23.06,23.06,0,0,0,.76-4.17.92.92,0,0,1,.79-.89,1.07,1.07,0,0,1,1.21.53,1.77,1.77,0,0,1,.26.94,16.21,16.21,0,0,0,1.51,6.5,10.92,10.92,0,0,0,2,2.85A6.38,6.38,0,0,0,219,25.67Z"/><path d="M259.83,5.77l.45.26a5.45,5.45,0,0,1,2.12,1.83,1.88,1.88,0,0,1-.09,2,47.58,47.58,0,0,1-2.95,4.53,31.69,31.69,0,0,1-3.39,4c-.47.46-.59.85-.37,1.19s.61.36,1.19.09a13.07,13.07,0,0,1,6.42-1.18,16.66,16.66,0,0,1,7.2,2.32,9.36,9.36,0,0,1,2.23,1.72,7.46,7.46,0,0,1,1.43,2.19,5.24,5.24,0,0,1,.35,2.67,7.77,7.77,0,0,1-1,3,31.2,31.2,0,0,1-3.09,3.89,36.22,36.22,0,0,0-3.84,5.09A18.1,18.1,0,0,0,265.27,42a9.54,9.54,0,0,0-.52,2.06,4.33,4.33,0,0,0,.15,1.75,7.48,7.48,0,0,0,.62,1.55A15.84,15.84,0,0,0,266.59,49a1.25,1.25,0,0,1,.25,1.1.92.92,0,0,1-.67.7,1.1,1.1,0,0,1-1-.23,50.84,50.84,0,0,0-6.25-4.24,46.64,46.64,0,0,0-6.15-2.79,1.07,1.07,0,0,1-.7-.75.91.91,0,0,1,.25-.93,1.26,1.26,0,0,1,1.08-.35,11.36,11.36,0,0,0,1.9,0,5.28,5.28,0,0,0,1.65-.42,4.72,4.72,0,0,0,1.64-1.16,10.55,10.55,0,0,0,1.51-2.12v0a43.28,43.28,0,0,1,3-4.67c1.07-1.42,2-2.58,2.78-3.5a15.12,15.12,0,0,0,1.59-2.08,3.15,3.15,0,0,0,.36-2.6,4.31,4.31,0,0,0-2.1-2.18,8.21,8.21,0,0,0-2.69-.91,10.09,10.09,0,0,0-3.24,0,13.73,13.73,0,0,0-3.36,1A11.72,11.72,0,0,0,253.28,25a13.57,13.57,0,0,0-2.64,3.33l-.51.89a21.41,21.41,0,0,0-2,4.44,5.86,5.86,0,0,0-.23,2.91,6.88,6.88,0,0,0,1.27,2.48,1.27,1.27,0,0,1,.25,1.11,1,1,0,0,1-.67.7,1.1,1.1,0,0,1-1-.23,45.87,45.87,0,0,0-5.54-3.84,51,51,0,0,0-6.88-3.2,1.11,1.11,0,0,1-.71-.75.93.93,0,0,1,.26-.93,1.25,1.25,0,0,1,1.08-.36,13.67,13.67,0,0,0,2,.1,6.89,6.89,0,0,0,1.7-.31,4.88,4.88,0,0,0,1.65-.88,11,11,0,0,0,1.58-1.69,21.94,21.94,0,0,0,1.75-2.68l7.25-12.78a21.17,21.17,0,0,0,1.4-2.87,11,11,0,0,0,.64-2.23,4.9,4.9,0,0,0-.09-1.87,6.75,6.75,0,0,0-.61-1.61,14.19,14.19,0,0,0-1.1-1.67,1.25,1.25,0,0,1-.26-1.1.93.93,0,0,1,.68-.7,1.07,1.07,0,0,1,1,.22A50.87,50.87,0,0,0,259.83,5.77Z"/><path d="M295.34,66.25q-4.3,2.67-8,2.18c-2.47-.33-5-1.71-7.51-4.16a30.66,30.66,0,0,1-2.33-2.5,20.34,20.34,0,0,1-1.82-2.62,12,12,0,0,1-1.2-2.77,10.35,10.35,0,0,1-.38-2.94,10.08,10.08,0,0,1,.53-3.13A15.17,15.17,0,0,1,276.28,47a23.51,23.51,0,0,1,2.89-3.58,19.34,19.34,0,0,1,4.63-3.64,11.3,11.3,0,0,1,4.3-1.42,9.83,9.83,0,0,1,4.07.55,15.36,15.36,0,0,1,3.83,2,30.29,30.29,0,0,1,3.67,3.07c.64.63,1.57,1.64,2.79,3s2.07,2.33,2.55,2.8A13.37,13.37,0,0,0,308,52.07a1.3,1.3,0,0,1,.75.92,1,1,0,0,1-.26.95,1.38,1.38,0,0,1-1,.38c-1.36-.08-2.91.78-4.67,2.59-.3.32-.73.86-1.3,1.62a16.77,16.77,0,0,1-1.21,1.53,3.56,3.56,0,0,1-1.83,1.11,2.32,2.32,0,0,1-1.94-.84l-7.46-7.21q-.92-.88-4.19-3.91a25.67,25.67,0,0,0-3.45,4.32,7.52,7.52,0,0,0-1.21,3.54,5.71,5.71,0,0,0,.63,2.93,11.12,11.12,0,0,0,2.2,2.77,8.28,8.28,0,0,0,5,2.43,10.23,10.23,0,0,0,5.66-1.11,1.76,1.76,0,0,1,1.6-.08,1.24,1.24,0,0,1,.75,1.07A1.26,1.26,0,0,1,295.34,66.25Zm.15-11.4a3,3,0,0,0,2.1,1,2.17,2.17,0,0,0,1.81-1,4.84,4.84,0,0,0,.82-2.68,6.59,6.59,0,0,0-.56-3.23,9.83,9.83,0,0,0-2.12-2.78,9.64,9.64,0,0,0-2.14-1.62,5.23,5.23,0,0,0-2.24-.57,5.48,5.48,0,0,0-2.66.67,15.78,15.78,0,0,0-3.17,2.2Q289.16,48.74,295.49,54.85Z"/><path d="M315.69,96.24c-3.21,1.05-6,1.13-8.3.24s-4.43-2.84-6.32-5.82a29.79,29.79,0,0,1-1.67-3,19.65,19.65,0,0,1-1.15-3,12.21,12.21,0,0,1-.52-3,10.79,10.79,0,0,1,.33-2.94,9.87,9.87,0,0,1,1.26-2.92A14.87,14.87,0,0,1,301.71,73a23.72,23.72,0,0,1,3.65-2.79,19.24,19.24,0,0,1,5.36-2.45,11.32,11.32,0,0,1,4.52-.36,9.63,9.63,0,0,1,3.82,1.49,15.37,15.37,0,0,1,3.26,2.79,31,31,0,0,1,2.84,3.86c.48.75,1.15,2,2,3.6s1.46,2.76,1.82,3.33a13.37,13.37,0,0,0,2.31,3,1.29,1.29,0,0,1,.52,1.07,1,1,0,0,1-.48.86,1.48,1.48,0,0,1-1,.15q-1.95-.61-5.15,1.41a18.72,18.72,0,0,0-1.64,1.27c-.73.61-1.25,1-1.54,1.2a3.48,3.48,0,0,1-2,.64,2.28,2.28,0,0,1-1.69-1.27L312.7,82q-.69-1.08-3.16-4.79a26.24,26.24,0,0,0-4.37,3.39,7.45,7.45,0,0,0-2,3.15,5.68,5.68,0,0,0-.08,3A11.46,11.46,0,0,0,304.56,90a8.39,8.39,0,0,0,4.27,3.53,10.14,10.14,0,0,0,5.76.26,1.75,1.75,0,0,1,1.57.3,1.19,1.19,0,0,1,.48,1.21A1.25,1.25,0,0,1,315.69,96.24Zm2.83-11a3,3,0,0,0,1.81,1.47,2.19,2.19,0,0,0,2-.53,4.81,4.81,0,0,0,1.43-2.41,6.78,6.78,0,0,0,.22-3.27,10,10,0,0,0-1.41-3.2,9.43,9.43,0,0,0-1.7-2.08,5.27,5.27,0,0,0-2-1.08,5.45,5.45,0,0,0-2.75,0,15.52,15.52,0,0,0-3.59,1.39Q313.82,77.77,318.52,85.2Z"/><path d="M347.63,102.75l.16.5a5.36,5.36,0,0,1,.31,2.77,1.89,1.89,0,0,1-1.39,1.38,49.23,49.23,0,0,1-5.24,1.32,31.9,31.9,0,0,1-5.22.65c-.65,0-1,.22-1.08.61s.2.69.81.88a13.09,13.09,0,0,1,5.52,3.5,16.59,16.59,0,0,1,3.7,6.59,9.06,9.06,0,0,1,.47,2.78,7.42,7.42,0,0,1-.43,2.57,5.41,5.41,0,0,1-1.56,2.21,7.75,7.75,0,0,1-2.79,1.5,30.6,30.6,0,0,1-4.92.76,36.17,36.17,0,0,0-6.27,1.13A18.32,18.32,0,0,0,327,133a9.46,9.46,0,0,0-1.78,1.16,4.3,4.3,0,0,0-1.08,1.38,7,7,0,0,0-.59,1.56,13.86,13.86,0,0,0-.31,1.91,1.25,1.25,0,0,1-.57,1,.93.93,0,0,1-1,.06,1.08,1.08,0,0,1-.59-.85,52.72,52.72,0,0,0-1.71-7.37,46.3,46.3,0,0,0-2.62-6.22,1.08,1.08,0,0,1,0-1,.92.92,0,0,1,.82-.51,1.25,1.25,0,0,1,1,.47A11,11,0,0,0,320,125.9a5.34,5.34,0,0,0,1.5.81,4.65,4.65,0,0,0,2,.26,10.66,10.66,0,0,0,2.56-.52h0a43.56,43.56,0,0,1,5.4-1.36c1.76-.31,3.23-.54,4.42-.68a14.85,14.85,0,0,0,2.58-.46,3.08,3.08,0,0,0,2-1.65,4.27,4.27,0,0,0-.06-3,7.86,7.86,0,0,0-1.36-2.49,9.87,9.87,0,0,0-2.39-2.18,13.61,13.61,0,0,0-3.15-1.56,11.71,11.71,0,0,0-3.81-.6,13.31,13.31,0,0,0-4.19.65l-1,.31a21,21,0,0,0-4.49,1.89,6,6,0,0,0-2.15,2,7.06,7.06,0,0,0-.75,2.68,1.29,1.29,0,0,1-.57,1,1,1,0,0,1-1,0,1.09,1.09,0,0,1-.59-.85,45.54,45.54,0,0,0-1.46-6.58,52.33,52.33,0,0,0-2.87-7,1.08,1.08,0,0,1,0-1,1,1,0,0,1,.82-.52,1.3,1.3,0,0,1,1,.48,13.53,13.53,0,0,0,1.4,1.42,6.82,6.82,0,0,0,1.45.93,4.71,4.71,0,0,0,1.82.47,10.87,10.87,0,0,0,2.3-.16,23,23,0,0,0,3.1-.78l14-4.46a21.91,21.91,0,0,0,3-1.16,11,11,0,0,0,2-1.2,4.6,4.6,0,0,0,1.21-1.43,6.82,6.82,0,0,0,.65-1.6,13.48,13.48,0,0,0,.32-2,1.25,1.25,0,0,1,.57-1,.93.93,0,0,1,1-.06,1.09,1.09,0,0,1,.59.85A51.27,51.27,0,0,0,347.63,102.75Z"/><path d="M323.55,167.74v0a2.9,2.9,0,0,1,.26-1.68,1.28,1.28,0,0,1,1.07-.49,3.92,3.92,0,0,1,1.17.17,4.74,4.74,0,0,0,.9.18.5.5,0,0,0,.43-.22.58.58,0,0,0,0-.52,1.18,1.18,0,0,0-.48-.56,7.93,7.93,0,0,1-1.36-1.27,14.17,14.17,0,0,1-1.39-2,11.68,11.68,0,0,1-1.22-3,17.92,17.92,0,0,1-.59-3.88,19.67,19.67,0,0,1,.09-3.32,9.43,9.43,0,0,1,.61-2.5,7.92,7.92,0,0,1,1-1.77,4.56,4.56,0,0,1,1.44-1.18,7.38,7.38,0,0,1,1.75-.65,10.71,10.71,0,0,1,2-.28c2.52-.11,4.39.64,5.61,2.27s1.93,4.38,2.11,8.27-.22,6.89-1.22,8.65a.92.92,0,0,0-.06,1.09c.23.32.6.31,1.14,0a11,11,0,0,1,5.38-1.69c.23,0,.57,0,1,0h1a4.38,4.38,0,0,0,3-.91,3.72,3.72,0,0,0,.69-2.82,8,8,0,0,0-.7-3.14,7.3,7.3,0,0,0-2-2.39,22.86,22.86,0,0,0-5.68-3.45c-.83-.35-1.27-.84-1.31-1.48a.89.89,0,0,1,.56-1,1.14,1.14,0,0,1,.67-.1,22.76,22.76,0,0,0,3.88.25q3.38-.17,4.76-1.93a1.6,1.6,0,0,1,1-.52,1.14,1.14,0,0,1,1,.48,1.37,1.37,0,0,1,.22,1.27,14.39,14.39,0,0,0-.23,4.13c0,.68.17,2,.44,3.84s.41,3.28.45,4.19a33.06,33.06,0,0,1,0,3.88,13.12,13.12,0,0,1-.56,3.09,6.22,6.22,0,0,1-1.28,2.35,5.88,5.88,0,0,1-2.18,1.46,9.57,9.57,0,0,1-3.26.65,41.14,41.14,0,0,1-5-.33,51.06,51.06,0,0,0-5.58-.36,16.35,16.35,0,0,0-2.79.4,9.69,9.69,0,0,0-2,.67,4.33,4.33,0,0,0-1.37,1,7.31,7.31,0,0,0-.95,1.33,13.65,13.65,0,0,0-.78,1.74,1.3,1.3,0,0,1-.81.81.94.94,0,0,1-.94-.2,1.09,1.09,0,0,1-.35-1A52.77,52.77,0,0,0,323.55,167.74Zm5.16-5.16a3.06,3.06,0,0,0,2.12.83,3,3,0,0,0,1.81-.64,3.69,3.69,0,0,0,1.1-1.69,10.66,10.66,0,0,0,.5-2.49,27.06,27.06,0,0,0,0-3.28,7.12,7.12,0,0,0-.41-2.36,1.13,1.13,0,0,0-1.16-.77,11.19,11.19,0,0,0-1.32.21,10.09,10.09,0,0,1-1.62.22c-.52,0-1.14,0-1.86,0h-1.51a.93.93,0,0,0-.84.41,2.65,2.65,0,0,0-.17,1.32,13,13,0,0,0,.51,3,16.14,16.14,0,0,0,1.12,3A7,7,0,0,0,328.71,162.58Z"/><path d="M348.59,194.56l-.12.52c-.42,1.87-1.22,2.67-2.39,2.41a7.11,7.11,0,0,1-2.46-1.12,1.77,1.77,0,0,0-1-.33.47.47,0,0,0-.42.51,1.4,1.4,0,0,0,.47,1,13.15,13.15,0,0,1,3,5.8,16.59,16.59,0,0,1-.13,7.56,9.34,9.34,0,0,1-1,2.64,7.37,7.37,0,0,1-1.68,2,5.37,5.37,0,0,1-2.45,1.12,8,8,0,0,1-3.17-.11,31.1,31.1,0,0,1-4.63-1.83,35.42,35.42,0,0,0-6-2.19,19.4,19.4,0,0,0-2.88-.38,9.79,9.79,0,0,0-2.12.11,4.41,4.41,0,0,0-1.63.64,7.39,7.39,0,0,0-1.3,1.06,16,16,0,0,0-1.23,1.48,1.27,1.27,0,0,1-1,.57.92.92,0,0,1-.85-.44,1.1,1.1,0,0,1-.09-1,51.23,51.23,0,0,0,2.25-7.22,46.48,46.48,0,0,0,.88-6.69,1.08,1.08,0,0,1,.51-.9.94.94,0,0,1,1,0,1.29,1.29,0,0,1,.65.93,11.46,11.46,0,0,0,.51,1.84,5.68,5.68,0,0,0,.88,1.46,4.67,4.67,0,0,0,1.59,1.22,10.36,10.36,0,0,0,2.46.84h0a43.83,43.83,0,0,1,5.36,1.56c1.67.61,3.06,1.16,4.16,1.64a14.82,14.82,0,0,0,2.45.91,3.08,3.08,0,0,0,2.6-.41,4.27,4.27,0,0,0,1.47-2.64,8.25,8.25,0,0,0-.08-3.62,12.46,12.46,0,0,0-1.61-3.8,11.92,11.92,0,0,0-3.28-3.34,13.14,13.14,0,0,0-4.78-2.1l-1-.22a21.48,21.48,0,0,0-4.83-.64,6,6,0,0,0-2.85.63,7,7,0,0,0-2,1.94,1.25,1.25,0,0,1-1,.56A.93.93,0,0,1,320,196a1.12,1.12,0,0,1-.08-1,45.31,45.31,0,0,0,2.07-6.42,50.66,50.66,0,0,0,1.06-7.51,1.09,1.09,0,0,1,.52-.89.92.92,0,0,1,1,0,1.29,1.29,0,0,1,.65.93,14.62,14.62,0,0,0,.49,1.94,7,7,0,0,0,.79,1.53,4.88,4.88,0,0,0,1.32,1.32,10.87,10.87,0,0,0,2.08,1,22.86,22.86,0,0,0,3.07.89l6.14,1.38a21.36,21.36,0,0,0,3.16.5,10.16,10.16,0,0,0,2.31,0,4.73,4.73,0,0,0,1.77-.62,7.27,7.27,0,0,0,1.36-1.05,13.91,13.91,0,0,0,1.27-1.54,1.3,1.3,0,0,1,1-.57.94.94,0,0,1,.86.44,1.07,1.07,0,0,1,.08,1A52.9,52.9,0,0,0,348.59,194.56Z"/><path d="M311.68,223.19a1.48,1.48,0,0,1,.92-2.17,7.66,7.66,0,0,1,1-.28,8.27,8.27,0,0,0,1.27-.41,8.4,8.4,0,0,0,1.08-.57,4.68,4.68,0,0,1,.9-.46,1.54,1.54,0,0,1,2.17.91q.08.19.18.51c.07.21.16.48.25.81l.25.84a6.28,6.28,0,0,0,.59,1.21,9.76,9.76,0,0,1,.49.88,1.51,1.51,0,0,1-.91,2.17,9.94,9.94,0,0,1-1,.29,11.63,11.63,0,0,0-1.24.36,8.54,8.54,0,0,0-1.11.55,7.33,7.33,0,0,1-.91.47,1.53,1.53,0,0,1-2.17-.92,6,6,0,0,1-.31-1c-.13-.48-.24-.86-.33-1.13a8.51,8.51,0,0,0-.61-1.2C311.89,223.58,311.73,223.3,311.68,223.19Z"/><path d="M298,276.76l-8-7.16q-5-4.44-.6-10.64,2.71-3.84,5-4.59t5.57,1.19l11.9,7a5.76,5.76,0,0,0,2.91,1.05,2.34,2.34,0,0,0,1.79-1.11,2.18,2.18,0,0,0,.22-2.39,12.87,12.87,0,0,0-3.26-3.36l-8.94-7.28c-1.9-1.54-2.9-3.18-3-4.93s.66-3.8,2.34-6.18q2.19-3.1,4.75-3.62t6.14,1.53l8.59,4.87a19.48,19.48,0,0,0,2.91,1.38,10.11,10.11,0,0,0,2.26.59,4.88,4.88,0,0,0,2-.17,9.07,9.07,0,0,0,1.77-.69,20.44,20.44,0,0,0,1.89-1.21,1,1,0,0,1,1-.13,1.11,1.11,0,0,1,.72.74,1.09,1.09,0,0,1-.32,1.1,80.22,80.22,0,0,0-5.76,7.19c-.51.73-1.18,1.84-2,3.33a35.4,35.4,0,0,1-2,3.35,1.08,1.08,0,0,1-1,.54,1.11,1.11,0,0,1-.91-.57,1.48,1.48,0,0,1-.15-1.25,5.64,5.64,0,0,0-.25-4.25,11.7,11.7,0,0,0-3.84-3.76l-9.1-6.26a4.26,4.26,0,0,0-2.64-1,3,3,0,0,0-2,1.47c-1.21,1.72-.85,3.37,1.1,4.93l10,8q3.39,2.7,4,5.41t-1.93,6.25c-1.67,2.38-3.32,3.76-4.93,4.14s-3.56-.1-5.84-1.43l-12.28-7.21a4.48,4.48,0,0,0-2.79-.85,3,3,0,0,0-1.91,1.39,2.74,2.74,0,0,0-.54,2.36,4.8,4.8,0,0,0,2,2.39l8.09,5.83a21.77,21.77,0,0,0,4.18,2.46,5.15,5.15,0,0,0,2.85.47,5,5,0,0,0,2.32-1.28,1.16,1.16,0,0,1,1.14-.32,1.25,1.25,0,0,1,.89.75,1.19,1.19,0,0,1-.2,1.22,27.66,27.66,0,0,1-2.24,2.69,29.68,29.68,0,0,0-2.23,2.68,25.31,25.31,0,0,0-1.53,2.66,34.85,34.85,0,0,1-1.8,3.12,1.33,1.33,0,0,1-.76.61,1,1,0,0,1-.78-.06,1.14,1.14,0,0,1-.52-.61,1.33,1.33,0,0,1-.05-1,11.85,11.85,0,0,0,.35-2.25,5.71,5.71,0,0,0-.36-2,7.59,7.59,0,0,0-1.41-2.34A28.56,28.56,0,0,0,298,276.76Z"/><path d="M275.93,273.06a1.46,1.46,0,0,1,1.73-1.59,8.16,8.16,0,0,1,1,.16,8.89,8.89,0,0,0,1.32.15,8.39,8.39,0,0,0,1.23-.07,4.16,4.16,0,0,1,1,0,1.54,1.54,0,0,1,1.59,1.73c0,.14,0,.32-.05.54s-.06.5-.11.84-.09.63-.12.86a6.27,6.27,0,0,0,0,1.35,8,8,0,0,1,.08,1,1.51,1.51,0,0,1-1.73,1.59,8.9,8.9,0,0,1-1-.16c-.5-.09-.93-.15-1.27-.18a8,8,0,0,0-1.24,0,5.88,5.88,0,0,1-1,0,1.52,1.52,0,0,1-1.59-1.73,6.87,6.87,0,0,1,.14-1.05c.09-.49.14-.88.17-1.16A8.3,8.3,0,0,0,276,274,8,8,0,0,1,275.93,273.06Z"/><path d="M279.61,305.12l-.42.28a3.8,3.8,0,0,1-2,.82,1.51,1.51,0,0,1-1.36-.7,8.66,8.66,0,0,1-1.39-3,1.76,1.76,0,0,0-.53-.95.46.46,0,0,0-.66.09,1.38,1.38,0,0,0-.32,1,26.67,26.67,0,0,1-.25,3.16,16.3,16.3,0,0,1-.75,2.92,10,10,0,0,1-1.56,2.78,10.92,10.92,0,0,1-2.53,2.33,2.41,2.41,0,0,1-2.14.5,3.94,3.94,0,0,1-1.88-1.66,5.1,5.1,0,0,1-1-2.35,1.48,1.48,0,0,1,.54-1.41,9.35,9.35,0,0,1,1.36-.69,11.62,11.62,0,0,0,1.77-1,8.57,8.57,0,0,0,2.28-12.58l-1.16-1.7a19.28,19.28,0,0,0-2-2.5,10.91,10.91,0,0,0-1.76-1.47,4.53,4.53,0,0,0-1.82-.63,8.48,8.48,0,0,0-1.85-.07,21.9,21.9,0,0,0-2.2.32,1.28,1.28,0,0,1-1.1-.26.94.94,0,0,1-.33-.91,1.1,1.1,0,0,1,.64-.81,55,55,0,0,0,7.1-4.12,52.28,52.28,0,0,0,5.9-4.78,1.09,1.09,0,0,1,1-.3.94.94,0,0,1,.73.63,1.27,1.27,0,0,1-.16,1.13,13.6,13.6,0,0,0-1,1.75,6.9,6.9,0,0,0-.47,1.66,4.73,4.73,0,0,0,.07,1.87,11,11,0,0,0,.82,2.16,21.92,21.92,0,0,0,1.64,2.75l4.22,6.16a17.08,17.08,0,0,0,1.77,2.06,8.91,8.91,0,0,0,1.57,1.26,4.65,4.65,0,0,0,1.6.58,7,7,0,0,0,1.62.1,15.1,15.1,0,0,0,1.86-.25,1.29,1.29,0,0,1,1.11.26,1,1,0,0,1,.33.91,1.09,1.09,0,0,1-.64.81A52.79,52.79,0,0,0,279.61,305.12Z"/><path d="M231.61,307.73a1,1,0,0,0,.54.59,1,1,0,0,0,.78,0,5,5,0,0,0,1.21-.95,27,27,0,0,1,2.19-1.82,11.6,11.6,0,0,1,2.81-1.55,11.05,11.05,0,0,1,2.73-.66,7.94,7.94,0,0,1,2.54.15,4.82,4.82,0,0,1,2.19,1.19,6,6,0,0,1,1.51,2.35,11.08,11.08,0,0,1,.38,2.9,11.69,11.69,0,0,0,.58,3.45q1.89,5,6.84,5.32a1.26,1.26,0,0,1,1,.52,1,1,0,0,1,.1,1,1.05,1.05,0,0,1-.8.63,52.21,52.21,0,0,0-6.92,2l-.66.25a4.37,4.37,0,0,1-3.1.28,3.43,3.43,0,0,1-1.69-2.43l-1.27-4.45a10.13,10.13,0,0,1-.41-2.82,21.23,21.23,0,0,1,.13-2.33,3.43,3.43,0,0,0-.11-1.53,2.12,2.12,0,0,0-1.47-1.35,4.37,4.37,0,0,0-2.61.29,10.26,10.26,0,0,0-2,1.2,9.87,9.87,0,0,1-2,1.19,3.74,3.74,0,0,1-3.33-.08,4.25,4.25,0,0,1-1.93-2.22,4.2,4.2,0,0,1-.27-2.18,4,4,0,0,1,.89-2,10.28,10.28,0,0,1,1.73-1.69,18.62,18.62,0,0,1,2.45-1.6,22.18,22.18,0,0,0,3-2,4.47,4.47,0,0,0,1.25-1.42,1.47,1.47,0,0,0,0-1.13,1.55,1.55,0,0,0-1.17-1,7.71,7.71,0,0,0-3,.38c-1.4.36-3.43,1.05-6.09,2.05s-4.49,2-5.38,3a2.94,2.94,0,0,0-.66,3.27,6.85,6.85,0,0,0,1.43,2.13,20.26,20.26,0,0,0,2.13,2,20.26,20.26,0,0,1,2.3,2.27,11.19,11.19,0,0,1,1.83,2.8l2.14,4.78q2.14,4.85,2.86,6.75a2.71,2.71,0,0,1,0,2.42,5.11,5.11,0,0,1-2.48,1.68,51.2,51.2,0,0,0-6.88,3.25,1.11,1.11,0,0,1-1,.06.92.92,0,0,1-.55-.79,1.25,1.25,0,0,1,.42-1.06,13.58,13.58,0,0,0,1.35-1.47,7.1,7.1,0,0,0,.85-1.5,4.75,4.75,0,0,0,.37-1.83,11.16,11.16,0,0,0-.28-2.3,23.09,23.09,0,0,0-.94-3.06l-1.81-4.79a9.27,9.27,0,0,0-1.51-2.57,14.21,14.21,0,0,0-1.94-2,15.92,15.92,0,0,1-1.92-1.93,8.06,8.06,0,0,1-1.43-2.36q-1.55-4.11,1.6-8t11.41-7a39.8,39.8,0,0,1,6.31-1.89,13.15,13.15,0,0,1,4.45-.27,5.92,5.92,0,0,1,2.8,1.08,5,5,0,0,1,1.58,2.26q1.86,4.9-9.12,10.56C232.54,305.37,231.21,306.68,231.61,307.73Z"/><path d="M187,310h0a2.93,2.93,0,0,1,1.68.16,1.3,1.3,0,0,1,.56,1,4,4,0,0,1-.1,1.19,4.11,4.11,0,0,0-.13.91.49.49,0,0,0,.25.41.51.51,0,0,0,.51,0,1.09,1.09,0,0,0,.54-.51,7.9,7.9,0,0,1,1.18-1.43,15,15,0,0,1,1.88-1.51,12,12,0,0,1,2.91-1.39,17,17,0,0,1,3.84-.81,20.07,20.07,0,0,1,3.31-.11,8.91,8.91,0,0,1,2.53.47,7.83,7.83,0,0,1,1.83.92,4.58,4.58,0,0,1,1.26,1.37,7.83,7.83,0,0,1,.76,1.7,11.08,11.08,0,0,1,.39,2q.39,3.76-1.93,5.73t-8.14,2.59q-6,.63-8.7-.72a.94.94,0,0,0-1.1,0c-.3.25-.27.62.1,1.13a11.14,11.14,0,0,1,2,5.28c0,.22,0,.57.07,1s.05.78.07,1a4.37,4.37,0,0,0,1.08,2.95,3.77,3.77,0,0,0,2.85.52,7.93,7.93,0,0,0,3.1-.88,7.22,7.22,0,0,0,2.27-2.11A22.76,22.76,0,0,0,205,325c.29-.85.75-1.32,1.39-1.4a.91.91,0,0,1,1,.51,1.15,1.15,0,0,1,.13.66,22,22,0,0,0,0,3.89q.36,3.36,2.2,4.64a1.54,1.54,0,0,1,.58,1,1.11,1.11,0,0,1-.42,1,1.35,1.35,0,0,1-1.25.29,14.66,14.66,0,0,0-4.13,0c-.68.08-2,.3-3.82.67s-3.24.6-4.15.7a36.1,36.1,0,0,1-3.88.21,13.51,13.51,0,0,1-3.11-.38,6,6,0,0,1-2.42-1.14,5.91,5.91,0,0,1-1.59-2.09,9.76,9.76,0,0,1-.84-3.22,43.48,43.48,0,0,1,0-5,53.2,53.2,0,0,0,0-5.6,17.81,17.81,0,0,0-.56-2.76,9.49,9.49,0,0,0-.79-1.91,4.39,4.39,0,0,0-1.12-1.31,7.78,7.78,0,0,0-1.39-.88,15.68,15.68,0,0,0-1.79-.68,1.29,1.29,0,0,1-.85-.75,1,1,0,0,1,.15-1,1.08,1.08,0,0,1,.95-.4A50.56,50.56,0,0,0,187,310Zm5.45,4.86a3,3,0,0,0,0,3.93,3.62,3.62,0,0,0,1.75,1,10.15,10.15,0,0,0,2.52.35,26.5,26.5,0,0,0,3.27-.16,7.06,7.06,0,0,0,2.33-.56,1.12,1.12,0,0,0,.7-1.2,10.17,10.17,0,0,0-.28-1.3,9.53,9.53,0,0,1-.32-1.61c0-.52-.1-1.14-.13-1.86s-.07-1.22-.1-1.5a.91.91,0,0,0-.45-.81,2.67,2.67,0,0,0-1.33-.1,14.06,14.06,0,0,0-3,.68,16.91,16.91,0,0,0-2.89,1.3A7,7,0,0,0,192.4,314.81Z"/><path d="M161.66,336.54l-.52-.08c-1.89-.31-2.74-1.06-2.54-2.25a6.88,6.88,0,0,1,1-2.52,1.8,1.8,0,0,0,.27-1.06.46.46,0,0,0-.53-.39,1.39,1.39,0,0,0-1,.53,13,13,0,0,1-5.62,3.33,16.5,16.5,0,0,1-7.55.33,9.22,9.22,0,0,1-2.69-.85,7.34,7.34,0,0,1-2.1-1.55,5.29,5.29,0,0,1-1.26-2.39,7.77,7.77,0,0,1-.08-3.17,31,31,0,0,1,1.55-4.72,36,36,0,0,0,1.83-6.11,19.82,19.82,0,0,0,.21-2.89,9.57,9.57,0,0,0-.23-2.11,4.45,4.45,0,0,0-.74-1.59,7.59,7.59,0,0,0-1.13-1.24,14.6,14.6,0,0,0-1.56-1.13,1.28,1.28,0,0,1-.62-.95,1,1,0,0,1,.39-.89,1.1,1.1,0,0,1,1-.14,51.14,51.14,0,0,0,7.34,1.81,46,46,0,0,0,6.73.48,1.09,1.09,0,0,1,.93.46.94.94,0,0,1,.08,1,1.25,1.25,0,0,1-.89.71,11.28,11.28,0,0,0-1.8.62,5.47,5.47,0,0,0-1.4,1,4.73,4.73,0,0,0-1.13,1.66,10.38,10.38,0,0,0-.69,2.51v0a44.34,44.34,0,0,1-1.24,5.44c-.51,1.7-1,3.12-1.39,4.25a14.56,14.56,0,0,0-.76,2.5,3.07,3.07,0,0,0,.56,2.57,4.24,4.24,0,0,0,2.72,1.31,8.13,8.13,0,0,0,3.61-.3,11.82,11.82,0,0,0,6.84-5.29,13,13,0,0,0,1.81-4.9l.17-1a21.39,21.39,0,0,0,.34-4.85,5.87,5.87,0,0,0-.8-2.81,6.67,6.67,0,0,0-2.05-1.89,1.28,1.28,0,0,1-.62-.95,1,1,0,0,1,.39-.89,1.1,1.1,0,0,1,1-.14,47.11,47.11,0,0,0,6.53,1.68,50.7,50.7,0,0,0,7.56.62,1.09,1.09,0,0,1,.93.46.94.94,0,0,1,.08,1,1.24,1.24,0,0,1-.89.7,13,13,0,0,0-1.9.61,6.84,6.84,0,0,0-1.49.87,4.81,4.81,0,0,0-1.24,1.41,11,11,0,0,0-.9,2.13,23.1,23.1,0,0,0-.71,3.11l-1,6.22a23,23,0,0,0-.32,3.18,11,11,0,0,0,.18,2.31,4.79,4.79,0,0,0,.73,1.72,6.68,6.68,0,0,0,1.13,1.3,13.52,13.52,0,0,0,1.62,1.18,1.3,1.3,0,0,1,.62.95,1,1,0,0,1-.39.89,1.1,1.1,0,0,1-1,.14A51.13,51.13,0,0,0,161.66,336.54Z"/><path d="M100.36,279.21q6,1,14.08,5.46,2.43,1.35,4.42,2.62c1.33.85,2.61,1.76,3.86,2.73a29.49,29.49,0,0,1,3.24,2.89,23.39,23.39,0,0,1,2.51,3.11,15.29,15.29,0,0,1,1.74,3.38,16,16,0,0,1,.83,3.7,15.62,15.62,0,0,1-.12,4.08,23.93,23.93,0,0,1-1.19,4.5,34.92,34.92,0,0,1-2.29,5,32,32,0,0,1-3.87,5.64,20.38,20.38,0,0,1-4.16,3.72,14.16,14.16,0,0,1-4.54,2,17.17,17.17,0,0,1-4.82.45,22.7,22.7,0,0,1-5.19-.91,42.28,42.28,0,0,1-5.48-2c-1.8-.8-3.74-1.78-5.85-2.94s-3.94-2.26-5.57-3.32a49.68,49.68,0,0,1-4.63-3.45,26.12,26.12,0,0,1-3.64-3.67,18.36,18.36,0,0,1-2.36-3.95,12.51,12.51,0,0,1-1-4.37,15.88,15.88,0,0,1,.58-4.83,23.74,23.74,0,0,1,2.23-5.39,32.79,32.79,0,0,1,2.82-4.35,20.33,20.33,0,0,1,2.82-3,11.33,11.33,0,0,1,2.89-1.8,10.05,10.05,0,0,1,2.92-.77,10.25,10.25,0,0,1,3,.15,16.67,16.67,0,0,1,3,.88,29.46,29.46,0,0,1,3.15,1.51,18.34,18.34,0,0,1,4.39,3.06c.82.87,1,1.69.61,2.43a10.88,10.88,0,0,1-1.58,2.08q-.65.71-.33,1.17c.21.32.6.35,1.16.11a13.74,13.74,0,0,1,12.71.48,8.92,8.92,0,0,1,2.19,1.67,7,7,0,0,1,1.39,2.12,5.3,5.3,0,0,1,.34,2.64,7.74,7.74,0,0,1-1,3,11.53,11.53,0,0,1-2.19,2.52,11.2,11.2,0,0,0-2.16,2.46,11.89,11.89,0,0,0-1.05,3.13,11.3,11.3,0,0,1-.89,2.85,4.66,4.66,0,0,1-3.09,2.3,9.67,9.67,0,0,1-4.68-.08,20.78,20.78,0,0,1-5.28-2.11q-1.86-1-4.74-2.94t-4.11-2.59l-.59-.32a35.22,35.22,0,0,0-4.6-2.09,1.09,1.09,0,0,1-.72-.74,1,1,0,0,1,.24-.94,1.3,1.3,0,0,1,1.08-.36,3.43,3.43,0,0,0,2.74-1.16,26.59,26.59,0,0,0,3.34-5.08l3.33-6.05a6.88,6.88,0,0,0,1.14-3.85,3.42,3.42,0,0,0-2-2.54,3.33,3.33,0,0,0-1.5-.45,3.65,3.65,0,0,0-1.73.45,7.87,7.87,0,0,0-2,1.57A24.46,24.46,0,0,0,87.67,292c-.9,1.31-1.87,2.89-2.9,4.76a25.38,25.38,0,0,0-2,4.42,14.8,14.8,0,0,0-.74,3.84,8.93,8.93,0,0,0,.48,3.42,12,12,0,0,0,1.56,3.06,17,17,0,0,0,2.67,2.87,35.6,35.6,0,0,0,3.64,2.73c1.31.86,2.84,1.78,4.61,2.75s3.39,1.79,4.85,2.42a27.92,27.92,0,0,0,4.36,1.52,14.53,14.53,0,0,0,4,.52,12.58,12.58,0,0,0,3.64-.65,10.91,10.91,0,0,0,3.45-1.91,20.31,20.31,0,0,0,3.24-3.34,36.39,36.39,0,0,0,3.18-4.89,37.37,37.37,0,0,0,2.47-5.34,21.25,21.25,0,0,0,1.13-4.57,11.12,11.12,0,0,0-.22-4,12.52,12.52,0,0,0-1.38-3.44,14.05,14.05,0,0,0-2.57-3.13,30.81,30.81,0,0,0-3.61-2.88c-1.32-.89-2.86-1.83-4.64-2.81a63.35,63.35,0,0,0-12.67-5.19c-1.75-.52-2.56-1.19-2.43-2S98.84,279,100.36,279.21Zm13.37,23a3.15,3.15,0,0,0,.37-2.57,3.85,3.85,0,0,0-2-2.06,6.66,6.66,0,0,0-2.44-.77,9.61,9.61,0,0,0-3,.13,12.2,12.2,0,0,0-3.07,1,11.91,11.91,0,0,0-2.94,2.11,13.53,13.53,0,0,0-2.43,3.19l-.27.48a15.54,15.54,0,0,0-1.4,3.16,3.91,3.91,0,0,0-.06,2.29A3.73,3.73,0,0,0,97.69,311a13.67,13.67,0,0,0,2.4,1.61q4.62,2.54,6.53-.93a20.12,20.12,0,0,0,.83-2,20.28,20.28,0,0,1,1.12-2.47,5.91,5.91,0,0,1,1.6-1.8l2.1-1.61A5.23,5.23,0,0,0,113.73,302.22Z"/><path d="M73.65,272.18a11.05,11.05,0,0,1,1.61,2.3,7.84,7.84,0,0,1,.78,2.43,4.77,4.77,0,0,1-.31,2.46,6.14,6.14,0,0,1-1.65,2.27,6.66,6.66,0,0,1-2,1.07,6.55,6.55,0,0,0-2,1,8.92,8.92,0,0,0-1.53,2,8.45,8.45,0,0,1-1.35,1.83,4.81,4.81,0,0,1-3.77,1.21,10.05,10.05,0,0,1-4.51-1.62,21.31,21.31,0,0,1-4.39-3.78q-1.56-1.74-3.88-4.74t-3.36-4.16l-.45-.5a50.12,50.12,0,0,0-5.52-5.23,1.09,1.09,0,0,1-.43-.94.94.94,0,0,1,.53-.81,1.3,1.3,0,0,1,1.14,0,13.66,13.66,0,0,0,1.86.73,7.35,7.35,0,0,0,1.71.24,4.7,4.7,0,0,0,1.84-.32,10.91,10.91,0,0,0,2-1.09,21.37,21.37,0,0,0,2.5-2l3.81-3.42a9.16,9.16,0,0,0,1.85-2.34,13.75,13.75,0,0,0,1.15-2.54,15.66,15.66,0,0,1,1.1-2.48,8.07,8.07,0,0,1,1.69-2.19q3.25-2.94,8-1.41t10.64,8.11a40.54,40.54,0,0,1,4.06,5.18,13.5,13.5,0,0,1,1.87,4.06,5.83,5.83,0,0,1,0,3,5,5,0,0,1-1.53,2.29q-3.9,3.51-13.14-4.66-3.85-3.41-5.1-2.28a1,1,0,0,0-.36.71,1,1,0,0,0,.28.74,6.12,6.12,0,0,0,1.43.9A29.46,29.46,0,0,1,71,269.86,14.11,14.11,0,0,1,73.65,272.18Zm-4.74.73a11.56,11.56,0,0,0-2.18-1.71,11.74,11.74,0,0,1-2-1.53,5,5,0,0,1-1.08-1.79,3.48,3.48,0,0,1-.13-1.7,4.62,4.62,0,0,1,.51-1.41,4.56,4.56,0,0,1,.9-1.1,4.24,4.24,0,0,1,1.92-1,4.18,4.18,0,0,1,2.15.12,10.21,10.21,0,0,1,2.2,1,19.61,19.61,0,0,1,2.39,1.71,20.58,20.58,0,0,0,2.93,2.07,4.46,4.46,0,0,0,1.78.66,1.61,1.61,0,0,0,1.58-1.86,7.78,7.78,0,0,0-1.43-2.62q-1.28-1.76-4.12-4.93a15.1,15.1,0,0,0-4.73-3.94,3,3,0,0,0-3.29.59A5.45,5.45,0,0,0,65.11,257a19.93,19.93,0,0,0-.94,2.15c-.27.75-.55,1.52-.85,2.31a14.21,14.21,0,0,1-1.18,2.38,8.79,8.79,0,0,1-1.68,2.06l-4,3.6a18,18,0,0,0-2.32,2.41A7.19,7.19,0,0,0,53,274a3.15,3.15,0,0,0-.09,1.92,6.15,6.15,0,0,0,.85,1.92A17.82,17.82,0,0,0,55.46,280c2.45,2.72,4.7,3.14,6.78,1.28.16-.15.51-.5,1-1s1-1,1.34-1.32a5.31,5.31,0,0,1,2.47-1,5.34,5.34,0,0,0,2.31-.83,2.1,2.1,0,0,0,.72-1.87A4.25,4.25,0,0,0,68.91,272.91Z"/><path d="M25,235.29a1.63,1.63,0,0,1-1.71-.31,5.57,5.57,0,0,1-1.58-2.34l-.1-.23a5.52,5.52,0,0,1-.55-2.77,1.66,1.66,0,0,1,1-1.44,3.79,3.79,0,0,1,.74-.21,4,4,0,0,1,.71-.06h1.67a1.75,1.75,0,0,0,1-.32.46.46,0,0,0,.05-.66,1.35,1.35,0,0,0-.94-.53,12.76,12.76,0,0,1-5.78-3,16.8,16.8,0,0,1-4.27-6.26,9.19,9.19,0,0,1-.71-2.73,7.54,7.54,0,0,1,.2-2.6,5.3,5.3,0,0,1,1.35-2.33,7.64,7.64,0,0,1,2.65-1.74,31.21,31.21,0,0,1,4.84-1.19,36.74,36.74,0,0,0,6.16-1.67,18.1,18.1,0,0,0,2.56-1.36A9.16,9.16,0,0,0,34,202.25a4.26,4.26,0,0,0,1-1.47,7.37,7.37,0,0,0,.45-1.61,14.05,14.05,0,0,0,.14-1.92,1.27,1.27,0,0,1,.48-1,.94.94,0,0,1,1-.14,1.07,1.07,0,0,1,.66.79A51.9,51.9,0,0,0,40,204.06a45.77,45.77,0,0,0,3.15,6,1.09,1.09,0,0,1,.1,1,.94.94,0,0,1-.77.58,1.26,1.26,0,0,1-1.07-.38,11.16,11.16,0,0,0-1.48-1.21,5.88,5.88,0,0,0-1.56-.68,4.89,4.89,0,0,0-2-.08,10.61,10.61,0,0,0-2.5.75h0a43,43,0,0,1-5.27,1.83c-1.73.47-3.18.82-4.36,1.07a15.26,15.26,0,0,0-2.53.68,3,3,0,0,0-1.86,1.82,4.22,4.22,0,0,0,.33,3,7.88,7.88,0,0,0,1.57,2.37,10.12,10.12,0,0,0,2.57,2,13.71,13.71,0,0,0,3.27,1.27,11.48,11.48,0,0,0,3.85.27,13.51,13.51,0,0,0,4.12-1l1-.4a21.32,21.32,0,0,0,4.31-2.27,5.91,5.91,0,0,0,2-2.17,6.82,6.82,0,0,0,.52-2.74,1.29,1.29,0,0,1,.48-1,1,1,0,0,1,1-.14,1.13,1.13,0,0,1,.66.8,37.29,37.29,0,0,0,5.17,12.4,1.09,1.09,0,0,1,.1,1,.94.94,0,0,1-.77.58,1.26,1.26,0,0,1-1.07-.38,7,7,0,0,0-2.31-1.56,5.94,5.94,0,0,0-2.92-.13,21.53,21.53,0,0,0-4.64,1.46l-.95.4a13.34,13.34,0,0,0-3.63,2.22,11.84,11.84,0,0,0-2.51,2.92,14,14,0,0,0-1.4,3.22,10.45,10.45,0,0,0-.41,3.21,8.15,8.15,0,0,0,.58,2.79,4.25,4.25,0,0,0,1.9,2.34,3.06,3.06,0,0,0,2.61,0,14.71,14.71,0,0,0,2.26-1.32c1-.67,2.28-1.45,3.83-2.34a41.71,41.71,0,0,1,5-2.47h0a10.65,10.65,0,0,0,2.28-1.25A4.78,4.78,0,0,0,49.88,237a5.34,5.34,0,0,0,.61-1.59,10.65,10.65,0,0,0,.19-1.9,1.29,1.29,0,0,1,.48-1,1,1,0,0,1,1-.14,1.13,1.13,0,0,1,.66.8,46.54,46.54,0,0,0,2,6.43,51.21,51.21,0,0,0,3.48,6.74,1.09,1.09,0,0,1,.09,1,.91.91,0,0,1-.76.58,1.26,1.26,0,0,1-1.07-.38A13.8,13.8,0,0,0,55,246.21a6.36,6.36,0,0,0-1.49-.8,4.56,4.56,0,0,0-1.8-.32,10,10,0,0,0-2.21.32,19.83,19.83,0,0,0-2.92,1,38.11,38.11,0,0,0-5.25,3.1A29.88,29.88,0,0,1,37.23,252a7.87,7.87,0,0,1-3.1.66,5.37,5.37,0,0,1-2.6-.68,7.46,7.46,0,0,1-2-1.69,9.15,9.15,0,0,1-1.45-2.42,16.83,16.83,0,0,1-1.44-7.44,12.77,12.77,0,0,1,1.94-6.21,1.41,1.41,0,0,0,.29-1c-.07-.3-.23-.45-.51-.43a1.78,1.78,0,0,0-1,.5c-.13.14-.37.38-.71.75a9.88,9.88,0,0,1-.89.83A2.92,2.92,0,0,1,25,235.29Z"/><path d="M36.11,168.39v0a2.91,2.91,0,0,1-.22,1.68,1.27,1.27,0,0,1-1.06.51,3.57,3.57,0,0,1-1.18-.14,3.91,3.91,0,0,0-.9-.15.5.5,0,0,0-.43.22.58.58,0,0,0,0,.52,1.22,1.22,0,0,0,.49.56,7.1,7.1,0,0,1,1.39,1.23,13.61,13.61,0,0,1,1.44,1.93,11.6,11.6,0,0,1,1.29,2.95,18.14,18.14,0,0,1,.68,3.87,20.09,20.09,0,0,1,0,3.31,9.33,9.33,0,0,1-.55,2.52,7.43,7.43,0,0,1-1,1.79,4.54,4.54,0,0,1-1.41,1.21,7.56,7.56,0,0,1-1.73.7,10.57,10.57,0,0,1-2,.32q-3.76.26-5.66-2.14t-2.3-8.22c-.27-4,.07-6.9,1-8.67a.93.93,0,0,0,0-1.1q-.35-.47-1.14.06a11,11,0,0,1-5.34,1.82l-1,0-1,0a4.33,4.33,0,0,0-3,1,3.77,3.77,0,0,0-.63,2.83,8.12,8.12,0,0,0,.78,3.12,7.28,7.28,0,0,0,2,2.35,23.16,23.16,0,0,0,5.77,3.32,1.79,1.79,0,0,1,1.34,1.45.88.88,0,0,1-.54,1,1.14,1.14,0,0,1-.67.11,22.52,22.52,0,0,0-3.88-.15c-2.25.15-3.83.83-4.72,2a1.54,1.54,0,0,1-1,.54,1.13,1.13,0,0,1-1-.45,1.37,1.37,0,0,1-.24-1.26A14.56,14.56,0,0,0,9.85,185c0-.69-.22-2-.53-3.84s-.48-3.27-.55-4.17a35.41,35.41,0,0,1-.08-3.89,13.85,13.85,0,0,1,.5-3.1,5.57,5.57,0,0,1,3.37-3.89,9.81,9.81,0,0,1,3.24-.72,41.49,41.49,0,0,1,5,.22,51.38,51.38,0,0,0,5.6.23,16.61,16.61,0,0,0,2.77-.46,9.46,9.46,0,0,0,1.94-.72,4.13,4.13,0,0,0,1.35-1.08,7.78,7.78,0,0,0,.93-1.35,16.47,16.47,0,0,0,.74-1.76,1.28,1.28,0,0,1,.78-.82.93.93,0,0,1,1,.17,1.09,1.09,0,0,1,.37,1A52.66,52.66,0,0,0,36.11,168.39Zm-5.05,5.27a3,3,0,0,0-2.13-.78,3,3,0,0,0-1.8.69,3.66,3.66,0,0,0-1.06,1.71,10.24,10.24,0,0,0-.44,2.5,26.43,26.43,0,0,0,.05,3.28,7.08,7.08,0,0,0,.47,2.35,1.11,1.11,0,0,0,1.17.74,8.52,8.52,0,0,0,1.31-.24,10.35,10.35,0,0,1,1.63-.26c.51,0,1.13-.06,1.86-.06s1.22,0,1.5,0a.93.93,0,0,0,.83-.43,2.63,2.63,0,0,0,.14-1.32,13.86,13.86,0,0,0-.57-3,17.09,17.09,0,0,0-1.19-2.93A7.06,7.06,0,0,0,31.06,173.66Z"/><path d="M6.43,143c-.52,3.82-1.82,5.58-3.91,5.3A2.57,2.57,0,0,1,.37,146.5a9.14,9.14,0,0,1-.22-4.39q.8-5.84,3.93-5.42C6.18,137,7,139.06,6.43,143Zm30.75,11.73a1.08,1.08,0,0,1-.44.93.91.91,0,0,1-1,.12,1.25,1.25,0,0,1-.73-.87A13.37,13.37,0,0,0,34.4,153a6.85,6.85,0,0,0-.91-1.46,4.91,4.91,0,0,0-1.44-1.2,11.31,11.31,0,0,0-2.15-.85,21.78,21.78,0,0,0-3.14-.62L20.52,148a21.84,21.84,0,0,0-3.19-.24A11.13,11.13,0,0,0,15,148a4.57,4.57,0,0,0-1.71.77A7.59,7.59,0,0,0,12.05,150a15.72,15.72,0,0,0-1.13,1.65,1.27,1.27,0,0,1-.93.65.94.94,0,0,1-.9-.37,1.1,1.1,0,0,1-.17-1,51.63,51.63,0,0,0,1.62-7.4,51.21,51.21,0,0,0,.41-7.58,1.07,1.07,0,0,1,.43-.93.92.92,0,0,1,1-.12,1.28,1.28,0,0,1,.73.87,13.37,13.37,0,0,0,.66,1.89,6.48,6.48,0,0,0,.91,1.46,4.67,4.67,0,0,0,1.44,1.2,11,11,0,0,0,2.15.85,21.78,21.78,0,0,0,3.14.62l6.24.84a21.74,21.74,0,0,0,3.19.24,12,12,0,0,0,2.3-.24,4.71,4.71,0,0,0,1.7-.78,6.88,6.88,0,0,0,1.27-1.16A14.23,14.23,0,0,0,37.21,139a1.27,1.27,0,0,1,.93-.65,1,1,0,0,1,.9.37,1.09,1.09,0,0,1,.16,1,52.91,52.91,0,0,0-1.61,7.4A51.21,51.21,0,0,0,37.18,154.69Z"/><path d="M40.56,133.37a1.1,1.1,0,0,1-.57.86.94.94,0,0,1-1,0,1.3,1.3,0,0,1-.59-1,12.91,12.91,0,0,0-.36-2,6.85,6.85,0,0,0-.68-1.58,4.64,4.64,0,0,0-1.24-1.41,11.4,11.4,0,0,0-2-1.16,22,22,0,0,0-3-1.09l-14.09-4.15a21,21,0,0,0-3.12-.71,10,10,0,0,0-2.31-.11,4.83,4.83,0,0,0-1.8.5,6.85,6.85,0,0,0-1.43,1A13.61,13.61,0,0,0,7,124a1.3,1.3,0,0,1-1,.5,1,1,0,0,1-.83-.5,1.1,1.1,0,0,1,0-1,51.5,51.5,0,0,0,2.72-7.08,51.93,51.93,0,0,0,1.55-7.42,1.11,1.11,0,0,1,.58-.86.92.92,0,0,1,1,0,1.28,1.28,0,0,1,.59,1,14.47,14.47,0,0,0,.36,2,7,7,0,0,0,.68,1.58,4.87,4.87,0,0,0,1.24,1.4,10.27,10.27,0,0,0,2,1.16,22.46,22.46,0,0,0,3,1.1l14.1,4.15a22.51,22.51,0,0,0,3.11.71,11.27,11.27,0,0,0,2.31.11,4.66,4.66,0,0,0,1.81-.51,6.73,6.73,0,0,0,1.43-1A14.44,14.44,0,0,0,43,117.84a1.24,1.24,0,0,1,1-.5.92.92,0,0,1,.83.5,1.07,1.07,0,0,1,0,1A51,51,0,0,0,42.11,126,51.64,51.64,0,0,0,40.56,133.37Z"/><path d="M48,109.49a1.47,1.47,0,0,1-.91,2.17,9.23,9.23,0,0,1-1,.27,8.58,8.58,0,0,0-1.27.42,8.14,8.14,0,0,0-1.08.56,4.14,4.14,0,0,1-.9.46,1.54,1.54,0,0,1-2.17-.91q-.08-.19-.18-.51c-.07-.21-.15-.48-.25-.81L40,110.3a5.43,5.43,0,0,0-.58-1.21,7.43,7.43,0,0,1-.49-.89,1.5,1.5,0,0,1,.91-2.16,9.94,9.94,0,0,1,1-.29,11.63,11.63,0,0,0,1.24-.36,8,8,0,0,0,1.11-.55,6.8,6.8,0,0,1,.91-.46,1.52,1.52,0,0,1,2.17.91,6.34,6.34,0,0,1,.31,1,10.68,10.68,0,0,0,.33,1.13,7.2,7.2,0,0,0,.61,1.21A7.71,7.71,0,0,1,48,109.49Z"/><path d="M56.65,87.53A8.36,8.36,0,0,0,58,82.15a10.25,10.25,0,0,0-2.29-5.3,1.74,1.74,0,0,1-.41-1.54,1.21,1.21,0,0,1,.88-1,1.24,1.24,0,0,1,1.29.43c2.35,2.43,3.62,4.89,3.83,7.37s-.63,5.22-2.49,8.22a30.84,30.84,0,0,1-1.95,2.8,19.87,19.87,0,0,1-2.18,2.33,12,12,0,0,1-2.45,1.76,10.25,10.25,0,0,1-2.79,1,9.9,9.9,0,0,1-3.18.14,15.14,15.14,0,0,1-3.6-.92,23.28,23.28,0,0,1-4.11-2.07A21.06,21.06,0,0,1,35,92.75,14,14,0,0,1,32.75,90a9.53,9.53,0,0,1-1.17-2.85,10.46,10.46,0,0,1-.27-2.91,12.82,12.82,0,0,1,.55-3,21.57,21.57,0,0,1,1.17-3,31.53,31.53,0,0,1,1.68-3c.47-.76,1.27-1.89,2.38-3.37s1.84-2.51,2.2-3.08a13.35,13.35,0,0,0,1.65-3.38,1.28,1.28,0,0,1,.73-.92,1,1,0,0,1,1,0,1.41,1.41,0,0,1,.59.87q.3,2,3.51,4a22.92,22.92,0,0,0,3.61,1.8.91.91,0,0,1,.63,1,1.05,1.05,0,0,1-.85,1,1.72,1.72,0,0,1-1,0A15.36,15.36,0,0,0,42.68,73a7.25,7.25,0,0,0-3,1.27,9.66,9.66,0,0,0-2.26,2.62,9.4,9.4,0,0,0-1.07,2.25,5.32,5.32,0,0,0-.2,2.15A4.78,4.78,0,0,0,37,83.49a13.31,13.31,0,0,0,2.18,2.34,29.25,29.25,0,0,0,3.66,2.63A26.94,26.94,0,0,0,47.84,91a7.65,7.65,0,0,0,3.78.49,5.71,5.71,0,0,0,2.76-1.23A11.19,11.19,0,0,0,56.65,87.53Z"/><path d="M59.22,64.56a23.26,23.26,0,0,1-3-3.71A13.21,13.21,0,0,1,54.56,57a9.62,9.62,0,0,1-.11-4.1,13.3,13.3,0,0,1,1.77-4.36,24.63,24.63,0,0,1,3.84-4.69,24.24,24.24,0,0,1,4.8-3.75,13.08,13.08,0,0,1,4.4-1.68,9.8,9.8,0,0,1,4.1.21,12.64,12.64,0,0,1,3.82,1.73,23,23,0,0,1,3.64,3.1,23.59,23.59,0,0,1,3,3.68A12.39,12.39,0,0,1,85.45,51a9.78,9.78,0,0,1,.12,4.1,13.09,13.09,0,0,1-1.77,4.36,24.19,24.19,0,0,1-3.86,4.71,24.17,24.17,0,0,1-4.78,3.74,13.13,13.13,0,0,1-4.39,1.67,9.78,9.78,0,0,1-4.1-.21,13,13,0,0,1-3.82-1.73A23.05,23.05,0,0,1,59.22,64.56ZM77.57,46.62a1.46,1.46,0,0,0-1.14-.46,3.57,3.57,0,0,0-1.31.36l-1.34.62a3.25,3.25,0,0,1-1.41.26,2,2,0,0,1-1.32-.66,7.5,7.5,0,0,1-.86-1.14,7.89,7.89,0,0,0-.78-1.07,3.6,3.6,0,0,0-3.27-1.11A8,8,0,0,0,62,45.86a7.94,7.94,0,0,0-2.51,4,3.6,3.6,0,0,0,1,3.3,8.09,8.09,0,0,0,1,.81,7.59,7.59,0,0,1,1.12.89,1.9,1.9,0,0,1,.6,1.36A3.37,3.37,0,0,1,63,57.71c-.24.48-.49.95-.75,1.42a3.59,3.59,0,0,0-.46,1.37,1.44,1.44,0,0,0,1.56,1.59,3.61,3.61,0,0,0,1.38-.43c.48-.24,1-.48,1.44-.71a3.08,3.08,0,0,1,1.47-.32,1.88,1.88,0,0,1,1.34.61,8.23,8.23,0,0,1,.86,1.14,7.28,7.28,0,0,0,.79,1.06,3.6,3.6,0,0,0,3.27,1.11A7.9,7.9,0,0,0,78,62.13a7.92,7.92,0,0,0,2.52-4,3.6,3.6,0,0,0-1-3.3,7.5,7.5,0,0,0-1-.8,7.85,7.85,0,0,1-1.13-.88,2,2,0,0,1-.61-1.33,3.23,3.23,0,0,1,.29-1.4c.21-.45.42-.89.65-1.32A3.43,3.43,0,0,0,78,47.75,1.38,1.38,0,0,0,77.57,46.62Z"/><path d="M103,15.41a1.67,1.67,0,0,1,.23-1.73,5.5,5.5,0,0,1,2.25-1.7l.22-.11a5.68,5.68,0,0,1,2.74-.7,1.69,1.69,0,0,1,1.49.91,3.68,3.68,0,0,1,.24.73,3.64,3.64,0,0,1,.11.71q0,.3,0,.84c0,.37,0,.64,0,.83a1.74,1.74,0,0,0,.38,1,.45.45,0,0,0,.66,0,1.38,1.38,0,0,0,.48-1,12.79,12.79,0,0,1,2.68-5.93,16.85,16.85,0,0,1,6-4.59,9.21,9.21,0,0,1,2.69-.85,7.61,7.61,0,0,1,2.61.06,5.32,5.32,0,0,1,2.39,1.23,7.81,7.81,0,0,1,1.88,2.56,31.16,31.16,0,0,1,1.44,4.77,36.45,36.45,0,0,0,2,6.06,19,19,0,0,0,1.49,2.49,9.33,9.33,0,0,0,1.4,1.6,4.41,4.41,0,0,0,1.51.88,7.39,7.39,0,0,0,1.64.37,16.39,16.39,0,0,0,1.93,0,1.25,1.25,0,0,1,1.05.42,1,1,0,0,1,.19.95,1.1,1.1,0,0,1-.76.7A49.82,49.82,0,0,0,135,28.73a44.72,44.72,0,0,0-5.79,3.45,1.09,1.09,0,0,1-1,.16,1,1,0,0,1-.63-.74,1.31,1.31,0,0,1,.33-1.09A13.07,13.07,0,0,0,129,29a5.42,5.42,0,0,0,.59-1.59,4.71,4.71,0,0,0,0-2,10.4,10.4,0,0,0-.87-2.45v0a42.32,42.32,0,0,1-2.1-5.18c-.56-1.69-1-3.12-1.3-4.29a14.4,14.4,0,0,0-.81-2.49,3.05,3.05,0,0,0-1.92-1.77,4.28,4.28,0,0,0-3,.49,7.93,7.93,0,0,0-2.28,1.69A10,10,0,0,0,115.45,14a13.78,13.78,0,0,0-1.1,3.34,11.73,11.73,0,0,0-.07,3.85,13.25,13.25,0,0,0,1.23,4.07l.45.93a21.09,21.09,0,0,0,2.49,4.18,6.12,6.12,0,0,0,2.26,1.85,7.07,7.07,0,0,0,2.77.37,1.28,1.28,0,0,1,1,.42,1,1,0,0,1,.19.95,1.08,1.08,0,0,1-.76.7A47.75,47.75,0,0,0,117.64,37a47.61,47.61,0,0,0-5.79,3.46,1.06,1.06,0,0,1-1,.15.94.94,0,0,1-.63-.73,1.31,1.31,0,0,1,.33-1.09,6.93,6.93,0,0,0,1.44-2.4,6,6,0,0,0,0-2.91,21.11,21.11,0,0,0-1.7-4.57l-.45-.93a13.26,13.26,0,0,0-2.4-3.5,11.9,11.9,0,0,0-3-2.35,13.83,13.83,0,0,0-3.29-1.23,10,10,0,0,0-3.23-.24,8.06,8.06,0,0,0-2.75.72,4.26,4.26,0,0,0-2.24,2A3,3,0,0,0,93,26.05a14.4,14.4,0,0,0,1.43,2.18q1.08,1.45,2.54,3.7a42.55,42.55,0,0,1,2.73,4.87v0A10.24,10.24,0,0,0,101.09,39a4.67,4.67,0,0,0,1.55,1.27,5.47,5.47,0,0,0,1.62.53,11.83,11.83,0,0,0,1.9.09,1.23,1.23,0,0,1,1,.42.93.93,0,0,1,.19.95,1.1,1.1,0,0,1-.76.7,46.89,46.89,0,0,0-6.32,2.36,51.09,51.09,0,0,0-6.54,3.82,1.08,1.08,0,0,1-1,.15.93.93,0,0,1-.62-.73,1.27,1.27,0,0,1,.33-1.09,16.21,16.21,0,0,0,1.2-1.57,6.37,6.37,0,0,0,.72-1.53,4.83,4.83,0,0,0,.23-1.81,10.58,10.58,0,0,0-.44-2.19,20.4,20.4,0,0,0-1.12-2.88,38.32,38.32,0,0,0-3.37-5.07,29.63,29.63,0,0,1-2.73-4,7.79,7.79,0,0,1-.82-3.07,5.16,5.16,0,0,1,.54-2.63,7.4,7.4,0,0,1,1.58-2.08,9,9,0,0,1,2.34-1.56A16.79,16.79,0,0,1,98,17.29a12.94,12.94,0,0,1,6.3,1.61,1.4,1.4,0,0,0,1.06.24.45.45,0,0,0,.39-.53,1.72,1.72,0,0,0-.55-.93c-.14-.12-.39-.35-.78-.68a11,11,0,0,1-.88-.83A3.44,3.44,0,0,1,103,15.41Z"/></g></g></g>

</svg>