<svg xmlns="http://www.w3.org/2000/svg" viewBox="0 0 351.12 350.51"><g id="Layer_2" data-name="Layer 2"><g id="Layer_1-2" data-name="Layer 1"><g id="icon"><path d="M229.25,197.18l-6.08,9.47,7.86-2ZM226,183.56,208.9,210.21l6-1.49,12.5-19.46Zm-3.23-13.63-28.14,43.82,6-1.48,23.53-36.64Zm-8.34-5.68L190.88,201l1.35,5.7,28.19-43.89Zm-14.26,3.55-12.54,19.52L189,193l17.16-26.71Zm-16.21,4,1.8,7.56,6.12-9.53Zm5.63,49.22-45-19.56,2.2-5.43,41.07,17.88L178.3,173.3l-29.78,10.64-1.93-5.53,30.35-10.85,45.86-11.42a29.09,29.09,0,0,0-7-3.48q-6.42-2.34-8-3.7-3.31-2.82-3.31-9.34a29.51,29.51,0,0,0-.09-3.36,22.54,22.54,0,0,0-2-2.77q-1.95-6.42-3.21-11.78-5.07-13.62-37.18-13.63h-3.8q-19.37,0-37.18,13.63-19.17,14.6-19.17,33.39,0,17.91,4.86,29,5.16,11.78,17.91,21.31,11.58,8.67,11.58,28.91,0,2.73-.19,9.15c-.13,3.89-.2,6.88-.2,8.95h66.58a40.73,40.73,0,0,0-1.56-8.61,41.45,41.45,0,0,1-1.56-9.78,48.91,48.91,0,0,1,.2-6,4.54,4.54,0,0,1,3.5-3.8q22.49-5.17,24.35-12.55Z"/><polygon points="279.74 204.04 274.76 209.57 244.72 180.82 246.56 178.85 279.74 204.04"/><polygon points="279.18 171.79 248.39 173.17 248.04 169.98 278.22 162.99 279.18 171.79"/><polygon points="271.86 131.37 244.86 163.18 242.63 161.56 265.81 127.03 271.86 131.37"/></g><g id="email"><path d="M219,37.76q3.42.95,3.94-.95a4.79,4.79,0,0,0-.65-3.08A42.79,42.79,0,0,0,218.66,28c-1.21-1.7-2.12-3-2.76-4a33.59,33.59,0,0,1-1.77-3,9.36,9.36,0,0,1-1-2.69,5.12,5.12,0,0,1,.11-2.17,5,5,0,0,1,3.41-3.64,11.15,11.15,0,0,1,6.42.17c1,.28,2.49.77,4.49,1.49s3.36,1.16,4.09,1.36a13.33,13.33,0,0,0,3.7.64,1.23,1.23,0,0,1,1.09.44,1,1,0,0,1,.23,1,1.4,1.4,0,0,1-.67.8q-1.84.87-2.85,4.51a22,22,0,0,0-.71,4,.92.92,0,0,1-.79.9,1.1,1.1,0,0,1-1.21-.53,1.83,1.83,0,0,1-.26-.95,12.66,12.66,0,0,0-1.57-6.29,8.77,8.77,0,0,0-2.52-2.67,11.89,11.89,0,0,0-3.43-1.5,10,10,0,0,0-2.23-.39,3.67,3.67,0,0,0-1.82.36,2,2,0,0,0-1.08,1.33,2.06,2.06,0,0,0,.11,1.58A4.25,4.25,0,0,0,218.93,20c.61.44,1.28.9,2,1.37a19.07,19.07,0,0,1,2.57,2.14,20.19,20.19,0,0,1,2.72,3.25q5.53,8.18,4.48,12a5.44,5.44,0,0,1-.72,1.61,3.69,3.69,0,0,1-1.33,1.14,5.63,5.63,0,0,1-2.12.59,15.5,15.5,0,0,1-3.14-.14,32.47,32.47,0,0,1-4.36-.94c-.92-.25-2.3-.71-4.16-1.39s-3.12-1.1-3.81-1.29a13.68,13.68,0,0,0-3.71-.63,1.28,1.28,0,0,1-1.09-.45,1,1,0,0,1-.23-1,1.42,1.42,0,0,1,.67-.81q1.84-.85,3-4.91a23,23,0,0,0,.76-4.16.92.92,0,0,1,.79-.9,1.09,1.09,0,0,1,1.21.53,1.83,1.83,0,0,1,.26.95,16.11,16.11,0,0,0,1.51,6.49,10.83,10.83,0,0,0,2,2.86A6.38,6.38,0,0,0,219,37.76Z"/><path d="M259.83,17.86l.45.26A5.37,5.37,0,0,1,262.4,20a1.88,1.88,0,0,1-.09,1.95,47.58,47.58,0,0,1-2.95,4.53,31.69,31.69,0,0,1-3.39,4c-.47.45-.59.85-.37,1.18s.61.37,1.19.1a13,13,0,0,1,6.42-1.18,16.53,16.53,0,0,1,7.2,2.32,9.11,9.11,0,0,1,2.23,1.72,7.33,7.33,0,0,1,1.43,2.19,5.23,5.23,0,0,1,.35,2.67,7.67,7.67,0,0,1-1,3,30.3,30.3,0,0,1-3.09,3.9,35.65,35.65,0,0,0-3.84,5.09,18.1,18.1,0,0,0-1.19,2.64,9.54,9.54,0,0,0-.52,2.06,4.27,4.27,0,0,0,.15,1.74,7.36,7.36,0,0,0,.62,1.56,15.85,15.85,0,0,0,1.07,1.6,1.27,1.27,0,0,1,.25,1.11,1,1,0,0,1-.67.7,1.1,1.1,0,0,1-1-.23,50.84,50.84,0,0,0-6.25-4.24,45.37,45.37,0,0,0-6.15-2.79,1.07,1.07,0,0,1-.7-.75.91.91,0,0,1,.25-.93,1.26,1.26,0,0,1,1.08-.36,11.49,11.49,0,0,0,1.9.05,5.57,5.57,0,0,0,1.65-.42A4.85,4.85,0,0,0,258.58,52a10.55,10.55,0,0,0,1.51-2.12v0a43.28,43.28,0,0,1,3-4.67q1.61-2.13,2.78-3.5a15.06,15.06,0,0,0,1.59-2.09,3.13,3.13,0,0,0,.36-2.59,4.27,4.27,0,0,0-2.1-2.18,8.21,8.21,0,0,0-2.69-.91,10.37,10.37,0,0,0-3.24,0,14.21,14.21,0,0,0-3.36,1,11.91,11.91,0,0,0-3.21,2.14,14,14,0,0,0-2.64,3.33l-.51.9a21.18,21.18,0,0,0-2,4.44,5.86,5.86,0,0,0-.23,2.91,6.88,6.88,0,0,0,1.27,2.48,1.27,1.27,0,0,1,.25,1.11.92.92,0,0,1-.67.69,1.09,1.09,0,0,1-1-.22,45.87,45.87,0,0,0-5.54-3.84,51,51,0,0,0-6.88-3.2,1.15,1.15,0,0,1-.71-.75,1,1,0,0,1,.26-.94,1.25,1.25,0,0,1,1.08-.35,13.67,13.67,0,0,0,2,.1,7.39,7.39,0,0,0,1.7-.31,4.73,4.73,0,0,0,1.65-.89,10.91,10.91,0,0,0,1.58-1.68,21.94,21.94,0,0,0,1.75-2.68l7.25-12.78a20.67,20.67,0,0,0,1.4-2.88,10.7,10.7,0,0,0,.64-2.22,4.89,4.89,0,0,0-.09-1.87,6.75,6.75,0,0,0-.61-1.61,14.19,14.19,0,0,0-1.1-1.67,1.28,1.28,0,0,1-.26-1.11.94.94,0,0,1,.68-.69,1.07,1.07,0,0,1,1,.22A52,52,0,0,0,259.83,17.86Z"/><path d="M295.34,78.33q-4.3,2.67-8,2.19c-2.47-.33-5-1.72-7.51-4.17a29.1,29.1,0,0,1-2.33-2.5,19.67,19.67,0,0,1-1.82-2.62,11.8,11.8,0,0,1-1.2-2.77,10.4,10.4,0,0,1,.15-6.07,15.61,15.61,0,0,1,1.66-3.33,24,24,0,0,1,2.89-3.57,19.09,19.09,0,0,1,4.63-3.64,11.3,11.3,0,0,1,4.3-1.42,9.51,9.51,0,0,1,4.07.55A15.68,15.68,0,0,1,296,52.92,31.4,31.4,0,0,1,299.67,56c.64.62,1.57,1.64,2.79,3s2.07,2.33,2.55,2.8A13.37,13.37,0,0,0,308,64.16a1.28,1.28,0,0,1,.75.92,1,1,0,0,1-.26,1,1.38,1.38,0,0,1-1,.38c-1.36-.08-2.91.78-4.67,2.59a17.94,17.94,0,0,0-1.3,1.62,18.39,18.39,0,0,1-1.21,1.53,3.47,3.47,0,0,1-1.83,1.1,2.28,2.28,0,0,1-1.94-.83l-7.46-7.21c-.61-.59-2-1.9-4.19-3.91a25.67,25.67,0,0,0-3.45,4.32,7.52,7.52,0,0,0-1.21,3.54,5.71,5.71,0,0,0,.63,2.93,11.3,11.3,0,0,0,2.2,2.77,8.28,8.28,0,0,0,5,2.43,10.23,10.23,0,0,0,5.66-1.11,1.73,1.73,0,0,1,1.6-.08,1.22,1.22,0,0,1,.75,1.06A1.24,1.24,0,0,1,295.34,78.33Zm.15-11.39a3,3,0,0,0,2.1,1,2.2,2.2,0,0,0,1.81-1,4.84,4.84,0,0,0,.82-2.68,6.57,6.57,0,0,0-.56-3.23,9.83,9.83,0,0,0-2.12-2.78,9.64,9.64,0,0,0-2.14-1.62,5.23,5.23,0,0,0-2.24-.57,5.46,5.46,0,0,0-2.66.66,16.21,16.21,0,0,0-3.17,2.2Q289.16,60.83,295.49,66.94Z"/><path d="M315.69,108.33c-3.21,1-6,1.13-8.3.23s-4.43-2.83-6.32-5.81a31,31,0,0,1-1.67-3,19.76,19.76,0,0,1-1.15-3,12.13,12.13,0,0,1-.52-3,10.79,10.79,0,0,1,.33-2.94A9.76,9.76,0,0,1,299.32,88a14.57,14.57,0,0,1,2.39-2.85,23.13,23.13,0,0,1,3.65-2.8,19.19,19.19,0,0,1,5.36-2.44,11.16,11.16,0,0,1,4.52-.37,9.66,9.66,0,0,1,3.82,1.5,15.37,15.37,0,0,1,3.26,2.79,30.24,30.24,0,0,1,2.84,3.86c.48.75,1.15,1.95,2,3.6S328.62,94,329,94.57a13.24,13.24,0,0,0,2.31,3,1.28,1.28,0,0,1,.52,1.07,1,1,0,0,1-.48.86,1.43,1.43,0,0,1-1,.14q-1.95-.6-5.15,1.42a18.12,18.12,0,0,0-1.64,1.26,15.66,15.66,0,0,1-1.54,1.2,3.43,3.43,0,0,1-2,.65,2.3,2.3,0,0,1-1.69-1.27L312.7,94.1Q312,93,309.54,89.31a25.22,25.22,0,0,0-4.37,3.39,7.45,7.45,0,0,0-2,3.15,5.65,5.65,0,0,0-.08,3,11.21,11.21,0,0,0,1.48,3.21,8.36,8.36,0,0,0,4.27,3.54,10.14,10.14,0,0,0,5.76.25,1.75,1.75,0,0,1,1.57.3,1.2,1.2,0,0,1,.48,1.21A1.25,1.25,0,0,1,315.69,108.33Zm2.83-11a3.07,3.07,0,0,0,1.81,1.47,2.19,2.19,0,0,0,2-.53,4.81,4.81,0,0,0,1.43-2.41,6.78,6.78,0,0,0,.22-3.27,10.16,10.16,0,0,0-1.41-3.21,9.68,9.68,0,0,0-1.7-2.08,5.13,5.13,0,0,0-4.79-1.05,15.52,15.52,0,0,0-3.59,1.39Q313.82,89.87,318.52,97.29Z"/><path d="M347.63,114.83l.16.5a5.39,5.39,0,0,1,.31,2.78,1.89,1.89,0,0,1-1.39,1.38,51.77,51.77,0,0,1-5.24,1.32,30.73,30.73,0,0,1-5.22.64c-.65,0-1,.23-1.08.62s.2.69.81.88a13.09,13.09,0,0,1,5.52,3.5,16.55,16.55,0,0,1,3.7,6.58,9.12,9.12,0,0,1,.47,2.79,7.42,7.42,0,0,1-.43,2.57,5.32,5.32,0,0,1-1.56,2.2,7.76,7.76,0,0,1-2.79,1.51,30.6,30.6,0,0,1-4.92.76A36.17,36.17,0,0,0,329.7,144a19.57,19.57,0,0,0-2.67,1.12,9.46,9.46,0,0,0-1.78,1.17,4.3,4.3,0,0,0-1.08,1.38,7,7,0,0,0-.59,1.56,13.94,13.94,0,0,0-.31,1.9,1.29,1.29,0,0,1-.57,1,.9.9,0,0,1-1,0,1.07,1.07,0,0,1-.59-.84,52.39,52.39,0,0,0-1.71-7.37,46.3,46.3,0,0,0-2.62-6.22,1.08,1.08,0,0,1,0-1,.92.92,0,0,1,.82-.51,1.25,1.25,0,0,1,1,.47A11.8,11.8,0,0,0,320,138a5.6,5.6,0,0,0,1.5.81,4.65,4.65,0,0,0,2,.26,10.26,10.26,0,0,0,2.56-.53h0a41.86,41.86,0,0,1,5.4-1.36c1.76-.32,3.23-.54,4.42-.68a14.85,14.85,0,0,0,2.58-.46,3.09,3.09,0,0,0,2-1.66,4.25,4.25,0,0,0-.06-3,8,8,0,0,0-1.36-2.5,10.08,10.08,0,0,0-2.39-2.18,13.58,13.58,0,0,0-3.15-1.55,11.71,11.71,0,0,0-3.81-.61,13.33,13.33,0,0,0-4.19.66l-1,.31a21,21,0,0,0-4.49,1.89,6,6,0,0,0-2.15,2,7.17,7.17,0,0,0-.75,2.69,1.25,1.25,0,0,1-.57,1,.93.93,0,0,1-1,.06,1.11,1.11,0,0,1-.59-.85,46,46,0,0,0-1.46-6.59,51.71,51.71,0,0,0-2.87-7,1.1,1.1,0,0,1,0-1,.92.92,0,0,1,.82-.51,1.29,1.29,0,0,1,1,.47A13.77,13.77,0,0,0,314,119a7.24,7.24,0,0,0,1.45.93,4.9,4.9,0,0,0,1.82.47,10.87,10.87,0,0,0,2.3-.16,23,23,0,0,0,3.1-.78l14-4.46a21.91,21.91,0,0,0,3-1.16,11,11,0,0,0,2-1.2,4.6,4.6,0,0,0,1.21-1.43,7,7,0,0,0,.65-1.6,13.72,13.72,0,0,0,.32-2,1.29,1.29,0,0,1,.57-1,.92.92,0,0,1,1,0,1.09,1.09,0,0,1,.59.85A50.81,50.81,0,0,0,347.63,114.83Z"/><path d="M323.55,179.82v0a2.87,2.87,0,0,1,.26-1.67,1.28,1.28,0,0,1,1.07-.49,3.62,3.62,0,0,1,1.17.17,4.74,4.74,0,0,0,.9.18.52.52,0,0,0,.43-.22.58.58,0,0,0,0-.52,1.16,1.16,0,0,0-.48-.57,8.26,8.26,0,0,1-1.36-1.26,14.81,14.81,0,0,1-1.39-2,11.68,11.68,0,0,1-1.22-3,17.92,17.92,0,0,1-.59-3.89,19.55,19.55,0,0,1,.09-3.31,9.43,9.43,0,0,1,.61-2.5,7.7,7.7,0,0,1,1-1.77,4.56,4.56,0,0,1,1.44-1.18,7.87,7.87,0,0,1,1.75-.66,11.64,11.64,0,0,1,2-.27c2.52-.11,4.39.64,5.61,2.27s1.93,4.38,2.11,8.26-.22,6.9-1.22,8.66a.92.92,0,0,0-.06,1.09c.23.31.6.3,1.14,0a11.13,11.13,0,0,1,5.38-1.7h1l1,0a4.33,4.33,0,0,0,3-.9,3.72,3.72,0,0,0,.69-2.82,8,8,0,0,0-.7-3.14,7.2,7.2,0,0,0-2-2.39,23.22,23.22,0,0,0-5.68-3.46c-.83-.34-1.27-.83-1.31-1.47a.88.88,0,0,1,.56-1,1.14,1.14,0,0,1,.67-.1,21.66,21.66,0,0,0,3.88.24q3.38-.15,4.76-1.92a1.6,1.6,0,0,1,1-.52,1.14,1.14,0,0,1,1,.48,1.35,1.35,0,0,1,.22,1.26,14.45,14.45,0,0,0-.23,4.13c0,.69.17,2,.44,3.85s.41,3.27.45,4.18a33.23,33.23,0,0,1,0,3.89,13.12,13.12,0,0,1-.56,3.09,6.1,6.1,0,0,1-1.28,2.34,5.9,5.9,0,0,1-2.18,1.47,9.81,9.81,0,0,1-3.26.65,46,46,0,0,1-5-.33,54.43,54.43,0,0,0-5.58-.37,16.27,16.27,0,0,0-2.79.41,10.39,10.39,0,0,0-2,.66,4.64,4.64,0,0,0-1.37,1.05,7.36,7.36,0,0,0-.95,1.34,13.65,13.65,0,0,0-.78,1.74,1.26,1.26,0,0,1-.81.8.94.94,0,0,1-.94-.19,1.11,1.11,0,0,1-.35-1A52.72,52.72,0,0,0,323.55,179.82Zm5.16-5.15a3,3,0,0,0,3.93.19,3.69,3.69,0,0,0,1.1-1.69,10.64,10.64,0,0,0,.5-2.5,27,27,0,0,0,0-3.28,7.11,7.11,0,0,0-.41-2.35,1.13,1.13,0,0,0-1.16-.77,8.1,8.1,0,0,0-1.32.21,10.09,10.09,0,0,1-1.62.22c-.52,0-1.14,0-1.86,0s-1.23,0-1.51,0a.93.93,0,0,0-.84.4,2.72,2.72,0,0,0-.17,1.33,13.1,13.1,0,0,0,.51,3,15.78,15.78,0,0,0,1.12,3A7.06,7.06,0,0,0,328.71,174.67Z"/><path d="M348.59,206.65l-.12.51c-.42,1.87-1.22,2.68-2.39,2.41a6.9,6.9,0,0,1-2.46-1.11,1.77,1.77,0,0,0-1-.33.46.46,0,0,0-.42.51,1.41,1.41,0,0,0,.47,1,13.1,13.1,0,0,1,3,5.8,16.59,16.59,0,0,1-.13,7.56,9.34,9.34,0,0,1-1,2.64,7.37,7.37,0,0,1-1.68,2,5.26,5.26,0,0,1-2.45,1.11,7.63,7.63,0,0,1-3.17-.11,29.56,29.56,0,0,1-4.63-1.82,35.42,35.42,0,0,0-6-2.19,19.4,19.4,0,0,0-2.88-.38,9.86,9.86,0,0,0-2.12.1A4.61,4.61,0,0,0,320,225a7.35,7.35,0,0,0-1.3,1.05,17.81,17.81,0,0,0-1.23,1.49,1.23,1.23,0,0,1-1,.56.91.91,0,0,1-.85-.43,1.1,1.1,0,0,1-.09-1,51.23,51.23,0,0,0,2.25-7.22,46.48,46.48,0,0,0,.88-6.69,1.08,1.08,0,0,1,.51-.9.94.94,0,0,1,1,0,1.29,1.29,0,0,1,.65.93,11.46,11.46,0,0,0,.51,1.84,5.63,5.63,0,0,0,.88,1.45,4.69,4.69,0,0,0,1.59,1.23,10.83,10.83,0,0,0,2.46.84h0a43.83,43.83,0,0,1,5.36,1.56c1.67.61,3.06,1.16,4.16,1.64a15.82,15.82,0,0,0,2.45.91,3.11,3.11,0,0,0,2.6-.41,4.27,4.27,0,0,0,1.47-2.64,8.25,8.25,0,0,0-.08-3.62,12.62,12.62,0,0,0-1.61-3.81,12.05,12.05,0,0,0-3.28-3.34,13.3,13.3,0,0,0-4.78-2.09l-1-.23a20.81,20.81,0,0,0-4.83-.63,6,6,0,0,0-2.85.63,6.85,6.85,0,0,0-2,1.94,1.28,1.28,0,0,1-1,.56,1,1,0,0,1-.86-.44,1.12,1.12,0,0,1-.08-1,45.31,45.31,0,0,0,2.07-6.42,50.85,50.85,0,0,0,1.06-7.51,1.08,1.08,0,0,1,.52-.89.94.94,0,0,1,1,0,1.29,1.29,0,0,1,.65.94,14,14,0,0,0,.49,1.93,7.27,7.27,0,0,0,.79,1.54,4.88,4.88,0,0,0,1.32,1.32,10.9,10.9,0,0,0,2.08,1,21.38,21.38,0,0,0,3.07.9l6.14,1.38a22.77,22.77,0,0,0,3.16.5,10.77,10.77,0,0,0,2.31,0,4.73,4.73,0,0,0,1.77-.62,7.27,7.27,0,0,0,1.36-1.05,14.14,14.14,0,0,0,1.27-1.55,1.31,1.31,0,0,1,1-.56.94.94,0,0,1,.86.44,1.06,1.06,0,0,1,.08,1A52.07,52.07,0,0,0,348.59,206.65Z"/><path d="M311.68,235.27a1.47,1.47,0,0,1,.92-2.16,7.66,7.66,0,0,1,1-.28,8.27,8.27,0,0,0,1.27-.41,8.4,8.4,0,0,0,1.08-.57,4.93,4.93,0,0,1,.9-.47,1.54,1.54,0,0,1,2.17.92q.08.19.18.51c.07.21.16.48.25.81l.25.84a6.28,6.28,0,0,0,.59,1.21,9.76,9.76,0,0,1,.49.88,1.51,1.51,0,0,1-.91,2.17,8.31,8.31,0,0,1-1,.28c-.5.13-.91.25-1.24.37a8.54,8.54,0,0,0-1.11.55,9.17,9.17,0,0,1-.91.47,1.53,1.53,0,0,1-2.17-.92,6,6,0,0,1-.31-1c-.13-.48-.24-.86-.33-1.13a8.51,8.51,0,0,0-.61-1.2C311.89,235.67,311.73,235.38,311.68,235.27Z"/><path d="M298,288.85l-8-7.16q-5-4.44-.6-10.64c1.81-2.56,3.47-4.1,5-4.59s3.37-.11,5.57,1.19l11.9,7a5.76,5.76,0,0,0,2.91,1.05,2.34,2.34,0,0,0,1.79-1.11,2.2,2.2,0,0,0,.22-2.4,13.18,13.18,0,0,0-3.26-3.36l-8.94-7.27c-1.9-1.54-2.9-3.19-3-4.93s.66-3.8,2.34-6.18q2.19-3.1,4.75-3.62t6.14,1.53l8.59,4.87a19.48,19.48,0,0,0,2.91,1.38,10.69,10.69,0,0,0,2.26.59,4.88,4.88,0,0,0,2-.17,8.48,8.48,0,0,0,1.77-.7,18.51,18.51,0,0,0,1.89-1.21,1.06,1.06,0,0,1,1-.12,1.08,1.08,0,0,1,.4,1.84,80.22,80.22,0,0,0-5.76,7.19c-.51.73-1.18,1.84-2,3.33a35.4,35.4,0,0,1-2,3.35,1.07,1.07,0,0,1-1,.53,1.1,1.1,0,0,1-.91-.56,1.49,1.49,0,0,1-.15-1.25,5.67,5.67,0,0,0-.25-4.26,11.79,11.79,0,0,0-3.84-3.75l-9.1-6.26a4.26,4.26,0,0,0-2.64-1,3,3,0,0,0-2,1.46c-1.21,1.73-.85,3.38,1.1,4.94l10,8q3.39,2.7,4,5.41t-1.93,6.25c-1.67,2.38-3.32,3.76-4.93,4.14s-3.56-.1-5.84-1.43l-12.28-7.21a4.42,4.42,0,0,0-2.79-.85,3,3,0,0,0-1.91,1.39,2.74,2.74,0,0,0-.54,2.36,4.78,4.78,0,0,0,2,2.38l8.09,5.83a21.91,21.91,0,0,0,4.18,2.47,5.15,5.15,0,0,0,2.85.47,4.91,4.91,0,0,0,2.32-1.29,1.18,1.18,0,0,1,1.14-.31,1.24,1.24,0,0,1,.89.74,1.21,1.21,0,0,1-.2,1.23,28.92,28.92,0,0,1-2.24,2.69,28.35,28.35,0,0,0-2.23,2.68,24.28,24.28,0,0,0-1.53,2.66,33.17,33.17,0,0,1-1.8,3.11,1.35,1.35,0,0,1-.76.62,1,1,0,0,1-.78-.06,1.17,1.17,0,0,1-.52-.61,1.34,1.34,0,0,1-.05-.95,11.85,11.85,0,0,0,.35-2.25,5.68,5.68,0,0,0-.36-2,7.59,7.59,0,0,0-1.41-2.34A28.56,28.56,0,0,0,298,288.85Z"/><path d="M275.93,285.15a1.46,1.46,0,0,1,1.73-1.59,9.79,9.79,0,0,1,1,.15,7.84,7.84,0,0,0,1.32.16,8.39,8.39,0,0,0,1.23-.07,5,5,0,0,1,1-.05,1.55,1.55,0,0,1,1.59,1.74c0,.13,0,.31-.05.54s-.06.5-.11.84-.09.63-.12.86a6.28,6.28,0,0,0,0,1.35,8,8,0,0,1,.08,1,1.51,1.51,0,0,1-1.73,1.59,8.9,8.9,0,0,1-1-.16,9.58,9.58,0,0,0-1.27-.18,8,8,0,0,0-1.24,0,7.15,7.15,0,0,1-1,0,1.52,1.52,0,0,1-1.59-1.73,6.87,6.87,0,0,1,.14-1.05c.09-.49.14-.88.17-1.17a8.39,8.39,0,0,0-.06-1.35A7.87,7.87,0,0,1,275.93,285.15Z"/><path d="M279.61,317.21l-.42.28a3.88,3.88,0,0,1-2,.82,1.53,1.53,0,0,1-1.36-.7,8.74,8.74,0,0,1-1.39-3,1.72,1.72,0,0,0-.53-.95.47.47,0,0,0-.66.08,1.41,1.41,0,0,0-.32,1,26.67,26.67,0,0,1-.25,3.16,16.3,16.3,0,0,1-.75,2.92,10,10,0,0,1-1.56,2.78A11.14,11.14,0,0,1,267.8,326a2.44,2.44,0,0,1-2.14.5,3.94,3.94,0,0,1-1.88-1.66,5.1,5.1,0,0,1-1-2.35,1.46,1.46,0,0,1,.54-1.41,9.35,9.35,0,0,1,1.36-.69,10.82,10.82,0,0,0,1.77-1,8.57,8.57,0,0,0,2.28-12.58l-1.16-1.69a19.28,19.28,0,0,0-2-2.5,10,10,0,0,0-1.76-1.47,4.53,4.53,0,0,0-1.82-.63,8.54,8.54,0,0,0-1.85-.08c-.54.05-1.28.15-2.2.32a1.27,1.27,0,0,1-1.1-.25,1,1,0,0,1-.33-.91,1.09,1.09,0,0,1,.64-.81,53.93,53.93,0,0,0,7.1-4.13,51.05,51.05,0,0,0,5.9-4.77,1.07,1.07,0,0,1,1-.3.94.94,0,0,1,.73.63,1.27,1.27,0,0,1-.16,1.13,13.6,13.6,0,0,0-1,1.75,6.82,6.82,0,0,0-.47,1.65,4.77,4.77,0,0,0,.07,1.88,11.54,11.54,0,0,0,.82,2.16,22.66,22.66,0,0,0,1.64,2.75L277,307.7a17.08,17.08,0,0,0,1.77,2.06,8.81,8.81,0,0,0,1.57,1.25,4.47,4.47,0,0,0,1.6.59,7,7,0,0,0,1.62.1,17.32,17.32,0,0,0,1.86-.25,1.29,1.29,0,0,1,1.11.26.94.94,0,0,1,.33.91,1.09,1.09,0,0,1-.64.81A52.79,52.79,0,0,0,279.61,317.21Z"/><path d="M231.61,319.82a1,1,0,0,0,.54.59,1,1,0,0,0,.78,0,5.34,5.34,0,0,0,1.21-.95,25.09,25.09,0,0,1,2.19-1.82,11.6,11.6,0,0,1,2.81-1.55,10.23,10.23,0,0,1,2.73-.66,7.66,7.66,0,0,1,2.54.15,4.8,4.8,0,0,1,2.19,1.18,6.16,6.16,0,0,1,1.51,2.36,11.08,11.08,0,0,1,.38,2.9,11.69,11.69,0,0,0,.58,3.45q1.89,5,6.84,5.32a1.23,1.23,0,0,1,1,.52,1,1,0,0,1,.1,1,1.05,1.05,0,0,1-.8.63,50.72,50.72,0,0,0-6.92,2l-.66.25a4.43,4.43,0,0,1-3.1.28,3.43,3.43,0,0,1-1.69-2.43l-1.27-4.45a10.23,10.23,0,0,1-.41-2.82,21.23,21.23,0,0,1,.13-2.33,3.43,3.43,0,0,0-.11-1.53,2.08,2.08,0,0,0-1.47-1.35,4.22,4.22,0,0,0-2.61.29,9.78,9.78,0,0,0-2,1.2,9.87,9.87,0,0,1-2,1.19,3.74,3.74,0,0,1-3.33-.08,4.41,4.41,0,0,1-2.2-4.4,4,4,0,0,1,.89-1.95,10.28,10.28,0,0,1,1.73-1.69,19.66,19.66,0,0,1,2.45-1.61,20.42,20.42,0,0,0,3-2,4.36,4.36,0,0,0,1.25-1.41,1.48,1.48,0,0,0,0-1.13,1.55,1.55,0,0,0-1.17-1,7.71,7.71,0,0,0-3,.38,62.62,62.62,0,0,0-6.09,2.05q-4,1.53-5.38,3a3,3,0,0,0-.66,3.28,6.85,6.85,0,0,0,1.43,2.13,21.21,21.21,0,0,0,2.13,2,19.6,19.6,0,0,1,2.3,2.28,11.19,11.19,0,0,1,1.83,2.8l2.14,4.78q2.14,4.84,2.86,6.75a2.71,2.71,0,0,1,0,2.42,5.11,5.11,0,0,1-2.48,1.68,52.33,52.33,0,0,0-6.88,3.24,1.09,1.09,0,0,1-1,.07.93.93,0,0,1-.55-.79,1.23,1.23,0,0,1,.42-1.06,13.58,13.58,0,0,0,1.35-1.47,7.1,7.1,0,0,0,.85-1.5,4.76,4.76,0,0,0,.37-1.84,11.08,11.08,0,0,0-.28-2.29,22.22,22.22,0,0,0-.94-3.06L223.35,328a9.27,9.27,0,0,0-1.51-2.57,14.91,14.91,0,0,0-1.94-2,15.1,15.1,0,0,1-1.92-1.92,8.24,8.24,0,0,1-1.43-2.37q-1.55-4.11,1.6-8t11.41-7a41,41,0,0,1,6.31-1.9,13.37,13.37,0,0,1,4.45-.26,5.82,5.82,0,0,1,2.8,1.08,5,5,0,0,1,1.58,2.26q1.86,4.91-9.12,10.55C232.54,317.46,231.21,318.77,231.61,319.82Z"/><path d="M187,322h0a2.85,2.85,0,0,1,1.68.16,1.3,1.3,0,0,1,.56,1,4,4,0,0,1-.1,1.18,4.19,4.19,0,0,0-.13.91.49.49,0,0,0,.25.42.57.57,0,0,0,.51,0,1.14,1.14,0,0,0,.54-.51,7.9,7.9,0,0,1,1.18-1.43,14.15,14.15,0,0,1,1.88-1.51,12,12,0,0,1,2.91-1.39,17.61,17.61,0,0,1,3.84-.82,21.14,21.14,0,0,1,3.31-.1,9.3,9.3,0,0,1,2.53.46,7.47,7.47,0,0,1,1.83.93,4.46,4.46,0,0,1,1.26,1.37,7.83,7.83,0,0,1,.76,1.7,10.91,10.91,0,0,1,.39,2c.26,2.5-.38,4.42-1.93,5.73s-4.27,2.18-8.14,2.59-6.89.18-8.7-.72a.94.94,0,0,0-1.1,0c-.3.24-.27.62.1,1.13a11.14,11.14,0,0,1,2,5.28c0,.22,0,.57.07,1s.05.78.07,1a4.37,4.37,0,0,0,1.08,3,3.77,3.77,0,0,0,2.85.52,8.1,8.1,0,0,0,3.1-.88,7.22,7.22,0,0,0,2.27-2.11,23,23,0,0,0,3.12-5.88c.29-.84.75-1.31,1.39-1.39a.89.89,0,0,1,1,.51,1.15,1.15,0,0,1,.13.66,21.91,21.91,0,0,0,0,3.88q.36,3.36,2.2,4.65a1.51,1.51,0,0,1,.58,1,1.11,1.11,0,0,1-.42,1,1.35,1.35,0,0,1-1.25.29,14.66,14.66,0,0,0-4.13,0c-.68.07-2,.29-3.82.66s-3.24.61-4.15.7a33.92,33.92,0,0,1-3.88.22,13.51,13.51,0,0,1-3.11-.38,5.57,5.57,0,0,1-4-3.23,9.76,9.76,0,0,1-.84-3.22,43.5,43.5,0,0,1,0-5,53.2,53.2,0,0,0,0-5.6,17.81,17.81,0,0,0-.56-2.76,9.86,9.86,0,0,0-.79-1.92,4.35,4.35,0,0,0-1.12-1.3,7.78,7.78,0,0,0-1.39-.88,14,14,0,0,0-1.79-.68,1.28,1.28,0,0,1-.85-.76.93.93,0,0,1,.15-.95,1.08,1.08,0,0,1,.95-.4A53.35,53.35,0,0,0,187,322Zm5.45,4.86a2.94,2.94,0,0,0-.7,2.16,3,3,0,0,0,.74,1.77,3.7,3.7,0,0,0,1.75,1,10.64,10.64,0,0,0,2.52.35A26.71,26.71,0,0,0,200,332a7.09,7.09,0,0,0,2.33-.55,1.12,1.12,0,0,0,.7-1.2,9.83,9.83,0,0,0-.28-1.3,9.73,9.73,0,0,1-.32-1.61c0-.52-.1-1.14-.13-1.86s-.07-1.22-.1-1.5a.93.93,0,0,0-.45-.82,2.69,2.69,0,0,0-1.33-.09,14.06,14.06,0,0,0-3,.68,16.88,16.88,0,0,0-2.89,1.29A7,7,0,0,0,192.4,326.9Z"/><path d="M161.66,348.63l-.52-.09c-1.89-.31-2.74-1.05-2.54-2.24a6.86,6.86,0,0,1,1-2.53,1.77,1.77,0,0,0,.27-1,.46.46,0,0,0-.53-.39,1.37,1.37,0,0,0-1,.52,13,13,0,0,1-5.62,3.34,16.51,16.51,0,0,1-7.55.32,9.21,9.21,0,0,1-2.69-.84,7.53,7.53,0,0,1-2.1-1.55,5.29,5.29,0,0,1-1.26-2.39,7.77,7.77,0,0,1-.08-3.17,31,31,0,0,1,1.55-4.73,35.87,35.87,0,0,0,1.83-6.1,19.91,19.91,0,0,0,.21-2.89,9.5,9.5,0,0,0-.23-2.11,4.45,4.45,0,0,0-.74-1.59,7.2,7.2,0,0,0-1.13-1.24,16,16,0,0,0-1.56-1.14,1.26,1.26,0,0,1-.62-.95.93.93,0,0,1,.39-.88,1.07,1.07,0,0,1,1-.14,51.14,51.14,0,0,0,7.34,1.81,46,46,0,0,0,6.73.48,1.09,1.09,0,0,1,.93.46.94.94,0,0,1,.08,1,1.27,1.27,0,0,1-.89.71,11.28,11.28,0,0,0-1.8.62,5.47,5.47,0,0,0-1.4,1,4.64,4.64,0,0,0-1.13,1.66,10.38,10.38,0,0,0-.69,2.51v0a44.77,44.77,0,0,1-1.24,5.44c-.51,1.7-1,3.12-1.39,4.25a14.3,14.3,0,0,0-.76,2.5,3.07,3.07,0,0,0,.56,2.57,4.29,4.29,0,0,0,2.72,1.31,8.13,8.13,0,0,0,3.61-.3,12.4,12.4,0,0,0,3.7-1.83,11.81,11.81,0,0,0,3.14-3.47,13,13,0,0,0,1.81-4.89l.17-1a21.47,21.47,0,0,0,.34-4.86,5.94,5.94,0,0,0-.8-2.81,6.77,6.77,0,0,0-2.05-1.88,1.29,1.29,0,0,1-.62-1,.94.94,0,0,1,.39-.88,1.1,1.1,0,0,1,1-.14,47.11,47.11,0,0,0,6.53,1.68,52.06,52.06,0,0,0,7.56.62,1.09,1.09,0,0,1,.93.45,1,1,0,0,1,.08,1,1.26,1.26,0,0,1-.89.7,13,13,0,0,0-1.9.61,6.84,6.84,0,0,0-1.49.87,4.9,4.9,0,0,0-1.24,1.4,11.55,11.55,0,0,0-.9,2.13,23.65,23.65,0,0,0-.71,3.12l-1,6.22a23,23,0,0,0-.32,3.18,11.1,11.1,0,0,0,.18,2.31,4.79,4.79,0,0,0,.73,1.72,7,7,0,0,0,1.13,1.3,13.52,13.52,0,0,0,1.62,1.18,1.3,1.3,0,0,1,.62.95,1,1,0,0,1-.39.89,1.1,1.1,0,0,1-1,.14A51.13,51.13,0,0,0,161.66,348.63Z"/><path d="M100.36,291.29q6,1,14.08,5.47c1.62.89,3.09,1.77,4.42,2.62s2.61,1.76,3.86,2.73A29.49,29.49,0,0,1,126,305a22.77,22.77,0,0,1,2.51,3.11,15.08,15.08,0,0,1,1.74,3.38,16,16,0,0,1,.83,3.7,15.62,15.62,0,0,1-.12,4.08,24.13,24.13,0,0,1-1.19,4.5,34.92,34.92,0,0,1-2.29,5,32.33,32.33,0,0,1-3.87,5.64,20.38,20.38,0,0,1-4.16,3.72,14.14,14.14,0,0,1-4.54,1.94,17.56,17.56,0,0,1-4.82.46,22.7,22.7,0,0,1-5.19-.91,42.28,42.28,0,0,1-5.48-2c-1.8-.8-3.74-1.78-5.85-2.94s-3.94-2.26-5.57-3.33a47.87,47.87,0,0,1-4.63-3.44,26.12,26.12,0,0,1-3.64-3.67,18.36,18.36,0,0,1-2.36-4,12.51,12.51,0,0,1-1-4.37,15.84,15.84,0,0,1,.58-4.83,24,24,0,0,1,2.23-5.4,33.31,33.31,0,0,1,2.82-4.34,19.84,19.84,0,0,1,2.82-3,11.33,11.33,0,0,1,2.89-1.8,10.41,10.41,0,0,1,2.92-.78,10.63,10.63,0,0,1,3,.16,16.67,16.67,0,0,1,3,.88,27.65,27.65,0,0,1,3.15,1.51,18.34,18.34,0,0,1,4.39,3.06c.82.87,1,1.68.61,2.43a10.88,10.88,0,0,1-1.58,2.08c-.43.46-.54.86-.33,1.17s.6.35,1.16.1a13.74,13.74,0,0,1,12.71.49,9.14,9.14,0,0,1,2.19,1.66,7.18,7.18,0,0,1,1.39,2.13,5.28,5.28,0,0,1,.34,2.63,7.69,7.69,0,0,1-1,3,11.53,11.53,0,0,1-2.19,2.53,10.77,10.77,0,0,0-2.16,2.46,11.94,11.94,0,0,0-1.05,3.12,11.27,11.27,0,0,1-.89,2.86,4.66,4.66,0,0,1-3.09,2.3,9.79,9.79,0,0,1-4.68-.08,21.16,21.16,0,0,1-5.28-2.11q-1.86-1-4.74-2.94c-1.92-1.27-3.29-2.14-4.11-2.59l-.59-.32a33.94,33.94,0,0,0-4.6-2.09,1.11,1.11,0,0,1-.72-.74,1,1,0,0,1,.24-.94,1.3,1.3,0,0,1,1.08-.36A3.43,3.43,0,0,0,89.6,317a26.59,26.59,0,0,0,3.34-5.08l3.33-6.05A6.91,6.91,0,0,0,97.41,302a4,4,0,0,0-3.54-3,3.65,3.65,0,0,0-1.73.45,7.66,7.66,0,0,0-2,1.57,24.46,24.46,0,0,0-2.43,3.05q-1.35,2-2.9,4.75a25.45,25.45,0,0,0-2,4.43,14.8,14.8,0,0,0-.74,3.84,8.93,8.93,0,0,0,.48,3.42,11.73,11.73,0,0,0,1.56,3,16.25,16.25,0,0,0,2.67,2.87,34.26,34.26,0,0,0,3.64,2.74c1.31.86,2.84,1.77,4.61,2.75s3.39,1.79,4.85,2.42a29,29,0,0,0,4.36,1.52,14.53,14.53,0,0,0,4,.52,12.58,12.58,0,0,0,3.64-.65,10.91,10.91,0,0,0,3.45-1.91,20.31,20.31,0,0,0,3.24-3.34,36.39,36.39,0,0,0,3.18-4.89,38.4,38.4,0,0,0,2.47-5.34,21.39,21.39,0,0,0,1.13-4.57,11.12,11.12,0,0,0-.22-4,12.71,12.71,0,0,0-1.38-3.45,14.24,14.24,0,0,0-2.57-3.12,29.8,29.8,0,0,0-3.61-2.88c-1.32-.89-2.86-1.83-4.64-2.81a62.2,62.2,0,0,0-12.67-5.19q-2.62-.78-2.43-2T100.36,291.29Zm13.37,23a3.12,3.12,0,0,0,.37-2.56,3.9,3.9,0,0,0-2-2.07,6.85,6.85,0,0,0-2.44-.76,9.3,9.3,0,0,0-3,.13,11.82,11.82,0,0,0-3.07,1,11.66,11.66,0,0,0-2.94,2.11,13.32,13.32,0,0,0-2.43,3.19l-.27.48a15.74,15.74,0,0,0-1.4,3.15,4,4,0,0,0-.06,2.3A3.73,3.73,0,0,0,97.69,323a13.17,13.17,0,0,0,2.4,1.6q4.62,2.55,6.53-.93a19.54,19.54,0,0,0,.83-2,20.52,20.52,0,0,1,1.12-2.48,6,6,0,0,1,1.6-1.79l2.1-1.61A5.25,5.25,0,0,0,113.73,314.3Z"/><path d="M73.65,284.27a10.8,10.8,0,0,1,1.61,2.3A7.87,7.87,0,0,1,76,289a4.8,4.8,0,0,1-.31,2.47,6.14,6.14,0,0,1-1.65,2.27,6.47,6.47,0,0,1-2,1.06,6.75,6.75,0,0,0-2,1,9.06,9.06,0,0,0-1.53,2,8.57,8.57,0,0,1-1.35,1.84,4.81,4.81,0,0,1-3.77,1.21,10.07,10.07,0,0,1-4.51-1.63,21,21,0,0,1-4.39-3.77q-1.56-1.74-3.88-4.74t-3.36-4.17l-.45-.5a51.08,51.08,0,0,0-5.52-5.23,1.06,1.06,0,0,1-.43-.93.94.94,0,0,1,.53-.81,1.3,1.3,0,0,1,1.14,0,12.27,12.27,0,0,0,1.86.72,6.83,6.83,0,0,0,1.71.25,4.7,4.7,0,0,0,1.84-.32,10.91,10.91,0,0,0,2-1.09,22.48,22.48,0,0,0,2.5-2l3.81-3.43a8.94,8.94,0,0,0,1.85-2.33,13.75,13.75,0,0,0,1.15-2.54,15.66,15.66,0,0,1,1.1-2.48,8.13,8.13,0,0,1,1.69-2.2q3.25-2.93,8-1.4t10.64,8.1a41.26,41.26,0,0,1,4.06,5.19,13.5,13.5,0,0,1,1.87,4.06,5.83,5.83,0,0,1,0,3,5.1,5.1,0,0,1-1.53,2.29q-3.9,3.51-13.14-4.67-3.85-3.4-5.1-2.28a1,1,0,0,0-.36.72,1.06,1.06,0,0,0,.28.74,6.49,6.49,0,0,0,1.43.9A29.46,29.46,0,0,1,71,282,14.11,14.11,0,0,1,73.65,284.27Zm-4.74.72a12,12,0,0,0-2.18-1.7,11.15,11.15,0,0,1-2-1.54A4.93,4.93,0,0,1,63.62,280a3.47,3.47,0,0,1-.13-1.7,4.82,4.82,0,0,1,.51-1.41,4.71,4.71,0,0,1,.9-1.09,4.26,4.26,0,0,1,1.92-1.05,4.08,4.08,0,0,1,2.15.13,10.21,10.21,0,0,1,2.2,1,19.61,19.61,0,0,1,2.39,1.71,22.37,22.37,0,0,0,2.93,2.07,4.46,4.46,0,0,0,1.78.66,1.61,1.61,0,0,0,1.58-1.86,7.78,7.78,0,0,0-1.43-2.62c-.85-1.17-2.22-2.82-4.12-4.93s-3.51-3.46-4.73-3.94a3,3,0,0,0-3.29.59,5.45,5.45,0,0,0-1.17,1.61,19.1,19.1,0,0,0-.94,2.15c-.27.75-.55,1.52-.85,2.31A14.6,14.6,0,0,1,62.14,276,8.79,8.79,0,0,1,60.46,278l-4,3.59A18.6,18.6,0,0,0,54.15,284a7.15,7.15,0,0,0-1.17,2,3.19,3.19,0,0,0-.09,1.93,6.25,6.25,0,0,0,.85,1.92,19.47,19.47,0,0,0,1.72,2.19c2.45,2.71,4.7,3.14,6.78,1.28.16-.15.51-.5,1-1.05s1-1,1.34-1.32a5.31,5.31,0,0,1,2.47-1,5.19,5.19,0,0,0,2.31-.84,2.07,2.07,0,0,0,.72-1.86A4.31,4.31,0,0,0,68.91,285Z"/><path d="M25,247.38a1.64,1.64,0,0,1-1.71-.32,5.47,5.47,0,0,1-1.58-2.33l-.1-.23a5.55,5.55,0,0,1-.55-2.78,1.66,1.66,0,0,1,1-1.43,3.79,3.79,0,0,1,.74-.21,4.11,4.11,0,0,1,.71-.07h1.67a1.68,1.68,0,0,0,1-.33.46.46,0,0,0,.05-.66,1.38,1.38,0,0,0-.94-.52,12.86,12.86,0,0,1-5.78-3,16.8,16.8,0,0,1-4.27-6.26,9.19,9.19,0,0,1-.71-2.73,7.54,7.54,0,0,1,.2-2.6,5.3,5.3,0,0,1,1.35-2.33,7.64,7.64,0,0,1,2.65-1.74,31.21,31.21,0,0,1,4.84-1.19A35.72,35.72,0,0,0,29.78,217a19.24,19.24,0,0,0,2.56-1.35A9.62,9.62,0,0,0,34,214.34a4.26,4.26,0,0,0,1-1.47,7.37,7.37,0,0,0,.45-1.61,14.09,14.09,0,0,0,.14-1.93,1.29,1.29,0,0,1,.48-1,.93.93,0,0,1,1-.13,1.05,1.05,0,0,1,.66.79A51.9,51.9,0,0,0,40,216.15a47.09,47.09,0,0,0,3.15,6,1.09,1.09,0,0,1,.1,1,.94.94,0,0,1-.77.58,1.27,1.27,0,0,1-1.07-.39,11.84,11.84,0,0,0-1.48-1.2,5.57,5.57,0,0,0-1.56-.68,4.72,4.72,0,0,0-2-.08,11,11,0,0,0-2.5.74h0A43,43,0,0,1,28.58,224c-1.73.47-3.18.82-4.36,1.07a15.48,15.48,0,0,0-2.53.67,3.06,3.06,0,0,0-1.86,1.83,4.22,4.22,0,0,0,.33,3,7.88,7.88,0,0,0,1.57,2.37,10.12,10.12,0,0,0,2.57,2,13.71,13.71,0,0,0,3.27,1.27,12,12,0,0,0,3.85.27,13.25,13.25,0,0,0,4.12-1l1-.39a21.27,21.27,0,0,0,4.31-2.28,6,6,0,0,0,2-2.16,6.82,6.82,0,0,0,.52-2.74,1.27,1.27,0,0,1,.48-1,1,1,0,0,1,1-.14,1.11,1.11,0,0,1,.66.8,46.54,46.54,0,0,0,2,6.43,47.09,47.09,0,0,0,3.15,6,1.09,1.09,0,0,1,.1,1,.94.94,0,0,1-.77.58,1.3,1.3,0,0,1-1.07-.39,7,7,0,0,0-2.31-1.56,6,6,0,0,0-2.92-.12,21,21,0,0,0-4.64,1.46l-.95.4a13.32,13.32,0,0,0-3.63,2.21,11.88,11.88,0,0,0-2.51,2.93,14,14,0,0,0-1.4,3.22,10.41,10.41,0,0,0-.41,3.21,8,8,0,0,0,.58,2.78,4.28,4.28,0,0,0,1.9,2.35,3.06,3.06,0,0,0,2.61,0,14.71,14.71,0,0,0,2.26-1.32c1-.67,2.28-1.45,3.83-2.35a43.24,43.24,0,0,1,5-2.46h0a11.1,11.1,0,0,0,2.28-1.25A4.7,4.7,0,0,0,49.88,249a5.19,5.19,0,0,0,.61-1.58,10.75,10.75,0,0,0,.19-1.9,1.27,1.27,0,0,1,.48-1,.93.93,0,0,1,1-.14,1.11,1.11,0,0,1,.66.79,46.29,46.29,0,0,0,2,6.44,51.21,51.21,0,0,0,3.48,6.74,1.09,1.09,0,0,1,.09,1,.91.91,0,0,1-.76.58,1.26,1.26,0,0,1-1.07-.38A15.31,15.31,0,0,0,55,258.29a6.74,6.74,0,0,0-1.49-.79,4.56,4.56,0,0,0-1.8-.32,10,10,0,0,0-2.21.31,21.27,21.27,0,0,0-2.92,1,38.11,38.11,0,0,0-5.25,3.1,29.47,29.47,0,0,1-4.13,2.51,7.53,7.53,0,0,1-3.1.66,5.26,5.26,0,0,1-2.6-.67,7.46,7.46,0,0,1-2-1.69A9.15,9.15,0,0,1,28.09,260a16.86,16.86,0,0,1-1.44-7.44,12.71,12.71,0,0,1,1.94-6.21,1.44,1.44,0,0,0,.29-1.05c-.07-.3-.23-.44-.51-.42a1.78,1.78,0,0,0-1,.5l-.71.74a8.88,8.88,0,0,1-.89.84A3.21,3.21,0,0,1,25,247.38Z"/><path d="M36.11,180.48v0a2.91,2.91,0,0,1-.22,1.68,1.29,1.29,0,0,1-1.06.51,3.86,3.86,0,0,1-1.18-.14,4.16,4.16,0,0,0-.9-.16.53.53,0,0,0-.43.23.58.58,0,0,0,0,.52,1.2,1.2,0,0,0,.49.55,7.44,7.44,0,0,1,1.39,1.23,14.38,14.38,0,0,1,1.44,1.94,11.6,11.6,0,0,1,1.29,2.95,18.14,18.14,0,0,1,.68,3.87,20.1,20.1,0,0,1,0,3.31A9.25,9.25,0,0,1,37,199.5a7.51,7.51,0,0,1-1,1.8,4.54,4.54,0,0,1-1.41,1.21,7.56,7.56,0,0,1-1.73.7,11.43,11.43,0,0,1-2,.32q-3.76.25-5.66-2.14t-2.3-8.22q-.41-6,1-8.68a.92.92,0,0,0,0-1.09c-.23-.31-.61-.29-1.14,0a10.94,10.94,0,0,1-5.34,1.82c-.23,0-.57,0-1,0l-1,0a4.38,4.38,0,0,0-3,1,3.79,3.79,0,0,0-.63,2.83,8.12,8.12,0,0,0,.78,3.13,7.15,7.15,0,0,0,2,2.34A22.9,22.9,0,0,0,20.46,198c.83.32,1.28.8,1.34,1.44a.89.89,0,0,1-.54,1,1.22,1.22,0,0,1-.67.11,20.66,20.66,0,0,0-3.88-.15c-2.25.15-3.83.83-4.72,2a1.54,1.54,0,0,1-1,.54,1.14,1.14,0,0,1-1-.46,1.35,1.35,0,0,1-.24-1.25,14.64,14.64,0,0,0,.13-4.14c0-.68-.22-2-.53-3.83s-.48-3.27-.55-4.17a35.45,35.45,0,0,1-.08-3.89,13.85,13.85,0,0,1,.5-3.1,6,6,0,0,1,1.22-2.38,6,6,0,0,1,2.15-1.51,9.81,9.81,0,0,1,3.24-.72,40.74,40.74,0,0,1,5,.21,54.77,54.77,0,0,0,5.6.24,16.53,16.53,0,0,0,2.77-.47,8.94,8.94,0,0,0,1.94-.71,4.41,4.41,0,0,0,1.35-1.08,7.84,7.84,0,0,0,.93-1.36,15.37,15.37,0,0,0,.74-1.75,1.29,1.29,0,0,1,.78-.83,1,1,0,0,1,1,.18,1.06,1.06,0,0,1,.37,1A52.8,52.8,0,0,0,36.11,180.48Zm-5.05,5.27a3,3,0,0,0-3.93-.1,3.74,3.74,0,0,0-1.06,1.72,10.24,10.24,0,0,0-.44,2.5,26.45,26.45,0,0,0,.05,3.28,7.13,7.13,0,0,0,.47,2.35,1.13,1.13,0,0,0,1.17.74,10,10,0,0,0,1.31-.24,9.31,9.31,0,0,1,1.63-.26c.51,0,1.13-.06,1.86-.07s1.22,0,1.5,0a.94.94,0,0,0,.83-.42,2.68,2.68,0,0,0,.14-1.33,13.78,13.78,0,0,0-.57-3A17.53,17.53,0,0,0,32.83,188,7.13,7.13,0,0,0,31.06,185.75Z"/><path d="M6.43,155.05c-.52,3.82-1.82,5.58-3.91,5.3a2.56,2.56,0,0,1-2.15-1.77,9.08,9.08,0,0,1-.22-4.38c.53-3.9,1.84-5.7,3.93-5.42S7,151.15,6.43,155.05Zm30.75,11.72a1.1,1.1,0,0,1-.44.94.91.91,0,0,1-1,.11,1.21,1.21,0,0,1-.73-.87,13.84,13.84,0,0,0-.66-1.89,7.39,7.39,0,0,0-.91-1.46,4.91,4.91,0,0,0-1.44-1.2,10.72,10.72,0,0,0-2.15-.84,21.78,21.78,0,0,0-3.14-.62l-6.24-.85a23.15,23.15,0,0,0-3.19-.23,10.55,10.55,0,0,0-2.3.24,4.76,4.76,0,0,0-1.71.78A7.19,7.19,0,0,0,12.05,162a15.72,15.72,0,0,0-1.13,1.65,1.25,1.25,0,0,1-.93.64.93.93,0,0,1-.9-.36,1.1,1.1,0,0,1-.17-1,51.45,51.45,0,0,0,1.62-7.41A51.07,51.07,0,0,0,11,148a1.1,1.1,0,0,1,.43-.94.94.94,0,0,1,1-.11,1.28,1.28,0,0,1,.73.87,13.37,13.37,0,0,0,.66,1.89,6.7,6.7,0,0,0,.91,1.46,4.67,4.67,0,0,0,1.44,1.2,10.48,10.48,0,0,0,2.15.84,23.1,23.1,0,0,0,3.14.63l6.24.84a20.31,20.31,0,0,0,3.19.23,10.62,10.62,0,0,0,2.3-.24,4.69,4.69,0,0,0,1.7-.77,6.58,6.58,0,0,0,1.27-1.17,13.19,13.19,0,0,0,1.14-1.64,1.27,1.27,0,0,1,.93-.65,1,1,0,0,1,.9.36,1.1,1.1,0,0,1,.16,1,52.72,52.72,0,0,0-1.61,7.41A51.15,51.15,0,0,0,37.18,166.77Z"/><path d="M40.56,145.46a1.1,1.1,0,0,1-.57.86,1,1,0,0,1-1,0,1.31,1.31,0,0,1-.59-1,12.68,12.68,0,0,0-.36-2,7.1,7.1,0,0,0-.68-1.59,4.73,4.73,0,0,0-1.24-1.4,10.81,10.81,0,0,0-2-1.16,22,22,0,0,0-3-1.09L17.05,134a22.47,22.47,0,0,0-3.12-.72,11.27,11.27,0,0,0-2.31-.11,4.66,4.66,0,0,0-1.8.51,6.85,6.85,0,0,0-1.43,1A13.61,13.61,0,0,0,7,136.06a1.28,1.28,0,0,1-1,.49.94.94,0,0,1-.83-.49,1.1,1.1,0,0,1,0-1A52,52,0,0,0,7.87,128a51.93,51.93,0,0,0,1.55-7.42,1.13,1.13,0,0,1,.58-.87,1,1,0,0,1,1,0,1.28,1.28,0,0,1,.59,1,14.47,14.47,0,0,0,.36,2,7,7,0,0,0,.68,1.58,4.87,4.87,0,0,0,1.24,1.4,10.81,10.81,0,0,0,2,1.16,22.55,22.55,0,0,0,3,1.09L32.94,132a24.08,24.08,0,0,0,3.11.71,11.27,11.27,0,0,0,2.31.11,4.66,4.66,0,0,0,1.81-.51,7.13,7.13,0,0,0,1.43-1A14.44,14.44,0,0,0,43,129.93a1.24,1.24,0,0,1,1-.5.93.93,0,0,1,.83.49,1.09,1.09,0,0,1,0,1,47,47,0,0,0-4.27,14.5Z"/><path d="M48,121.58a1.47,1.47,0,0,1-.91,2.16,8.56,8.56,0,0,1-1,.28,8.65,8.65,0,0,0-1.27.41,8.4,8.4,0,0,0-1.08.57,4.68,4.68,0,0,1-.9.46,1.54,1.54,0,0,1-2.17-.91c-.05-.13-.11-.3-.18-.52s-.15-.48-.25-.81l-.25-.83a5.69,5.69,0,0,0-.58-1.22,7.63,7.63,0,0,1-.49-.88,1.5,1.5,0,0,1,.91-2.16,7.77,7.77,0,0,1,1-.29,11.63,11.63,0,0,0,1.24-.36,8,8,0,0,0,1.11-.55,7.33,7.33,0,0,1,.91-.47,1.53,1.53,0,0,1,2.17.92,6.34,6.34,0,0,1,.31,1,10.68,10.68,0,0,0,.33,1.13,7.6,7.6,0,0,0,.61,1.21A6.84,6.84,0,0,1,48,121.58Z"/><path d="M56.65,99.62A8.36,8.36,0,0,0,58,94.24a10.25,10.25,0,0,0-2.29-5.3,1.75,1.75,0,0,1-.41-1.54,1.2,1.2,0,0,1,.88-1,1.24,1.24,0,0,1,1.29.43c2.35,2.43,3.62,4.88,3.83,7.37s-.63,5.22-2.49,8.22a30.84,30.84,0,0,1-1.95,2.8,19.87,19.87,0,0,1-2.18,2.33,12,12,0,0,1-2.45,1.76,11,11,0,0,1-2.79,1,10.2,10.2,0,0,1-3.18.14,15.14,15.14,0,0,1-3.6-.92,23.28,23.28,0,0,1-4.11-2.07,21.08,21.08,0,0,1-3.5-2.66,13.63,13.63,0,0,1-2.28-2.73,9.7,9.7,0,0,1-1.17-2.86,10.4,10.4,0,0,1-.27-2.91,12.84,12.84,0,0,1,.55-3,21.57,21.57,0,0,1,1.17-3,30.36,30.36,0,0,1,1.68-3c.47-.77,1.27-1.89,2.38-3.37s1.84-2.52,2.2-3.09a13.32,13.32,0,0,0,1.65-3.37,1.29,1.29,0,0,1,.73-.93,1,1,0,0,1,1,.06,1.36,1.36,0,0,1,.59.87q.3,2,3.51,4a22.91,22.91,0,0,0,3.61,1.79.93.93,0,0,1,.63,1,1.06,1.06,0,0,1-.85,1,1.81,1.81,0,0,1-1,0,15.2,15.2,0,0,0-6.48-.27,7.12,7.12,0,0,0-3,1.27A9.51,9.51,0,0,0,37.37,89,9.4,9.4,0,0,0,36.3,91.2a5.3,5.3,0,0,0-.2,2.15A4.78,4.78,0,0,0,37,95.57a13,13,0,0,0,2.18,2.35,29.25,29.25,0,0,0,3.66,2.63,26.94,26.94,0,0,0,5.05,2.56,7.77,7.77,0,0,0,3.78.49,5.71,5.71,0,0,0,2.76-1.23A11.19,11.19,0,0,0,56.65,99.62Z"/><path d="M59.22,76.65a23.26,23.26,0,0,1-3-3.71,13.15,13.15,0,0,1-1.66-3.88,9.61,9.61,0,0,1-.11-4.1,13.35,13.35,0,0,1,1.77-4.35,27.66,27.66,0,0,1,8.64-8.45,13,13,0,0,1,4.4-1.67,9.8,9.8,0,0,1,4.1.21,12.41,12.41,0,0,1,3.82,1.73,22.94,22.94,0,0,1,3.64,3.09,23.18,23.18,0,0,1,3,3.69,12.43,12.43,0,0,1,1.64,3.85,9.79,9.79,0,0,1,.12,4.1,13,13,0,0,1-1.77,4.36,24.23,24.23,0,0,1-3.86,4.72A23.73,23.73,0,0,1,75.16,80a13,13,0,0,1-4.39,1.68,9.78,9.78,0,0,1-4.1-.21,13,13,0,0,1-3.82-1.73A23.05,23.05,0,0,1,59.22,76.65ZM77.57,58.71a1.46,1.46,0,0,0-1.14-.46,3.39,3.39,0,0,0-1.31.36c-.44.21-.89.42-1.34.61a3,3,0,0,1-1.41.26,1.94,1.94,0,0,1-1.32-.65,7.5,7.5,0,0,1-.86-1.14,7.89,7.89,0,0,0-.78-1.07,3.57,3.57,0,0,0-3.27-1.11A7.94,7.94,0,0,0,62,57.94a8,8,0,0,0-2.51,4,3.59,3.59,0,0,0,1,3.29,7.92,7.92,0,0,0,1,.82,7.66,7.66,0,0,1,1.12.88,1.94,1.94,0,0,1,.6,1.37A3.37,3.37,0,0,1,63,69.8c-.24.47-.49,1-.75,1.41a3.69,3.69,0,0,0-.46,1.38,1.44,1.44,0,0,0,1.56,1.59,3.61,3.61,0,0,0,1.38-.43c.48-.25,1-.49,1.44-.71a3.22,3.22,0,0,1,1.47-.33,1.89,1.89,0,0,1,1.34.62,8.23,8.23,0,0,1,.86,1.14,7.28,7.28,0,0,0,.79,1.06,3.57,3.57,0,0,0,3.27,1.1A7.83,7.83,0,0,0,78,74.21a7.84,7.84,0,0,0,2.52-4,3.59,3.59,0,0,0-1-3.29,7.5,7.5,0,0,0-1-.8,7.78,7.78,0,0,1-1.13-.89,2,2,0,0,1-.61-1.32,3.2,3.2,0,0,1,.29-1.4c.21-.45.42-.89.65-1.33a3.33,3.33,0,0,0,.38-1.3A1.38,1.38,0,0,0,77.57,58.71Z"/><path d="M103,27.49a1.65,1.65,0,0,1,.23-1.72,5.5,5.5,0,0,1,2.25-1.7l.22-.11a5.57,5.57,0,0,1,2.74-.7,1.67,1.67,0,0,1,1.49.91,3.47,3.47,0,0,1,.24.73,3.53,3.53,0,0,1,.11.71q0,.29,0,.84c0,.37,0,.64,0,.82a1.74,1.74,0,0,0,.38,1,.46.46,0,0,0,.66,0,1.4,1.4,0,0,0,.48-1,12.74,12.74,0,0,1,2.68-5.93,16.74,16.74,0,0,1,6-4.59,9.21,9.21,0,0,1,2.69-.85,7.61,7.61,0,0,1,2.61.06,5.23,5.23,0,0,1,2.39,1.23,7.77,7.77,0,0,1,1.88,2.55,32,32,0,0,1,1.44,4.77,36.6,36.6,0,0,0,2,6.07,20.43,20.43,0,0,0,1.49,2.49,9.73,9.73,0,0,0,1.4,1.6,4.58,4.58,0,0,0,1.51.88,8,8,0,0,0,1.64.37,16.39,16.39,0,0,0,1.93,0,1.25,1.25,0,0,1,1.05.42,1,1,0,0,1,.19.95,1.12,1.12,0,0,1-.76.7A51.08,51.08,0,0,0,135,40.81a46.13,46.13,0,0,0-5.79,3.46,1.06,1.06,0,0,1-1,.15.94.94,0,0,1-.63-.73,1.31,1.31,0,0,1,.33-1.09A13.07,13.07,0,0,0,129,41.06a5.6,5.6,0,0,0,.59-1.6,4.66,4.66,0,0,0,0-2,10.61,10.61,0,0,0-.87-2.46v0a41.57,41.57,0,0,1-2.1-5.17c-.56-1.7-1-3.13-1.3-4.29a14.4,14.4,0,0,0-.81-2.49,3,3,0,0,0-1.92-1.77,4.28,4.28,0,0,0-3,.49,7.93,7.93,0,0,0-2.28,1.69,10,10,0,0,0-1.83,2.67,13.64,13.64,0,0,0-1.1,3.34,11.73,11.73,0,0,0-.07,3.85,13.25,13.25,0,0,0,1.23,4.07l.45.92a20.91,20.91,0,0,0,2.49,4.19,6,6,0,0,0,2.26,1.84,6.87,6.87,0,0,0,2.77.38,1.25,1.25,0,0,1,1,.42,1,1,0,0,1,.19,1,1.08,1.08,0,0,1-.76.7,46.38,46.38,0,0,0-6.32,2.36,47.61,47.61,0,0,0-5.79,3.46,1.12,1.12,0,0,1-1,.15.94.94,0,0,1-.63-.74,1.31,1.31,0,0,1,.33-1.09A6.81,6.81,0,0,0,112,48.52a6,6,0,0,0,0-2.92,21.25,21.25,0,0,0-1.7-4.56l-.45-.93a13.26,13.26,0,0,0-2.4-3.5,12,12,0,0,0-3-2.36A14.24,14.24,0,0,0,101.05,33a10.31,10.31,0,0,0-3.23-.25,8.07,8.07,0,0,0-2.75.73,4.26,4.26,0,0,0-2.24,2,3,3,0,0,0,.18,2.6,13.89,13.89,0,0,0,1.43,2.19Q95.52,41.78,97,44a41.71,41.71,0,0,1,2.73,4.87v0a10.24,10.24,0,0,0,1.37,2.22,4.8,4.8,0,0,0,1.55,1.27,5.78,5.78,0,0,0,1.62.53,12,12,0,0,0,1.9.08,1.27,1.27,0,0,1,1,.43.93.93,0,0,1,.19,1,1.1,1.1,0,0,1-.76.7,45.57,45.57,0,0,0-6.32,2.36,51.09,51.09,0,0,0-6.54,3.82,1.14,1.14,0,0,1-1,.15.93.93,0,0,1-.62-.74,1.28,1.28,0,0,1,.33-1.09A15.09,15.09,0,0,0,93.66,58a6.27,6.27,0,0,0,.72-1.54,4.78,4.78,0,0,0,.23-1.81,10.84,10.84,0,0,0-.44-2.19,20.8,20.8,0,0,0-1.12-2.87,39,39,0,0,0-3.37-5.08,29.1,29.1,0,0,1-2.73-4,7.83,7.83,0,0,1-.82-3.07,5.22,5.22,0,0,1,.54-2.64,7.5,7.5,0,0,1,1.58-2.07,9.3,9.3,0,0,1,2.34-1.57A16.91,16.91,0,0,1,98,29.38a12.83,12.83,0,0,1,6.3,1.61,1.4,1.4,0,0,0,1.06.24.45.45,0,0,0,.39-.53,1.71,1.71,0,0,0-.55-.94l-.78-.67a10.81,10.81,0,0,1-.88-.84A3,3,0,0,1,103,27.49Z"/></g><polygon points="173.19 0 179.29 12.35 192.92 14.33 183.05 23.95 185.38 37.52 173.19 31.11 161 37.52 163.33 23.95 153.46 14.33 167.09 12.35 173.19 0"/></g></g></svg>