<svg xmlns="http://www.w3.org/2000/svg" viewBox="0 0 351.12 348.97"><defs><style>.cls-1{fill:#ffe100;}</style></defs><g id="Layer_2" data-name="Layer 2"><g id="Layer_1-2" data-name="Layer 1"><g id="email"><path d="M219,36.22q3.42.95,3.94-1a4.77,4.77,0,0,0-.65-3.07,42.16,42.16,0,0,0-3.58-5.72c-1.21-1.7-2.12-3-2.76-4a33.76,33.76,0,0,1-1.77-3,9.22,9.22,0,0,1-1-2.68,5.11,5.11,0,0,1,.11-2.17,5,5,0,0,1,3.41-3.64,11.15,11.15,0,0,1,6.42.17c1,.28,2.49.77,4.49,1.48s3.36,1.17,4.09,1.37a12.87,12.87,0,0,0,3.7.63,1.26,1.26,0,0,1,1.09.45,1,1,0,0,1,.23,1,1.42,1.42,0,0,1-.67.81q-1.84.87-2.85,4.5a22.27,22.27,0,0,0-.71,4,.91.91,0,0,1-.79.89,1.07,1.07,0,0,1-1.21-.53,1.77,1.77,0,0,1-.26-.94,12.66,12.66,0,0,0-1.57-6.29,8.77,8.77,0,0,0-2.52-2.67,11.62,11.62,0,0,0-3.43-1.5,10,10,0,0,0-2.23-.39,3.56,3.56,0,0,0-1.82.35,2,2,0,0,0-1.08,1.34,2.06,2.06,0,0,0,.11,1.58,4.25,4.25,0,0,0,1.28,1.32c.61.44,1.28.89,2,1.37a18.34,18.34,0,0,1,2.57,2.14,19.77,19.77,0,0,1,2.72,3.25q5.53,8.18,4.48,12a5.56,5.56,0,0,1-.72,1.61A3.58,3.58,0,0,1,228.67,40a5.28,5.28,0,0,1-2.12.59,14.17,14.17,0,0,1-3.14-.14,30.81,30.81,0,0,1-4.36-.93c-.92-.25-2.3-.72-4.16-1.39s-3.12-1.1-3.81-1.29a12.92,12.92,0,0,0-3.71-.63,1.28,1.28,0,0,1-1.09-.45,1,1,0,0,1-.23-1,1.42,1.42,0,0,1,.67-.81q1.84-.86,3-4.91a22.9,22.9,0,0,0,.76-4.17.92.92,0,0,1,.79-.89,1.09,1.09,0,0,1,1.21.53,1.8,1.8,0,0,1,.26.94,16.16,16.16,0,0,0,1.51,6.5,10.75,10.75,0,0,0,2,2.85A6.39,6.39,0,0,0,219,36.22Z"/><path d="M259.83,16.32l.45.26a5.36,5.36,0,0,1,2.12,1.82,1.9,1.9,0,0,1-.09,2,47.58,47.58,0,0,1-2.95,4.53,30.84,30.84,0,0,1-3.39,4c-.47.46-.59.86-.37,1.19s.61.37,1.19.1A13,13,0,0,1,263.21,29a16.5,16.5,0,0,1,7.2,2.31,9.39,9.39,0,0,1,2.23,1.73,7.41,7.41,0,0,1,1.43,2.18,5.28,5.28,0,0,1,.35,2.68,7.67,7.67,0,0,1-1,3,30.3,30.3,0,0,1-3.09,3.9,36.2,36.2,0,0,0-3.84,5.08,19.1,19.1,0,0,0-1.19,2.64,9.83,9.83,0,0,0-.52,2.06,4.32,4.32,0,0,0,.15,1.75,7.27,7.27,0,0,0,.62,1.55,14.8,14.8,0,0,0,1.07,1.61,1.27,1.27,0,0,1,.25,1.11.92.92,0,0,1-.67.69,1.1,1.1,0,0,1-1-.22,52.13,52.13,0,0,0-6.25-4.25,46.76,46.76,0,0,0-6.15-2.78,1.07,1.07,0,0,1-.7-.75.93.93,0,0,1,.25-.94,1.29,1.29,0,0,1,1.08-.35,10.38,10.38,0,0,0,1.9,0,5.54,5.54,0,0,0,1.65-.41,4.85,4.85,0,0,0,1.64-1.16,10.85,10.85,0,0,0,1.51-2.12v0a43.28,43.28,0,0,1,3-4.67q1.61-2.13,2.78-3.5a15.06,15.06,0,0,0,1.59-2.09,3.14,3.14,0,0,0,.36-2.59,4.24,4.24,0,0,0-2.1-2.18,8,8,0,0,0-2.69-.91,10.08,10.08,0,0,0-3.24,0,13.76,13.76,0,0,0-3.36,1,11.68,11.68,0,0,0-3.21,2.14,13.57,13.57,0,0,0-2.64,3.33l-.51.9a21.14,21.14,0,0,0-2,4.43,5.9,5.9,0,0,0-.23,2.92,6.88,6.88,0,0,0,1.27,2.48,1.27,1.27,0,0,1,.25,1.11.92.92,0,0,1-.67.69,1.09,1.09,0,0,1-1-.22,47.3,47.3,0,0,0-5.54-3.85,52.21,52.21,0,0,0-6.88-3.2,1.11,1.11,0,0,1-.71-.75.93.93,0,0,1,.26-.93,1.25,1.25,0,0,1,1.08-.35,13.47,13.47,0,0,0,2,.09,6.85,6.85,0,0,0,1.7-.3,4.73,4.73,0,0,0,1.65-.89,10.91,10.91,0,0,0,1.58-1.68,22.74,22.74,0,0,0,1.75-2.68l7.25-12.79a20.61,20.61,0,0,0,1.4-2.87,10.88,10.88,0,0,0,.64-2.22,4.89,4.89,0,0,0-.09-1.87,7,7,0,0,0-.61-1.62,15.07,15.07,0,0,0-1.1-1.66,1.28,1.28,0,0,1-.26-1.11.94.94,0,0,1,.68-.69,1.07,1.07,0,0,1,1,.22A52,52,0,0,0,259.83,16.32Z"/><path d="M295.34,76.79q-4.3,2.67-8,2.18c-2.47-.32-5-1.71-7.51-4.16a30.66,30.66,0,0,1-2.33-2.5,19.67,19.67,0,0,1-1.82-2.62,11.8,11.8,0,0,1-1.2-2.77,10.28,10.28,0,0,1-.38-2.93,10.14,10.14,0,0,1,.53-3.14,15.61,15.61,0,0,1,1.66-3.33,24,24,0,0,1,2.89-3.58,19.34,19.34,0,0,1,4.63-3.64,11.27,11.27,0,0,1,4.3-1.41,9.66,9.66,0,0,1,4.07.54,15.36,15.36,0,0,1,3.83,2,30.44,30.44,0,0,1,3.67,3.08q1,.93,2.79,3c1.21,1.4,2.07,2.34,2.55,2.8A13.18,13.18,0,0,0,308,62.62a1.29,1.29,0,0,1,.75.91,1,1,0,0,1-.26,1,1.43,1.43,0,0,1-1,.39c-1.36-.09-2.91.78-4.67,2.59a17.94,17.94,0,0,0-1.3,1.62c-.56.76-1,1.27-1.21,1.53a3.47,3.47,0,0,1-1.83,1.1,2.28,2.28,0,0,1-1.94-.83l-7.46-7.21q-.92-.9-4.19-3.91a25.67,25.67,0,0,0-3.45,4.32,7.52,7.52,0,0,0-1.21,3.54,5.74,5.74,0,0,0,.63,2.93,11.49,11.49,0,0,0,2.2,2.77,8.28,8.28,0,0,0,5,2.43,10.23,10.23,0,0,0,5.66-1.11,1.73,1.73,0,0,1,1.6-.08,1.22,1.22,0,0,1,.75,1.06A1.24,1.24,0,0,1,295.34,76.79Zm.15-11.39a3.08,3.08,0,0,0,2.1,1,2.2,2.2,0,0,0,1.81-1,4.87,4.87,0,0,0,.82-2.68,6.57,6.57,0,0,0-.56-3.23,10,10,0,0,0-2.12-2.79,9.64,9.64,0,0,0-2.14-1.62,5.23,5.23,0,0,0-2.24-.57,5.6,5.6,0,0,0-2.66.67,16.21,16.21,0,0,0-3.17,2.2Q289.16,59.29,295.49,65.4Z"/><path d="M315.69,106.79c-3.21,1-6,1.13-8.3.23s-4.43-2.83-6.32-5.82a30.85,30.85,0,0,1-1.67-3,19.76,19.76,0,0,1-1.15-3,12.21,12.21,0,0,1-.52-3,10.87,10.87,0,0,1,.33-2.94,10,10,0,0,1,1.26-2.92,14.83,14.83,0,0,1,2.39-2.84,23.13,23.13,0,0,1,3.65-2.8,19.53,19.53,0,0,1,5.36-2.45,11.32,11.32,0,0,1,4.52-.36,9.79,9.79,0,0,1,3.82,1.49,15.71,15.71,0,0,1,3.26,2.8,30.81,30.81,0,0,1,2.84,3.85c.48.76,1.15,2,2,3.61S328.62,92.46,329,93a13.49,13.49,0,0,0,2.31,3,1.27,1.27,0,0,1,.52,1.06,1,1,0,0,1-.48.86,1.38,1.38,0,0,1-1,.15q-1.95-.6-5.15,1.42a18.12,18.12,0,0,0-1.64,1.26c-.73.61-1.25,1-1.54,1.2a3.5,3.5,0,0,1-2,.65,2.33,2.33,0,0,1-1.69-1.27l-5.54-8.77q-.69-1.08-3.16-4.78a25.73,25.73,0,0,0-4.37,3.38,7.54,7.54,0,0,0-2,3.16,5.64,5.64,0,0,0-.08,3,11.21,11.21,0,0,0,1.48,3.21,8.36,8.36,0,0,0,4.27,3.54,10.14,10.14,0,0,0,5.76.25,1.75,1.75,0,0,1,1.57.3,1.2,1.2,0,0,1,.48,1.21A1.26,1.26,0,0,1,315.69,106.79Zm2.83-11a3.05,3.05,0,0,0,1.81,1.46,2.16,2.16,0,0,0,2-.52,4.85,4.85,0,0,0,1.43-2.41A6.78,6.78,0,0,0,324,91a10.16,10.16,0,0,0-1.41-3.21,9.43,9.43,0,0,0-1.7-2.08,5.27,5.27,0,0,0-2-1.08,5.56,5.56,0,0,0-2.75,0,16,16,0,0,0-3.59,1.39Q313.82,88.32,318.52,95.75Z"/><path d="M347.63,113.29l.16.5a5.39,5.39,0,0,1,.31,2.78,1.92,1.92,0,0,1-1.39,1.38,51.77,51.77,0,0,1-5.24,1.32,31.78,31.78,0,0,1-5.22.64c-.65,0-1,.22-1.08.62s.2.69.81.88a13.09,13.09,0,0,1,5.52,3.5,16.55,16.55,0,0,1,3.7,6.58,9.07,9.07,0,0,1,.47,2.79,7.42,7.42,0,0,1-.43,2.57,5.38,5.38,0,0,1-1.56,2.2,7.76,7.76,0,0,1-2.79,1.51,31.84,31.84,0,0,1-4.92.76,35.24,35.24,0,0,0-6.27,1.13,18.38,18.38,0,0,0-2.67,1.12,10,10,0,0,0-1.78,1.16,4.53,4.53,0,0,0-1.08,1.38,7.24,7.24,0,0,0-.59,1.57,13.68,13.68,0,0,0-.31,1.9,1.29,1.29,0,0,1-.57,1,.92.92,0,0,1-1,.05,1.07,1.07,0,0,1-.59-.85,52.57,52.57,0,0,0-1.71-7.36,46.3,46.3,0,0,0-2.62-6.22,1.08,1.08,0,0,1,0-1,1,1,0,0,1,.82-.52,1.29,1.29,0,0,1,1,.48,10.86,10.86,0,0,0,1.37,1.32,5.35,5.35,0,0,0,1.5.82,4.81,4.81,0,0,0,2,.26,10.73,10.73,0,0,0,2.56-.53h0a40.28,40.28,0,0,1,5.4-1.36c1.76-.32,3.23-.55,4.42-.68a15.89,15.89,0,0,0,2.58-.46,3.09,3.09,0,0,0,2-1.66,4.25,4.25,0,0,0-.06-3,7.79,7.79,0,0,0-1.36-2.5,10.08,10.08,0,0,0-2.39-2.18,13.58,13.58,0,0,0-3.15-1.55,11.71,11.71,0,0,0-3.81-.61,13.6,13.6,0,0,0-4.19.65l-1,.32a21,21,0,0,0-4.49,1.89,6,6,0,0,0-2.15,2,7.11,7.11,0,0,0-.75,2.69,1.27,1.27,0,0,1-.57,1,.93.93,0,0,1-1,.06,1.12,1.12,0,0,1-.59-.85,45.71,45.71,0,0,0-1.46-6.59,52.33,52.33,0,0,0-2.87-7,1.08,1.08,0,0,1,0-1,.92.92,0,0,1,.82-.51,1.26,1.26,0,0,1,1,.47,13.77,13.77,0,0,0,1.4,1.43,7.24,7.24,0,0,0,1.45.93,4.7,4.7,0,0,0,1.82.46,10.25,10.25,0,0,0,2.3-.16,21.42,21.42,0,0,0,3.1-.77l14-4.46a23.31,23.31,0,0,0,3-1.16,11,11,0,0,0,2-1.2,4.63,4.63,0,0,0,1.21-1.44,6.93,6.93,0,0,0,.65-1.59,13.72,13.72,0,0,0,.32-2,1.29,1.29,0,0,1,.57-1,.9.9,0,0,1,1,0,1.09,1.09,0,0,1,.59.84A50.66,50.66,0,0,0,347.63,113.29Z"/><path d="M323.55,178.28v0a2.87,2.87,0,0,1,.26-1.67,1.25,1.25,0,0,1,1.07-.49,3.87,3.87,0,0,1,1.17.16,3.49,3.49,0,0,0,.9.18.5.5,0,0,0,.43-.22.56.56,0,0,0,0-.51,1.16,1.16,0,0,0-.48-.57,8.26,8.26,0,0,1-1.36-1.26,14.81,14.81,0,0,1-1.39-2,11.76,11.76,0,0,1-1.22-3,17.82,17.82,0,0,1-.59-3.88,19.55,19.55,0,0,1,.09-3.31,9.43,9.43,0,0,1,.61-2.5,7.49,7.49,0,0,1,1-1.77,4.43,4.43,0,0,1,1.44-1.18,7.87,7.87,0,0,1,1.75-.66,10,10,0,0,1,2-.27c2.52-.12,4.39.64,5.61,2.26s1.93,4.38,2.11,8.27-.22,6.9-1.22,8.65a.94.94,0,0,0-.06,1.1c.23.31.6.3,1.14,0a11,11,0,0,1,5.38-1.7h1l1,0a4.33,4.33,0,0,0,3-.9,3.72,3.72,0,0,0,.69-2.82,8,8,0,0,0-.7-3.14,7.2,7.2,0,0,0-2-2.39,22.91,22.91,0,0,0-5.68-3.46c-.83-.34-1.27-.83-1.31-1.48a.89.89,0,0,1,.56-1,1.22,1.22,0,0,1,.67-.09,21.66,21.66,0,0,0,3.88.24q3.38-.15,4.76-1.92a1.56,1.56,0,0,1,1-.52,1.1,1.1,0,0,1,1,.48,1.34,1.34,0,0,1,.22,1.26,14.45,14.45,0,0,0-.23,4.13c0,.69.17,2,.44,3.85s.41,3.27.45,4.18a33.23,33.23,0,0,1,0,3.89,13,13,0,0,1-.56,3.08,6.15,6.15,0,0,1-1.28,2.35A5.9,5.9,0,0,1,347,181.1a9.58,9.58,0,0,1-3.26.64,41.14,41.14,0,0,1-5-.33q-3.74-.37-5.58-.36a17.41,17.41,0,0,0-2.79.4,10.35,10.35,0,0,0-2,.67,4.64,4.64,0,0,0-1.37,1,7.36,7.36,0,0,0-.95,1.34,12.47,12.47,0,0,0-.78,1.74,1.31,1.31,0,0,1-.81.8.92.92,0,0,1-.94-.2,1.08,1.08,0,0,1-.35-1A52.72,52.72,0,0,0,323.55,178.28Zm5.16-5.15a3,3,0,0,0,2.12.82,2.92,2.92,0,0,0,1.81-.64,3.59,3.59,0,0,0,1.1-1.69,10.45,10.45,0,0,0,.5-2.49,27,27,0,0,0,0-3.28,7.23,7.23,0,0,0-.41-2.36,1.12,1.12,0,0,0-1.16-.76,8.1,8.1,0,0,0-1.32.21,11.36,11.36,0,0,1-1.62.22c-.52,0-1.14,0-1.86,0s-1.23,0-1.51,0a.91.91,0,0,0-.84.4,2.65,2.65,0,0,0-.17,1.32,13.09,13.09,0,0,0,.51,3,16.32,16.32,0,0,0,1.12,3A7.06,7.06,0,0,0,328.71,173.13Z"/><path d="M348.59,205.11l-.12.51c-.42,1.87-1.22,2.68-2.39,2.41a7.27,7.27,0,0,1-2.46-1.11,1.77,1.77,0,0,0-1-.33q-.4,0-.42.51a1.38,1.38,0,0,0,.47,1,13.19,13.19,0,0,1,3,5.81,16.59,16.59,0,0,1-.13,7.56,9.16,9.16,0,0,1-1,2.63,7.26,7.26,0,0,1-1.68,2,5.36,5.36,0,0,1-2.45,1.11,7.63,7.63,0,0,1-3.17-.11,30.66,30.66,0,0,1-4.63-1.82,36.47,36.47,0,0,0-6-2.2,19.25,19.25,0,0,0-2.88-.37,9.86,9.86,0,0,0-2.12.1,4.43,4.43,0,0,0-1.63.65,6.93,6.93,0,0,0-1.3,1.05,16.31,16.31,0,0,0-1.23,1.49,1.25,1.25,0,0,1-1,.56.9.9,0,0,1-.85-.44,1.09,1.09,0,0,1-.09-1,50.43,50.43,0,0,0,2.25-7.22,46.48,46.48,0,0,0,.88-6.69,1.07,1.07,0,0,1,.51-.89.94.94,0,0,1,1,0,1.25,1.25,0,0,1,.65.93,11.77,11.77,0,0,0,.51,1.84,5.63,5.63,0,0,0,.88,1.45,4.82,4.82,0,0,0,1.59,1.23,10.85,10.85,0,0,0,2.46.83h0a42.14,42.14,0,0,1,5.36,1.55c1.67.62,3.06,1.16,4.16,1.65a14.55,14.55,0,0,0,2.45.9,3.08,3.08,0,0,0,2.6-.4,4.32,4.32,0,0,0,1.47-2.64,8.25,8.25,0,0,0-.08-3.62,12.62,12.62,0,0,0-1.61-3.81,12.05,12.05,0,0,0-3.28-3.34,13,13,0,0,0-4.78-2.09l-1-.23a20.81,20.81,0,0,0-4.83-.63,5.79,5.79,0,0,0-2.85.63,6.85,6.85,0,0,0-2,1.94,1.28,1.28,0,0,1-1,.56,1,1,0,0,1-.86-.44,1.12,1.12,0,0,1-.08-1,45.31,45.31,0,0,0,2.07-6.42A51,51,0,0,0,323,191.6a1.11,1.11,0,0,1,.52-.9.92.92,0,0,1,1,0,1.29,1.29,0,0,1,.65.93,14.22,14.22,0,0,0,.49,1.94,7,7,0,0,0,.79,1.53,4.78,4.78,0,0,0,1.32,1.33,11.52,11.52,0,0,0,2.08,1,21.47,21.47,0,0,0,3.07.89l6.14,1.38a23,23,0,0,0,3.16.51,10.77,10.77,0,0,0,2.31,0,4.58,4.58,0,0,0,1.77-.63,6.52,6.52,0,0,0,1.36-1.05,13,13,0,0,0,1.27-1.54,1.26,1.26,0,0,1,1-.56.92.92,0,0,1,.86.44,1.06,1.06,0,0,1,.08,1A52.07,52.07,0,0,0,348.59,205.11Z"/><path d="M311.68,233.73a1.47,1.47,0,0,1,.92-2.16,7.18,7.18,0,0,1,1-.29,6.54,6.54,0,0,0,1.27-.41,8.14,8.14,0,0,0,1.08-.56,4.34,4.34,0,0,1,.9-.47,1.54,1.54,0,0,1,2.17.92q.08.18.18.51c.07.21.16.48.25.81s.18.61.25.83a6.33,6.33,0,0,0,.59,1.22,9.76,9.76,0,0,1,.49.88,1.49,1.49,0,0,1-.91,2.16,7.77,7.77,0,0,1-1,.29,11.39,11.39,0,0,0-1.24.37,8.26,8.26,0,0,0-1.11.54,6.11,6.11,0,0,1-.91.47,1.52,1.52,0,0,1-2.17-.91,6.34,6.34,0,0,1-.31-1c-.13-.48-.24-.86-.33-1.13a8.06,8.06,0,0,0-.61-1.21C311.89,234.13,311.73,233.84,311.68,233.73Z"/><path d="M298,287.31l-8-7.16q-5-4.45-.6-10.64,2.71-3.86,5-4.6t5.57,1.2l11.9,7a5.76,5.76,0,0,0,2.91,1.05,2.34,2.34,0,0,0,1.79-1.11,2.2,2.2,0,0,0,.22-2.4,12.87,12.87,0,0,0-3.26-3.36L304.64,260c-1.9-1.54-2.9-3.18-3-4.92s.66-3.8,2.34-6.18c1.46-2.08,3-3.28,4.75-3.62s3.75.17,6.14,1.53l8.59,4.87a19.48,19.48,0,0,0,2.91,1.38,10.69,10.69,0,0,0,2.26.59,4.88,4.88,0,0,0,2-.17,8.48,8.48,0,0,0,1.77-.7,18.51,18.51,0,0,0,1.89-1.21,1.06,1.06,0,0,1,1-.12,1.08,1.08,0,0,1,.4,1.84,80.22,80.22,0,0,0-5.76,7.19c-.51.73-1.18,1.84-2,3.33a33.74,33.74,0,0,1-2,3.34,1.08,1.08,0,0,1-1,.54,1.12,1.12,0,0,1-.91-.56,1.49,1.49,0,0,1-.15-1.25,5.66,5.66,0,0,0-.25-4.26,11.9,11.9,0,0,0-3.84-3.76l-9.1-6.25a4.26,4.26,0,0,0-2.64-1,3,3,0,0,0-2,1.46c-1.21,1.73-.85,3.37,1.1,4.93l10,8q3.39,2.7,4,5.41c.37,1.8-.27,3.89-1.93,6.24s-3.32,3.76-4.93,4.14-3.56-.09-5.84-1.42l-12.28-7.22a4.55,4.55,0,0,0-2.79-.85,3,3,0,0,0-1.91,1.4,2.74,2.74,0,0,0-.54,2.36,4.82,4.82,0,0,0,2,2.38l8.09,5.83a21.91,21.91,0,0,0,4.18,2.47,5.13,5.13,0,0,0,2.85.46,4.88,4.88,0,0,0,2.32-1.28,1.18,1.18,0,0,1,1.14-.31,1.24,1.24,0,0,1,.89.74,1.19,1.19,0,0,1-.2,1.22,28.8,28.8,0,0,1-2.24,2.7,28.35,28.35,0,0,0-2.23,2.68,23.33,23.33,0,0,0-1.53,2.66,34.52,34.52,0,0,1-1.8,3.11,1.35,1.35,0,0,1-.76.62,1,1,0,0,1-.78-.06,1.22,1.22,0,0,1-.52-.61,1.34,1.34,0,0,1-.05-.95,11.82,11.82,0,0,0,.35-2.26,5.62,5.62,0,0,0-.36-2,7.59,7.59,0,0,0-1.41-2.34A26.54,26.54,0,0,0,298,287.31Z"/><path d="M275.93,283.61a1.46,1.46,0,0,1,1.73-1.59,6.16,6.16,0,0,1,1,.15,6.83,6.83,0,0,0,1.32.15,7,7,0,0,0,1.23-.06,4.34,4.34,0,0,1,1-.05c1.1.13,1.63.7,1.59,1.73,0,.14,0,.32-.05.54s-.06.51-.11.85-.09.62-.12.86a6.29,6.29,0,0,0,0,1.35,7.93,7.93,0,0,1,.08,1,1.5,1.5,0,0,1-1.73,1.59,8.19,8.19,0,0,1-1-.15,9.58,9.58,0,0,0-1.27-.18,7.79,7.79,0,0,0-1.24,0,6.26,6.26,0,0,1-1,.05,1.53,1.53,0,0,1-1.59-1.73,6.87,6.87,0,0,1,.14-1c.09-.49.14-.88.17-1.17a8.39,8.39,0,0,0-.06-1.35A7.87,7.87,0,0,1,275.93,283.61Z"/><path d="M279.61,315.67l-.42.28a3.88,3.88,0,0,1-2,.82,1.53,1.53,0,0,1-1.36-.7,8.7,8.7,0,0,1-1.39-3,1.72,1.72,0,0,0-.53-.94.46.46,0,0,0-.66.08,1.4,1.4,0,0,0-.32,1,26.85,26.85,0,0,1-.25,3.17,16.51,16.51,0,0,1-.75,2.92,10.09,10.09,0,0,1-1.56,2.78,11.37,11.37,0,0,1-2.53,2.33,2.44,2.44,0,0,1-2.14.5,3.94,3.94,0,0,1-1.88-1.66,5.15,5.15,0,0,1-1-2.35,1.48,1.48,0,0,1,.54-1.42,10.89,10.89,0,0,1,1.36-.68,11.62,11.62,0,0,0,1.77-1,8.57,8.57,0,0,0,2.28-12.58l-1.16-1.7a19.82,19.82,0,0,0-2-2.49,10,10,0,0,0-1.76-1.47A4.7,4.7,0,0,0,262,299a9.16,9.16,0,0,0-1.85-.07,21.9,21.9,0,0,0-2.2.32,1.25,1.25,0,0,1-1.1-.26.93.93,0,0,1-.33-.9,1.09,1.09,0,0,1,.64-.81,55.07,55.07,0,0,0,7.1-4.13,51.05,51.05,0,0,0,5.9-4.77,1.07,1.07,0,0,1,1-.31,1,1,0,0,1,.73.64,1.25,1.25,0,0,1-.16,1.12,13.63,13.63,0,0,0-1,1.76,6.82,6.82,0,0,0-.47,1.65,4.72,4.72,0,0,0,.07,1.87,11.35,11.35,0,0,0,.82,2.17,21.87,21.87,0,0,0,1.64,2.74l4.22,6.17a17.08,17.08,0,0,0,1.77,2.06,8.81,8.81,0,0,0,1.57,1.25,4.67,4.67,0,0,0,1.6.59,7.58,7.58,0,0,0,1.62.1c.5,0,1.12-.12,1.86-.25a1.26,1.26,0,0,1,1.11.26.94.94,0,0,1,.33.91,1.12,1.12,0,0,1-.64.81A50.4,50.4,0,0,0,279.61,315.67Z"/><path d="M231.61,318.27a1,1,0,0,0,1.32.6,4.78,4.78,0,0,0,1.21-.95,27.12,27.12,0,0,1,2.19-1.81,11.27,11.27,0,0,1,2.81-1.55,10.23,10.23,0,0,1,2.73-.66,7.66,7.66,0,0,1,2.54.15,4.8,4.8,0,0,1,2.19,1.18,6.08,6.08,0,0,1,1.51,2.36,11,11,0,0,1,.38,2.9,11.69,11.69,0,0,0,.58,3.45q1.89,5,6.84,5.32a1.2,1.2,0,0,1,1,.52,1,1,0,0,1,.1,1,1.1,1.1,0,0,1-.8.63,52.37,52.37,0,0,0-6.92,1.95l-.66.25a4.38,4.38,0,0,1-3.1.29,3.43,3.43,0,0,1-1.69-2.43L242.57,327a10.13,10.13,0,0,1-.41-2.82,21,21,0,0,1,.13-2.32,3.43,3.43,0,0,0-.11-1.53,2.08,2.08,0,0,0-1.47-1.35,4.22,4.22,0,0,0-2.61.29,9.62,9.62,0,0,0-2,1.19,9.87,9.87,0,0,1-2,1.19,3.74,3.74,0,0,1-3.33-.07,4.41,4.41,0,0,1-2.2-4.4,4,4,0,0,1,.89-1.95,10.33,10.33,0,0,1,1.73-1.7,19.7,19.7,0,0,1,2.45-1.6,21.26,21.26,0,0,0,3-2,4.37,4.37,0,0,0,1.25-1.42,1.45,1.45,0,0,0,0-1.12,1.51,1.51,0,0,0-1.17-1,7.65,7.65,0,0,0-3,.37c-1.4.37-3.43,1-6.09,2.06s-4.49,2-5.38,3a3,3,0,0,0-.66,3.27,7,7,0,0,0,1.43,2.14,21.21,21.21,0,0,0,2.13,2,19.6,19.6,0,0,1,2.3,2.28,11,11,0,0,1,1.83,2.8l2.14,4.78q2.14,4.85,2.86,6.75a2.71,2.71,0,0,1,0,2.42,5.1,5.1,0,0,1-2.48,1.67,53.78,53.78,0,0,0-6.88,3.25,1.06,1.06,0,0,1-1,.06.9.9,0,0,1-.55-.78,1.23,1.23,0,0,1,.42-1.06,13.56,13.56,0,0,0,1.35-1.48,7,7,0,0,0,.85-1.49,4.76,4.76,0,0,0,.37-1.84,11.08,11.08,0,0,0-.28-2.29,22.22,22.22,0,0,0-.94-3.06l-1.81-4.79a9.18,9.18,0,0,0-1.51-2.58,14.79,14.79,0,0,0-1.94-2,15.79,15.79,0,0,1-1.92-1.92,8.24,8.24,0,0,1-1.43-2.37q-1.55-4.11,1.6-8t11.41-7a41,41,0,0,1,6.31-1.9,13.69,13.69,0,0,1,4.45-.27,5.82,5.82,0,0,1,2.8,1.09,5,5,0,0,1,1.58,2.25q1.86,4.92-9.12,10.56C232.54,315.92,231.21,317.23,231.61,318.27Z"/><path d="M187,320.5h0a2.85,2.85,0,0,1,1.68.16,1.3,1.3,0,0,1,.56,1,4,4,0,0,1-.1,1.18,4.19,4.19,0,0,0-.13.91.5.5,0,0,0,.25.42.57.57,0,0,0,.51,0,1.19,1.19,0,0,0,.54-.51,8,8,0,0,1,1.18-1.44,15,15,0,0,1,1.88-1.5,11.6,11.6,0,0,1,2.91-1.39,17.61,17.61,0,0,1,3.84-.82,20,20,0,0,1,3.31-.1,9.3,9.3,0,0,1,2.53.46,7.47,7.47,0,0,1,1.83.93A4.54,4.54,0,0,1,209,321.2a8.12,8.12,0,0,1,.76,1.71,10.91,10.91,0,0,1,.39,2q.39,3.75-1.93,5.73t-8.14,2.58q-6,.63-8.7-.71a.92.92,0,0,0-1.1,0c-.3.24-.27.62.1,1.13a11.06,11.06,0,0,1,2,5.28c0,.22,0,.56.07,1s.05.79.07,1a4.34,4.34,0,0,0,1.08,2.94,3.77,3.77,0,0,0,2.85.53,8.28,8.28,0,0,0,3.1-.88,7.34,7.34,0,0,0,2.27-2.11,23,23,0,0,0,3.12-5.88c.29-.85.75-1.31,1.39-1.39a.89.89,0,0,1,1,.5,1.21,1.21,0,0,1,.13.67,21.91,21.91,0,0,0,0,3.88q.36,3.36,2.2,4.65a1.52,1.52,0,0,1,.58,1,1.12,1.12,0,0,1-.42,1,1.38,1.38,0,0,1-1.25.29,14.29,14.29,0,0,0-4.13,0c-.68.07-2,.29-3.82.66s-3.24.61-4.15.7a33.92,33.92,0,0,1-3.88.22,13.51,13.51,0,0,1-3.11-.38,6.33,6.33,0,0,1-2.42-1.14,6,6,0,0,1-1.59-2.1,9.7,9.7,0,0,1-.84-3.21,43.66,43.66,0,0,1,0-5,53.2,53.2,0,0,0,0-5.6,18.32,18.32,0,0,0-.56-2.76,9.75,9.75,0,0,0-.79-1.91,4.35,4.35,0,0,0-1.12-1.3,7.78,7.78,0,0,0-1.39-.88,14,14,0,0,0-1.79-.68,1.28,1.28,0,0,1-.85-.76.93.93,0,0,1,.15-1,1.11,1.11,0,0,1,.95-.41A52,52,0,0,0,187,320.5Zm5.45,4.85a3,3,0,0,0,0,3.94,3.68,3.68,0,0,0,1.75,1,10.15,10.15,0,0,0,2.52.35,26.5,26.5,0,0,0,3.27-.16,7.09,7.09,0,0,0,2.33-.55,1.12,1.12,0,0,0,.7-1.2,9.5,9.5,0,0,0-.28-1.3,9.83,9.83,0,0,1-.32-1.62c0-.51-.1-1.13-.13-1.85s-.07-1.22-.1-1.5a.93.93,0,0,0-.45-.82,2.58,2.58,0,0,0-1.33-.09,13.46,13.46,0,0,0-3,.68,16.14,16.14,0,0,0-2.89,1.29A7.1,7.1,0,0,0,192.4,325.35Z"/><path d="M161.66,347.08l-.52-.08c-1.89-.31-2.74-1.06-2.54-2.24a6.86,6.86,0,0,1,1-2.53,1.77,1.77,0,0,0,.27-1.05.47.47,0,0,0-.53-.4,1.43,1.43,0,0,0-1,.53,13.05,13.05,0,0,1-5.62,3.34,16.65,16.65,0,0,1-7.55.32,9.21,9.21,0,0,1-2.69-.84,7.37,7.37,0,0,1-2.1-1.56,5.25,5.25,0,0,1-1.26-2.38,7.77,7.77,0,0,1-.08-3.17,31,31,0,0,1,1.55-4.73,35.87,35.87,0,0,0,1.83-6.1,19.91,19.91,0,0,0,.21-2.89,9.6,9.6,0,0,0-.23-2.12,4.49,4.49,0,0,0-.74-1.58,7.2,7.2,0,0,0-1.13-1.24,16,16,0,0,0-1.56-1.14,1.28,1.28,0,0,1-.62-1,.93.93,0,0,1,.39-.88,1.07,1.07,0,0,1,1-.15,51.25,51.25,0,0,0,7.34,1.82,46,46,0,0,0,6.73.48,1.09,1.09,0,0,1,.93.46.94.94,0,0,1,.08,1,1.24,1.24,0,0,1-.89.7,12.37,12.37,0,0,0-1.8.62,5.52,5.52,0,0,0-1.4,1,4.69,4.69,0,0,0-1.13,1.65,10.47,10.47,0,0,0-.69,2.52v0a44.17,44.17,0,0,1-1.24,5.43c-.51,1.71-1,3.12-1.39,4.26a14.3,14.3,0,0,0-.76,2.5,3.07,3.07,0,0,0,.56,2.57,4.24,4.24,0,0,0,2.72,1.3,8,8,0,0,0,3.61-.29,12.4,12.4,0,0,0,3.7-1.83,11.94,11.94,0,0,0,3.14-3.47,13,13,0,0,0,1.81-4.89l.17-1a21.5,21.5,0,0,0,.34-4.86,5.9,5.9,0,0,0-.8-2.81,6.92,6.92,0,0,0-2.05-1.89,1.28,1.28,0,0,1-.62-.95.93.93,0,0,1,.39-.88,1.07,1.07,0,0,1,1-.14,47.11,47.11,0,0,0,6.53,1.68,52.14,52.14,0,0,0,7.56.61,1.12,1.12,0,0,1,.93.46.94.94,0,0,1,.08,1,1.25,1.25,0,0,1-.89.71,14.5,14.5,0,0,0-1.9.6,7.34,7.34,0,0,0-1.49.88,4.9,4.9,0,0,0-1.24,1.4,11.55,11.55,0,0,0-.9,2.13,22.92,22.92,0,0,0-.71,3.12l-1,6.22a22.75,22.75,0,0,0-.32,3.18,11,11,0,0,0,.18,2.3,4.83,4.83,0,0,0,.73,1.73,7,7,0,0,0,1.13,1.3,13.52,13.52,0,0,0,1.62,1.18,1.29,1.29,0,0,1,.62.95.93.93,0,0,1-.39.88,1,1,0,0,1-1,.14A52.48,52.48,0,0,0,161.66,347.08Z"/><path d="M100.36,289.75q6,1,14.08,5.47,2.43,1.33,4.42,2.62c1.33.85,2.61,1.76,3.86,2.72a29.52,29.52,0,0,1,3.24,2.9,22.77,22.77,0,0,1,2.51,3.11,14.87,14.87,0,0,1,1.74,3.38,16,16,0,0,1,.83,3.69,15.69,15.69,0,0,1-.12,4.09,24.33,24.33,0,0,1-1.19,4.5,34.92,34.92,0,0,1-2.29,5,32.33,32.33,0,0,1-3.87,5.64,20.38,20.38,0,0,1-4.16,3.72,14.36,14.36,0,0,1-4.54,1.94,17.56,17.56,0,0,1-4.82.46,23.26,23.26,0,0,1-5.19-.91,42.34,42.34,0,0,1-5.48-2c-1.8-.79-3.74-1.77-5.85-2.94s-3.94-2.25-5.57-3.32a47.87,47.87,0,0,1-4.63-3.44,26.67,26.67,0,0,1-3.64-3.67,18.43,18.43,0,0,1-2.36-4,12.45,12.45,0,0,1-1-4.37,15.81,15.81,0,0,1,.58-4.82,24,24,0,0,1,2.23-5.4,32.64,32.64,0,0,1,2.82-4.34,19.84,19.84,0,0,1,2.82-3,11.33,11.33,0,0,1,2.89-1.8,9.77,9.77,0,0,1,2.92-.78,10.63,10.63,0,0,1,3,.16,15.92,15.92,0,0,1,3,.88,27.65,27.65,0,0,1,3.15,1.51,18.67,18.67,0,0,1,4.39,3.05c.82.88,1,1.69.61,2.44a11.2,11.2,0,0,1-1.58,2.08q-.65.69-.33,1.17c.21.31.6.35,1.16.1a13.74,13.74,0,0,1,12.71.49,8.89,8.89,0,0,1,2.19,1.66,7.18,7.18,0,0,1,1.39,2.13,5.28,5.28,0,0,1,.34,2.63,7.69,7.69,0,0,1-1,3,11.53,11.53,0,0,1-2.19,2.53,11,11,0,0,0-2.16,2.45,12.16,12.16,0,0,0-1.05,3.13,11.27,11.27,0,0,1-.89,2.86,4.69,4.69,0,0,1-3.09,2.3,9.79,9.79,0,0,1-4.68-.08,21.16,21.16,0,0,1-5.28-2.11q-1.86-1-4.74-2.94c-1.92-1.27-3.29-2.14-4.11-2.59l-.59-.33a35.22,35.22,0,0,0-4.6-2.08,1.13,1.13,0,0,1-.72-.74,1,1,0,0,1,.24-.94,1.31,1.31,0,0,1,1.08-.37,3.36,3.36,0,0,0,2.74-1.16,26.42,26.42,0,0,0,3.34-5.07l3.33-6.05a6.91,6.91,0,0,0,1.14-3.86,3.44,3.44,0,0,0-2-2.54,3.33,3.33,0,0,0-1.5-.45,3.56,3.56,0,0,0-1.73.46,7.66,7.66,0,0,0-2,1.57,23.73,23.73,0,0,0-2.43,3.05c-.9,1.3-1.87,2.89-2.9,4.75a25.71,25.71,0,0,0-2,4.42,14.87,14.87,0,0,0-.74,3.85,9,9,0,0,0,.48,3.42,11.73,11.73,0,0,0,1.56,3.05,16.6,16.6,0,0,0,2.67,2.87,34.26,34.26,0,0,0,3.64,2.74c1.31.85,2.84,1.77,4.61,2.74s3.39,1.79,4.85,2.43a30.14,30.14,0,0,0,4.36,1.52,14.53,14.53,0,0,0,4,.52,12.58,12.58,0,0,0,3.64-.65,10.91,10.91,0,0,0,3.45-1.91,20.4,20.4,0,0,0,3.24-3.35,36.39,36.39,0,0,0,3.18-4.89,37.37,37.37,0,0,0,2.47-5.34,21.25,21.25,0,0,0,1.13-4.57,11.08,11.08,0,0,0-.22-4,12.46,12.46,0,0,0-1.38-3.45,14.24,14.24,0,0,0-2.57-3.12,28.86,28.86,0,0,0-3.61-2.88c-1.32-.89-2.86-1.83-4.64-2.81a62.78,62.78,0,0,0-12.67-5.2c-1.75-.51-2.56-1.19-2.43-2S98.84,289.5,100.36,289.75Zm13.37,23a3.13,3.13,0,0,0,.37-2.56,3.9,3.9,0,0,0-2-2.07,6.66,6.66,0,0,0-2.44-.76,9.29,9.29,0,0,0-3,.12,12.23,12.23,0,0,0-3.07,1,11.41,11.41,0,0,0-2.94,2.11,13.13,13.13,0,0,0-2.43,3.19l-.27.47a16,16,0,0,0-1.4,3.16,4,4,0,0,0-.06,2.3,3.84,3.84,0,0,0,1.14,1.74,13.17,13.17,0,0,0,2.4,1.6q4.62,2.55,6.53-.93a19.54,19.54,0,0,0,.83-2,20.52,20.52,0,0,1,1.12-2.48,5.88,5.88,0,0,1,1.6-1.79c.71-.56,1.41-1.09,2.1-1.61A5.25,5.25,0,0,0,113.73,312.76Z"/><path d="M73.65,282.72A10.85,10.85,0,0,1,75.26,285a7.87,7.87,0,0,1,.78,2.42,4.8,4.8,0,0,1-.31,2.47,6.22,6.22,0,0,1-1.65,2.27,6.69,6.69,0,0,1-2,1.06,6.75,6.75,0,0,0-2,1,8.82,8.82,0,0,0-1.53,2,8.57,8.57,0,0,1-1.35,1.84,4.8,4.8,0,0,1-3.77,1.2,9.93,9.93,0,0,1-4.51-1.62,21.31,21.31,0,0,1-4.39-3.78q-1.56-1.73-3.88-4.74T47.27,285l-.45-.5a51.08,51.08,0,0,0-5.52-5.23,1.08,1.08,0,0,1-.43-.94.91.91,0,0,1,.53-.8,1.27,1.27,0,0,1,1.14,0,13.44,13.44,0,0,0,1.86.72,6.83,6.83,0,0,0,1.71.25A4.7,4.7,0,0,0,48,278.2a11,11,0,0,0,2-1.1,22.27,22.27,0,0,0,2.5-2l3.81-3.43a8.82,8.82,0,0,0,1.85-2.34,13.68,13.68,0,0,0,1.15-2.53,15.74,15.74,0,0,1,1.1-2.49,8.07,8.07,0,0,1,1.69-2.19q3.25-2.92,8-1.4t10.64,8.1A41.26,41.26,0,0,1,84.79,274a13.46,13.46,0,0,1,1.87,4.05,5.87,5.87,0,0,1,0,3,5.15,5.15,0,0,1-1.53,2.29q-3.9,3.51-13.14-4.67-3.85-3.4-5.1-2.28a1,1,0,0,0-.36.72,1.06,1.06,0,0,0,.28.74,6.9,6.9,0,0,0,1.43.9A29.46,29.46,0,0,1,71,280.41,14.43,14.43,0,0,1,73.65,282.72Zm-4.74.73a11.6,11.6,0,0,0-2.18-1.7,11.64,11.64,0,0,1-2-1.54,4.93,4.93,0,0,1-1.08-1.79,3.47,3.47,0,0,1-.13-1.7,4.72,4.72,0,0,1,.51-1.41,4.51,4.51,0,0,1,.9-1.09,4,4,0,0,1,4.07-.93,10.77,10.77,0,0,1,2.2,1A19.61,19.61,0,0,1,73.56,276a21.22,21.22,0,0,0,2.93,2.06,4.17,4.17,0,0,0,1.78.66,1.46,1.46,0,0,0,1-.39,1.54,1.54,0,0,0,.53-1.46,7.69,7.69,0,0,0-1.43-2.62,64.05,64.05,0,0,0-4.12-4.93q-2.89-3.22-4.73-3.94a3,3,0,0,0-3.29.58,5.58,5.58,0,0,0-1.17,1.61,19.93,19.93,0,0,0-.94,2.15c-.27.76-.55,1.53-.85,2.31a14.29,14.29,0,0,1-1.18,2.39,8.79,8.79,0,0,1-1.68,2.06l-4,3.59a19.26,19.26,0,0,0-2.32,2.41,7.33,7.33,0,0,0-1.17,2,3.18,3.18,0,0,0-.09,1.93,6.25,6.25,0,0,0,.85,1.92,18.62,18.62,0,0,0,1.72,2.18c2.45,2.72,4.7,3.15,6.78,1.28.16-.14.51-.5,1-1.05s1-1,1.34-1.32a5.32,5.32,0,0,1,2.47-1,5.19,5.19,0,0,0,2.31-.84,2.08,2.08,0,0,0,.72-1.86A4.28,4.28,0,0,0,68.91,283.45Z"/><path d="M25,245.84a1.66,1.66,0,0,1-1.71-.32,5.53,5.53,0,0,1-1.58-2.33l-.1-.24a5.52,5.52,0,0,1-.55-2.77,1.66,1.66,0,0,1,1-1.43,3.79,3.79,0,0,1,.74-.21,4.11,4.11,0,0,1,.71-.07h1.67a1.68,1.68,0,0,0,1-.33.46.46,0,0,0,.05-.66,1.38,1.38,0,0,0-.94-.52,12.78,12.78,0,0,1-5.78-3,16.67,16.67,0,0,1-4.27-6.25,9.33,9.33,0,0,1-.71-2.74,7.48,7.48,0,0,1,.2-2.59,5.25,5.25,0,0,1,1.35-2.33,7.8,7.8,0,0,1,2.65-1.75,31.6,31.6,0,0,1,4.84-1.18,35.72,35.72,0,0,0,6.16-1.68,19.24,19.24,0,0,0,2.56-1.35A9.62,9.62,0,0,0,34,212.8a4.45,4.45,0,0,0,1-1.47,7.52,7.52,0,0,0,.45-1.61,14.09,14.09,0,0,0,.14-1.93,1.29,1.29,0,0,1,.48-1,.93.93,0,0,1,1-.13,1.05,1.05,0,0,1,.66.79A51.9,51.9,0,0,0,40,214.61a47.09,47.09,0,0,0,3.15,6,1.07,1.07,0,0,1,.1,1,.93.93,0,0,1-.77.59,1.3,1.3,0,0,1-1.07-.39,11.84,11.84,0,0,0-1.48-1.2,5.57,5.57,0,0,0-1.56-.68,4.71,4.71,0,0,0-2-.09,10.61,10.61,0,0,0-2.5.75h0a43,43,0,0,1-5.27,1.83c-1.73.47-3.18.82-4.36,1.06a16.34,16.34,0,0,0-2.53.68A3.06,3.06,0,0,0,19.83,226a4.22,4.22,0,0,0,.33,3,7.88,7.88,0,0,0,1.57,2.37,10.09,10.09,0,0,0,2.57,2,13.74,13.74,0,0,0,3.27,1.28,12,12,0,0,0,3.85.27,13.25,13.25,0,0,0,4.12-1l1-.39a21.27,21.27,0,0,0,4.31-2.28,6,6,0,0,0,2-2.16,6.85,6.85,0,0,0,.52-2.74,1.27,1.27,0,0,1,.48-1,.93.93,0,0,1,1-.14,1.11,1.11,0,0,1,.66.79,37.06,37.06,0,0,0,5.17,12.4,1.1,1.1,0,0,1,.1,1,.92.92,0,0,1-.77.58,1.26,1.26,0,0,1-1.07-.38A7,7,0,0,0,46.5,238a6,6,0,0,0-2.92-.12,20.45,20.45,0,0,0-4.64,1.46l-.95.39a13.6,13.6,0,0,0-3.63,2.22,11.7,11.7,0,0,0-2.51,2.93,13.85,13.85,0,0,0-1.4,3.22,10.41,10.41,0,0,0-.41,3.21,8,8,0,0,0,.58,2.78,4.32,4.32,0,0,0,1.9,2.35,3.06,3.06,0,0,0,2.61-.05,14.44,14.44,0,0,0,2.26-1.31c1-.67,2.28-1.45,3.83-2.35a41.69,41.69,0,0,1,5-2.46h0A11.1,11.1,0,0,0,48.53,249a4.81,4.81,0,0,0,1.35-1.49,5.19,5.19,0,0,0,.61-1.58,10.75,10.75,0,0,0,.19-1.9,1.26,1.26,0,0,1,.48-1,.93.93,0,0,1,1-.14,1.11,1.11,0,0,1,.66.79,46.73,46.73,0,0,0,2,6.44,51.21,51.21,0,0,0,3.48,6.74,1.09,1.09,0,0,1,.09,1,.93.93,0,0,1-.76.58,1.26,1.26,0,0,1-1.07-.38A15.31,15.31,0,0,0,55,256.75a6.76,6.76,0,0,0-1.49-.8,4.75,4.75,0,0,0-1.8-.32,10.67,10.67,0,0,0-2.21.32,21.09,21.09,0,0,0-2.92,1,39.16,39.16,0,0,0-5.25,3.1,28.86,28.86,0,0,1-4.13,2.52,7.87,7.87,0,0,1-3.1.66,5.16,5.16,0,0,1-2.6-.68,7.42,7.42,0,0,1-2-1.68,9.31,9.31,0,0,1-1.45-2.42A16.86,16.86,0,0,1,26.65,251a12.71,12.71,0,0,1,1.94-6.21,1.44,1.44,0,0,0,.29-1.05c-.07-.3-.23-.44-.51-.42a1.71,1.71,0,0,0-1,.5l-.71.74a8.88,8.88,0,0,1-.89.84A3.21,3.21,0,0,1,25,245.84Z"/><path d="M36.11,178.94v0a2.87,2.87,0,0,1-.22,1.67,1.3,1.3,0,0,1-1.06.52,4.2,4.2,0,0,1-1.18-.14,3.59,3.59,0,0,0-.9-.16.51.51,0,0,0-.43.23.58.58,0,0,0,0,.52,1.2,1.2,0,0,0,.49.55,7.44,7.44,0,0,1,1.39,1.23,14.22,14.22,0,0,1,1.44,1.93,11.69,11.69,0,0,1,1.29,3,18.15,18.15,0,0,1,.68,3.86,20.21,20.21,0,0,1,0,3.32A9.25,9.25,0,0,1,37,198a7.43,7.43,0,0,1-1,1.79A4.58,4.58,0,0,1,34.62,201a8,8,0,0,1-1.73.7,10.6,10.6,0,0,1-2,.31,6.18,6.18,0,0,1-5.66-2.13q-1.89-2.4-2.3-8.22-.41-6,1-8.68a.93.93,0,0,0,0-1.1q-.35-.45-1.14.06a11,11,0,0,1-5.34,1.82c-.23,0-.57,0-1,0s-.78,0-1,0a4.38,4.38,0,0,0-3,1,3.79,3.79,0,0,0-.63,2.83,8.12,8.12,0,0,0,.78,3.13,7.15,7.15,0,0,0,2,2.34,22.9,22.9,0,0,0,5.77,3.33c.83.32,1.28.8,1.34,1.44a.89.89,0,0,1-.54,1,1.22,1.22,0,0,1-.67.11,21.67,21.67,0,0,0-3.88-.16c-2.25.16-3.83.84-4.72,2a1.6,1.6,0,0,1-1,.55,1.14,1.14,0,0,1-1-.46,1.37,1.37,0,0,1-.24-1.26,14.54,14.54,0,0,0,.13-4.13c0-.68-.22-2-.53-3.84s-.48-3.26-.55-4.17a35.37,35.37,0,0,1-.08-3.89,13.76,13.76,0,0,1,.5-3.09,6,6,0,0,1,1.22-2.38,6.11,6.11,0,0,1,2.15-1.52,9.57,9.57,0,0,1,3.24-.71,40.74,40.74,0,0,1,5,.21,54.77,54.77,0,0,0,5.6.24,16.53,16.53,0,0,0,2.77-.47,9.5,9.5,0,0,0,1.94-.71,4.41,4.41,0,0,0,1.35-1.08,8.24,8.24,0,0,0,.93-1.36,15.63,15.63,0,0,0,.74-1.76,1.3,1.3,0,0,1,.78-.82.91.91,0,0,1,1,.18,1.06,1.06,0,0,1,.37,1A52.8,52.8,0,0,0,36.11,178.94Zm-5.05,5.27a3,3,0,0,0-3.93-.1,3.71,3.71,0,0,0-1.06,1.71,10.32,10.32,0,0,0-.44,2.51,26.45,26.45,0,0,0,.05,3.28,7.07,7.07,0,0,0,.47,2.34,1.1,1.1,0,0,0,1.17.74,9.58,9.58,0,0,0,1.31-.23,9.31,9.31,0,0,1,1.63-.26c.51,0,1.13-.06,1.86-.07s1.22,0,1.5,0a.94.94,0,0,0,.83-.42,2.68,2.68,0,0,0,.14-1.33,13.67,13.67,0,0,0-.57-3,17.53,17.53,0,0,0-1.19-2.94A7.13,7.13,0,0,0,31.06,184.21Z"/><path d="M6.43,153.51q-.78,5.72-3.91,5.3A2.56,2.56,0,0,1,.37,157a9.08,9.08,0,0,1-.22-4.38q.8-5.85,3.93-5.42T6.43,153.51Zm30.75,11.72a1.11,1.11,0,0,1-.44.94.93.93,0,0,1-1,.11,1.25,1.25,0,0,1-.73-.87,13.37,13.37,0,0,0-.66-1.89,7.11,7.11,0,0,0-.91-1.46,4.91,4.91,0,0,0-1.44-1.2A10.72,10.72,0,0,0,29.9,160a23.1,23.1,0,0,0-3.14-.63l-6.24-.84a21.68,21.68,0,0,0-3.19-.23,10.55,10.55,0,0,0-2.3.24,4.91,4.91,0,0,0-1.71.77,7.23,7.23,0,0,0-1.27,1.17,13.84,13.84,0,0,0-1.13,1.65,1.25,1.25,0,0,1-.93.64,1,1,0,0,1-.9-.36,1.11,1.11,0,0,1-.17-1A51.45,51.45,0,0,0,10.54,154a51.07,51.07,0,0,0,.41-7.57,1.1,1.1,0,0,1,.43-.94.94.94,0,0,1,1-.11,1.28,1.28,0,0,1,.73.87,13.37,13.37,0,0,0,.66,1.89,6.7,6.7,0,0,0,.91,1.46,4.67,4.67,0,0,0,1.44,1.2,10.48,10.48,0,0,0,2.15.84,23.1,23.1,0,0,0,3.14.63l6.24.84a21.59,21.59,0,0,0,3.19.23,10.62,10.62,0,0,0,2.3-.24,4.71,4.71,0,0,0,1.7-.78,6.25,6.25,0,0,0,1.27-1.16,12.67,12.67,0,0,0,1.14-1.65,1.25,1.25,0,0,1,.93-.64,1,1,0,0,1,.9.36,1.1,1.1,0,0,1,.16,1,52.72,52.72,0,0,0-1.61,7.41A51.07,51.07,0,0,0,37.18,165.23Z"/><path d="M40.56,143.91a1.06,1.06,0,0,1-.57.86.94.94,0,0,1-1,0,1.28,1.28,0,0,1-.59-1,13.07,13.07,0,0,0-.36-2,7,7,0,0,0-.68-1.58,4.73,4.73,0,0,0-1.24-1.4,10.81,10.81,0,0,0-2-1.16,20.78,20.78,0,0,0-3-1.09l-14.09-4.16a23.82,23.82,0,0,0-3.12-.71,11.27,11.27,0,0,0-2.31-.11,4.66,4.66,0,0,0-1.8.51,6.85,6.85,0,0,0-1.43,1A13.38,13.38,0,0,0,7,134.51a1.27,1.27,0,0,1-1,.5.94.94,0,0,1-.83-.49,1.12,1.12,0,0,1,0-1,51.4,51.4,0,0,0,2.72-7.07A52.08,52.08,0,0,0,9.42,119a1.13,1.13,0,0,1,.58-.86.92.92,0,0,1,1,0,1.31,1.31,0,0,1,.59,1,14.29,14.29,0,0,0,.36,2,6.85,6.85,0,0,0,.68,1.58,4.78,4.78,0,0,0,1.24,1.41,10.81,10.81,0,0,0,2,1.16,22.55,22.55,0,0,0,3,1.09l14.1,4.15a21.14,21.14,0,0,0,3.11.71,10.68,10.68,0,0,0,2.31.12,5,5,0,0,0,1.81-.51,7.13,7.13,0,0,0,1.43-1A14.7,14.7,0,0,0,43,128.38a1.26,1.26,0,0,1,1-.5,1,1,0,0,1,.83.5,1.07,1.07,0,0,1,0,1,47.19,47.19,0,0,0-4.27,14.5Z"/><path d="M48,120a1.47,1.47,0,0,1-.91,2.16,8.56,8.56,0,0,1-1,.28,8.65,8.65,0,0,0-1.27.41,8.4,8.4,0,0,0-1.08.57,4.68,4.68,0,0,1-.9.46A1.54,1.54,0,0,1,40.7,123q-.08-.19-.18-.51c-.07-.21-.15-.48-.25-.81s-.18-.61-.25-.83a5.48,5.48,0,0,0-.58-1.22,7.63,7.63,0,0,1-.49-.88,1.51,1.51,0,0,1,.91-2.17c.17-.06.5-.16,1-.28a9.52,9.52,0,0,0,1.24-.37,6.77,6.77,0,0,0,1.11-.54,7.33,7.33,0,0,1,.91-.47,1.52,1.52,0,0,1,2.17.92,6,6,0,0,1,.31,1,11.45,11.45,0,0,0,.33,1.13,7.56,7.56,0,0,0,.61,1.2A7.44,7.44,0,0,1,48,120Z"/><path d="M56.65,98.07A8.35,8.35,0,0,0,58,92.69a10.22,10.22,0,0,0-2.29-5.29,1.76,1.76,0,0,1-.41-1.55,1.22,1.22,0,0,1,.88-1,1.28,1.28,0,0,1,1.29.43c2.35,2.43,3.62,4.89,3.83,7.37s-.63,5.23-2.49,8.22a31.06,31.06,0,0,1-1.95,2.81,19.87,19.87,0,0,1-2.18,2.33,12.42,12.42,0,0,1-2.45,1.76,11,11,0,0,1-2.79,1,10.2,10.2,0,0,1-3.18.14,15.14,15.14,0,0,1-3.6-.92A23.28,23.28,0,0,1,38.53,106a21.64,21.64,0,0,1-3.5-2.66,13.4,13.4,0,0,1-2.28-2.74,9.53,9.53,0,0,1-1.17-2.85,10.46,10.46,0,0,1-.27-2.91,12.84,12.84,0,0,1,.55-3,21.7,21.7,0,0,1,1.17-3,32.78,32.78,0,0,1,1.68-3c.47-.76,1.27-1.88,2.38-3.36s1.84-2.52,2.2-3.09A13.32,13.32,0,0,0,40.94,76a1.27,1.27,0,0,1,.73-.93,1,1,0,0,1,1,0,1.41,1.41,0,0,1,.59.87q.3,2,3.51,4a22.91,22.91,0,0,0,3.61,1.79.93.93,0,0,1,.63,1,1.06,1.06,0,0,1-.85,1,1.73,1.73,0,0,1-1,0,15.53,15.53,0,0,0-6.48-.27,7.25,7.25,0,0,0-3,1.27,9.71,9.71,0,0,0-2.26,2.63,9.4,9.4,0,0,0-1.07,2.25,5.28,5.28,0,0,0-.2,2.15A4.78,4.78,0,0,0,37,94a12.65,12.65,0,0,0,2.18,2.34A29.22,29.22,0,0,0,42.79,99a26.81,26.81,0,0,0,5.05,2.55,7.65,7.65,0,0,0,3.78.49,5.7,5.7,0,0,0,2.76-1.22A11.26,11.26,0,0,0,56.65,98.07Z"/><path d="M59.22,75.11a22.87,22.87,0,0,1-3-3.72,13,13,0,0,1-1.66-3.87,9.61,9.61,0,0,1-.11-4.1,13.26,13.26,0,0,1,1.77-4.35,27.66,27.66,0,0,1,8.64-8.45A12.83,12.83,0,0,1,69.26,49a10,10,0,0,1,4.1.2,12.67,12.67,0,0,1,3.82,1.74A22.94,22.94,0,0,1,80.82,54a23.18,23.18,0,0,1,3,3.69,12.33,12.33,0,0,1,1.64,3.85,9.78,9.78,0,0,1,.12,4.1A13.09,13.09,0,0,1,83.8,70a24.53,24.53,0,0,1-3.86,4.72,24.09,24.09,0,0,1-4.78,3.73,13.39,13.39,0,0,1-4.39,1.68,9.78,9.78,0,0,1-4.1-.21,13,13,0,0,1-3.82-1.73A23.05,23.05,0,0,1,59.22,75.11ZM77.57,57.17a1.43,1.43,0,0,0-1.14-.46,3.22,3.22,0,0,0-1.31.36l-1.34.61a3,3,0,0,1-1.41.26,1.94,1.94,0,0,1-1.32-.65,7.19,7.19,0,0,1-.86-1.15,8.62,8.62,0,0,0-.78-1.07A3.57,3.57,0,0,0,66.14,54,7.87,7.87,0,0,0,62,56.4a7.92,7.92,0,0,0-2.51,4,3.59,3.59,0,0,0,1,3.29,7.27,7.27,0,0,0,1,.81,8.31,8.31,0,0,1,1.12.89,1.93,1.93,0,0,1,.6,1.37A3.3,3.3,0,0,1,63,68.25c-.24.48-.49,1-.75,1.42a3.69,3.69,0,0,0-.46,1.38,1.44,1.44,0,0,0,1.56,1.59,3.79,3.79,0,0,0,1.38-.43c.48-.25,1-.49,1.44-.71a3.22,3.22,0,0,1,1.47-.33,1.92,1.92,0,0,1,1.34.61,8.9,8.9,0,0,1,.86,1.14A7.53,7.53,0,0,0,70.61,74a3.57,3.57,0,0,0,3.27,1.1A7.83,7.83,0,0,0,78,72.67a7.88,7.88,0,0,0,2.52-4,3.59,3.59,0,0,0-1-3.29,8.2,8.2,0,0,0-1-.81,7.2,7.2,0,0,1-1.13-.88,2,2,0,0,1-.61-1.33,3.26,3.26,0,0,1,.29-1.4c.21-.44.42-.89.65-1.32A3.38,3.38,0,0,0,78,58.3,1.37,1.37,0,0,0,77.57,57.17Z"/><path d="M103,26a1.67,1.67,0,0,1,.23-1.73,5.49,5.49,0,0,1,2.25-1.69l.22-.11a5.57,5.57,0,0,1,2.74-.7,1.65,1.65,0,0,1,1.49.91,3.29,3.29,0,0,1,.24.73,3.55,3.55,0,0,1,.11.7c0,.2,0,.48,0,.85s0,.64,0,.82a1.77,1.77,0,0,0,.38,1,.46.46,0,0,0,.66,0,1.41,1.41,0,0,0,.48-1,12.71,12.71,0,0,1,2.68-5.92,16.87,16.87,0,0,1,6-4.6,9.52,9.52,0,0,1,2.69-.85,7.61,7.61,0,0,1,2.61.07,5.13,5.13,0,0,1,2.39,1.23,7.77,7.77,0,0,1,1.88,2.55A31.16,31.16,0,0,1,131.58,23a36.6,36.6,0,0,0,2,6.07,20.43,20.43,0,0,0,1.49,2.49,9.61,9.61,0,0,0,1.4,1.59,4.26,4.26,0,0,0,1.51.88,6.87,6.87,0,0,0,1.64.37,14.47,14.47,0,0,0,1.93,0,1.28,1.28,0,0,1,1.05.43,1,1,0,0,1,.19,1,1.12,1.12,0,0,1-.76.7A49.84,49.84,0,0,0,135,39.27a46.13,46.13,0,0,0-5.79,3.46,1.12,1.12,0,0,1-1,.15.94.94,0,0,1-.63-.74,1.28,1.28,0,0,1,.33-1.08A12.32,12.32,0,0,0,129,39.51a5.42,5.42,0,0,0,.59-1.59,4.66,4.66,0,0,0,0-2,10.61,10.61,0,0,0-.87-2.46v0a42.2,42.2,0,0,1-2.1-5.17c-.56-1.7-1-3.13-1.3-4.3a14.52,14.52,0,0,0-.81-2.48,3,3,0,0,0-1.92-1.77,4.28,4.28,0,0,0-3,.49,7.75,7.75,0,0,0-2.28,1.69,10,10,0,0,0-1.83,2.67,13.71,13.71,0,0,0-1.1,3.33,11.79,11.79,0,0,0-.07,3.86,13.33,13.33,0,0,0,1.23,4.07l.45.92a20.51,20.51,0,0,0,2.49,4.18,6,6,0,0,0,2.26,1.85,6.89,6.89,0,0,0,2.77.37,1.28,1.28,0,0,1,1,.43,1,1,0,0,1,.19,1,1.1,1.1,0,0,1-.76.7,46.38,46.38,0,0,0-6.32,2.36A47.36,47.36,0,0,0,111.85,51a1.09,1.09,0,0,1-1,.16,1,1,0,0,1-.63-.74,1.31,1.31,0,0,1,.33-1.09A6.81,6.81,0,0,0,112,47a6,6,0,0,0,0-2.92,21.25,21.25,0,0,0-1.7-4.56l-.45-.93a13.1,13.1,0,0,0-2.4-3.5,11.73,11.73,0,0,0-3-2.36,13.38,13.38,0,0,0-3.29-1.22,10.31,10.31,0,0,0-3.23-.25,8.07,8.07,0,0,0-2.75.73,4.26,4.26,0,0,0-2.24,2,3,3,0,0,0,.18,2.6,13.89,13.89,0,0,0,1.43,2.19q1.08,1.45,2.54,3.69a42.7,42.7,0,0,1,2.73,4.88v0a10.24,10.24,0,0,0,1.37,2.22,4.8,4.8,0,0,0,1.55,1.27,5.44,5.44,0,0,0,1.62.52,10.77,10.77,0,0,0,1.9.09,1.27,1.27,0,0,1,1,.43.91.91,0,0,1,.19.94,1.09,1.09,0,0,1-.76.71,47,47,0,0,0-6.32,2.35,51.23,51.23,0,0,0-6.54,3.83,1.14,1.14,0,0,1-1,.15,1,1,0,0,1-.62-.74,1.27,1.27,0,0,1,.33-1.09,15.07,15.07,0,0,0,1.2-1.57A6.37,6.37,0,0,0,94.38,55a4.78,4.78,0,0,0,.23-1.81A10.84,10.84,0,0,0,94.17,51a20.32,20.32,0,0,0-1.12-2.87A39,39,0,0,0,89.68,43,29.63,29.63,0,0,1,87,39,7.79,7.79,0,0,1,86.13,36a5.22,5.22,0,0,1,.54-2.64,7.5,7.5,0,0,1,1.58-2.07,9.3,9.3,0,0,1,2.34-1.57A16.77,16.77,0,0,1,98,27.84a12.83,12.83,0,0,1,6.3,1.61,1.39,1.39,0,0,0,1.06.23.44.44,0,0,0,.39-.53,1.72,1.72,0,0,0-.55-.93l-.78-.67a10.81,10.81,0,0,1-.88-.84A3.23,3.23,0,0,1,103,26Z"/></g><circle id="copied" class="cls-1" cx="175.56" cy="179.76" r="52.24"/><path d="M212,77.76,213.16,79l1.42.55,2.67-.61,2.94-1.32.44,1-2.94,1.32-2.68.61-2.83-1.09-2.3-2.5-.07-4.09,2.07-3.28L214.11,68l2.94-1.31,3.38-.34,2.13.81,3,2.78.17,1.69-2,.88L222.36,72l.81-2.14-.88-2-1.42-.54-4.63,1.49-3,3.71-.82,2.13Z"/><path d="M222.39,82.89l.07-3.4,4.15-3,4.43-.24,2.33,2.09-.08,3.4-4.15,3-4.42.24-1.35-.71Zm4.85-4.31-2.76,2-.4,2.37,1.35.71,3.08-1,2.77-2,.39-2.37-1.34-.71Z"/><path d="M242.11,84l-.87,1.24,2.11-.38,2.31.68.81,1.49-1.11,2.93-3.42,2.25-4.85.33-2.5-1.74.68-2.3-6.4,3.88,2.5,1.73-.44.63-5.61-3.91.43-.62,1.25.87,13.42-7.33-.62-.43-5.29,1-.19-1.06,5.29-1,2.3.68Zm-2.8,2.68-2.55,1-.43.63L236.08,90l1.25.87,3.17-.57,3-1.63.68-2.3-1.68-.25Z"/><path d="M251.39,91.16l2.23.91.65,1.57-.49.58L245.36,97l.58.5,5.35-.4.08,1.08-5.36.39-1.64-.41-1.15-1-.08-1.07.49-.57,8.42-2.78-.58-.5-5.36.4L246,91.56Zm4.29-.32.5-.57,1.57-.66.57.5.66,1.57-.5.57-1.57.66-.57-.5Z"/><path d="M258.19,104l-2.64-2.73.55-.53,1.58,1.64,1.61.56,1.63-1.58-1.05-1.1-3.23,0-3.24,1-1.11,2.13,1.06,1.1,4.3.07,0,1.07-4.3-.07-1.6-.56-1.06-1.09-.51-1.63,1.66-2.66,4.86-1.53L261,99.22l1.57,2.71-.57,1.6-1.09,1.06Z"/><path d="M260.85,114.31l1.2-.92-3.19-.42-.93-1.21-.32-1.67,1.94-2.45,3.94-1.11,4.73,1.16,1.25,2.87-.74,1.53,6.81-2.36-1.39-1.81.6-.46,3.24,4.21-15.61,3.38.46.61,5.33.69-.14,1.07-5.33-.7-1.53-.74-.46-.6Zm2.41-1.85,3.8,0,.6-.46.74-1.53-.92-1.2-3.2-.42-3.34.65-1.34,2,.46.6Z"/><path d="M265.39,120.67l.64-.41,1.69-.18.41.65.18,1.68-.64.41L266,123l-.41-.64Zm15.85-2-.24,1-11.18.84-.41-.64,10-2.76,1.05.23Z"/><path d="M273.44,133.39l-.07,1.69.62,1.39,2.32,1.46,3,1.14-.39,1-3-1.15-2.32-1.45-1.25-2.78.15-3.39,2.84-2.95,3.78-.86,2.7.45,3,1.15,2.64,2.15.93,2.08.17,4.09-1.08,1.32-2-.77-.63-1.39,2.08-.93.77-2-.63-1.39L282.76,130l-4.78.48-2.08.94Z"/><path d="M277.17,144.36l2.45-2.35,5,.83,3.31,3,.17,3.12-2.46,2.36-5-.84-3.3-2.95-.45-1.46Zm6.48.38-3.35-.56-2,1.4.45,1.46,2.85,1.5,3.36.56,1.95-1.4-.45-1.46Z"/><path d="M290.34,159l-1.49.27,1.76,1.22,1.15,2.12-.48,1.63-2.85,1.28-4-.82-3.67-3.21-.54-3,2.11-1.15-7.27-1.79.54,3-.75.13L273.63,152l.75-.14.27,1.5,14.68,4.32-.14-.75-4.41-3.07.61-.88,4.42,3.07,1.15,2.1Zm-3.87-.08L284,157.87l-.75.13-1.37,1,.27,1.49,2.65,1.85,3.26,1,2.11-1.16-1-1.36Z"/><path d="M291.83,170.72l.93,2.22-.65,1.57-.76.06-7.91-4,.06.76,4.06,3.51-.7.82-4.07-3.51-.87-1.47-.11-1.51.71-.82.75,0,7.92,4-.06-.76L287.06,168l.71-.81Zm3.26,2.81.76-.05,1.57.64.05.76-.64,1.57-.76.06-1.57-.65-.06-.76Z"/><path d="M287.55,184.6l.07-3.79h.76l0,2.28.74,1.53,2.27,0,0-1.51-2.24-2.32-3-1.57-2.29.73,0,1.51,3,3.09-.77.75-3-3.09-.73-1.53,0-1.52.79-1.51,3.05-.71,4.52,2.35,2.22,3.84-.81,3-1.53.73-1.52,0Z"/><path d="M282.15,193.76l1.51.2-2-2.56.2-1.5.95-1.41,3.11-.36,3.57,2,2.53,4.16-1.15,2.91-1.61.56,6.5,3.15.29-2.26.75.09-.68,5.28-13.44-8.65-.1.75,3.28,4.26L285,201l-3.28-4.26-.56-1.61.1-.75Zm3,.4,2.72,2.65.75.1,1.61-.56.19-1.51-2-2.55-2.82-1.9-2.36.46-.1.75Z"/><path d="M280.87,201.49l.74.16,1.32,1.07-.16.75-1.07,1.32-.74-.17-1.32-1.07.16-.74Zm12.63,9.79-.91.58-8.5-7.32.16-.75,9,5.1.58.9Z"/><path d="M277.58,216.15l-1.26,1.15-.54,1.42.61,2.67,1.32,2.94-1,.44-1.32-2.94-.61-2.67,1.08-2.84,2.51-2.3,4.09-.07,3.28,2.06,1.59,2.23,1.32,2.94.34,3.39-.81,2.13-2.77,3-1.69.17-.88-2,.54-1.42,2.13.81,2-.88L288,225l-1.49-4.64-3.72-3-2.13-.81Z"/><path d="M272.45,226.53l3.4.07,3,4.14.24,4.43L277,237.5l-3.4-.07-3-4.15-.25-4.42.71-1.34Zm4.32,4.85-2-2.76-2.37-.39-.71,1.34,1,3.08,2,2.76,2.37.39.71-1.34Z"/><path d="M271.37,246.25l-1.25-.87.38,2.12-.67,2.3-1.5.82-2.93-1.12-2.25-3.41-.32-4.86,1.73-2.49,2.31.67L263,233l-1.74,2.5-.62-.44,3.91-5.61.62.44-.87,1.24,7.33,13.43.43-.63-.95-5.29,1.06-.18.95,5.28-.68,2.31Zm-2.68-2.79-1-2.55-.62-.44-1.68-.24-.87,1.25.57,3.17,1.63,3,2.3.68.25-1.68Z"/><path d="M264.18,255.56l-.91,2.22-1.57.65-.57-.49-2.78-8.42-.5.58.4,5.36-1.07.08-.4-5.36.42-1.65,1-1.15,1.07-.08.58.5,2.77,8.41.5-.57-.4-5.36,1.08-.08Zm.32,4.28.58.5.65,1.57-.5.58-1.56.65-.58-.5-.65-1.57.49-.57Z"/><path d="M251.36,262.35l2.73-2.65.53.55L253,261.83l-.56,1.61,1.59,1.64L255.1,264l.05-3.23-1-3.24L252,256.44l-1.09,1.06-.07,4.3h-1.07l.06-4.3.56-1.61,1.1-1.06,1.62-.51,2.66,1.66,1.54,4.86-1.14,4.28-2.72,1.57-1.6-.56L250.78,265Z"/><path d="M241.05,265l.93,1.2.42-3.2,1.2-.92,1.67-.33,2.45,1.95,1.11,3.94-1.15,4.72-2.88,1.26-1.53-.75,2.37,6.82,1.8-1.39.47.6-4.22,3.24-3.38-15.61-.6.46-.7,5.33-1.06-.14.69-5.33.74-1.53.61-.46Zm1.85,2.41,0,3.8.46.6,1.53.74,1.21-.93.41-3.19-.64-3.34-2-1.34-.6.46Z"/><path d="M234.68,269.57l.41.64.18,1.69-.64.41-1.69.18-.41-.65-.18-1.69.64-.41Zm2,15.85-1-.23-.84-11.2.64-.4,2.76,10L238,284.6Z"/><path d="M222,277.62l-1.7-.07-1.39.62-1.46,2.32-1.14,3-1-.38,1.15-3,1.46-2.32,2.77-1.25,3.4.14,2.94,2.85.86,3.78-.45,2.7-1.15,3-2.15,2.63-2.08.94-4.09.17-1.31-1.08.76-2,1.39-.62.93,2.08,2,.77,1.39-.63,2.22-4.33-.48-4.78-.93-2.08Z"/><path d="M211,281.34l2.35,2.46-.83,5-3,3.3-3.13.17-2.35-2.45.83-5,3-3.3,1.45-.45Zm-.38,6.48.55-3.35-1.4-2-1.45.45-1.51,2.85-.55,3.35,1.4,2,1.45-.45Z"/><path d="M196.32,294.53l-.27-1.5-1.23,1.77L192.71,296l-1.63-.48-1.28-2.86.82-4,3.21-3.66,3-.54,1.15,2.11,1.79-7.27-3,.54-.13-.75,6.73-1.21.14.75-1.5.27-4.32,14.67.75-.13L201.5,289l.88.61L199.31,294l-2.11,1.16Zm.08-3.88,1.09-2.51-.13-.75-1-1.36-1.5.27L193,289l-1,3.26,1.15,2.11,1.37-1Z"/><path d="M181.86,299.28l.06.76-.65,1.57-.76.06-1.57-.65-.05-.76.64-1.57.76-.05Zm2.81-3.25-2.22.92-1.57-.64-.06-.76,4-7.92-.76.06-3.51,4.07-.81-.7,3.51-4.07,1.46-.88,1.51-.11.82.7.05.76-4,7.92.76-.06,3.5-4.07.82.7Z"/><path d="M170.8,291.75l3.8.07,0,.75-2.27,0-1.54.73,0,2.28,1.52,0,2.31-2.25,1.57-3-.72-2.29-1.52,0-3.09,3-.75-.77,3.09-3,1.53-.74,1.52,0,1.51.78.71,3.06-2.35,4.52-3.84,2.22-3-.81-.74-1.53,0-1.52Z"/><path d="M161.62,286.36l-.2,1.51,2.56-2,1.5.19,1.41,1,.37,3.11-2,3.58-4.16,2.52-2.92-1.14-.55-1.6L154.49,300l2.26.29-.1.75-5.28-.68L160,286.92l-.75-.1L155,290.1l-.66-.85L158.6,286l1.61-.56.75.1Zm-.39,3-2.65,2.73-.1.75.56,1.61,1.5.19,2.56-2,1.9-2.82-.46-2.36-.76-.1Z"/><path d="M144.11,297.71l-.58-.9,7.32-8.51.74.16-5.09,9-.9.58Zm9.78-12.63-.16.74-1.07,1.32-.74-.16-1.33-1.07.17-.74,1.07-1.32.74.16Z"/><path d="M139.23,281.8l-1.15-1.25-1.42-.55-2.67.62-2.94,1.32-.44-1,2.94-1.32,2.67-.62,2.84,1.08,2.3,2.5.07,4.1L139.37,290l-2.23,1.59-2.94,1.32-3.38.34-2.13-.81-3-2.77-.17-1.69,2-.88,1.42.54-.81,2.13.88,2,1.42.54,4.63-1.49,3-3.72.81-2.13Z"/><path d="M128.83,276.67l-.08,3.4-4.14,3-4.42.25-2.34-2.1.08-3.39,4.14-3,4.43-.24,1.34.71ZM124,281l2.76-2,.39-2.37-1.34-.71-3.08.95-2.77,2-.39,2.37,1.35.71Z"/><path d="M109.12,275.61l.87-1.25-2.12.38-2.3-.67-.82-1.49,1.11-2.93,3.42-2.26,4.85-.33,2.5,1.73L116,271.1l6.4-3.89-2.5-1.73.44-.62,5.62,3.9-.44.62-1.25-.87-13.42,7.34.63.44,5.29-1,.19,1.06-5.29.95-2.31-.67Zm2.79-2.69,2.55-1,.43-.62.25-1.68-1.25-.87-3.18.58-3,1.63-.67,2.3,1.68.24Z"/><path d="M95.51,268.74l-.5.57-1.57.66-.57-.49-.66-1.57.5-.58,1.56-.66.58.5Zm4.28-.33-2.22-.91-.66-1.56.5-.58,8.41-2.79-.57-.49-5.36.4-.08-1.07,5.36-.41,1.64.42,1.16,1,.08,1.07-.5.58-8.41,2.79.57.49,5.36-.4.08,1.07Z"/><path d="M93,255.58l2.64,2.73-.54.53-1.59-1.64-1.6-.56-1.64,1.59,1.06,1.09,3.22.05,3.24-1,1.11-2.13-1.06-1.09-4.3-.06,0-1.08,4.3.07,1.6.56,1.06,1.09.51,1.62L99.38,260l-4.86,1.54-4.28-1.14-1.57-2.71.56-1.61L90.32,255Z"/><path d="M90.35,245.3l-1.21.93,3.2.41.93,1.2.32,1.67L91.65,252l-3.94,1.11L83,251.93l-1.26-2.87.74-1.53-6.81,2.37,1.4,1.81-.61.46L73.21,248l15.61-3.4-.47-.6L83,243.27l.14-1.07,5.33.69,1.53.74.46.61Zm-2.41,1.85-3.8.06-.6.46-.74,1.53.93,1.2,3.19.42,3.34-.66,1.34-2-.46-.6Z"/><path d="M69.93,241l.23-1,11.2-.85.4.64-10,2.77-1-.23Zm15.86-2-.64.41-1.69.17-.41-.63-.18-1.7.64-.4,1.69-.18.41.64Z"/><path d="M77.74,226.24l.06-1.7-.62-1.38-2.32-1.46-3-1.14.38-1,3,1.14,2.32,1.45,1.25,2.77-.14,3.4-2.84,2.94-3.77.87-2.71-.45-3-1.14-2.63-2.15-.94-2.08-.17-4.09,1.07-1.31,2,.76.62,1.38-2.07.94-.77,2,.63,1.39,4.33,2.21,4.78-.48,2.08-.94Z"/><path d="M74,215.27l-2.46,2.36-5-.83-3.3-3L63,210.72l2.45-2.35,5,.82,3.3,3,.45,1.45Zm-6.48-.37,3.35.55,1.95-1.4-.45-1.45-2.85-1.5-3.36-.55-2,1.4.45,1.45Z"/><path d="M60.8,200.57l1.49-.27-1.76-1.22L59.38,197l.47-1.63,2.86-1.29,4,.82,3.66,3.2.54,3-2.1,1.15L76.08,204l-.54-3,.75-.14,1.22,6.73-.75.14-.27-1.5-14.67-4.3.13.75,4.41,3.06-.61.89-4.41-3.07-1.15-2.11Zm3.87.08,2.51,1.09.75-.14,1.36-1L69,199.09l-2.64-1.84-3.26-1L61,197.45l1,1.36Z"/><path d="M56,186.11l-.75.06-1.58-.65-.05-.75.64-1.58.76-.05,1.57.64.06.76Zm3.26,2.81-.93-2.22.65-1.57.76-.06,7.92,4-.06-.76-4.07-3.5.7-.82,4.07,3.51.87,1.46.12,1.51-.7.82-.76,0-7.92-4,.05.76,4.08,3.51-.7.81Z"/><path d="M63.56,175l-.06,3.8-.76,0,0-2.27L62,175l-2.28,0,0,1.52L62,178.81l3,1.57,2.29-.72,0-1.52-3-3.09.77-.75,3,3.09.73,1.53,0,1.52L68,182l-3.05.71-4.52-2.35-2.22-3.84.81-3,1.53-.74,1.52,0Z"/><path d="M69,165.86l-1.51-.2,2,2.56-.19,1.5-1,1.41-3.11.37-3.58-2-2.53-4.16,1.15-2.92,1.6-.56-6.49-3.13L55,161l-.76-.1.68-5.28,13.45,8.63.1-.75-3.29-4.26.85-.65,3.29,4.25.56,1.61-.1.75Zm-3-.39-2.73-2.65-.75-.1-1.61.56-.19,1.51,2,2.55,2.82,1.9,2.36-.47.1-.75Z"/><path d="M57.58,148.38l.91-.58L67,155.11l-.16.74-9-5.08-.58-.9Zm12.64,9.77-.74-.16-1.32-1.07.16-.75,1.07-1.32.74.17,1.32,1.06-.16.74Z"/><path d="M73.51,143.47l1.25-1.16.54-1.42-.61-2.67-1.32-2.94,1-.44,1.32,2.94.61,2.67-1.08,2.84-2.5,2.31-4.09.07-3.28-2.06-1.59-2.23-1.33-2.94-.34-3.38.81-2.14,2.77-3,1.69-.17.88,2-.54,1.42-2.13-.81-2,.88-.54,1.43,1.49,4.63,3.73,3,2.13.81Z"/><path d="M78.63,133.06l-3.4-.07-3-4.15L72,124.41l2.09-2.33,3.4.07,3,4.15.24,4.43L80,132.07Zm-4.31-4.85,2,2.76,2.37.39.71-1.34-1-3.09-2-2.76-2.37-.39-.71,1.34Z"/><path d="M79.68,113.35l1.25.87-.38-2.12.68-2.3,1.49-.82,2.93,1.11,2.25,3.42.34,4.85-1.74,2.5-2.3-.68,3.88,6.4,1.73-2.5.63.44-3.9,5.62-.63-.44.87-1.25L79.44,115l-.43.63L80,121l-1,.19-1-5.29.68-2.31Zm2.69,2.79,1,2.55.62.44,1.69.24.86-1.25L86,115l-1.63-3L82,111.29,81.8,113Z"/><path d="M86.53,99.77l-.58-.5L85.3,97.7l.49-.57,1.57-.66.58.5.65,1.56-.49.58Zm.32,4.28.91-2.22,1.57-.66.58.5,2.79,8.41.49-.58-.4-5.35,1.07-.08.4,5.35-.41,1.65-1,1.16-1.08.08-.57-.5-2.79-8.41-.5.57.41,5.36-1.07.08Z"/><path d="M99.69,97.24,97,99.89l-.53-.55,1.64-1.58.56-1.61L97,94.52,96,95.58l0,3.22,1,3.24,2.13,1.1,1.09-1.06.07-4.29h1.07l-.06,4.3-.57,1.6-1.08,1.06-1.62.52-2.67-1.65-1.54-4.86,1.14-4.28,2.71-1.58,1.61.57,1.05,1.09Z"/><path d="M110,94.57l-.93-1.2-.41,3.19-1.21.93-1.66.33-2.46-1.95-1.12-3.93,1.16-4.73L106.23,86l1.53.74-2.37-6.81-1.81,1.39-.46-.6,4.21-3.25L110.73,93l.6-.46.69-5.33,1.06.14-.68,5.32-.74,1.53-.61.47Zm-1.86-2.41,0-3.8-.46-.6L106.09,87l-1.2.93-.42,3.2.65,3.33,2,1.34.6-.46Z"/><path d="M114.3,74.17l1,.23.86,11.19-.64.41-2.78-10L113,75Zm2,15.84-.41-.63-.18-1.69.64-.41,1.69-.19.41.65.18,1.68-.64.41Z"/><path d="M129,82l1.7.07,1.38-.63,1.46-2.32,1.14-3,1,.38-1.14,3-1.45,2.32L130.36,83l-3.4-.13L124,80.05l-.87-3.78.44-2.7,1.14-3,2.15-2.63L129,67l4.09-.18,1.32,1.07-.77,2-1.38.62-.94-2.08-2-.76-1.38.63-2.22,4.33.49,4.78.94,2.08Z"/><path d="M140,78.21l-2.35-2.45.83-5,3-3.31,3.13-.17,2.35,2.45-.82,5-3,3.3-1.45.45Zm.38-6.48-.55,3.35,1.4,2,1.45-.45,1.5-2.85.55-3.35-1.4-2-1.45.45Z"/><path d="M154.68,65l.27,1.5,1.22-1.76,2.11-1.16,1.63.48,1.29,2.85-.82,4-3.19,3.67-3,.54L153,73l-1.77,7.28,3-.55.14.75-6.73,1.22-.14-.75,1.5-.27L153.32,66l-.75.14-3.06,4.41-.88-.61,3.06-4.41,2.1-1.16Zm-.07,3.88-1.09,2.51.13.75,1,1.36,1.5-.27L158,70.58l1-3.26-1.16-2.11-1.36,1Z"/><path d="M166.36,63.49l2.22-.92,1.57.64.06.76-4,7.92.75-.06,3.51-4.07.81.7-3.5,4.07-1.46.87-1.52.12-.81-.7-.06-.76,4-7.92-.76,0-3.5,4.08-.82-.7Zm2.8-3.25,0-.76.64-1.58.76,0,1.57.64.06.76-.64,1.57-.76.06Z"/><path d="M180.24,67.76l-3.8-.06v-.76l2.28,0,1.53-.74,0-2.28-1.52,0-2.32,2.24-1.57,3,.73,2.3,1.52,0,3.09-3,.74.77-3.09,3-1.53.74-1.52,0-1.5-.78-.72-3L175,64.64l3.83-2.22,3,.81.74,1.53,0,1.52Z"/><path d="M189.4,73.14l.19-1.5-2.55,2-1.51-.19-1.41-1-.36-3.11,2-3.57,4.16-2.53,2.91,1.14.56,1.6,3.14-6.49-2.26-.29.09-.75,5.28.67L191,72.58l.76.1L196,69.4l.66.85-4.26,3.28-1.6.56-.76-.1Zm.39-3,2.65-2.73.09-.75-.56-1.6-1.5-.2-2.56,2L186,69.64l.46,2.36.75.1Z"/><path d="M197.13,74.41l.16-.74,1.07-1.32.74.16,1.32,1.07-.16.74-1.07,1.32-.74-.16Zm9.76-12.64.58.91-7.3,8.51-.74-.16,5.08-9,.9-.58Z"/><path d="M201.25,107.86l.81.89,1,.38,1.89-.43,2.07-.93.31.69-2.07.93-1.89.43-2-.76-1.62-1.77,0-2.88,1.45-2.32,1.57-1.11,2.08-.93,2.38-.24,1.51.57,2.12,2,.11,1.19-1.38.62-1-.38.57-1.5-.62-1.39-1-.38-3.26,1-2.15,2.62-.57,1.5Z"/><path d="M208.55,111.47l.06-2.39,2.92-2.09,3.12-.17,1.64,1.47,0,2.4-2.92,2.09-3.12.17-.95-.5Zm3.43-3-1.95,1.4-.28,1.67.95.5,2.17-.67,1.95-1.39.27-1.68-.94-.5Z"/><path d="M222.46,112.25l-.61.88,1.49-.27,1.63.48.57,1-.78,2.06L222.35,118l-3.42.23L217.17,117l.48-1.62-4.51,2.73,1.76,1.22-.31.44-4-2.75.31-.44.88.61,9.46-5.16-.44-.3-3.73.67-.13-.75,3.73-.67,1.62.48Zm-2,1.89-1.8.71-.31.43-.17,1.19.88.61,2.24-.4,2.1-1.15.48-1.62-1.19-.17Z"/><path d="M229,117.3l1.57.65.46,1.1-.35.41-5.93,2,.41.35,3.78-.28.05.75-3.78.28-1.16-.29-.81-.7-.06-.75.35-.41,5.94-2-.41-.35-3.78.28,0-.76Zm3-.22.35-.41,1.1-.46.41.35.46,1.11-.35.4-1.11.46-.4-.35Z"/><path d="M233.8,126.35l-1.86-1.92.38-.38,1.12,1.16,1.13.4,1.16-1.12-.75-.77-2.27,0-2.29.72-.78,1.51.74.77,3,0,0,.75-3,0-1.13-.4-.75-.77-.36-1.15,1.17-1.87,3.43-1.08,3,.8,1.11,1.92-.4,1.13-.77.74Z"/><path d="M235.68,133.63l.85-.66-2.26-.29-.65-.85-.23-1.18,1.38-1.73,2.77-.78,3.33.82.89,2-.53,1.08L246,130.4l-1-1.28.42-.33,2.29,3-11,2.38.32.42,3.76.5-.1.75-3.75-.49-1.08-.53-.33-.42Zm1.7-1.31,2.68,0,.42-.33.52-1.08-.65-.85-2.25-.29-2.35.46-.95,1.4.32.43Z"/><path d="M238.88,138.11l.45-.29,1.19-.13.29.46.13,1.19-.45.29-1.2.12-.28-.45Zm11.18-1.42-.16.74L242,138l-.29-.45,7-1.95.74.17Z"/><path d="M244.55,147.07l-.05,1.2.44,1,1.64,1,2.12.81-.27.7-2.13-.8-1.63-1-.88-2,.1-2.39,2-2.08,2.66-.6,1.91.32,2.12.81,1.86,1.51.66,1.47.11,2.88-.76.93-1.41-.54-.44-1,1.47-.65.54-1.42-.44-1-3.05-1.57-3.37.34-1.47.66Z"/><path d="M247.18,154.81l1.73-1.66,3.55.59,2.32,2.08.12,2.21-1.73,1.66-3.54-.59L247.3,157l-.32-1Zm4.57.27-2.37-.39-1.37,1,.31,1,2,1.06,2.37.39,1.38-1-.32-1Z"/><path d="M256.47,165.15l-1.06.19,1.25.87.81,1.48-.34,1.15-2,.91-2.83-.58-2.58-2.26-.38-2.11,1.49-.81-5.13-1.26.38,2.11-.53.1-.85-4.75.53-.1.19,1.06,10.34,3-.09-.53-3.11-2.16.43-.62,3.11,2.16.81,1.49Zm-2.73-.05-1.78-.77-.52.09-1,.72.19,1.05,1.86,1.3,2.3.68,1.49-.81-.72-1Z"/><path d="M257.52,173.36l.65,1.57-.46,1.1-.53,0-5.58-2.8,0,.53,2.87,2.47-.49.58-2.87-2.48-.62-1-.08-1.07.5-.58.53,0,5.58,2.81,0-.53-2.87-2.47.5-.58Zm2.29,2,.53,0,1.11.46,0,.53L261,177.4l-.54,0-1.1-.46,0-.53Z"/><path d="M254.51,183.18l0-2.68h.54l0,1.61.52,1.08,1.61,0v-1.07l-1.58-1.63-2.12-1.11-1.62.51,0,1.07,2.11,2.18-.54.53-2.11-2.18-.52-1.08,0-1.07.55-1.07,2.15-.5,3.19,1.66,1.57,2.71-.57,2.13-1.09.52-1.07,0Z"/><path d="M250.7,189.61l1.06.14-1.39-1.8.14-1.06.67-1,2.19-.26,2.52,1.41,1.78,2.93-.81,2.05-1.13.4,4.57,2.21.21-1.59.53.07-.48,3.71-9.47-6.09-.07.54,2.31,3-.6.46-2.31-3-.39-1.13.07-.54Zm2.12.28,1.92,1.87.53.07,1.13-.4.14-1.06-1.39-1.8-2-1.34-1.67.33-.06.53Z"/><path d="M249.79,195.08l.52.11.94.76-.12.52-.75.93-.53-.12-.93-.75L249,196Zm8.9,6.9-.64.4-6-5.16.12-.52,6.33,3.59.41.64Z"/><path d="M247.47,205.39l-.88.81-.38,1,.43,1.89.93,2.07-.69.31L246,209.4l-.43-1.89.76-2,1.77-1.62,2.88,0,2.31,1.46,1.12,1.57.93,2.07.24,2.38-.57,1.5L253,215l-1.19.12-.62-1.39.38-1,1.5.57,1.38-.62.38-1-1.05-3.26-2.62-2.14-1.5-.58Z"/><path d="M243.86,212.73l2.39.05,2.09,2.92.17,3.12L247,220.46l-2.4-.05-2.09-2.92-.17-3.12.5-1Zm3,3.42-1.4-2-1.67-.28-.5,1L244,217l1.4,2,1.67.28.5-1Z"/><path d="M243.11,226.62l-.88-.61.27,1.49-.48,1.62-1.05.58-2.07-.78-1.59-2.41-.23-3.43,1.22-1.76,1.63.48-2.74-4.51L236,219.05l-.44-.31,2.75-4,.44.31-.61.88,5.17,9.46.31-.44-.68-3.73.75-.13.67,3.73-.48,1.62Zm-1.9-2-.71-1.8-.43-.3-1.19-.18-.61.88.4,2.24,1.15,2.11,1.63.47.17-1.18Z"/><path d="M238,233.19l-.64,1.57-1.11.46-.4-.35-2-5.93-.35.4.28,3.78-.76.06-.28-3.78.3-1.16.69-.82.76,0,.41.35,2,5.93.35-.41-.28-3.77.75-.06Zm.23,3,.4.35.46,1.11-.35.4-1.1.46-.41-.35-.46-1.1.35-.41Z"/><path d="M229,238l1.92-1.86.38.38-1.16,1.12-.39,1.13,1.12,1.16.76-.75,0-2.27-.72-2.29-1.51-.78-.77.75,0,3h-.76l0-3,.39-1.13.77-.75,1.14-.36,1.88,1.17,1.08,3.42-.8,3L230.46,241l-1.13-.4-.75-.77Z"/><path d="M221.73,239.84l.66.85.29-2.26.85-.65,1.18-.23,1.73,1.38.78,2.77L226.4,245l-2,.89-1.08-.53L225,250.2l1.28-1,.32.42-3,2.29-2.38-11-.42.32-.5,3.76-.75-.1.49-3.75.53-1.08.42-.33Zm1.31,1.7,0,2.68.33.42,1.07.52.85-.65.3-2.25-.46-2.36-1.4-.94-.43.32Z"/><path d="M217.26,243.05l.28.45.13,1.19-.45.29-1.19.12-.29-.45-.12-1.19.45-.29Zm1.42,11.16-.74-.16-.59-7.88.45-.29,1.95,7-.17.74Z"/><path d="M208.3,248.73l-1.2,0-1,.44-1,1.63-.8,2.13-.71-.27.8-2.13,1-1.63,2-.88,2.39.1,2.08,2,.61,2.66-.32,1.9-.8,2.13-1.52,1.85-1.46.66-2.88.12-.93-.75.54-1.42,1-.44.66,1.47,1.42.53,1-.44,1.56-3-.34-3.37-.66-1.46Z"/><path d="M200.57,251.36l1.66,1.73-.58,3.54L199.56,259l-2.2.12-1.66-1.73.59-3.54,2.08-2.33,1-.32Zm-.26,4.57.38-2.37-1-1.37-1,.31-1.06,2-.38,2.36,1,1.37,1-.31Z"/><path d="M190.2,260.66,190,259.6l-.87,1.25-1.49.81-1.15-.34-.9-2,.58-2.83,2.26-2.58,2.11-.38.81,1.49,1.26-5.13-2.11.38-.1-.53,4.75-.85.09.53-1.05.19-3,10.34.52-.09,2.17-3.11.62.43-2.17,3.11-1.48.81Zm.05-2.73.77-1.78-.09-.52-.72-1-1.05.19-1.3,1.86-.68,2.3.81,1.49,1-.72Z"/><path d="M180,264l0,.54-.46,1.11-.53,0-1.11-.46,0-.53.46-1.11.53,0Zm2-2.29-1.56.65-1.11-.45,0-.54,2.81-5.57-.53,0-2.47,2.86-.58-.49,2.47-2.87,1-.61,1.07-.08.57.49,0,.54-2.8,5.58.53,0,2.47-2.87.58.49Z"/><path d="M172.2,258.7l2.68.05v.53l-1.61,0-1.08.52,0,1.6,1.07,0,1.63-1.58,1.11-2.13-.51-1.61-1.07,0-2.18,2.11-.53-.55,2.18-2.1,1.08-.52H176l1.07.56.5,2.15-1.66,3.19-2.71,1.56-2.13-.57-.52-1.08,0-1.07Z"/><path d="M165.74,254.9,165.6,256l1.8-1.39,1.06.14,1,.67.26,2.19-1.41,2.52-2.93,1.78-2.06-.81-.39-1.13-2.21,4.57,1.59.21-.07.53-3.72-.48,6.09-9.47-.53-.07-3,2.31-.46-.6,3-2.31,1.13-.39.53.07Zm-.28,2.12-1.87,1.92-.07.53.39,1.13,1.07.14,1.8-1.39,1.33-2-.32-1.67-.53-.06Z"/><path d="M153.41,262.91l-.41-.64,5.15-6,.53.12-3.59,6.34-.63.41ZM160.3,254l-.12.52-.75.94-.52-.12-.93-.75.11-.52.75-.94.53.12Z"/><path d="M150,251.68l-.81-.88-1-.38-1.88.43-2.07.93-.32-.69,2.08-.93,1.88-.43,2,.76,1.62,1.76.05,2.88-1.45,2.32-1.57,1.12-2.08.93-2.38.24-1.5-.58-2.12-2-.12-1.19,1.38-.62,1,.38-.57,1.5.62,1.38,1,.39L147,258l2.14-2.62.57-1.5Z"/><path d="M142.62,248.07l-.05,2.39-2.93,2.09-3.12.17-1.64-1.47.05-2.4,2.93-2.09,3.11-.17.95.5Zm-3.42,3,1.94-1.39.28-1.67-.95-.5-2.17.67-2,1.39-.27,1.67.94.51Z"/><path d="M128.73,247.32l.61-.88-1.49.27-1.63-.48-.58-1,.79-2.07,2.41-1.58,3.42-.24,1.76,1.23-.48,1.62,4.52-2.74-1.76-1.22.3-.44,4,2.75-.3.44-.88-.61-9.47,5.17.44.31,3.73-.67.13.74-3.72.67-1.63-.47Zm2-1.89,1.8-.71.31-.44.17-1.19-.88-.61-2.24.4-2.1,1.15-.48,1.63,1.19.17Z"/><path d="M119.16,242.49l-.35.41-1.1.46-.41-.35-.46-1.1.35-.41,1.1-.46.41.35Zm3-.22-1.57-.64-.46-1.11.35-.4,5.93-2-.41-.35-3.77.29-.06-.76,3.77-.28,1.16.29.82.7,0,.75-.35.41-5.92,2,.4.35,3.78-.28.06.75Z"/><path d="M117.39,233.23l1.86,1.92-.38.37-1.12-1.15-1.13-.4-1.16,1.12.75.77,2.27,0,2.29-.72.78-1.5-.75-.77-3-.05v-.75l3,0,1.13.4.75.77.36,1.14-1.17,1.88-3.42,1.08-3-.8-1.11-1.92.4-1.13.77-.74Z"/><path d="M115.49,226l-.85.65,2.26.29.65.85.23,1.18-1.37,1.73-2.77.79-3.33-.82-.89-2,.52-1.08-4.8,1.67,1,1.28-.42.32-2.29-3,11-2.39-.32-.43-3.76-.48.1-.75,3.75.48,1.08.52.33.43Zm-1.69,1.31-2.68,0-.43.33-.52,1.08.66.85,2.25.29,2.35-.46.95-1.41-.33-.42Z"/><path d="M101.12,222.9l.16-.74,7.89-.59.29.45-7,1.95-.74-.16Zm11.17-1.42-.45.29-1.19.12-.29-.45-.13-1.19.45-.29,1.19-.13.29.46Z"/><path d="M106.61,212.52l0-1.19-.44-1-1.64-1-2.12-.8.26-.71,2.13.81,1.63,1,.88,2-.09,2.39-2,2.07-2.66.61-1.9-.31-2.13-.81L96.72,214l-.66-1.47-.12-2.88.75-.93,1.42.54.44,1-1.47.66-.53,1.41.44,1,3.05,1.56,3.37-.34,1.46-.66Z"/><path d="M104,204.79l-1.73,1.66-3.54-.58-2.33-2.08-.12-2.21L98,199.93l3.55.58,2.33,2.08.31,1Zm-4.57-.26,2.36.39,1.38-1-.32-1-2-1.06-2.36-.39-1.38,1,.32,1Z"/><path d="M94.67,194.46l1-.19-1.24-.87-.82-1.49.34-1.15,2-.9,2.82.58,2.59,2.25.38,2.11-1.49.81,5.13,1.26-.38-2.11.53-.1.85,4.75-.53.09-.19-1.05-10.35-3,.1.52,3.11,2.16-.43.63-3.11-2.16-.81-1.49Zm2.73,0,1.77.77.53-.1,1-.72-.19-1.05-1.87-1.3-2.3-.67-1.49.81.72,1Z"/><path d="M91.32,184.23l-.54,0-1.11-.45,0-.54.46-1.1.53,0,1.11.45,0,.53Zm2.29,2L93,184.65l.45-1.11.54,0,5.58,2.81,0-.54-2.87-2.47.49-.57L100,185.2l.61,1,.08,1.07-.49.57-.54,0-5.57-2.81,0,.54L97,188.11l-.49.57Z"/><path d="M96.61,176.43l0,2.68H96l0-1.61-.52-1.08-1.61,0v1.07l1.58,1.63,2.12,1.11,1.62-.51,0-1.08-2.11-2.17.54-.53,2.11,2.18.52,1.08,0,1.07-.55,1.06-2.15.5-3.19-1.65-1.57-2.71.57-2.13,1.08-.52h1.08Z"/><path d="M100.41,170l-1.06-.14,1.39,1.8-.14,1.06-.67,1-2.19.26-2.52-1.41-1.79-2.93.81-2.06,1.13-.39L90.79,165l-.21,1.59-.53-.07.48-3.72,9.49,6.09.06-.54-2.31-3,.6-.46,2.31,3,.4,1.13-.07.53Zm-2.13-.28-1.92-1.87-.53-.06-1.13.39-.14,1.07L96,171l2,1.34,1.67-.33.06-.53Z"/><path d="M92.39,157.68l.64-.41,6,5.14-.11.53-6.35-3.58-.4-.64Zm8.91,6.87-.52-.11-.93-.75.11-.52.75-.94.53.12.93.75-.11.52Z"/><path d="M103.62,154.2l.88-.81.38-1-.44-1.89-.93-2.07.69-.31.93,2.07.44,1.89-.76,2-1.76,1.63-2.89,0-2.32-1.45-1.12-1.57-.93-2.08-.25-2.38.57-1.5,2-2.13,1.19-.12.62,1.38-.38,1-1.5-.57-1.38.63-.38,1,1.05,3.26,2.63,2.14,1.5.57Z"/><path d="M107.22,146.87l-2.39-.05-2.1-2.92-.17-3.12,1.47-1.65,2.4.05,2.09,2.92.18,3.12-.5.95Zm-3-3.42,1.4,1.94,1.67.28.5-.95-.67-2.17-1.4-2-1.68-.27-.49.95Z"/><path d="M108,133l.88.61-.27-1.49.48-1.63,1-.57,2.06.78,1.59,2.4.24,3.43-1.22,1.76-1.63-.48,2.74,4.51,1.22-1.76.44.3-2.74,4-.44-.3.61-.88-5.18-9.46-.3.44.67,3.73-.74.13-.68-3.72.48-1.63Zm1.9,2,.71,1.8.44.3,1.18.18.61-.89-.4-2.23-1.15-2.1-1.63-.48-.17,1.19Z"/><path d="M112.79,123.37l-.4-.34-.47-1.11.35-.41,1.11-.46.41.35.46,1.1-.35.41Zm.23,3,.65-1.57,1.1-.47.41.35,2,5.93.35-.4-.29-3.78.75-.06.29,3.78-.29,1.16-.7.81-.75.06-.41-.35-2-5.93-.35.41.29,3.78-.76,0Z"/><path d="M122.07,121.6l-1.93,1.86-.37-.38,1.15-1.12.4-1.13-1.12-1.16-.77.75,0,2.27.72,2.29,1.51.78.77-.75,0-3h.76l0,3-.39,1.13-.77.75-1.14.36L119,126.1l-1.09-3.43.8-3,1.91-1.11,1.14.4.74.77Z"/><path d="M129.32,119.73l-.66-.85-.29,2.25-.85.66-1.17.23-1.73-1.37-.79-2.78.81-3.33,2-.89,1.08.53-1.67-4.8-1.27,1-.33-.43,3-2.29,2.4,11,.42-.33.49-3.76.75.1-.49,3.76-.52,1.08-.42.32ZM128,118l0-2.68-.32-.42-1.08-.52-.85.65-.29,2.26.46,2.35,1.4.94.43-.33Z"/><path d="M132.38,105.33l.74.16.6,7.89-.45.29-2-7,.16-.75Zm1.44,11.17-.29-.45-.13-1.19.45-.29,1.19-.13.29.45.13,1.19-.45.29Z"/><path d="M142.74,110.83l1.2,0,1-.44,1-1.63.81-2.13.7.27-.8,2.12-1,1.64-2,.88-2.39-.09-2.08-2-.61-2.66.31-1.91.81-2.13,1.51-1.85,1.46-.66,2.89-.13.93.76-.54,1.41-1,.44-.66-1.46-1.42-.54-1,.44-1.56,3.06.34,3.37.66,1.46Z"/><path d="M150.47,108.19l-1.66-1.73.58-3.55,2.08-2.33,2.2-.12,1.66,1.72-.57,3.55-2.08,2.33-1,.32Zm.26-4.57-.39,2.36,1,1.38,1-.32,1-2,.39-2.37-1-1.37-1,.31Z"/><path d="M160.83,98.87l.19,1.06.87-1.25,1.48-.81,1.16.34.9,2-.58,2.83-2.25,2.58-2.11.38-.81-1.48-1.26,5.12,2.11-.38.1.53-4.75.86-.09-.53,1.05-.19,3-10.35-.52.1-2.16,3.11-.63-.43,2.16-3.12,1.49-.81Zm-.05,2.74-.77,1.77.1.52.72,1,1-.19,1.3-1.86.67-2.3L163,99l-1,.72Z"/><path d="M169,97.81l1.56-.65,1.11.45,0,.54-2.8,5.58.53,0,2.47-2.87.58.49-2.47,2.87-1,.62-1.07.08-.57-.5,0-.53,2.8-5.58-.53,0-2.47,2.87-.58-.5Zm2-2.29,0-.54.45-1.11.53,0,1.11.46,0,.53-.45,1.11-.54,0Z"/><path d="M178.83,100.81l-2.68,0v-.54l1.61,0,1.08-.52,0-1.61-1.07,0-1.63,1.58-1.11,2.13.51,1.62h1.07l2.18-2.1.53.54L177.17,104l-1.08.52-1.07,0L174,104l-.51-2.15,1.66-3.19L177.82,97l2.13.57.52,1.08,0,1.07Z"/><path d="M185.3,104.61l.14-1.07-1.8,1.39-1.06-.14-1-.66-.26-2.2,1.41-2.52,2.93-1.78,2.06.8.39,1.13L190.32,95l-1.59-.2.07-.53,3.72.47-6.09,9.49.53.07,3-2.32.47.6-3,2.32-1.13.39-.53-.07Zm.28-2.13,1.86-1.92.07-.53-.39-1.14-1.07-.13-1.8,1.39-1.33,2,.32,1.66.54.07Z"/><path d="M190.74,105.5l.11-.53.75-.93.53.11.93.76-.11.52-.76.93-.52-.11Zm6.88-8.93.41.64-5.15,6-.53-.11,3.58-6.36.64-.4Z"/><polygon points="173.17 0 179.26 12.35 192.89 14.33 183.03 23.95 185.36 37.52 173.17 31.11 160.97 37.52 163.3 23.95 153.44 14.33 167.07 12.35 173.17 0"/></g></g></svg>