<svg xmlns="http://www.w3.org/2000/svg" viewBox="0 0 194 194"><defs><style>.cls-1{fill:#fff;}</style></defs><g id="Layer_2" data-name="Layer 2"><g id="Layer_1-2" data-name="Layer 1"><rect class="cls-1" x="8" y="8" width="178" height="178" rx="23.77"/><path d="M162.23,16A15.78,15.78,0,0,1,178,31.77V162.23A15.78,15.78,0,0,1,162.23,178H31.77A15.78,15.78,0,0,1,16,162.23V31.77A15.78,15.78,0,0,1,31.77,16H162.23m0-16H31.77A31.76,31.76,0,0,0,0,31.77V162.23A31.76,31.76,0,0,0,31.77,194H162.23A31.76,31.76,0,0,0,194,162.23V31.77A31.76,31.76,0,0,0,162.23,0Z"/><path d="M35.25,26.25h63.5V97H26.25V35.25A9,9,0,0,1,35.25,26.25Z"/><path d="M106.75,26.25h52a9,9,0,0,1,9,9V97h-61Z"/><path d="M26.25,104.75h42.5v63H35.25a9,9,0,0,1-9-9Z"/><path d="M76.75,104.75h91v54a9,9,0,0,1-9,9h-82Z"/></g></g></svg>