<svg xmlns="http://www.w3.org/2000/svg" viewBox="0 0 253.16 249.86"><g id="Layer_2" data-name="Layer 2"><g id="Layer_1-2" data-name="Layer 1"><path d="M252.88,114.27a12.63,12.63,0,0,1-.61-2.44,124.67,124.67,0,0,0-41.7-79.95A126.5,126.5,0,0,0,14.19,68.61a124,124,0,0,0,0,115.2c17.29,33.38,44.72,55.34,81.53,65.27a18,18,0,0,0,4.48.74c2.77,0,4.28-1.21,4.3-7.62q0-6.39,0-12.77v-5.66c0-5.65,0-8.76-1.22-10s-4.29-1.23-9.86-1.23c-14.59,0-30.91-12.31-35.64-26.87l-.93-2.89,2.47,1.77c1.3.93,2.55,1.86,3.78,2.77A91.5,91.5,0,0,0,71,192.78l1,.59c3.86,2.3,7.85,4.67,12,5.79a23.9,23.9,0,0,0,6.11.86c8.49,0,13.88-5.66,14.41-15.14.28-5-1.35-7.42-6-8.8a70.93,70.93,0,0,1-34.08-21.56c-8.59-9.86-13.14-21.36-13.17-33.27S55.75,97.82,64.34,88c3.19-3.63,3.75-6.29,2.21-10.51-3.18-8.74-2.11-17.25,3.27-26l.57-.94.88.66c1.85,1.39,3.7,2.71,5.48,4A125.89,125.89,0,0,1,88.4,64.26c2.18,2,3.89,2.81,5.9,2.81a10.49,10.49,0,0,0,3.28-.61,91.06,91.06,0,0,1,58.32.05,9.73,9.73,0,0,0,3.07.56c2,0,3.68-.82,6.06-2.94a132.33,132.33,0,0,1,11.86-9c1.78-1.25,3.58-2.52,5.39-3.84l.91-.67.55,1c5.22,9.41,6.08,18,2.69,27-1.24,3.32-.88,5.49,1.33,8,20.56,23.53,18.86,52.35-4.32,73.42-9.26,8.41-20.4,14.22-34.06,17.74-2.34.6-3.69,1.36-4.27,2.38s-.52,2.76.32,5.52c1.52,5,2.95,10.37,3.13,15.73.33,9.65.3,19.46.27,29,0,4,0,7.95,0,11.92,0,6.36,1.49,7.57,4.2,7.57a17.7,17.7,0,0,0,4.63-.82c47.32-13.56,78.13-44.52,91.58-92,1.21-4.28,2-8.77,2.79-13.11.37-2,.73-4.07,1.14-6.09V115.14C253.07,114.85,253,114.56,252.88,114.27Zm-33.32,84.37C203.52,219,181.09,234,158,239.57l-1.24.3v-55l1.25-.49,3.91-1.53c24.11-9.53,39.12-24.15,45.89-44.7,6-18.24,2.83-35.8-9.43-52.18-2.15-2.87-3.29-5.5-2.36-9.77,2.42-11.07.48-21.17-5.76-30-1.77-2.51-3.61-3.73-5.62-3.73a6.79,6.79,0,0,0-3.29,1c-3.4,1.92-6.8,4-10.09,6s-6.57,4-9.92,5.88a12.57,12.57,0,0,1-5.51,1.8,4.89,4.89,0,0,1-1.24-.16,104.66,104.66,0,0,0-56,0,4.92,4.92,0,0,1-1.3.17,10.8,10.8,0,0,1-5.07-1.56c-3.29-1.89-6.56-3.91-9.73-5.86-3.33-2-6.76-4.16-10.2-6.12a7.4,7.4,0,0,0-3.62-1.1c-2.19,0-4.15,1.35-6,4.13-5.93,8.87-7.71,18.9-5.42,30.7.4,2.07.24,5-1,6.64C45.63,97,41,112.84,43.13,128.56c2.29,16.77,12.08,32.08,27.57,43.1A133.49,133.49,0,0,0,87,181.1c2.65,1.38,5.4,2.8,8.11,4.31l.48.27,0,.55a4.83,4.83,0,0,1-1.23,3.69,4.69,4.69,0,0,1-3.46,1.41,6.58,6.58,0,0,1-2-.34,64.06,64.06,0,0,1-15.31-7.05L72,182.86c-7.42-5-14.42-9.77-23.11-11.47A99.38,99.38,0,0,0,37.19,170h-.54a4.11,4.11,0,0,0-4.49,3.76c-.34,2.33.74,3.7,4,5.06a20.56,20.56,0,0,1,7.62,4.95c3.06,3.43,5.8,7.21,8.45,10.86.63.88,1.27,1.75,1.91,2.62,8.9,12.14,19.05,24,36.34,24,1.29,0,2.63-.07,4-.2l1.1-.11v18.68l-1.23-.28c-21.62-5.05-43.92-19.82-59.67-39.51-13.2-16.51-28.34-44.39-25.54-83.48,2.05-28.45,15.17-55.31,37-75.64S95.87,8.9,124.84,8.54h1.46a118.59,118.59,0,0,1,79.63,30.72A116,116,0,0,1,244,115.17C247.46,154.08,232.62,182,219.56,198.64Z"/></g></g></svg>